<svg width="360" height="220" viewBox="0 0 360 220" fill="none" xmlns="http://www.w3.org/2000/svg">
    <mask id="34bck6bfea" style="mask-type:alpha" maskUnits="userSpaceOnUse" x="0" y="0" width="360" height="220">
        <path fill="#C4C4C4" d="M0 0h360v220H0z"/>
    </mask>
    <g mask="url(#34bck6bfea)" stroke="#E5E5E5" stroke-width="6">
        <rect x="50.945" y="3.674" width="264.004" height="144.002" rx="15" transform="rotate(15 50.945 3.674)" fill="#fff" stroke-linejoin="round"/>
        <path d="m174.927 74.166 86.934 23.294m-91.593-5.907 63.752 17.082m-76.176 29.283 17.387 4.658m-20.493 6.933 17.387 4.659m20.493-6.933L221.596 155m-60.646-28.674 17.387 4.659m17.387 4.659 52.161 13.976m-58.373 9.206 40.57 10.871" stroke-linecap="round"/>
        <path d="M130.475 77.784c-3.86 14.404-18.665 22.952-33.069 19.092-14.403-3.86-22.951-18.665-19.092-33.068 3.86-14.404 18.665-22.952 33.069-19.093 14.404 3.86 22.951 18.665 19.092 33.07zm-93.618 71.197.34-1.268 1.99-7.425c6.432-24.007 31.107-38.253 55.114-31.821 24.006 6.433 38.252 31.108 31.82 55.115l-2.33 8.693-86.934-23.294zM249.777 138.924l111.284-64.25 15 25.98-111.284 64.25z" fill="#fff"/>
        <path d="m264.778 164.905-2.098 1.211-32.553 4.691c-2.681.386-4.46-2.697-2.786-4.825l20.339-25.847 2.097-1.211 15.001 25.981z" fill="#fff"/>
    </g>
</svg>
