<svg width="356" height="350" viewBox="0 0 356 350" fill="none" xmlns="http://www.w3.org/2000/svg">
<g filter="url(#filter0_d_72_236)">
<path d="M313 198.5L167 53.5C161.326 47.8282 156.567 47.1589 150.971 51.9164V43.5C150.971 29.5474 143.461 13.9169 128.502 25.128C125.66 13.959 112.446 9.84393 103.744 17.1885C99.2587 5.53798 83.9989 3.05605 77.3354 13.8087C71.2364 9.14553 51.1309 -5.39845 53.8668 -10H0V39.6269C2.36359 39.0601 7.26963 36.1671 7.26963 36.1671C7.26963 36.1671 29 89 52 112C59.9993 118.227 69.5277 120.12 79.2354 119.872C81.4582 126.249 73.8977 126.509 73.8977 132.922C73.8977 136.568 76.9268 138.916 79.5 141.5L224 287C229.475 292.451 236.035 293.439 242 287.5L313.981 215.5C319.141 210.318 318.284 203.807 313 198.5Z" fill="white"/>
<path d="M230.666 253.984L203.668 226.986C203.038 226.355 202.183 226 201.292 225.999C200.4 225.998 199.544 226.351 198.913 226.981C198.282 227.611 197.927 228.466 197.926 229.357C197.925 230.249 198.278 231.104 198.908 231.736L225.907 258.734C226.542 259.336 227.387 259.666 228.263 259.654C229.138 259.642 229.974 259.289 230.593 258.67C231.211 258.051 231.564 257.215 231.576 256.34C231.588 255.465 231.258 254.62 230.656 253.984H230.666ZM192.059 215.377L180.469 203.787C179.834 203.186 178.989 202.855 178.113 202.867C177.238 202.879 176.402 203.232 175.783 203.851C175.164 204.47 174.811 205.306 174.8 206.181C174.788 207.056 175.118 207.902 175.72 208.537L187.309 220.126C187.944 220.728 188.79 221.058 189.665 221.046C190.54 221.034 191.376 220.682 191.995 220.063C192.614 219.444 192.967 218.608 192.979 217.733C192.991 216.857 192.66 216.012 192.059 215.377ZM230.666 238.545L211.357 219.226C210.726 218.597 209.871 218.243 208.979 218.244C208.087 218.245 207.233 218.6 206.603 219.231C205.973 219.863 205.62 220.718 205.621 221.61C205.621 222.501 205.977 223.356 206.608 223.986L225.917 243.295C226.552 243.897 227.397 244.227 228.273 244.215C229.148 244.203 229.984 243.85 230.603 243.231C231.221 242.612 231.574 241.776 231.586 240.901C231.598 240.026 231.268 239.181 230.666 238.545ZM199.778 207.647L188.189 196.048C187.558 195.418 186.702 195.065 185.81 195.066C184.919 195.066 184.064 195.422 183.434 196.053C182.804 196.684 182.451 197.54 182.452 198.431C182.453 199.323 182.808 200.178 183.439 200.808L194.988 212.387C195.618 213.018 196.473 213.373 197.365 213.374C198.256 213.375 199.112 213.022 199.743 212.392C200.374 211.762 200.729 210.907 200.73 210.015C200.731 209.124 200.378 208.268 199.748 207.637L199.778 207.647ZM253.845 246.255L219.087 211.507C218.452 210.905 217.606 210.575 216.731 210.587C215.856 210.599 215.02 210.952 214.401 211.571C213.782 212.189 213.429 213.025 213.417 213.901C213.405 214.776 213.735 215.621 214.337 216.257L249.085 250.985C249.392 251.323 249.764 251.596 250.179 251.786C250.594 251.977 251.043 252.081 251.5 252.092C251.956 252.103 252.41 252.022 252.834 251.852C253.258 251.683 253.644 251.429 253.966 251.106C254.289 250.783 254.543 250.398 254.713 249.974C254.882 249.55 254.964 249.096 254.952 248.639C254.941 248.183 254.837 247.733 254.647 247.318C254.456 246.903 254.184 246.531 253.845 246.225V246.255ZM207.498 199.928L195.918 188.348C195.283 187.746 194.438 187.416 193.562 187.428C192.687 187.44 191.851 187.793 191.232 188.412C190.613 189.031 190.261 189.867 190.249 190.742C190.237 191.617 190.567 192.462 191.169 193.098L202.748 204.677C203.383 205.279 204.229 205.609 205.104 205.597C205.979 205.585 206.815 205.232 207.434 204.614C208.053 203.995 208.406 203.159 208.418 202.283C208.43 201.408 208.1 200.563 207.498 199.928ZM261.555 207.647L219.087 165.17C218.452 164.568 217.606 164.238 216.731 164.25C215.856 164.261 215.02 164.614 214.401 165.233C213.782 165.852 213.429 166.688 213.417 167.563C213.405 168.439 213.735 169.284 214.337 169.919L256.805 212.387C257.44 212.989 258.286 213.319 259.161 213.307C260.036 213.295 260.872 212.942 261.491 212.323C262.11 211.704 262.463 210.868 262.475 209.993C262.486 209.118 262.156 208.273 261.555 207.637V207.647ZM288.553 211.517L230.636 153.59C230.001 152.988 229.156 152.658 228.28 152.67C227.405 152.682 226.569 153.035 225.95 153.654C225.331 154.273 224.978 155.109 224.967 155.984C224.955 156.859 225.285 157.705 225.887 158.34L283.803 216.267C284.439 216.868 285.284 217.199 286.159 217.187C287.034 217.175 287.87 216.822 288.489 216.203C289.108 215.584 289.461 214.748 289.473 213.873C289.485 212.998 289.155 212.152 288.553 211.517Z" fill="#444444"/>
<path d="M196.338 108.563C192.902 105.127 188.525 102.788 183.759 101.84C178.993 100.893 174.053 101.379 169.564 103.239C165.075 105.099 161.238 108.248 158.539 112.288C155.839 116.328 154.399 121.078 154.399 125.937C154.399 130.796 155.839 135.546 158.539 139.586C161.238 143.626 165.075 146.775 169.564 148.635C174.053 150.495 178.993 150.981 183.759 150.034C188.525 149.086 192.902 146.746 196.338 143.311C198.621 141.03 200.432 138.322 201.668 135.341C202.904 132.359 203.54 129.164 203.54 125.937C203.54 122.71 202.904 119.514 201.668 116.533C200.432 113.552 198.621 110.844 196.338 108.563ZM191.589 138.561C189.092 141.057 185.912 142.756 182.45 143.444C178.987 144.132 175.399 143.778 172.138 142.426C168.877 141.075 166.09 138.787 164.129 135.852C162.168 132.917 161.122 129.467 161.122 125.937C161.122 122.407 162.168 118.957 164.129 116.022C166.09 113.086 168.877 110.799 172.138 109.448C175.399 108.096 178.987 107.742 182.45 108.43C185.912 109.118 189.092 110.817 191.589 113.313C194.931 116.664 196.807 121.204 196.807 125.937C196.807 130.67 194.931 135.21 191.589 138.561ZM153.871 150.99C146.187 143.333 135.781 139.034 124.933 139.034C114.085 139.034 103.679 143.333 95.9943 150.99L94.9944 152.04L90.9946 155.99L90.1547 156.83L148.081 214.757L152.831 210.017L153.831 208.967C161.524 201.284 165.85 190.86 165.857 179.987C165.865 169.114 161.553 158.684 153.871 150.99ZM149.121 204.167L148.121 205.167L99.6641 156.82L100.664 155.82C107.086 149.4 115.795 145.793 124.876 145.794C133.957 145.795 142.666 149.403 149.086 155.825C155.507 162.247 159.113 170.956 159.112 180.037C159.111 189.118 155.503 197.827 149.081 204.247L149.121 204.167Z" fill="#444444"/>
<path d="M126.842 56.806L130.122 35.3673C130.122 35.2473 130.122 35.1273 130.122 35.0173C130.228 32.8815 131.123 30.8609 132.634 29.3474C134.144 27.8338 136.163 26.9352 138.299 26.8256C140.435 26.716 142.535 27.4033 144.193 28.7542C145.85 30.1052 146.948 32.0235 147.271 34.1374C147.594 36.5866 147.728 39.0571 147.671 41.5269C147.646 41.9842 147.715 42.4418 147.873 42.8718C148.031 43.3017 148.274 43.6949 148.589 44.0275C148.904 44.36 149.284 44.6249 149.704 44.8059C150.125 44.9869 150.578 45.0802 151.036 45.0802C151.494 45.0802 151.947 44.9869 152.368 44.8059C152.789 44.6249 153.168 44.36 153.483 44.0275C153.798 43.6949 154.042 43.3017 154.199 42.8718C154.357 42.4418 154.426 41.9842 154.401 41.5269C154.453 38.7021 154.289 35.8774 153.911 33.0774C153.517 30.4524 152.449 27.9744 150.811 25.8858C149.172 23.7971 147.02 22.1694 144.565 21.1617C142.109 20.154 139.434 19.8009 136.8 20.1368C134.167 20.4727 131.666 21.4861 129.542 23.078C128.901 20.5591 127.631 18.2443 125.85 16.351C124.069 14.4577 121.836 13.0481 119.361 12.2544C116.886 11.4607 114.25 11.3089 111.7 11.8134C109.15 12.3179 106.77 13.4621 104.784 15.1385C102.274 8.61889 96.7843 4.50914 90.3746 4.50914C87.7703 4.51291 85.2099 5.18058 82.9354 6.44907C80.6609 7.71756 78.7473 9.54499 77.3754 11.7587C67.906 4.59913 57.2766 -4.36033 55.4867 -5.49027C53.3184 -6.85696 50.8102 -7.58795 48.2471 -7.60014C46.3647 -7.59905 44.5032 -7.20544 42.7815 -6.44443C41.0598 -5.68343 39.5156 -4.57176 38.2477 -3.1804L9.34945 25.6379C7.83495 27.3056 6.7602 29.3247 6.22244 31.5124C5.68469 33.7001 5.70091 35.9873 6.26963 38.1671L6.41962 38.7171C12.8992 59.8859 32.5381 92.2639 40.8376 105.713C43.1023 109.367 46.1231 112.493 49.6968 114.882C53.2705 117.271 57.3144 118.867 61.5564 119.562L77.2354 121.872L75.9155 123.192L80.6852 127.932L94.7944 113.773L108.994 99.6235L126.992 111.533L127.122 111.633C130.68 113.738 134.857 114.549 138.944 113.927C143.031 113.305 146.778 111.289 149.548 108.221C152.319 105.152 153.943 101.22 154.146 97.0911C154.349 92.9619 153.118 88.8895 150.661 85.5643C143.25 75.5524 135.299 65.952 126.842 56.806ZM106.044 26.8778C106.124 26.3078 106.204 25.7579 106.254 25.2279C106.524 23.9135 107.091 22.6786 107.914 21.6181C108.952 20.2974 110.354 19.3086 111.946 18.773C113.539 18.2374 115.253 18.1784 116.878 18.6031C118.504 19.0278 119.97 19.9178 121.097 21.1639C122.224 22.41 122.963 23.958 123.223 25.6179C123.532 27.911 123.673 30.2238 123.643 32.5375V32.8475C123.536 33.3986 123.469 33.9567 123.443 34.5174L120.993 50.6064C115.483 44.8967 110.063 39.6071 104.834 34.8273L106.044 26.8778ZM85.9149 12.5287C87.2673 11.7053 88.8213 11.2726 90.4046 11.2787C95.2144 11.2787 98.0542 15.4385 99.0141 18.9983C99.5234 20.6747 99.7233 22.4299 99.6041 24.178C99.4941 24.7979 99.4241 25.4079 99.3741 26.0179L98.8541 29.4277C93.0645 24.328 87.6248 19.8182 82.7351 15.9985C83.4491 14.5668 84.5509 13.3646 85.9149 12.5287ZM146.991 99.2435C146.524 100.884 145.689 102.397 144.548 103.665C143.408 104.934 141.993 105.926 140.412 106.566C138.83 107.205 137.124 107.475 135.422 107.355C133.72 107.235 132.068 106.728 130.592 105.873L111.193 93.0439H111.143C110.983 92.9539 94.8744 83.0445 83.1451 73.515C82.803 73.236 82.4093 73.0271 81.9865 72.9002C81.5637 72.7733 81.12 72.7309 80.6808 72.7755C80.2416 72.82 79.8155 72.9507 79.4268 73.1599C79.0381 73.3692 78.6944 73.6529 78.4153 73.995C78.1363 74.3371 77.9274 74.7308 77.8005 75.1536C77.6736 75.5764 77.6312 76.0201 77.6758 76.4593C77.7203 76.8985 77.851 77.3246 78.0602 77.7133C78.2695 78.102 78.5532 78.4457 78.8953 78.7247C86.6656 84.9048 94.7599 90.666 103.144 95.9837L83.1451 115.983C83.053 115.954 82.9595 115.931 82.8651 115.913L62.6163 112.913C59.3386 112.361 56.2163 111.117 53.4574 109.264C50.6986 107.41 48.3667 104.989 46.6172 102.163C38.4277 88.9941 19.1089 57.176 12.8492 36.7472C12.5002 35.6158 12.4523 34.413 12.71 33.2574C12.9678 32.1018 13.5224 31.0334 14.3191 30.1576L43.1974 1.33933C44.2785 0.155442 45.742 -0.609746 47.3311 -0.821868C48.9202 -1.03399 50.5332 -0.679484 51.8869 0.179397C57.0466 3.4492 107.404 38.2571 145.241 89.5541C146.251 90.9295 146.934 92.5172 147.237 94.1964C147.54 95.8755 147.456 97.6018 146.991 99.2435ZM158.911 45.8467C156.344 45.8388 153.827 46.5563 151.651 47.9166C151.479 48.0138 151.312 48.1206 151.151 48.2365C150.805 48.4586 150.471 48.699 150.151 48.9565C149.791 49.2565 149.431 49.5765 149.091 49.9564L141.312 57.736C140.682 58.3672 140.328 59.2227 140.329 60.1144C140.33 61.0061 140.685 61.8609 141.317 62.4907C141.948 63.1206 142.803 63.4739 143.695 63.4729C144.587 63.472 145.441 63.1169 146.071 62.4857L153.841 54.7162C154.021 54.5462 154.201 54.3762 154.371 54.2362C154.541 54.0962 154.701 53.9862 154.871 53.8662C156.043 53.0438 157.439 52.6006 158.871 52.5963C160.744 52.5954 162.541 53.336 163.87 54.6562L168.62 49.9064C166.056 47.3221 162.571 45.8618 158.931 45.8467H158.911Z" fill="#444444"/>
<path d="M315.981 197.278L168.6 49.9164C166.41 47.7352 163.551 46.3525 160.481 45.9899C157.412 45.6272 154.309 46.3057 151.671 47.9166C151.498 48.0138 151.332 48.1206 151.171 48.2365C150.825 48.4586 150.491 48.699 150.171 48.9565C149.811 49.2565 149.451 49.5765 149.111 49.9564L153.861 54.7162C154.041 54.5462 154.221 54.3762 154.391 54.2362C154.561 54.0962 154.721 53.9862 154.891 53.8662C156.246 52.952 157.876 52.5369 159.503 52.6919C161.13 52.8469 162.653 53.5625 163.81 54.7162L311.202 201.987C311.859 202.643 312.381 203.422 312.738 204.28C313.094 205.138 313.277 206.058 313.277 206.987C313.277 207.916 313.094 208.836 312.738 209.694C312.381 210.552 311.859 211.331 311.202 211.987L237.986 285.202C237.33 285.86 236.551 286.382 235.693 286.739C234.835 287.095 233.915 287.278 232.986 287.278C232.057 287.278 231.137 287.095 230.279 286.739C229.422 286.382 228.642 285.86 227.986 285.202L148.081 205.227L80.6752 137.841C80.0176 137.19 79.4956 136.416 79.1394 135.562C78.7831 134.708 78.5997 133.792 78.5997 132.867C78.5997 131.941 78.7831 131.025 79.1394 130.171C79.4956 129.317 80.0176 128.543 80.6752 127.892L75.9155 123.142C73.3423 125.726 71.8977 129.225 71.8977 132.872C71.8977 136.518 73.3423 140.017 75.9155 142.601L223.277 289.982C225.861 292.555 229.359 294 233.006 294C236.653 294 240.151 292.555 242.736 289.982L315.981 216.737C318.554 214.152 319.999 210.654 319.999 207.007C319.999 203.36 318.554 199.862 315.981 197.278Z" fill="#444444"/>
<path d="M44.9973 -10L1.6999 33.2474C1.20178 33.7473 0.62814 34.1657 0 34.4874L0 41.6269C2.36359 41.0601 4.52992 39.8646 6.26963 38.1671C6.33643 38.1182 6.39689 38.0611 6.44962 37.9972L51.6269 -7.16017L51.7869 -7.33016C52.5892 -8.12954 53.288 -9.0265 53.8668 -10H44.9973Z" fill="#444444"/>
</g>
<defs>
<filter id="filter0_d_72_236" x="-28" y="-18" width="383.999" height="368" filterUnits="userSpaceOnUse" color-interpolation-filters="sRGB">
<feFlood flood-opacity="0" result="BackgroundImageFix"/>
<feColorMatrix in="SourceAlpha" type="matrix" values="0 0 0 0 0 0 0 0 0 0 0 0 0 0 0 0 0 0 127 0" result="hardAlpha"/>
<feOffset dx="4" dy="24"/>
<feGaussianBlur stdDeviation="16"/>
<feComposite in2="hardAlpha" operator="out"/>
<feColorMatrix type="matrix" values="0 0 0 0 0 0 0 0 0 0 0 0 0 0 0 0 0 0 0.2 0"/>
<feBlend mode="normal" in2="BackgroundImageFix" result="effect1_dropShadow_72_236"/>
<feBlend mode="normal" in="SourceGraphic" in2="effect1_dropShadow_72_236" result="shape"/>
</filter>
</defs>
</svg>
