<?xml version="1.0" encoding="UTF-8" standalone="no"?>
<svg
   xmlns:dc="http://purl.org/dc/elements/1.1/"
   xmlns:cc="http://creativecommons.org/ns#"
   xmlns:rdf="http://www.w3.org/1999/02/22-rdf-syntax-ns#"
   xmlns:svg="http://www.w3.org/2000/svg"
   xmlns="http://www.w3.org/2000/svg"
   xmlns:sodipodi="http://sodipodi.sourceforge.net/DTD/sodipodi-0.dtd"
   xmlns:inkscape="http://www.inkscape.org/namespaces/inkscape"
   version="1.1"
   id="svg2"
   xml:space="preserve"
   width="256"
   height="128"
   viewBox="0 0 256 128"
   sodipodi:docname="abl.ai"><metadata
     id="metadata8"><rdf:RDF><cc:Work
         rdf:about=""><dc:format>image/svg+xml</dc:format><dc:type
           rdf:resource="http://purl.org/dc/dcmitype/StillImage" /></cc:Work></rdf:RDF></metadata><defs
     id="defs6"><clipPath
       clipPathUnits="userSpaceOnUse"
       id="clipPath22"><path
         d="M 0,96 H 192 V 0 H 0 Z"
         id="path20" /></clipPath></defs><sodipodi:namedview
     pagecolor="#ffffff"
     bordercolor="#666666"
     borderopacity="1"
     objecttolerance="10"
     gridtolerance="10"
     guidetolerance="10"
     inkscape:pageopacity="0"
     inkscape:pageshadow="2"
     inkscape:window-width="640"
     inkscape:window-height="480"
     id="namedview4" /><g
     id="g10"
     inkscape:groupmode="layer"
     inkscape:label="abl"
     transform="matrix(1.3333333,0,0,-1.3333333,0,128)"><g
       id="g12"
       transform="translate(133.0119,77.283)"><path
         d="m 0,0 v -58.563 h 58.988 l -7.487,10.33 H 12.903 l 0,48.233 z"
         style="fill:#ee2d23;fill-opacity:1;fill-rule:nonzero;stroke:none"
         id="path14" /></g><g
       id="g16"><g
         id="g18"
         clip-path="url(#clipPath22)"><g
           id="g24"
           transform="translate(42.5553,77.2783)"><path
             d="m 0,0 c -0.68,-0.935 -41.88,-57.635 -42.555,-58.559 h 14.406 l 11.562,15.917 H 2.44 V -32.44 H -9.172 l 15.681,21.585 v -47.704 h 12.892 l 0,58.559 z"
             style="fill:#ee2d23;fill-opacity:1;fill-rule:nonzero;stroke:none"
             id="path26" /></g><g
           id="g28"
           transform="translate(122.5718,46.3553)"><path
             d="m 0,0 c -1.537,2.32 -3.58,4.146 -6.076,5.446 2.791,2.498 4.201,5.923 4.201,10.211 0,4.601 -1.643,8.349 -4.863,11.122 -3.189,2.751 -7.465,4.144 -12.735,4.144 h -31.088 v -58.562 h 32.331 c 6.316,0 11.439,1.64 15.225,4.873 3.813,3.268 5.758,7.658 5.758,13.059 C 2.753,-6.251 1.913,-2.913 0,0 m -37.674,20.593 h 15.761 0.009 c 2.238,0 4.171,-0.599 5.417,-1.688 1.24,-1.082 1.834,-2.52 1.834,-4.412 0,-1.826 -0.569,-3.249 -1.757,-4.337 -1.193,-1.089 -2.866,-1.649 -4.976,-1.649 h -16.288 z m 24.685,-35.79 c -1.889,-1.593 -4.554,-2.101 -7.047,-2.101 h -17.638 v 15.61 h 17.306 c 3.07,0 5.518,-0.747 7.276,-2.208 1.698,-1.418 2.553,-3.35 2.553,-5.735 0,-2.228 -0.708,-4.132 -2.45,-5.566"
             style="fill:#ee2d23;fill-opacity:1;fill-rule:nonzero;stroke:none"
             id="path30" /></g></g></g></g></svg>
