<?xml version="1.0" encoding="UTF-8" standalone="no"?>
<svg
   xmlns:dc="http://purl.org/dc/elements/1.1/"
   xmlns:cc="http://creativecommons.org/ns#"
   xmlns:rdf="http://www.w3.org/1999/02/22-rdf-syntax-ns#"
   xmlns:svg="http://www.w3.org/2000/svg"
   xmlns="http://www.w3.org/2000/svg"
   xmlns:sodipodi="http://sodipodi.sourceforge.net/DTD/sodipodi-0.dtd"
   xmlns:inkscape="http://www.inkscape.org/namespaces/inkscape"
   version="1.1"
   id="svg2"
   xml:space="preserve"
   width="256"
   height="128"
   viewBox="0 0 256 128"
   sodipodi:docname="aia.ai"><metadata
     id="metadata8"><rdf:RDF><cc:Work
         rdf:about=""><dc:format>image/svg+xml</dc:format><dc:type
           rdf:resource="http://purl.org/dc/dcmitype/StillImage" /></cc:Work></rdf:RDF></metadata><defs
     id="defs6"><clipPath
       clipPathUnits="userSpaceOnUse"
       id="clipPath18"><path
         d="M 0,96 H 192 V 0 H 0 Z"
         id="path16" /></clipPath></defs><sodipodi:namedview
     pagecolor="#ffffff"
     bordercolor="#666666"
     borderopacity="1"
     objecttolerance="10"
     gridtolerance="10"
     guidetolerance="10"
     inkscape:pageopacity="0"
     inkscape:pageshadow="2"
     inkscape:window-width="640"
     inkscape:window-height="480"
     id="namedview4" /><g
     id="g10"
     inkscape:groupmode="layer"
     inkscape:label="aia"
     transform="matrix(1.3333333,0,0,-1.3333333,0,128)"><g
       id="g12"><g
         id="g14"
         clip-path="url(#clipPath18)"><g
           id="g20"
           transform="translate(110.5768,40.1243)"><path
             d="m 0,0 c -1.042,2.019 -4.692,0.445 -6.545,2.151 -0.509,0.467 -1.592,1.432 -2.151,3.127 -0.509,1.602 -1.304,2.869 -2.66,3.913 -2.372,1.848 -7.993,4.667 -7.612,8.46 0.184,1.694 2.218,2.06 3.064,3.286 0.509,0.741 0.571,1.718 1.187,2.397 0.661,0.752 -0.273,0.77 -0.926,0.81 -1.437,0.051 -2.489,-1.489 -3.664,-2.117 -1.93,-1.016 -3.651,-2.458 -5.827,-2.943 -0.641,-0.132 -3.885,-1.136 -1.76,-1.655 1.448,-0.365 3.063,-0.274 4.261,-1.3 1.554,-1.33 2.803,-3.042 4.343,-4.353 0.795,-0.679 1.549,-1.324 2.191,-2.151 0.74,-0.959 0.652,-2.049 1.196,-3.041 0.523,-0.965 1.566,-0.08 2.217,-0.611 2.11,-1.763 -0.837,-2.635 -1.591,-3.445 -0.99,-1.068 -1.185,-1.786 -3.022,-2.528 -0.808,-0.308 -6.012,-0.936 -6.648,-1.437 -0.642,-0.481 -0.314,-0.622 -0.144,-0.805 0.155,-0.183 1.067,-0.479 1.458,-0.525 2.192,-0.206 8.942,-1.483 10.328,0.251 0.939,1.181 2.345,1.318 3.896,0.885 1.094,-0.297 3.27,-0.063 5.133,0.695 C -2.167,-0.48 0.831,-0.445 0,0 m -1.238,-8.438 v 0.001 c 2.099,1.151 4.195,1.1 6.57,-0.634 3.312,-2.425 19.216,-15.946 19.216,-15.946 l -4.591,-3.896 c 0,0 -2.556,2.224 -5.682,4.963 -1.54,-1.341 -3.274,-2.579 -5.19,-3.651 -1.939,-1.067 -3.922,-1.888 -5.877,-2.47 0.661,-4.096 1.186,-7.446 1.186,-7.446 l -5.739,-1.826 c 0,0 -3.008,20.647 -3.312,24.744 -0.194,2.944 0.873,4.757 2.962,5.916 0.011,0 0.001,-0.012 0,-0.011 0,0.011 0.094,0.062 0.221,0.131 0.129,0.063 0.221,0.125 0.236,0.125 m 7.707,-14.48 c -1.506,-0.821 -2.819,-1.305 -4.148,-1.603 -0.719,4.547 -1.357,8.656 -1.448,9.175 -0.17,1.203 -0.093,1.682 0.338,1.928 0.43,0.25 0.888,0.052 1.827,-0.724 0.391,-0.355 3.532,-3.076 6.987,-6.099 -0.939,-0.982 -2.074,-1.838 -3.556,-2.677 m -24.211,12.227 h 5.929 v -29.433 h -5.929 z m -10.303,1.996 v 10e-4 c 2.09,-1.159 3.158,-2.973 2.937,-5.905 -0.302,-4.097 -3.336,-24.744 -3.336,-24.744 l -5.74,1.826 c 0,0 0.55,3.349 1.202,7.469 -1.94,0.575 -3.911,1.397 -5.843,2.447 -1.939,1.083 -3.674,2.322 -5.21,3.68 -3.13,-2.739 -5.687,-4.97 -5.687,-4.97 l -4.589,3.914 c 0,0 15.933,13.492 19.244,15.906 2.383,1.745 4.472,1.796 6.597,0.634 0,0 -0.016,-0.001 -0.025,0 0.025,0 0.102,-0.064 0.219,-0.126 0.128,-0.068 0.221,-0.12 0.231,-0.132 m -2.575,-6.652 c -0.067,-0.519 -0.735,-4.61 -1.464,-9.162 -1.341,0.302 -2.659,0.788 -4.157,1.609 -1.485,0.826 -2.609,1.7 -3.548,2.665 3.48,3.022 6.611,5.75 7.002,6.093 0.924,0.791 1.396,0.975 1.826,0.741 0.444,-0.245 0.52,-0.741 0.34,-1.945 z m -18.23,0.029 c -3.244,4.404 -5.656,9.488 -6.959,14.964 0.379,-0.074 0.835,-0.193 1.589,-0.438 2.491,-0.812 7.183,-2.363 10.576,-0.789 2.152,1.011 5.892,1.832 7.335,2.392 1.345,0.557 4.241,-0.708 0.822,1.522 v 0.018 c -0.051,0.023 -0.089,0.051 -0.18,0.085 -0.102,0.04 -0.221,0.068 -0.339,0.092 -0.338,0.09 -3.066,-0.469 -3.666,-0.377 -0.179,0.051 -0.363,0.114 -0.533,0.223 -1.484,0.798 4.809,5.71 5.02,6.937 -1.801,-0.189 -3.3,-1.329 -4.917,-2.037 -1.901,-0.833 -3.974,-0.861 -6.022,-0.873 -2.33,-0.011 -4.132,-1.814 -6.176,-2.647 -1.083,-0.445 -2.844,-0.844 -4.019,-1.644 -0.087,0.519 -0.169,1.016 -0.231,1.541 0.025,0.884 0.128,1.951 0.35,3.167 0.456,2.669 1.54,4.718 3.937,7.929 0,0 2.36,2.813 3.716,3.709 0.535,0.353 1.109,0.89 1.668,0.542 0.601,-0.383 -0.158,-2.693 1.432,-3.081 0.966,-0.24 0.119,-1.826 0.459,-2.749 0.353,-1.005 -3.975,-4.787 -2.84,-5.238 0.637,-0.263 3.507,1.193 5.03,1.665 1.341,0.446 2.763,0.452 4.236,1.838 1.515,1.421 3.024,2.202 3.024,2.202 1.227,1.027 2.427,2.1 3.649,3.143 1.176,1.027 2.31,2.112 3.455,3.178 0.719,0.69 3.977,2.482 4.266,3.104 1.509,3.269 5.461,5.163 8.391,7.262 0.552,0.377 1.136,1.158 1.464,1.616 0.34,0.472 0.687,1.151 0.883,1.368 0.381,0.433 0.472,0.748 0.873,0.953 0.17,0.074 0.838,0.075 1.124,-0.223 0.966,-1.033 2.253,-1.905 2.304,-2.972 0.083,-1.655 4.693,-3.092 5.75,-4.375 0.417,-0.526 0.679,-1.033 0.847,-1.518 -0.795,0.33 -1.575,0.701 -2.293,1.209 -0.468,0.342 -1.552,0.257 -2.111,0.365 -1.592,0.291 -1.226,-0.467 -0.328,-1.38 0.903,-0.936 1.945,-1.757 2.777,-2.773 0.94,-1.187 0.863,-2.128 1.124,-3.537 0.272,-1.507 1.17,-2.812 1.889,-4.113 0.755,-1.347 0.703,-2.779 1.109,-4.199 C 0.077,9.311 1.303,8.107 2.304,7.069 3.182,6.15 5.133,3.926 6.215,4.405 7.351,4.917 8.773,3.52 9.188,3.896 9.635,4.273 8.054,6.099 8.654,6.675 c 0.616,0.558 3.22,-0.314 3.769,-1.997 0.611,-1.94 0.549,-2.11 0.456,-3.531 -0.077,-0.914 -0.441,-1.694 -1.068,-2.334 -0.77,-0.781 -2.572,-2.07 -2.217,-3.4 1.642,0.896 3.439,0.992 5.292,0.907 1.787,-0.051 3.101,0.696 4.301,1.986 0.535,0.564 2.059,2.333 2.933,1.443 0.508,-0.531 -1.018,-2.721 0.652,-2.265 1.134,0.302 2.139,1.158 3.14,1.724 0.279,0.135 0.539,0.312 0.745,0.467 -1.314,-5.58 -3.779,-10.731 -7.13,-15.198 l 1.236,-1.021 c 5.945,7.615 9.492,17.183 9.492,27.584 0,24.759 -20.06,44.836 -44.828,44.836 -24.769,0 -44.836,-20.077 -44.836,-44.836 0,-10.31 3.485,-19.803 9.337,-27.373 z m 34.277,66.236 c 22.226,0 40.434,-16.864 42.211,-38.315 -0.709,-0.896 -1.669,-1.381 -2.752,-1.615 -3.767,-0.782 -4.929,2.464 -8.059,4.535 -3.142,2.077 -6.032,2.87 -8.943,5.78 -1.17,1.186 -1.457,3.166 -2.633,4.393 -1.55,1.625 -2.499,2.099 -4.599,2.904 -3.692,1.448 -6.859,2.505 -9.923,5.049 -0.518,0.427 -1.746,0.987 -2.881,1.209 -0.482,0.079 -0.703,0.017 -0.872,-0.182 -0.457,-0.572 -0.862,-1.29 -1.263,-1.952 -0.132,-0.194 -0.508,-0.736 -0.81,-1.015 -0.602,-0.543 -1.341,-1.221 -1.906,-1.558 -3.074,-1.878 -7.14,-3.491 -8.901,-6.634 -0.338,-0.617 -3.689,-2.151 -4.486,-2.773 -1.221,-1.01 -2.423,-1.997 -3.676,-2.938 -1.169,-0.856 -2.802,-2.232 -4.024,-3.144 -0.652,0.25 -1.304,0.456 -1.92,0.593 -1.458,0.285 -2.67,1.381 -3.912,2.163 -1.601,0.986 -1.474,1.107 -1.981,1.391 -0.426,0.246 -0.652,0.383 -0.832,0.468 -1.175,0.696 -1.237,0 -2.921,-1.026 -1.421,-0.873 -3.024,-2.311 -4.224,-3.447 -0.976,-0.878 -1.956,-1.842 -2.947,-2.852 1.438,21.759 19.806,38.966 42.254,38.966"
             style="fill:#c92649;fill-opacity:1;fill-rule:evenodd;stroke:none"
             id="path22" /></g></g></g></g></svg>
