<?xml version="1.0" encoding="UTF-8" standalone="no"?>
<svg
   xmlns:dc="http://purl.org/dc/elements/1.1/"
   xmlns:cc="http://creativecommons.org/ns#"
   xmlns:rdf="http://www.w3.org/1999/02/22-rdf-syntax-ns#"
   xmlns:svg="http://www.w3.org/2000/svg"
   xmlns="http://www.w3.org/2000/svg"
   xmlns:sodipodi="http://sodipodi.sourceforge.net/DTD/sodipodi-0.dtd"
   xmlns:inkscape="http://www.inkscape.org/namespaces/inkscape"
   version="1.1"
   id="svg2"
   xml:space="preserve"
   width="341.33334"
   height="170.66667"
   viewBox="0 0 341.33334 170.66667"
   sodipodi:docname="에이아이지.ai"><metadata
     id="metadata8"><rdf:RDF><cc:Work
         rdf:about=""><dc:format>image/svg+xml</dc:format><dc:type
           rdf:resource="http://purl.org/dc/dcmitype/StillImage" /></cc:Work></rdf:RDF></metadata><defs
     id="defs6"><clipPath
       clipPathUnits="userSpaceOnUse"
       id="clipPath18"><path
         d="M 0,128 H 256 V 0 H 0 Z"
         id="path16" /></clipPath></defs><sodipodi:namedview
     pagecolor="#ffffff"
     bordercolor="#666666"
     borderopacity="1"
     objecttolerance="10"
     gridtolerance="10"
     guidetolerance="10"
     inkscape:pageopacity="0"
     inkscape:pageshadow="2"
     inkscape:window-width="640"
     inkscape:window-height="480"
     id="namedview4" /><g
     id="g10"
     inkscape:groupmode="layer"
     inkscape:label="에이아이지"
     transform="matrix(1.3333333,0,0,-1.3333333,0,170.66667)"><g
       id="g12"><g
         id="g14"
         clip-path="url(#clipPath18)"><path
           d="M 19.733,9.6 H 236.8 V 117.867 H 19.733 Z M 10.133,128 H 161.067 246.4 V 0 H 9.6 c 0.533,42.667 0.533,85.333 0.533,128"
           style="fill:#273772;fill-opacity:1;fill-rule:nonzero;stroke:none"
           id="path20" /><g
           id="g22"
           transform="translate(176,100.8)"><path
             d="M 0,0 C 6.933,1.067 13.867,0 20.267,-2.133 26.133,-4.8 30.933,-9.067 35.2,-13.867 c -2.667,-2.666 -5.333,-4.8 -8,-7.466 -3.2,4.266 -6.933,7.466 -11.2,9.6 -4.8,2.133 -10.133,2.666 -15.467,1.6 -9.066,-1.6 -17.066,-9.067 -20.266,-17.6 -1.6,-4.8 -1.6,-9.6 -0.534,-14.4 1.067,-4.8 3.2,-9.067 6.4,-12.8 3.734,-3.734 8,-6.934 13.334,-8 4.8,-1.067 9.6,-1.067 13.866,1.066 3.734,1.6 6.934,3.734 9.067,6.934 2.133,2.666 3.733,6.4 3.733,9.6 H 8 V -35.2 h 29.867 c 0,-5.333 0,-10.133 -1.6,-15.467 C 35.2,-55.467 32,-60.267 28.8,-64 25.6,-67.2 21.867,-70.4 17.067,-72 11.733,-74.133 5.867,-74.667 0,-74.133 c -5.867,0.533 -11.733,2.666 -16.533,5.866 -7.467,5.334 -13.334,12.8 -15.467,21.867 -1.6,6.4 -1.6,13.333 0.533,19.733 2.134,8.534 8.534,16 15.467,20.8 5.867,3.734 10.667,5.334 16,5.867"
             style="fill:#273772;fill-opacity:1;fill-rule:nonzero;stroke:none"
             id="path24" /></g><g
           id="g26"
           transform="translate(70.9333,80)"><path
             d="M 0,0 C -3.733,-8 -7.467,-16 -11.2,-24 H 8.533 10.667 C 7.467,-16.533 3.733,-8.533 0,0 0.533,-0.533 0.533,0 0,0 m -35.2,-51.733 c 11.2,24 22.4,48 33.6,72 h 4.267 c 10.666,-24 21.333,-48 32.533,-72 H 22.933 c -2.666,5.866 -4.8,11.733 -7.466,17.6 h -30.934 c -2.666,-5.867 -5.333,-11.734 -8,-17.6 z"
             style="fill:#273772;fill-opacity:1;fill-rule:nonzero;stroke:none"
             id="path28" /></g><path
           d="m 116.8,100.267 h 10.667 v -72 H 116.8 Z"
           style="fill:#273772;fill-opacity:1;fill-rule:nonzero;stroke:none"
           id="path30" /></g></g></g></svg>
