<?xml version="1.0" encoding="UTF-8" standalone="no"?>
<svg
   xmlns:dc="http://purl.org/dc/elements/1.1/"
   xmlns:cc="http://creativecommons.org/ns#"
   xmlns:rdf="http://www.w3.org/1999/02/22-rdf-syntax-ns#"
   xmlns:svg="http://www.w3.org/2000/svg"
   xmlns="http://www.w3.org/2000/svg"
   xmlns:sodipodi="http://sodipodi.sourceforge.net/DTD/sodipodi-0.dtd"
   xmlns:inkscape="http://www.inkscape.org/namespaces/inkscape"
   version="1.1"
   id="svg2"
   xml:space="preserve"
   width="341.33334"
   height="170.66667"
   viewBox="0 0 341.33334 170.66667"
   sodipodi:docname="악사.ai"><metadata
     id="metadata8"><rdf:RDF><cc:Work
         rdf:about=""><dc:format>image/svg+xml</dc:format><dc:type
           rdf:resource="http://purl.org/dc/dcmitype/StillImage" /></cc:Work></rdf:RDF></metadata><defs
     id="defs6"><clipPath
       clipPathUnits="userSpaceOnUse"
       id="clipPath24"><path
         d="M 0,128 H 256 V 0 H 0 Z"
         id="path22" /></clipPath></defs><sodipodi:namedview
     pagecolor="#ffffff"
     bordercolor="#666666"
     borderopacity="1"
     objecttolerance="10"
     gridtolerance="10"
     guidetolerance="10"
     inkscape:pageopacity="0"
     inkscape:pageshadow="2"
     inkscape:window-width="640"
     inkscape:window-height="480"
     id="namedview4" /><g
     id="g10"
     inkscape:groupmode="layer"
     inkscape:label="악사"
     transform="matrix(1.3333333,0,0,-1.3333333,0,170.66667)"><path
       d="M 64.001,0 H 192 V 127.999 H 64.001 Z"
       style="fill:#2e3678;fill-opacity:1;fill-rule:nonzero;stroke:none"
       id="path12" /><g
       id="g14"
       transform="translate(184.8096,127.9998)"><path
         d="m 0,0 -48.841,-63.212 h 7.35 L 7.19,0 Z"
         style="fill:#e32e3b;fill-opacity:1;fill-rule:nonzero;stroke:none"
         id="path16" /></g><g
       id="g18"><g
         id="g20"
         clip-path="url(#clipPath24)"><g
           id="g26"
           transform="translate(117.7211,21.5083)"><path
             d="M 0,0 3.519,4.833 C 3.195,5.181 1.213,11.192 1.213,11.192 L -2.19,6.778 Z m -19.246,29.796 c -1.372,-2.95 -9.444,-12.777 -9.444,-12.777 h 12.784 c 0,0 -2.476,7.631 -2.908,9.351 -0.221,1.1 -0.305,2.222 -0.251,3.343 0,0.156 -0.031,0.41 -0.181,0.083 m 49.117,0 C 28.5,26.846 20.428,17.019 20.428,17.019 h 12.783 c 0,0 -2.478,7.631 -2.91,9.351 -0.221,1.1 -0.305,2.222 -0.251,3.343 0,0.156 -0.029,0.41 -0.179,0.083 M 44.084,15.07 C 46.315,8.828 50.912,-7.415 52.74,-8.709 H 40.67 c -0.036,1.436 -0.226,2.864 -0.566,4.26 -0.521,1.856 -4.886,15.901 -4.886,15.901 H 16.047 L 13.033,7.179 c 0,0 3.62,-11.333 3.845,-11.888 0.39,-1.002 2.119,-4 2.119,-4 H 7.43 c 0,0 -0.3,1.731 -0.412,2.452 -0.091,0.582 -1.096,3.77 -1.096,3.77 0,0 -2.621,-2.873 -3.336,-4.205 C 1.865,-8.021 1.545,-8.709 1.545,-8.709 h -9.048 c 0,0 -0.302,1.731 -0.415,2.452 -0.088,0.582 -1.195,4.026 -1.195,4.026 0,0 -2.533,-3.076 -3.254,-4.405 -0.717,-1.332 -1.025,-2.073 -1.025,-2.073 h -8.95 c 0,0 2.529,2.408 3.413,3.442 1.491,1.753 7.045,9.011 7.045,9.011 l -2.227,7.708 h -19.026 c 0,0 -10.848,-14.254 -11.275,-14.695 -0.432,-0.435 -3.594,-4.972 -3.665,-5.466 h -5.644 v 3.589 c 0.07,0.077 0.144,0.149 0.223,0.216 0.174,0.128 8.224,10.121 15.619,19.974 6.645,8.592 12.88,16.949 13.427,17.745 1.325,1.924 3.235,6.081 3.235,6.081 h 9.835 c 0,0 0.305,-3.824 0.592,-4.752 0.255,-0.82 6.248,-20.483 6.389,-20.695 l 3.314,4.238 -5.664,17.436 c 0,0 -1.328,3.281 -1.76,3.773 H 2.979 C 2.938,37.841 3.065,36.787 3.353,35.771 3.821,34.334 6.284,25.446 6.284,25.446 c 0,0 7.836,9.823 8.294,10.528 0.557,0.88 0.889,1.883 0.968,2.922 h 9.574 c 0,0 -1.753,-1.281 -4.825,-5.166 C 19.264,32.422 9.154,19.575 9.154,19.575 c 0,0 0.882,-3.008 1.312,-4.505 0.117,-0.43 0.199,-0.721 0.199,-0.752 0,-0.013 0.222,0.26 0.606,0.752 2.608,3.305 14.473,18.863 15.192,20.194 0.579,1.076 1.433,2.3 1.933,3.632 h 9.34 c 0,0 0.216,-2.789 0.5,-3.561 z"
             style="fill:#ffffff;fill-opacity:1;fill-rule:nonzero;stroke:none"
             id="path28" /></g></g></g></g></svg>
