<?xml version="1.0" encoding="UTF-8" standalone="no"?>
<svg
   xmlns:dc="http://purl.org/dc/elements/1.1/"
   xmlns:cc="http://creativecommons.org/ns#"
   xmlns:rdf="http://www.w3.org/1999/02/22-rdf-syntax-ns#"
   xmlns:svg="http://www.w3.org/2000/svg"
   xmlns="http://www.w3.org/2000/svg"
   xmlns:sodipodi="http://sodipodi.sourceforge.net/DTD/sodipodi-0.dtd"
   xmlns:inkscape="http://www.inkscape.org/namespaces/inkscape"
   version="1.1"
   id="svg2"
   xml:space="preserve"
   width="256"
   height="128"
   viewBox="0 0 256 128"
   sodipodi:docname="BNP파리바카디프생명.ai"><metadata
     id="metadata8"><rdf:RDF><cc:Work
         rdf:about=""><dc:format>image/svg+xml</dc:format><dc:type
           rdf:resource="http://purl.org/dc/dcmitype/StillImage" /></cc:Work></rdf:RDF></metadata><defs
     id="defs6"><clipPath
       clipPathUnits="userSpaceOnUse"
       id="clipPath18"><path
         d="M 0,96 H 192 V 0 H 0 Z"
         id="path16" /></clipPath><linearGradient
       x1="0"
       y1="0"
       x2="1"
       y2="0"
       gradientUnits="userSpaceOnUse"
       gradientTransform="matrix(0,-27.607801,27.607801,0,13.089679,61.733032)"
       spreadMethod="pad"
       id="linearGradient142"><stop
         style="stop-opacity:1;stop-color:#008053"
         offset="0"
         id="stop136" /><stop
         style="stop-opacity:1;stop-color:#7fcbae"
         offset="0.6"
         id="stop138" /><stop
         style="stop-opacity:1;stop-color:#00a76d"
         offset="1"
         id="stop140" /></linearGradient><linearGradient
       x1="0"
       y1="0"
       x2="1"
       y2="0"
       gradientUnits="userSpaceOnUse"
       gradientTransform="matrix(0,-31.023569,31.023569,0,13.060841,67.586426)"
       spreadMethod="pad"
       id="linearGradient174"><stop
         style="stop-opacity:1;stop-color:#00a76d"
         offset="0"
         id="stop158" /><stop
         style="stop-opacity:1;stop-color:#7fcbae"
         offset="0.3"
         id="stop160" /><stop
         style="stop-opacity:1;stop-color:#00a76d"
         offset="0.55"
         id="stop162" /><stop
         style="stop-opacity:1;stop-color:#008053"
         offset="0.8352"
         id="stop164" /><stop
         style="stop-opacity:1;stop-color:#008558"
         offset="0.8691"
         id="stop166" /><stop
         style="stop-opacity:1;stop-color:#009264"
         offset="0.9244"
         id="stop168" /><stop
         style="stop-opacity:1;stop-color:#00a97a"
         offset="0.9939"
         id="stop170" /><stop
         style="stop-opacity:1;stop-color:#00ad7d"
         offset="1"
         id="stop172" /></linearGradient><linearGradient
       x1="0"
       y1="0"
       x2="1"
       y2="0"
       gradientUnits="userSpaceOnUse"
       gradientTransform="matrix(0,20.075931,-20.075931,0,17.962265,38.276157)"
       spreadMethod="pad"
       id="linearGradient194"><stop
         style="stop-opacity:1;stop-color:#00b387"
         offset="0"
         id="stop190" /><stop
         style="stop-opacity:1;stop-color:#00a76d"
         offset="1"
         id="stop192" /></linearGradient><linearGradient
       x1="0"
       y1="0"
       x2="1"
       y2="0"
       gradientUnits="userSpaceOnUse"
       gradientTransform="matrix(0,20.081986,-20.081986,0,5.535718,38.275063)"
       spreadMethod="pad"
       id="linearGradient214"><stop
         style="stop-opacity:1;stop-color:#00b387"
         offset="0"
         id="stop210" /><stop
         style="stop-opacity:1;stop-color:#00a76d"
         offset="1"
         id="stop212" /></linearGradient><linearGradient
       x1="0"
       y1="0"
       x2="1"
       y2="0"
       gradientUnits="userSpaceOnUse"
       gradientTransform="matrix(0,20.068779,-20.068779,0,9.4856853,38.27956)"
       spreadMethod="pad"
       id="linearGradient234"><stop
         style="stop-opacity:1;stop-color:#00b387"
         offset="0"
         id="stop230" /><stop
         style="stop-opacity:1;stop-color:#00a76d"
         offset="1"
         id="stop232" /></linearGradient><linearGradient
       x1="0"
       y1="0"
       x2="1"
       y2="0"
       gradientUnits="userSpaceOnUse"
       gradientTransform="matrix(0,20.075703,-20.075703,0,12.801349,38.276733)"
       spreadMethod="pad"
       id="linearGradient254"><stop
         style="stop-opacity:1;stop-color:#00b387"
         offset="0"
         id="stop250" /><stop
         style="stop-opacity:1;stop-color:#00a76d"
         offset="1"
         id="stop252" /></linearGradient><clipPath
       clipPathUnits="userSpaceOnUse"
       id="clipPath264"><path
         d="M 0,96 H 192 V 0 H 0 Z"
         id="path262" /></clipPath></defs><sodipodi:namedview
     pagecolor="#ffffff"
     bordercolor="#666666"
     borderopacity="1"
     objecttolerance="10"
     gridtolerance="10"
     guidetolerance="10"
     inkscape:pageopacity="0"
     inkscape:pageshadow="2"
     inkscape:window-width="640"
     inkscape:window-height="480"
     id="namedview4" /><g
     id="g10"
     inkscape:groupmode="layer"
     inkscape:label="BNP파리바카디프생명"
     transform="matrix(1.3333333,0,0,-1.3333333,0,128)"><g
       id="g12"><g
         id="g14"
         clip-path="url(#clipPath18)"><g
           id="g20"
           transform="translate(36.4739,56.2514)"><path
             d="m 0,0 c -0.323,0 -0.686,-0.029 -0.866,-0.058 -0.057,-1.298 -0.085,-1.995 -0.085,-3.505 0,-1.771 0,-2.514 0.071,-3.95 0.32,-0.015 0.837,-0.015 1.13,-0.015 1.887,0 2.822,0.545 2.822,1.635 0,1.284 -1.55,1.743 -2.725,1.743 h -0.544 l 0.544,1.386 h 0.337 c 0.795,0 1.926,0.361 1.926,1.339 C 2.61,-0.39 1.913,0 0,0 m 1.508,1.088 c 1.745,0 3.588,-0.641 3.588,-2.262 0,-0.977 -0.824,-1.845 -2.065,-2.164 1.688,-0.518 2.568,-1.424 2.568,-2.667 0,-1.984 -2.346,-2.682 -4.581,-2.682 h -4.537 c 0.124,1.286 0.153,3.131 0.153,5.124 0,1.342 -0.014,3.367 -0.139,4.651 z"
             style="fill:#000000;fill-opacity:1;fill-rule:nonzero;stroke:none"
             id="path22" /></g><g
           id="g24"
           transform="translate(52.2417,57.3398)"><path
             d="m 0,0 c -0.096,-1.116 -0.155,-3.7 -0.155,-4.65 0,-0.867 0.016,-3.772 0.169,-5.127 h -1.831 l -4.188,6.16 c -0.35,0.517 -0.447,0.839 -0.516,1.075 h -0.014 c 0,-1.494 -0.015,-2.234 -0.015,-3.559 0,-1.203 0.029,-2.919 0.126,-3.676 H -8.7 c 0.14,1.355 0.153,4.26 0.153,5.127 0,0.95 -0.054,3.534 -0.126,4.65 h 2.572 l 3.125,-4.595 c 0.671,-0.977 0.81,-1.186 0.923,-1.549 h 0.014 c 0.012,0.28 0.012,0.641 0.012,1.019 0,1.745 -0.125,4.231 -0.278,5.125 z"
             style="fill:#000000;fill-opacity:1;fill-rule:nonzero;stroke:none"
             id="path26" /></g><g
           id="g28"
           transform="translate(57.0888,56.1106)"><path
             d="m 0,0 c -0.014,-0.684 -0.041,-1.394 -0.041,-2.024 0,-0.489 0.013,-0.909 0.027,-1.244 0.071,-0.012 0.337,-0.055 0.867,-0.055 1.172,0 2.779,0.306 2.779,1.717 0,1.396 -1.634,1.661 -2.891,1.661 C 0.462,0.055 0.155,0.029 0,0 m 1.678,1.229 c 2.051,0 4.495,-0.572 4.495,-2.835 0,-1.97 -1.746,-2.946 -5.32,-2.946 -0.391,0 -0.769,0.043 -0.894,0.043 C -0.014,-5.824 0,-7.555 0.112,-8.547 h -2.707 c 0.124,1.354 0.15,3.575 0.15,5.126 0,1.466 -0.026,3.813 -0.139,4.65 z"
             style="fill:#000000;fill-opacity:1;fill-rule:nonzero;stroke:none"
             id="path30" /></g><g
           id="g32"
           transform="translate(69.98,56.1106)"><path
             d="m 0,0 c -0.014,-0.684 -0.041,-1.394 -0.041,-2.024 0,-0.489 0.013,-0.909 0.027,-1.244 0.072,-0.012 0.337,-0.055 0.867,-0.055 1.174,0 2.779,0.306 2.779,1.717 0,1.396 -1.633,1.661 -2.891,1.661 C 0.462,0.055 0.155,0.029 0,0 m 1.676,1.229 c 2.053,0 4.497,-0.572 4.497,-2.835 0,-1.97 -1.746,-2.946 -5.32,-2.946 -0.391,0 -0.769,0.043 -0.894,0.043 C -0.014,-5.824 0,-7.555 0.112,-8.547 h -2.707 c 0.124,1.354 0.154,3.575 0.154,5.126 0,1.466 -0.03,3.813 -0.141,4.65 z"
             style="fill:#000000;fill-opacity:1;fill-rule:nonzero;stroke:none"
             id="path34" /></g><g
           id="g36"
           transform="translate(81.6855,51.1527)"><path
             d="M 0,0 -1.398,3.311 C -1.844,2.36 -2.333,1.243 -2.849,0 c 0.42,-0.014 0.991,-0.026 1.451,-0.026 0.447,0 0.923,0.012 1.398,0.026 M -0.237,6.187 C 0.139,5.181 3.351,-1.968 4.104,-3.589 H 1.411 c -0.156,0.448 -0.474,1.256 -0.895,2.305 -0.557,0.014 -1.13,0.027 -1.929,0.027 -0.738,0 -1.295,-0.013 -1.939,-0.027 -0.305,-0.824 -0.559,-1.578 -0.782,-2.305 h -2.345 c 0.558,1.216 3.839,8.337 4.356,9.776 z"
             style="fill:#000000;fill-opacity:1;fill-rule:nonzero;stroke:none"
             id="path38" /></g><g
           id="g40"
           transform="translate(91.196,57.3398)"><path
             d="m 0,0 c 2.053,0 4.499,-0.572 4.499,-2.835 0,-1.27 -0.743,-2.123 -2.208,-2.567 C 2.5,-5.823 4.86,-9.412 5.252,-9.777 H 2.333 c -0.642,1.217 -2.096,3.676 -3.157,5.268 0.183,-0.043 0.449,-0.071 0.757,-0.071 0.849,0 2.051,0.614 2.051,1.745 0,1.41 -1.704,1.661 -2.556,1.661 -0.434,0 -0.852,-0.026 -1.061,-0.055 -0.057,-1.216 -0.084,-2.737 -0.084,-3.421 0,-0.867 0,-3.758 0.153,-5.127 h -2.722 c 0.138,1.355 0.165,3.102 0.165,5.127 0,1.703 -0.012,3.741 -0.139,4.65 z"
             style="fill:#000000;fill-opacity:1;fill-rule:nonzero;stroke:none"
             id="path42" /></g><g
           id="g44"
           transform="translate(100.4853,57.3398)"><path
             d="m 0,0 c -0.083,-1.131 -0.139,-3.7 -0.139,-4.666 0,-0.851 0.013,-3.756 0.139,-5.111 h -2.709 c 0.142,1.355 0.153,4.26 0.153,5.111 0,0.953 -0.055,3.535 -0.126,4.666 z"
             style="fill:#000000;fill-opacity:1;fill-rule:nonzero;stroke:none"
             id="path46" /></g><g
           id="g48"
           transform="translate(106.3088,56.2514)"><path
             d="m 0,0 c -0.321,0 -0.684,-0.029 -0.865,-0.058 -0.055,-1.298 -0.084,-1.995 -0.084,-3.505 0,-1.771 0,-2.514 0.069,-3.95 0.321,-0.015 0.839,-0.015 1.131,-0.015 1.887,0 2.823,0.545 2.823,1.635 0,1.284 -1.551,1.743 -2.725,1.743 h -0.543 l 0.543,1.386 h 0.337 c 0.794,0 1.925,0.361 1.925,1.339 C 2.611,-0.39 1.915,0 0,0 m 1.508,1.088 c 1.748,0 3.589,-0.641 3.589,-2.262 0,-0.977 -0.823,-1.845 -2.066,-2.164 1.69,-0.518 2.571,-1.424 2.571,-2.667 0,-1.984 -2.346,-2.682 -4.581,-2.682 h -4.54 c 0.125,1.286 0.155,3.131 0.155,5.124 0,1.342 -0.016,3.367 -0.141,4.651 z"
             style="fill:#000000;fill-opacity:1;fill-rule:nonzero;stroke:none"
             id="path50" /></g><g
           id="g52"
           transform="translate(118.7393,51.1527)"><path
             d="M 0,0 -1.396,3.311 C -1.841,2.36 -2.331,1.243 -2.846,0 c 0.418,-0.014 0.991,-0.026 1.45,-0.026 0.447,0 0.923,0.012 1.396,0.026 M -0.236,6.187 C 0.139,5.181 3.352,-1.968 4.107,-3.589 H 1.413 c -0.156,0.448 -0.476,1.256 -0.896,2.305 -0.557,0.014 -1.129,0.027 -1.927,0.027 -0.739,0 -1.298,-0.013 -1.939,-0.027 -0.308,-0.824 -0.56,-1.578 -0.784,-2.305 h -2.345 c 0.557,1.216 3.839,8.337 4.358,9.776 z"
             style="fill:#000000;fill-opacity:1;fill-rule:nonzero;stroke:none"
             id="path54" /></g><g
           id="g56"
           transform="translate(127.6657,57.5078)"><path
             d="m 0,0 c 1.2,0 2.302,-0.184 3.003,-0.377 v -2.15 c -0.727,0.529 -2.164,0.947 -3.282,0.947 -0.866,0 -1.523,-0.237 -1.523,-0.851 0,-1.774 5.67,-1.563 5.67,-4.664 0,-1.913 -1.702,-3.017 -4.581,-3.017 -1.326,0 -2.485,0.239 -3.253,0.504 v 2.109 c 0.951,-0.629 2.57,-1.105 3.798,-1.105 0.979,0 1.719,0.295 1.719,1.049 0,1.913 -5.67,1.633 -5.67,4.887 C -4.119,-0.949 -2.471,0 0,0"
             style="fill:#000000;fill-opacity:1;fill-rule:nonzero;stroke:none"
             id="path58" /></g><g
           id="g60"
           transform="translate(143.9943,55.5244)"><path
             d="m 0,0 c -0.546,0.321 -1.215,0.588 -2.083,0.588 -2.541,0 -3.42,-2.012 -3.42,-3.731 0,-2.386 1.465,-3.589 3.435,-3.589 1.228,0 2.151,0.574 2.974,1.301 L 0.92,-7.499 c -0.837,-0.335 -1.871,-0.629 -3.421,-0.629 -3.547,0 -5.768,2.207 -5.768,5.013 0,2.962 2.347,5.099 6.216,5.099 0.905,0 1.788,-0.14 2.639,-0.351 z"
             style="fill:#000000;fill-opacity:1;fill-rule:nonzero;stroke:none"
             id="path62" /></g><g
           id="g64"
           transform="translate(152.2336,51.1527)"><path
             d="M 0,0 -1.396,3.311 C -1.841,2.36 -2.333,1.243 -2.847,0 c 0.418,-0.014 0.99,-0.026 1.451,-0.026 0.447,0 0.921,0.012 1.396,0.026 M -0.237,6.187 C 0.139,5.181 3.351,-1.968 4.105,-3.589 H 1.411 c -0.154,0.448 -0.473,1.256 -0.892,2.305 -0.559,0.014 -1.133,0.027 -1.93,0.027 -0.74,0 -1.297,-0.013 -1.94,-0.027 -0.309,-0.824 -0.558,-1.578 -0.782,-2.305 h -2.345 c 0.559,1.216 3.839,8.337 4.358,9.776 z"
             style="fill:#000000;fill-opacity:1;fill-rule:nonzero;stroke:none"
             id="path66" /></g><g
           id="g68"
           transform="translate(161.746,57.3398)"><path
             d="m 0,0 c 2.053,0 4.497,-0.572 4.497,-2.835 0,-1.27 -0.741,-2.123 -2.206,-2.567 C 2.5,-5.823 4.86,-9.412 5.25,-9.777 H 2.331 c -0.64,1.217 -2.094,3.676 -3.155,5.268 0.183,-0.043 0.447,-0.071 0.754,-0.071 0.852,0 2.054,0.614 2.054,1.745 0,1.41 -1.704,1.661 -2.555,1.661 -0.433,0 -0.854,-0.026 -1.062,-0.055 -0.057,-1.216 -0.084,-2.737 -0.084,-3.421 0,-0.867 0,-3.758 0.153,-5.127 h -2.722 c 0.139,1.355 0.165,3.102 0.165,5.127 0,1.703 -0.012,3.741 -0.139,4.65 z"
             style="fill:#000000;fill-opacity:1;fill-rule:nonzero;stroke:none"
             id="path70" /></g><g
           id="g72"
           transform="translate(170.8942,56.1106)"><path
             d="m 0,0 c -0.054,-0.641 -0.067,-2.304 -0.067,-3.436 0,-1.422 0,-2.54 0.055,-3.868 0.141,-0.014 0.363,-0.042 0.696,-0.042 2.361,0 3.591,0.741 3.591,3.744 0,2.863 -1.256,3.671 -3.646,3.617 z m 1.146,1.229 c 4.12,0 5.696,-2.166 5.696,-4.874 0,-2.792 -1.535,-4.902 -5.849,-4.902 h -3.632 c 0.141,1.314 0.141,3.115 0.141,5.111 0,0.952 0,3.395 -0.141,4.665 z"
             style="fill:#000000;fill-opacity:1;fill-rule:nonzero;stroke:none"
             id="path74" /></g><g
           id="g76"
           transform="translate(182.1961,57.3398)"><path
             d="m 0,0 c -0.084,-1.131 -0.141,-3.7 -0.141,-4.666 0,-0.851 0.014,-3.756 0.141,-5.111 h -2.711 c 0.139,1.355 0.153,4.26 0.153,5.111 0,0.953 -0.053,3.535 -0.125,4.666 z"
             style="fill:#000000;fill-opacity:1;fill-rule:nonzero;stroke:none"
             id="path78" /></g><g
           id="g80"
           transform="translate(192,57.3398)"><path
             d="m 0,0 v -1.411 c -0.77,0.044 -2.682,0.098 -3.323,0.098 -0.476,0 -1.007,0 -1.552,-0.042 -0.042,-0.6 -0.055,-1.354 -0.055,-2.011 0,-0.321 0,-0.612 0.013,-0.851 l 3.409,0.055 v -1.521 l -3.409,0.139 c 0.014,-1.243 0.03,-3.17 0.155,-4.233 h -2.737 c 0.165,1.355 0.165,4.26 0.165,5.111 0,0.953 -0.067,3.535 -0.153,4.666 z"
             style="fill:#000000;fill-opacity:1;fill-rule:nonzero;stroke:none"
             id="path82" /></g><g
           id="g84"
           transform="translate(60.0195,41.2891)"><path
             d="m 0,0 c -0.024,-0.023 -0.054,-0.037 -0.084,-0.037 h -1.228 v -4.27 c 0,-0.077 -0.041,-0.118 -0.118,-0.118 h -0.805 c -0.078,0 -0.116,0.041 -0.116,0.118 v 8.336 c 0,0.079 0.038,0.119 0.116,0.119 h 0.805 c 0.077,0 0.118,-0.04 0.118,-0.119 V 0.833 h 1.228 C -0.054,0.833 -0.024,0.822 0,0.802 0.029,0.781 0.043,0.755 0.043,0.724 V 0.083 C 0.043,0.054 0.029,0.026 0,0 m -4.854,-1.039 v 3.643 h -1.309 v -3.695 c 0.45,0.012 0.888,0.03 1.309,0.052 m -3.17,-0.052 c 0.144,-0.005 0.289,-0.01 0.432,-0.01 h 0.425 v 3.705 h -0.722 c -0.029,0 -0.063,0.013 -0.1,0.044 -0.035,0.031 -0.053,0.063 -0.053,0.1 v 0.56 c 0,0.038 0.018,0.07 0.053,0.099 0.037,0.031 0.071,0.046 0.1,0.046 h 4.661 c 0.035,0 0.069,-0.015 0.095,-0.041 0.027,-0.028 0.041,-0.063 0.041,-0.104 v -0.57 c 0,-0.035 -0.014,-0.068 -0.041,-0.094 -0.026,-0.027 -0.06,-0.04 -0.095,-0.04 h -0.623 v -3.57 c 0.162,0.014 0.323,0.028 0.479,0.043 0.156,0.014 0.311,0.034 0.459,0.058 0.031,0.006 0.066,0.003 0.101,-0.014 0.035,-0.013 0.057,-0.038 0.063,-0.068 l 0.081,-0.567 c 0.012,-0.052 0.005,-0.086 -0.021,-0.11 -0.03,-0.025 -0.057,-0.04 -0.088,-0.044 -0.359,-0.056 -0.751,-0.101 -1.172,-0.141 -0.424,-0.04 -0.86,-0.069 -1.312,-0.091 -0.452,-0.023 -0.912,-0.035 -1.382,-0.042 -0.469,-0.003 -0.931,-0.002 -1.381,0.01 -0.037,0 -0.067,0.014 -0.092,0.04 -0.023,0.028 -0.035,0.061 -0.035,0.096 v 0.579 c 0,0.083 0.043,0.126 0.127,0.126"
             style="fill:#000000;fill-opacity:1;fill-rule:nonzero;stroke:none"
             id="path86" /></g><g
           id="g88"
           transform="translate(67.5679,36.9821)"><path
             d="M 0,0 C 0,-0.077 -0.038,-0.118 -0.118,-0.118 H -0.92 C -1,-0.118 -1.039,-0.077 -1.039,0 v 8.336 c 0,0.08 0.039,0.12 0.119,0.12 h 0.802 C -0.038,8.456 0,8.416 0,8.336 Z M -1.681,2.334 C -1.716,2.307 -1.757,2.287 -1.806,2.276 -1.981,2.236 -2.18,2.198 -2.408,2.164 -2.633,2.131 -2.872,2.103 -3.126,2.079 -3.377,2.053 -3.635,2.033 -3.894,2.014 -4.151,1.996 -4.402,1.985 -4.643,1.978 -4.886,1.972 -5.105,1.97 -5.307,1.97 c -0.202,0 -0.37,0.005 -0.5,0.018 -0.265,0.023 -0.449,0.082 -0.547,0.172 -0.101,0.09 -0.15,0.249 -0.15,0.479 v 2.166 c 0,0.217 0.052,0.373 0.158,0.471 0.105,0.095 0.263,0.144 0.476,0.144 h 2.147 c 0.048,0 0.083,0.008 0.101,0.022 0.019,0.015 0.028,0.053 0.028,0.113 v 1.266 c 0,0.047 -0.008,0.081 -0.02,0.099 -0.011,0.019 -0.047,0.026 -0.109,0.026 h -2.6 c -0.031,0 -0.058,0.013 -0.086,0.037 -0.028,0.023 -0.04,0.052 -0.04,0.081 v 0.623 c 0,0.031 0.012,0.055 0.04,0.078 0.028,0.02 0.055,0.031 0.086,0.031 h 3.142 c 0.26,0 0.429,-0.048 0.504,-0.143 0.075,-0.098 0.112,-0.255 0.112,-0.473 V 5.177 c 0,-0.231 -0.046,-0.387 -0.14,-0.47 C -2.798,4.62 -2.963,4.58 -3.198,4.58 h -2.141 c -0.084,0 -0.126,-0.041 -0.126,-0.126 V 3.026 c 0,-0.067 0.013,-0.112 0.036,-0.131 0.024,-0.02 0.07,-0.031 0.136,-0.031 0.265,-0.014 0.543,-0.014 0.836,-0.005 0.292,0.008 0.584,0.025 0.88,0.046 0.295,0.02 0.581,0.049 0.862,0.084 0.28,0.037 0.543,0.079 0.791,0.126 0.043,0.014 0.084,0.009 0.121,-0.014 0.04,-0.02 0.064,-0.056 0.078,-0.112 l 0.081,-0.54 c 0.012,-0.049 0,-0.086 -0.037,-0.115"
             style="fill:#000000;fill-opacity:1;fill-rule:nonzero;stroke:none"
             id="path90" /></g><g
           id="g92"
           transform="translate(76.9959,41.3003)"><path
             d="M 0,0 C -0.028,-0.024 -0.055,-0.038 -0.087,-0.038 H -1.316 V -4.32 c 0,-0.076 -0.039,-0.116 -0.117,-0.116 h -0.802 c -0.081,0 -0.118,0.04 -0.118,0.116 v 8.338 c 0,0.078 0.037,0.118 0.118,0.118 h 0.802 c 0.078,0 0.117,-0.04 0.117,-0.118 V 0.831 h 1.229 C -0.055,0.831 -0.028,0.822 0,0.798 0.026,0.778 0.038,0.752 0.038,0.722 V 0.092 C 0.038,0.054 0.026,0.023 0,0 m -4.614,0.739 h -1.94 v -1.686 c 0,-0.105 0.055,-0.155 0.163,-0.155 h 1.617 c 0.107,0 0.16,0.05 0.16,0.155 z m 0.896,-2.536 C -3.814,-1.9 -3.992,-1.952 -4.251,-1.952 h -2.657 c -0.265,0 -0.445,0.046 -0.54,0.135 -0.098,0.092 -0.146,0.257 -0.146,0.499 v 4.877 c 0,0.03 0.012,0.055 0.037,0.076 0.023,0.023 0.05,0.033 0.081,0.033 h 0.795 c 0.03,0 0.059,-0.01 0.087,-0.033 0.024,-0.021 0.04,-0.046 0.04,-0.076 V 1.581 h 1.94 v 1.987 c 0,0.031 0.013,0.057 0.039,0.083 0.023,0.024 0.049,0.033 0.079,0.033 h 0.805 c 0.031,0 0.057,-0.009 0.082,-0.033 0.024,-0.026 0.035,-0.052 0.035,-0.083 v -4.913 c 0,-0.201 -0.049,-0.349 -0.144,-0.452"
             style="fill:#000000;fill-opacity:1;fill-rule:nonzero;stroke:none"
             id="path94" /></g><g
           id="g96"
           transform="translate(89.1062,41.4045)"><path
             d="m 0,0 c -0.028,-0.028 -0.061,-0.04 -0.096,-0.04 h -1.219 v -4.384 c 0,-0.076 -0.041,-0.116 -0.118,-0.116 h -0.806 c -0.077,0 -0.115,0.04 -0.115,0.116 v 8.338 c 0,0.08 0.038,0.118 0.115,0.118 h 0.806 c 0.077,0 0.118,-0.038 0.118,-0.118 V 0.827 h 1.219 C -0.061,0.827 -0.028,0.814 0,0.796 0.026,0.773 0.038,0.749 0.038,0.718 V 0.086 C 0.038,0.055 0.026,0.028 0,0 M -3.547,2.677 C -3.583,2.131 -3.694,1.597 -3.885,1.078 -4.075,0.562 -4.332,0.069 -4.653,-0.398 c -0.323,-0.465 -0.709,-0.9 -1.161,-1.3 -0.453,-0.401 -0.958,-0.756 -1.518,-1.063 -0.049,-0.031 -0.098,-0.04 -0.152,-0.036 -0.049,0.005 -0.088,0.033 -0.119,0.077 l -0.361,0.455 c -0.031,0.044 -0.04,0.085 -0.029,0.13 0.012,0.044 0.043,0.076 0.09,0.098 0.568,0.323 1.072,0.696 1.511,1.128 0.438,0.427 0.803,0.886 1.091,1.373 C -5.673,0.429 -6.066,0.401 -6.479,0.383 -6.89,0.366 -7.28,0.354 -7.64,0.347 c -0.023,0 -0.05,0.014 -0.081,0.036 -0.03,0.024 -0.044,0.059 -0.044,0.108 v 0.587 c 0,0.036 0.014,0.067 0.044,0.091 0.031,0.023 0.055,0.037 0.072,0.037 0.224,0 0.456,0.003 0.7,0.012 0.246,0.008 0.488,0.02 0.733,0.033 0.245,0.01 0.48,0.024 0.71,0.035 0.227,0.012 0.439,0.027 0.631,0.046 0.047,0.144 0.089,0.289 0.122,0.434 0.032,0.144 0.066,0.287 0.094,0.424 0.019,0.12 0.012,0.199 -0.022,0.239 -0.032,0.04 -0.107,0.06 -0.22,0.06 h -2.54 c -0.084,0 -0.125,0.043 -0.125,0.127 v 0.632 c 0,0.071 0.041,0.109 0.125,0.109 h 3.262 c 0.271,0 0.449,-0.057 0.534,-0.169 0.083,-0.11 0.115,-0.281 0.098,-0.511"
             style="fill:#000000;fill-opacity:1;fill-rule:nonzero;stroke:none"
             id="path98" /></g><g
           id="g100"
           transform="translate(96.65,36.9816)"><path
             d="m 0,0 c 0,-0.077 -0.037,-0.118 -0.116,-0.118 h -0.805 c -0.077,0 -0.115,0.041 -0.115,0.118 v 8.336 c 0,0.08 0.038,0.12 0.115,0.12 h 0.805 C -0.037,8.456 0,8.416 0,8.336 Z M -1.652,2.732 C -1.682,2.712 -1.713,2.696 -1.74,2.683 -1.981,2.61 -2.288,2.549 -2.654,2.495 -3.022,2.44 -3.403,2.396 -3.796,2.363 -4.193,2.33 -4.572,2.308 -4.947,2.295 -5.321,2.284 -5.63,2.285 -5.878,2.304 -6.101,2.316 -6.265,2.365 -6.372,2.454 -6.476,2.538 -6.528,2.691 -6.528,2.908 v 4.3 c 0,0.211 0.041,0.36 0.128,0.445 0.089,0.082 0.248,0.126 0.475,0.126 h 3.37 c 0.084,0 0.127,-0.04 0.127,-0.118 V 7.029 c 0,-0.078 -0.043,-0.118 -0.127,-0.118 h -2.764 c -0.115,0 -0.17,-0.052 -0.17,-0.155 V 3.452 c 0,-0.097 0.015,-0.158 0.049,-0.187 0.032,-0.026 0.107,-0.047 0.22,-0.057 0.187,-0.02 0.417,-0.023 0.683,-0.009 0.266,0.012 0.553,0.031 0.854,0.057 0.3,0.03 0.606,0.064 0.915,0.104 0.311,0.043 0.602,0.089 0.873,0.136 0.09,0.018 0.145,-0.017 0.162,-0.109 L -1.624,2.864 C -1.612,2.798 -1.621,2.755 -1.652,2.732"
             style="fill:#000000;fill-opacity:1;fill-rule:nonzero;stroke:none"
             id="path102" /></g><path
           d="m 100.996,41.518 h 1.871 v 2.438 h -1.871 z m -1.913,2.438 c -0.033,0 -0.065,0.014 -0.098,0.045 -0.039,0.03 -0.055,0.064 -0.055,0.101 v 0.551 c 0,0.027 0.016,0.058 0.055,0.089 0.033,0.029 0.065,0.046 0.098,0.046 h 5.698 c 0.036,0 0.069,-0.016 0.097,-0.04 0.024,-0.029 0.038,-0.061 0.038,-0.095 v -0.562 c 0,-0.037 -0.014,-0.067 -0.038,-0.095 -0.028,-0.026 -0.061,-0.04 -0.097,-0.04 h -0.903 v -2.438 h 1.075 c 0.037,0 0.07,-0.014 0.096,-0.041 0.026,-0.028 0.038,-0.06 0.038,-0.095 v -0.56 c 0,-0.037 -0.012,-0.069 -0.038,-0.095 -0.026,-0.028 -0.059,-0.042 -0.096,-0.042 h -6.042 c -0.032,0 -0.063,0.016 -0.096,0.045 -0.032,0.03 -0.048,0.064 -0.048,0.101 v 0.551 c 0,0.03 0.016,0.061 0.048,0.09 0.033,0.031 0.064,0.046 0.096,0.046 h 1.073 v 2.438 z m 6.872,-5.519 c -0.029,-0.031 -0.059,-0.046 -0.088,-0.046 h -7.87 c -0.035,0 -0.065,0.015 -0.09,0.046 -0.024,0.03 -0.035,0.061 -0.035,0.092 v 0.593 c 0,0.039 0.011,0.069 0.035,0.095 0.025,0.028 0.055,0.042 0.09,0.042 h 7.87 c 0.029,0 0.059,-0.017 0.088,-0.045 0.031,-0.03 0.046,-0.061 0.046,-0.092 v -0.593 c 0,-0.031 -0.015,-0.062 -0.046,-0.092"
           style="fill:#000000;fill-opacity:1;fill-rule:nonzero;stroke:none"
           id="path104" /><g
           id="g106"
           transform="translate(113.0007,45.3173)"><path
             d="M 0,0 C 0,0.081 0.043,0.119 0.13,0.119 H 0.905 C 0.983,0.119 1.021,0.081 1.021,0 v -4.829 c 0,-0.085 -0.038,-0.129 -0.116,-0.129 H 0.118 C 0.04,-4.958 0,-4.914 0,-4.829 v 1.887 h -0.813 v -1.645 c 0,-0.077 -0.037,-0.117 -0.115,-0.117 H -1.67 c -0.084,0 -0.126,0.04 -0.126,0.117 v 4.445 c 0,0.078 0.042,0.119 0.126,0.119 h 0.742 c 0.078,0 0.115,-0.041 0.115,-0.119 V -2.074 H 0 Z m 0.029,-6.772 c 0,0.149 -0.055,0.28 -0.165,0.392 -0.115,0.11 -0.259,0.205 -0.435,0.28 -0.179,0.075 -0.38,0.133 -0.603,0.172 -0.222,0.039 -0.445,0.059 -0.667,0.059 -0.242,0 -0.473,-0.02 -0.692,-0.059 -0.219,-0.039 -0.415,-0.097 -0.587,-0.172 -0.173,-0.075 -0.306,-0.17 -0.411,-0.28 -0.103,-0.112 -0.153,-0.243 -0.153,-0.392 0,-0.147 0.05,-0.272 0.153,-0.375 0.105,-0.105 0.238,-0.194 0.411,-0.268 0.172,-0.072 0.369,-0.125 0.591,-0.162 0.225,-0.035 0.452,-0.055 0.688,-0.055 0.222,0 0.445,0.02 0.667,0.055 0.223,0.037 0.424,0.09 0.603,0.162 0.176,0.074 0.32,0.163 0.435,0.268 0.11,0.103 0.165,0.228 0.165,0.375 m 1.065,0.028 c 0,-0.254 -0.079,-0.487 -0.237,-0.697 -0.162,-0.211 -0.378,-0.39 -0.647,-0.542 -0.273,-0.151 -0.585,-0.266 -0.942,-0.349 -0.355,-0.081 -0.725,-0.12 -1.109,-0.12 -0.417,0 -0.801,0.039 -1.155,0.12 -0.349,0.083 -0.656,0.198 -0.918,0.345 -0.262,0.147 -0.467,0.327 -0.617,0.539 -0.145,0.209 -0.219,0.444 -0.219,0.704 0,0.252 0.074,0.482 0.219,0.689 0.15,0.209 0.355,0.387 0.617,0.537 0.262,0.15 0.569,0.268 0.918,0.349 0.354,0.081 0.738,0.122 1.155,0.122 0.384,0 0.754,-0.041 1.109,-0.122 0.357,-0.081 0.669,-0.196 0.942,-0.343 0.269,-0.147 0.485,-0.326 0.647,-0.533 0.158,-0.208 0.237,-0.442 0.237,-0.699 m -6.918,2.176 c -0.049,-0.03 -0.1,-0.047 -0.155,-0.05 -0.057,-0.005 -0.102,0.02 -0.145,0.067 l -0.334,0.389 c -0.09,0.096 -0.08,0.191 0.035,0.289 0.351,0.247 0.64,0.507 0.868,0.776 0.23,0.271 0.412,0.553 0.545,0.848 0.138,0.297 0.233,0.608 0.286,0.931 0.054,0.326 0.081,0.667 0.081,1.023 0,0.047 0.016,0.085 0.042,0.113 0.026,0.026 0.055,0.04 0.085,0.04 l 0.758,-0.036 c 0.08,0 0.118,-0.049 0.118,-0.143 0,-0.49 -0.044,-0.943 -0.135,-1.366 0.123,-0.35 0.323,-0.687 0.606,-1.013 0.282,-0.322 0.594,-0.6 0.94,-0.83 0.046,-0.029 0.069,-0.063 0.066,-0.095 -0.001,-0.032 -0.02,-0.07 -0.049,-0.114 l -0.343,-0.458 c -0.072,-0.092 -0.16,-0.103 -0.261,-0.037 -0.253,0.158 -0.506,0.36 -0.76,0.605 -0.251,0.246 -0.462,0.516 -0.623,0.803 -0.185,-0.356 -0.416,-0.675 -0.681,-0.961 -0.271,-0.286 -0.585,-0.546 -0.944,-0.781"
             style="fill:#000000;fill-opacity:1;fill-rule:nonzero;stroke:none"
             id="path108" /></g><path
           d="m 121.095,43.396 h -1.535 v -0.947 h 1.535 z m 0.036,-4.851 c 0,0.15 -0.04,0.28 -0.131,0.392 -0.085,0.11 -0.208,0.205 -0.356,0.28 -0.152,0.075 -0.326,0.133 -0.524,0.172 -0.2,0.04 -0.408,0.059 -0.632,0.059 -0.481,0 -0.872,-0.075 -1.166,-0.225 -0.294,-0.151 -0.441,-0.378 -0.441,-0.678 0,-0.283 0.15,-0.497 0.451,-0.641 0.3,-0.145 0.685,-0.216 1.156,-0.216 0.224,0 0.432,0.017 0.632,0.052 0.198,0.038 0.372,0.091 0.524,0.164 0.148,0.072 0.271,0.161 0.356,0.266 0.091,0.103 0.131,0.23 0.131,0.375 m 1.066,0.028 c 0,-0.254 -0.065,-0.487 -0.202,-0.697 -0.137,-0.211 -0.324,-0.39 -0.563,-0.541 -0.242,-0.152 -0.528,-0.267 -0.86,-0.348 -0.332,-0.083 -0.692,-0.122 -1.084,-0.122 -0.41,0 -0.781,0.039 -1.111,0.122 -0.332,0.081 -0.614,0.196 -0.844,0.343 -0.232,0.147 -0.411,0.328 -0.537,0.539 -0.13,0.209 -0.191,0.444 -0.191,0.704 0,0.252 0.061,0.482 0.191,0.689 0.126,0.209 0.305,0.387 0.537,0.537 0.23,0.15 0.512,0.268 0.844,0.349 0.33,0.083 0.701,0.122 1.111,0.122 0.392,0 0.752,-0.039 1.084,-0.122 0.332,-0.081 0.618,-0.196 0.86,-0.343 0.239,-0.147 0.426,-0.326 0.563,-0.533 0.137,-0.208 0.202,-0.442 0.202,-0.699 m -3.649,5.536 c 0,0.054 -0.009,0.088 -0.023,0.104 -0.015,0.014 -0.046,0.023 -0.093,0.023 h -1.718 c -0.049,0 -0.081,-0.006 -0.096,-0.018 -0.012,-0.012 -0.018,-0.044 -0.018,-0.099 v -2.313 c 0,-0.054 0.006,-0.089 0.018,-0.098 0.015,-0.014 0.047,-0.019 0.096,-0.019 h 1.718 c 0.047,0 0.078,0.005 0.093,0.019 0.014,0.009 0.023,0.044 0.023,0.098 z m 0.873,-3.111 c -0.092,-0.094 -0.254,-0.141 -0.484,-0.141 h -2.682 c -0.252,0 -0.428,0.047 -0.526,0.141 -0.097,0.093 -0.143,0.257 -0.143,0.492 v 2.964 c 0,0.226 0.045,0.386 0.14,0.473 0.091,0.087 0.252,0.131 0.482,0.131 h 2.729 c 0.23,0 0.392,-0.041 0.484,-0.122 0.092,-0.08 0.141,-0.243 0.141,-0.482 v -0.245 h 1.533 v 1.108 c 0,0.081 0.042,0.12 0.12,0.12 h 0.802 c 0.078,0 0.118,-0.039 0.118,-0.12 v -4.812 c 0,-0.085 -0.04,-0.126 -0.118,-0.126 h -0.802 c -0.078,0 -0.12,0.041 -0.12,0.126 v 1.129 h -1.533 V 41.49 c 0,-0.235 -0.049,-0.399 -0.141,-0.492"
           style="fill:#000000;fill-opacity:1;fill-rule:nonzero;stroke:none"
           id="path110" /><g
           id="g112"
           transform="translate(34.057,38.8578)"><path
             d="m 0,0 h 0.909 c 0.877,0 1.297,0.285 1.297,1.012 0,0.765 -0.348,1.062 -1.307,1.062 H 0 Z m 0,3.084 h 0.888 c 0.715,0 1.143,0.389 1.143,1.053 0,0.744 -0.398,0.969 -1.174,0.969 L 0,5.106 Z M 0.868,6.127 C 2.317,6.127 3.185,5.69 3.185,4.28 3.185,3.533 2.818,2.962 2.092,2.642 2.95,2.472 3.39,1.95 3.39,0.96 3.39,-0.479 2.501,-1.023 0.909,-1.023 h -2.011 v 7.15 z"
             style="fill:#000000;fill-opacity:1;fill-rule:nonzero;stroke:none"
             id="path114" /></g><g
           id="g116"
           transform="translate(39.8566,44.9851)"><path
             d="M 0,0 3.135,-5.116 V 0 H 4.219 V -7.15 H 3.155 L 0.011,-2.043 V -7.15 H -1.073 V 0 Z"
             style="fill:#000000;fill-opacity:1;fill-rule:nonzero;stroke:none"
             id="path118" /></g><g
           id="g120"
           transform="translate(46.9529,41.3084)"><path
             d="m 0,0 c 0.207,-0.043 0.349,-0.073 0.715,-0.073 0.909,0 1.482,0.319 1.482,1.36 0,1.052 -0.409,1.369 -1.38,1.369 H 0 Z m 0.817,3.677 c 1.756,0 2.492,-0.553 2.492,-2.339 0,-1.727 -1.071,-2.399 -2.502,-2.399 -0.389,0 -0.57,0.02 -0.807,0.071 v -2.483 h -1.102 v 7.15 z"
             style="fill:#000000;fill-opacity:1;fill-rule:nonzero;stroke:none"
             id="path122" /></g></g></g><g
       id="g124"><g
         id="g126"><g
           id="g132"><g
             id="g134"><path
               d="M 0,34.91 H 26.179 V 61.089 H 0 Z"
               style="fill:url(#linearGradient142);stroke:none"
               id="path144" /></g></g></g></g><g
       id="g146"><g
         id="g148"><g
           id="g154"><g
             id="g156"><path
               d="m 2.076,60.628 c -0.519,0 -0.866,-0.461 -0.923,-1.037 v 0 c 0,0 -0.691,-3.403 -0.691,-10.726 v 0 c 0,-7.266 0.633,-12.051 0.633,-12.051 v 0 c 0.058,-0.577 0.404,-1.039 0.923,-1.039 v 0 H 24.68 c 0.519,0 0.922,0.404 0.922,1.039 v 0 c 0,0 -0.23,5.592 -0.23,11.071 v 0 c 0,5.42 0.23,11.706 0.289,11.706 v 0 c 0,0.576 -0.404,1.037 -0.924,1.037 v 0 z"
               style="fill:url(#linearGradient174);stroke:none"
               id="path176" /></g></g></g></g><g
       id="g178"><g
         id="g180"><g
           id="g186"><g
             id="g188"><path
               d="m 14.762,58.034 c 0.692,-0.289 3.575,-1.846 3.921,-2.365 v 0 c -1.442,-0.172 -4.267,-0.922 -5.824,-1.672 v 0 l -0.115,-0.173 c 1.672,0.346 4.037,0.519 5.651,0.634 v 0 c -0.577,-0.865 -0.981,-1.326 -1.903,-2.307 v 0 l -0.058,-0.172 c 1.73,1.038 2.249,1.153 3.864,2.076 v 0 c 0.634,-0.923 0.749,-2.999 0.749,-4.614 v 0 c 0.577,1.038 1.211,5.017 0.923,5.709 v 0 c 1.038,0.75 1.21,1.327 1.21,1.327 v 0 C 22.2,56.362 21.624,56.362 21.105,56.188 v 0 c -1.211,0.75 -4.094,1.788 -6.286,2.019 v 0 z"
               style="fill:url(#linearGradient194);stroke:none"
               id="path196" /></g></g></g></g><g
       id="g198"><g
         id="g200"><g
           id="g206"><g
             id="g208"><path
               d="m 4.036,45.751 c -0.115,-1.326 -0.172,-2.249 0,-3.286 v 0 C 3.517,42.291 3.056,42.291 2.595,42.118 v 0 L 2.537,41.945 C 3.229,41.541 3.749,41.196 4.556,40.85 v 0 c 0.403,-0.866 0.865,-1.499 1.557,-2.191 v 0 l 0.057,0.172 c -0.116,0.52 -0.288,0.923 -0.231,1.5 v 0 c 0.865,-0.288 1.557,-0.404 2.537,-0.462 v 0 l 0.058,0.174 c -0.865,0.345 -1.73,0.576 -2.421,1.268 v 0 c 0.23,0.634 0.461,1.095 0.865,1.672 v 0 l 0.057,0.173 C 6.286,43.041 5.651,42.753 5.017,42.637 v 0 c -0.519,0.865 -0.693,2.076 -0.981,3.23 v 0 z"
               style="fill:url(#linearGradient214);stroke:none"
               id="path216" /></g></g></g></g><g
       id="g218"><g
         id="g220"><g
           id="g226"><g
             id="g228"><path
               d="M 8.476,51.748 H 7.035 C 6.286,51.691 5.132,51.633 4.556,51.46 v 0 L 4.498,51.286 c 0.923,-0.057 2.133,-0.287 2.595,-0.749 v 0 c 0,0 -1.384,-1.211 -2.711,-3.863 v 0 c 0,0 2.422,2.248 3.461,2.825 v 0 c 0,0 0.518,-1.845 0.922,-2.767 v 0 l 0.058,0.172 c 0.115,0.577 0.345,2.192 0.807,3.172 v 0 c 0,0 0.173,0.115 0.923,0.173 v 0 c 0.807,0.115 1.902,0.115 3.978,-0.231 v 0 l 0.058,0.173 c -0.462,0.288 -2.364,1.095 -4.382,1.384 v 0 h 0.057 c 0.289,0.808 0.634,1.442 0.634,1.442 v 0 C 10.437,52.959 9.226,52.383 8.476,51.748"
               style="fill:url(#linearGradient234);stroke:none"
               id="path236" /></g></g></g></g><g
       id="g238"><g
         id="g240"><g
           id="g246"><g
             id="g248"><path
               d="m 13.551,40.446 c -0.057,0.404 -0.115,0.692 -0.115,1.095 v 0 c -0.404,-0.576 -0.807,-1.037 -1.269,-1.557 v 0 c -0.692,-0.172 -1.499,-0.115 -2.134,-0.115 v 0 L 9.976,39.696 c 0.461,-0.23 0.922,-0.403 1.441,-0.519 v 0 c -0.403,-0.346 -0.922,-0.634 -1.326,-0.922 v 0 l -0.058,-0.173 c 0.807,0.173 1.904,0.519 2.711,1.037 v 0 c 0.403,0 0.807,0 1.095,0.058 v 0 l 0.058,0.174 c -0.058,0.172 -0.23,0.288 -0.288,0.576 v 0 c 0.75,0.577 1.268,1.096 1.903,1.73 v 0 l 0.115,0.173 c -0.635,-0.404 -1.384,-1.038 -2.076,-1.384"
               style="fill:url(#linearGradient254);stroke:none"
               id="path256" /></g></g></g></g><g
       id="g258"><g
         id="g260"
         clip-path="url(#clipPath264)"><g
           id="g266"
           transform="translate(20.413,54.2277)"><path
             d="m 0,0 c -1.615,-0.923 -2.134,-1.038 -3.863,-2.076 1.037,1.096 1.383,1.557 2.018,2.537 -1.615,-0.057 -3.979,-0.288 -5.651,-0.634 1.441,0.807 4.382,1.672 5.881,1.845 -0.346,0.462 -3.229,1.961 -3.978,2.307 2.249,-0.173 5.074,-1.038 6.4,-1.845 C 1.326,2.307 1.903,2.307 2.883,2.422 2.653,1.961 2.653,1.672 1.672,1.038 1.961,0.346 1.326,-3.633 0.75,-4.671 0.75,-2.999 0.577,-0.923 0,0 Z"
             style="fill:#ffffff;fill-opacity:1;fill-rule:nonzero;stroke:none"
             id="path268" /></g><g
           id="g270"
           transform="translate(8.5919,40.0424)"><path
             d="m 0,0 c -0.923,0.346 -1.615,0.75 -2.307,1.442 0.231,0.634 0.462,1.095 0.865,1.672 C -2.191,2.999 -2.768,2.941 -3.402,2.768 -3.979,3.748 -4.209,4.671 -4.44,5.882 -4.613,4.555 -4.613,3.633 -4.44,2.595 -5.017,2.422 -5.478,2.307 -5.939,2.076 -5.247,1.672 -4.671,1.326 -3.921,0.98 -3.517,0.115 -3.056,-0.519 -2.364,-1.211 -2.537,-0.634 -2.595,-0.173 -2.48,0.461 -1.73,0.173 -0.98,0.058 0,0 Z"
             style="fill:#ffffff;fill-opacity:1;fill-rule:nonzero;stroke:none"
             id="path272" /></g><g
           id="g274"
           transform="translate(11.0138,53.1897)"><path
             d="m 0,0 v 0 c -0.288,-0.404 -0.634,-1.096 -0.692,-1.384 2.364,-0.346 4.325,-1.557 4.325,-1.557 -2.076,0.346 -3.172,0.346 -3.979,0.231 -0.75,-0.058 -0.923,-0.173 -0.923,-0.173 -0.576,-1.211 -0.922,-3.345 -0.922,-3.345 -0.404,0.923 -0.923,2.768 -0.923,2.768 -1.038,-0.576 -3.46,-2.825 -3.46,-2.825 1.327,2.652 2.711,3.863 2.711,3.863 -0.462,0.461 -1.673,0.692 -2.595,0.75 0.461,0.173 1.672,0.403 2.595,0.461 h 1.441 C -1.672,-0.634 -0.461,-0.058 0,0 Z"
             style="fill:#ffffff;fill-opacity:1;fill-rule:nonzero;stroke:none"
             id="path276" /></g><g
           id="g278"
           transform="translate(13.551,41.7146)"><path
             d="m 0,0 c -0.404,-0.577 -0.807,-1.038 -1.269,-1.557 -0.807,-0.231 -1.441,-0.288 -2.248,-0.288 0.461,-0.231 0.922,-0.404 1.441,-0.519 -0.519,-0.462 -0.923,-0.75 -1.441,-1.096 0.807,0.173 1.902,0.519 2.71,1.038 0.403,0 0.807,0 1.095,0.058 -0.057,0.23 -0.115,0.403 -0.173,0.749 0.75,0.577 1.327,1.096 1.903,1.73 C 1.326,-0.346 0.75,-0.692 0,-1.038 Z"
             style="fill:#ffffff;fill-opacity:1;fill-rule:nonzero;stroke:none"
             id="path280" /></g></g></g></g></svg>
