<svg width="58" height="14" viewBox="0 0 58 14" fill="none" xmlns="http://www.w3.org/2000/svg">
<path fill-rule="evenodd" clip-rule="evenodd" d="M6.7835 4.63234C6.31235 4.63082 5.85137 4.76925 5.459 5.03006C5.06662 5.29088 4.76051 5.66233 4.57951 6.09732C4.39851 6.53232 4.35077 7.01127 4.44232 7.47344C4.53386 7.93561 4.76059 8.36019 5.09374 8.69334C5.42689 9.02649 5.85147 9.25322 6.31365 9.34476C6.77582 9.43631 7.25477 9.38855 7.68977 9.20755C8.12477 9.02655 8.49622 8.72046 8.75703 8.32809C9.01785 7.93571 9.15627 7.47472 9.15476 7.00358C9.15476 6.37468 8.90491 5.77155 8.46022 5.32686C8.01552 4.88216 7.4124 4.63234 6.7835 4.63234V4.63234Z" fill="#ED743B"/>
<path fill-rule="evenodd" clip-rule="evenodd" d="M10.6614 6.07031L9.94238 6.55986H12.9867V6.07031H10.6614Z" fill="#ED743B"/>
<path fill-rule="evenodd" clip-rule="evenodd" d="M10.6614 7.99028H12.9867V7.50073H9.94238L10.6614 7.99028Z" fill="#ED743B"/>
<path d="M12.9869 6.78174H9.53711V7.27129H12.9869V6.78174Z" fill="#ED743B"/>
<path fill-rule="evenodd" clip-rule="evenodd" d="M8.73389 9.54309L10.3325 12.1362L10.7456 11.8837L9.5294 9.9026L8.73389 9.54309Z" fill="#ED743B"/>
<path d="M8.33848 9.32969L7.92188 9.58679L9.73359 12.5225L10.1502 12.2654L8.33848 9.32969Z" fill="#ED743B"/>
<path fill-rule="evenodd" clip-rule="evenodd" d="M4.75615 4.5099L3.10395 1.95508L2.69092 2.21515L3.83062 3.94386L4.75615 4.5099Z" fill="#ED743B"/>
<path fill-rule="evenodd" clip-rule="evenodd" d="M5.56691 3.12546L4.30481 1.17493L3.89941 1.44265L5.55162 3.99747L5.56691 3.12546Z" fill="#ED743B"/>
<path fill-rule="evenodd" clip-rule="evenodd" d="M5.57466 4.4641L3.70063 1.56506L3.2876 1.83278L5.16161 4.73182L5.57466 4.4641Z" fill="#ED743B"/>
<path fill-rule="evenodd" clip-rule="evenodd" d="M9.45268 1.3585L9.03196 1.10608L7.92285 3.06426L7.93048 3.98981L9.45268 1.3585Z" fill="#ED743B"/>
<path fill-rule="evenodd" clip-rule="evenodd" d="M9.65162 3.89035L10.6919 2.06985L10.2712 1.82507L8.74902 4.46403L9.65162 3.89035Z" fill="#ED743B"/>
<path d="M9.66686 1.4751L7.94043 4.46179L8.36426 4.70679L10.0907 1.7201L9.66686 1.4751Z" fill="#ED743B"/>
<path fill-rule="evenodd" clip-rule="evenodd" d="M3.92229 10.0862L2.8208 11.8684L3.23387 12.1285L4.84021 9.54309L3.92229 10.0862Z" fill="#ED743B"/>
<path fill-rule="evenodd" clip-rule="evenodd" d="M3.43311 12.2509L3.8538 12.511L5.67429 9.57371L5.25357 9.32129L3.43311 12.2509Z" fill="#ED743B"/>
<path fill-rule="evenodd" clip-rule="evenodd" d="M2.81315 6.07031H0.625488V6.55986H3.66988L2.81315 6.07031Z" fill="#ED743B"/>
<path fill-rule="evenodd" clip-rule="evenodd" d="M3.66988 7.50073H0.625488V7.99028H2.95085L3.66988 7.50073Z" fill="#ED743B"/>
<path d="M4.07529 6.78174H0.625488V7.27129H4.07529V6.78174Z" fill="#ED743B"/>
<path d="M6.29376 0.800049H5.8042V4.24982H6.29376V0.800049Z" fill="#ED743B"/>
<path d="M7.00519 0.800049H6.51562V4.24982H7.00519V0.800049Z" fill="#ED743B"/>
<path d="M7.70879 0.800049H7.21924V4.24982H7.70879V0.800049Z" fill="#ED743B"/>
<path d="M6.29376 9.77258H5.8042V13.2224H6.29376V9.77258Z" fill="#ED743B"/>
<path d="M7.00519 9.77258H6.51562V13.2224H7.00519V9.77258Z" fill="#ED743B"/>
<path d="M7.70879 9.77258H7.21924V13.2224H7.70879V9.77258Z" fill="#ED743B"/>
<path d="M3.83402 7.59601L1.00781 9.57422L1.28853 9.97528L4.11475 7.99707L3.83402 7.59601Z" fill="#ED743B"/>
<path d="M4.232 8.15339L1.40576 10.1316L1.68649 10.5327L4.51273 8.55445L4.232 8.15339Z" fill="#ED743B"/>
<path d="M4.64233 8.74495L1.81543 10.7222L2.09601 11.1233L4.92291 9.14611L4.64233 8.74495Z" fill="#ED743B"/>
<path d="M11.4559 2.94721L8.62891 4.92444L8.90949 5.3256L11.7364 3.34837L11.4559 2.94721Z" fill="#ED743B"/>
<path d="M11.9611 4.47125L9.13232 6.43762L9.41136 6.83905L12.2402 4.87268L11.9611 4.47125Z" fill="#ED743B"/>
<path d="M12.2664 4.10846L9.43945 6.08569L9.72004 6.48685L12.547 4.50962L12.2664 4.10846Z" fill="#ED743B"/>
<path d="M10.3146 7.43776L10.0552 7.85388L12.9875 9.68226L13.2469 9.26614L10.3146 7.43776Z" fill="#ED743B"/>
<path d="M9.23691 8.1455L8.97852 8.56128L11.9085 10.3822L12.1669 9.96645L9.23691 8.1455Z" fill="#ED743B"/>
<path d="M8.87301 8.75989L8.61475 9.17578L11.5454 10.9957L11.8036 10.5798L8.87301 8.75989Z" fill="#ED743B"/>
<path d="M1.90545 3.05704L1.64697 3.47278L4.5767 5.29424L4.83517 4.8785L1.90545 3.05704Z" fill="#ED743B"/>
<path d="M1.54503 3.66525L1.28662 4.08105L4.21666 5.902L4.47507 5.4862L1.54503 3.66525Z" fill="#ED743B"/>
<path d="M1.18461 4.28105L0.92627 4.6969L3.85664 6.51734L4.11497 6.10149L1.18461 4.28105Z" fill="#ED743B"/>
<path fill-rule="evenodd" clip-rule="evenodd" d="M20.5134 5.39722H24.0932V4.18865H17.2702V2.95714H24.0015H24.0932V1.69503L16.1534 1.66443L16.0922 5.42781H19.4272V6.08564H15.1055V7.25596H25.1106V6.02445H20.5134V5.39722Z" fill="#00936C"/>
<path fill-rule="evenodd" clip-rule="evenodd" d="M19.8864 7.61548C17.6452 7.61548 15.8247 8.65577 15.8247 9.91023C15.8247 11.1647 17.6452 12.205 19.8864 12.205C22.1276 12.205 23.9405 11.1723 23.9405 9.91023C23.9405 8.64812 22.1276 7.61548 19.8864 7.61548ZM19.8864 11.2794C18.3566 11.2794 17.148 10.6751 17.148 9.93317C17.148 9.19121 18.3719 8.57927 19.8864 8.57927C21.4009 8.57927 22.6172 9.18356 22.6172 9.93317C22.6172 10.6828 21.3933 11.2794 19.8864 11.2794Z" fill="#00936C"/>
<path fill-rule="evenodd" clip-rule="evenodd" d="M34.2363 6.9271H35.6055V5.69558V4.63235V3.36259V1.78687H34.2516V3.36259H28.4076V1.78687H27.0537V6.9271H34.2516H34.2363ZM28.3923 4.63235H34.2363V5.73383H28.3923V4.63235Z" fill="#00936C"/>
<path fill-rule="evenodd" clip-rule="evenodd" d="M26.4033 9.21414H30.5797V11.9449H31.9031V9.21414H36.2631V7.95203H26.4033V9.21414Z" fill="#00936C"/>
<path fill-rule="evenodd" clip-rule="evenodd" d="M39.9883 3.56144L41.4646 7.28658H42.8108L40.7149 1.93982H39.4222L37.4028 7.25598L38.8179 7.28658L39.9883 3.56144Z" fill="#00936C"/>
<path fill-rule="evenodd" clip-rule="evenodd" d="M45.4651 3.8674H44.4095V1.90922H43.2086V7.26363H44.4095V5.15246H45.3427V8.27332C44.4706 7.82449 43.5009 7.5985 42.5202 7.61549C40.279 7.61549 38.4585 8.65578 38.4585 9.91024C38.4585 11.1647 40.279 12.205 42.5202 12.205C44.6314 12.205 46.3448 11.2794 46.5589 10.1015H46.6048V1.84802H45.4651V3.8674ZM42.5202 11.2029C40.9904 11.2029 39.7206 10.6063 39.7206 9.87964C39.7206 9.15297 40.9751 8.55633 42.5202 8.55633C44.0653 8.55633 45.3121 9.14532 45.3121 9.87964C45.3121 10.614 44.0577 11.2259 42.5202 11.2259V11.2029Z" fill="#00936C"/>
<path fill-rule="evenodd" clip-rule="evenodd" d="M53.4585 1.75623H48.1958V7.28657H53.4585V1.75623ZM52.227 6.11625H49.3661V2.95714H52.227V6.11625Z" fill="#00936C"/>
<path fill-rule="evenodd" clip-rule="evenodd" d="M55.8603 1.81738V3.28602H54.3305V4.34161H55.8603V5.22891H54.3305V6.27684H55.8603V8.34212C54.965 7.82779 53.9478 7.5636 52.9154 7.5772C50.6742 7.5772 48.8613 8.61748 48.8613 9.87195C48.8613 11.1264 50.6742 12.1667 52.9154 12.1667C55.1566 12.1667 56.8547 11.1953 56.9618 9.97139H57.0077V1.81738H55.8603ZM53.0378 11.2794C51.5079 11.2794 50.2994 10.6751 50.2994 9.93314C50.2994 9.19117 51.5232 8.57924 53.0378 8.57924C54.5523 8.57924 55.7685 9.18352 55.7685 9.93314C55.7685 10.6828 54.5447 11.2794 53.0378 11.2794Z" fill="#00936C"/>
</svg>
