<?xml version="1.0" encoding="UTF-8" standalone="no"?>
<svg
   xmlns:dc="http://purl.org/dc/elements/1.1/"
   xmlns:cc="http://creativecommons.org/ns#"
   xmlns:rdf="http://www.w3.org/1999/02/22-rdf-syntax-ns#"
   xmlns:svg="http://www.w3.org/2000/svg"
   xmlns="http://www.w3.org/2000/svg"
   xmlns:sodipodi="http://sodipodi.sourceforge.net/DTD/sodipodi-0.dtd"
   xmlns:inkscape="http://www.inkscape.org/namespaces/inkscape"
   version="1.1"
   id="svg2"
   xml:space="preserve"
   width="256"
   height="128"
   viewBox="0 0 256 128"
   sodipodi:docname="동양생명.ai"><metadata
     id="metadata8"><rdf:RDF><cc:Work
         rdf:about=""><dc:format>image/svg+xml</dc:format><dc:type
           rdf:resource="http://purl.org/dc/dcmitype/StillImage" /></cc:Work></rdf:RDF></metadata><defs
     id="defs6"><clipPath
       clipPathUnits="userSpaceOnUse"
       id="clipPath18"><path
         d="M 0,96 H 192 V 0 H 0 Z"
         id="path16" /></clipPath></defs><sodipodi:namedview
     pagecolor="#ffffff"
     bordercolor="#666666"
     borderopacity="1"
     objecttolerance="10"
     gridtolerance="10"
     guidetolerance="10"
     inkscape:pageopacity="0"
     inkscape:pageshadow="2"
     inkscape:window-width="640"
     inkscape:window-height="480"
     id="namedview4" /><g
     id="g10"
     inkscape:groupmode="layer"
     inkscape:label="동양생명"
     transform="matrix(1.3333333,0,0,-1.3333333,0,128)"><g
       id="g12"><g
         id="g14"
         clip-path="url(#clipPath18)"><g
           id="g20"
           transform="translate(151.6456,77.7363)"><path
             d="m 0,0 c -3.524,-3.528 -3.524,-9.265 0,-12.793 l 4.92,-4.92 c 1.63,-1.63 4.271,-1.63 5.901,0 h 0.004 l -7.873,7.872 c -1.898,1.898 -1.898,4.991 0,6.893 1.902,1.898 4.991,1.898 6.889,0 h 0.004 l 14.761,-14.765 c 1.625,-1.63 4.266,-1.63 5.896,0 h 0.004 L 12.793,0 C 9.265,3.528 3.528,3.528 0,0"
             style="fill:#0098d8;fill-opacity:1;fill-rule:nonzero;stroke:none"
             id="path22" /></g><g
           id="g24"
           transform="translate(169.3627,82.6566)"><path
             d="m 0,0 c -6.243,6.243 -16.398,6.243 -22.637,0 -6.239,-6.239 -6.239,-16.391 0,-22.633 1.629,-1.63 4.274,-1.63 5.9,0 l -2.948,2.952 c -4.613,4.613 -4.613,12.12 0,16.733 4.613,4.613 12.116,4.613 16.729,0 h 0.004 L 16.729,-22.63 v -0.003 c 1.63,-1.63 4.267,-1.63 5.897,-0.004 l 0.011,0.004 z"
             style="fill:#0098d8;fill-opacity:1;fill-rule:nonzero;stroke:none"
             id="path26" /></g><g
           id="g28"
           transform="translate(156.5699,72.816)"><path
             d="m 0,0 c -0.817,-0.813 -0.817,-2.135 -0.004,-2.952 l 9.841,-9.841 c 1.629,-1.63 4.27,-1.63 5.9,0 h 0.004 L 2.948,0 C 2.135,0.817 0.813,0.813 0,0"
             style="fill:#0098d8;fill-opacity:1;fill-rule:nonzero;stroke:none"
             id="path30" /></g><g
           id="g32"
           transform="translate(129.6812,77.7363)"><path
             d="m 0,0 c 3.528,-3.528 3.528,-9.265 0,-12.793 l -4.916,-4.92 c -1.634,-1.63 -4.275,-1.63 -5.905,0 l 7.873,7.872 c 1.898,1.898 1.898,4.991 -0.004,6.893 -1.902,1.898 -4.987,1.898 -6.889,0 l -14.764,-14.765 c -1.626,-1.63 -4.263,-1.63 -5.897,0 h -0.004 L -12.793,0 C -9.265,3.528 -3.528,3.528 0,0"
             style="fill:#0098d8;fill-opacity:1;fill-rule:nonzero;stroke:none"
             id="path34" /></g><g
           id="g36"
           transform="translate(111.9681,82.6566)"><path
             d="m 0,0 c 6.239,6.243 16.395,6.243 22.633,0 6.239,-6.239 6.239,-16.391 0,-22.633 -1.629,-1.63 -4.27,-1.63 -5.9,0 l 2.948,2.952 c 4.613,4.613 4.613,12.12 0,16.733 -4.609,4.613 -12.116,4.613 -16.729,0 l -19.685,-19.682 0.004,-0.003 c -1.63,-1.63 -4.27,-1.63 -5.899,-0.004 l -0.008,0.004 z"
             style="fill:#0098d8;fill-opacity:1;fill-rule:nonzero;stroke:none"
             id="path38" /></g><g
           id="g40"
           transform="translate(124.7609,72.816)"><path
             d="m 0,0 c 0.813,-0.813 0.813,-2.135 0,-2.952 l -9.841,-9.841 c -1.629,-1.63 -4.27,-1.63 -5.9,0 h -0.004 L -2.952,0 C -2.139,0.817 -0.817,0.813 0,0"
             style="fill:#0098d8;fill-opacity:1;fill-rule:nonzero;stroke:none"
             id="path42" /></g><g
           id="g44"
           transform="translate(45.2619,32.9983)"><path
             d="m 0,0 c -2.921,0 -5.295,2.458 -5.295,5.48 0,3.027 2.374,5.485 5.295,5.485 2.917,0 5.293,-2.458 5.293,-5.485 C 5.293,2.458 2.917,0 0,0 m 9.697,5.48 c 0,5.244 -4.35,9.514 -9.697,9.514 -5.349,0 -9.701,-4.27 -9.701,-9.514 0,-5.243 4.352,-9.51 9.701,-9.51 5.347,0 9.697,4.267 9.697,9.51"
             style="fill:#0098d8;fill-opacity:1;fill-rule:nonzero;stroke:none"
             id="path46" /></g><g
           id="g48"
           transform="translate(130.432,12.687)"><path
             d="m 0,0 c -2.839,0 -5.15,2.213 -5.15,4.932 0,2.723 2.311,4.936 5.15,4.936 2.843,0 5.158,-2.213 5.158,-4.936 C 5.158,2.213 2.843,0 0,0 m 0,13.894 c -5.267,0 -9.557,-4.018 -9.557,-8.962 0,-4.94 4.29,-8.958 9.557,-8.958 5.274,0 9.56,4.018 9.56,8.958 0,4.944 -4.286,8.962 -9.56,8.962"
             style="fill:#0098d8;fill-opacity:1;fill-rule:nonzero;stroke:none"
             id="path50" /></g><g
           id="g52"
           transform="translate(92.7069,12.687)"><path
             d="m 0,0 c -2.841,0 -5.154,2.213 -5.154,4.932 0,2.723 2.313,4.936 5.154,4.936 2.839,0 5.15,-2.213 5.15,-4.936 C 5.15,2.213 2.839,0 0,0 m 0,13.894 c -5.271,0 -9.558,-4.018 -9.558,-8.962 0,-4.94 4.287,-8.958 9.558,-8.958 5.266,0 9.557,4.018 9.557,8.958 0,4.944 -4.291,8.962 -9.557,8.962"
             style="fill:#0098d8;fill-opacity:1;fill-rule:nonzero;stroke:none"
             id="path54" /></g><g
           id="g56"
           transform="translate(54.9791,12.687)"><path
             d="m 0,0 c -2.84,0 -5.154,2.213 -5.154,4.932 0,2.723 2.314,4.936 5.154,4.936 2.84,0 5.152,-2.213 5.152,-4.936 C 5.152,2.213 2.84,0 0,0 m 0,13.894 c -5.271,0 -9.559,-4.018 -9.559,-8.962 0,-4.94 4.288,-8.958 9.559,-8.958 5.27,0 9.558,4.018 9.558,8.958 0,4.944 -4.288,8.962 -9.558,8.962"
             style="fill:#0098d8;fill-opacity:1;fill-rule:nonzero;stroke:none"
             id="path58" /></g><g
           id="g60"
           transform="translate(17.251,12.687)"><path
             d="m 0,0 c -2.842,0 -5.153,2.213 -5.153,4.932 0,2.723 2.311,4.936 5.153,4.936 2.842,0 5.151,-2.213 5.151,-4.936 C 5.151,2.213 2.842,0 0,0 m 0,13.894 c -5.271,0 -9.557,-4.018 -9.557,-8.962 0,-4.94 4.286,-8.958 9.557,-8.958 5.269,0 9.559,4.018 9.559,8.958 0,4.944 -4.29,8.962 -9.559,8.962"
             style="fill:#0098d8;fill-opacity:1;fill-rule:nonzero;stroke:none"
             id="path62" /></g><g
           id="g64"
           transform="translate(87.707,30.4196)"><path
             d="M 0,0 V 0 C 1.062,0 2.078,0.408 2.791,1.124 2.909,1.241 2.97,1.396 2.964,1.556 2.954,1.719 2.879,1.867 2.75,1.972 L -5.103,8.46 c 0.574,1.987 0.855,4.24 0.855,6.88 v 1.366 c 0,0.342 -0.28,0.618 -0.621,0.618 h -3.165 c -0.342,0 -0.619,-0.276 -0.619,-0.618 V 15.34 c 0,-7.351 -2.532,-10.688 -6.91,-13.982 -0.124,-0.109 -0.197,-0.261 -0.205,-0.424 -0.009,-0.168 0.046,-0.327 0.157,-0.448 0.717,-0.801 1.687,-1.244 2.729,-1.244 0.903,0 1.786,0.342 2.486,0.968 1.481,1.365 2.644,2.758 3.552,4.259 L -2.488,0.871 C -1.81,0.311 -0.926,0 0,0"
             style="fill:#0098d8;fill-opacity:1;fill-rule:nonzero;stroke:none"
             id="path66" /></g><g
           id="g68"
           transform="translate(34.0803,31.5786)"><path
             d="m 0,0 h -14.628 v 2.711 h 6.04 c 1.882,0 3.41,1.529 3.41,3.411 0,0.339 -0.278,0.619 -0.618,0.619 h -18.432 v 5.286 h 15.64 c 1.882,0 3.41,1.528 3.41,3.411 0,0.338 -0.278,0.618 -0.618,0.618 h -22.219 c -0.34,0 -0.617,-0.28 -0.617,-0.618 V 6.612 c 0,-2.151 1.918,-3.901 4.274,-3.901 h 5.327 V 0 h -14.431 c -0.34,0 -0.618,-0.276 -0.618,-0.618 v -2.789 c 0,-0.343 0.278,-0.623 0.618,-0.623 h 30.67 c 1.881,0 3.411,1.533 3.411,3.412 C 0.619,-0.276 0.341,0 0,0"
             style="fill:#0098d8;fill-opacity:1;fill-rule:nonzero;stroke:none"
             id="path70" /></g><g
           id="g72"
           transform="translate(67.4616,39.883)"><path
             d="m 0,0 c 1.882,0 3.412,1.528 3.412,3.407 0,0.346 -0.28,0.619 -0.621,0.619 h -5.043 v 4.158 c 0,0.342 -0.279,0.618 -0.619,0.618 H -6.04 c -0.34,0 -0.618,-0.276 -0.618,-0.618 v -21.16 c 0,-0.342 0.278,-0.622 0.618,-0.622 2.089,0 3.788,1.7 3.788,3.788 v 2.571 H 0 c 1.882,0 3.412,1.529 3.412,3.408 0,0.342 -0.28,0.618 -0.621,0.618 H -2.252 V 0 Z"
             style="fill:#0098d8;fill-opacity:1;fill-rule:nonzero;stroke:none"
             id="path74" /></g><g
           id="g76"
           transform="translate(103.9672,48.6851)"><path
             d="m 0,0 h -3.17 c -0.342,0 -0.618,-0.276 -0.618,-0.619 v -7.79 H -7.48 v 7.503 c 0,0.338 -0.276,0.618 -0.618,0.618 h -3.17 c -0.338,0 -0.619,-0.28 -0.619,-0.618 v -19.145 c 0,-0.338 0.281,-0.618 0.619,-0.618 2.089,0 3.788,1.7 3.788,3.784 v 4.446 h 3.692 v -9.339 c 0,-0.342 0.276,-0.622 0.618,-0.622 2.089,0 3.788,1.7 3.788,3.788 V -0.619 C 0.618,-0.276 0.338,0 0,0"
             style="fill:#0098d8;fill-opacity:1;fill-rule:nonzero;stroke:none"
             id="path78" /></g><path
           d="m 124.671,33.379 h -8.923 v 9.413 h 8.923 z m 11.712,3.291 h -7.304 v 3.213 h 7.304 z m 3.788,12.015 h -3.166 c -0.342,0 -0.622,-0.276 -0.622,-0.618 v -4.158 h -7.305 v 2.295 c 0,0.338 -0.276,0.618 -0.618,0.618 h -16.496 c -0.342,0 -0.622,-0.28 -0.622,-0.618 V 33.251 c 0,-2.151 1.921,-3.901 4.278,-3.901 h 12.84 c 0.342,0 0.618,0.28 0.618,0.622 v 2.672 h 7.305 v -5.737 c 0,-0.342 0.28,-0.622 0.622,-0.622 2.089,0 3.785,1.7 3.785,3.788 v 17.994 c 0,0.342 -0.276,0.618 -0.619,0.618"
           style="fill:#0098d8;fill-opacity:1;fill-rule:nonzero;stroke:none"
           id="path80" /><g
           id="g82"
           transform="translate(23.1428,66.8689)"><path
             d="m 0,0 h -19.209 c -0.201,0 -0.366,-0.163 -0.366,-0.366 v -1.645 c 0,-0.202 0.165,-0.37 0.366,-0.37 h 8.366 v -5.142 c 0,-0.206 0.164,-0.369 0.367,-0.369 1.232,0 2.237,1.004 2.237,2.236 v 3.275 h 6.59 c 1.112,0 2.015,0.907 2.015,2.015 C 0.366,-0.163 0.201,0 0,0"
             style="fill:#0098d8;fill-opacity:1;fill-rule:nonzero;stroke:none"
             id="path84" /></g><g
           id="g86"
           transform="translate(36.8168,70.2994)"><path
             d="m 0,0 c 0,-1.552 -1.212,-2.812 -2.701,-2.812 -1.49,0 -2.704,1.26 -2.704,2.812 0,1.552 1.214,2.816 2.704,2.816 C -1.212,2.816 0,1.552 0,0 m 7.241,-6.713 h -8.64 v 1.68 c 2.36,0.583 4.003,2.645 4.003,5.033 0,1.334 -0.511,2.587 -1.441,3.555 h 1.724 c 1.11,0 2.014,0.906 2.014,2.015 0,0.202 -0.164,0.366 -0.365,0.366 h -5.935 v 2.049 c 0,0.203 -0.165,0.366 -0.368,0.366 h -1.871 c -0.201,0 -0.365,-0.163 -0.365,-0.366 V 5.936 h -5.82 c -0.201,0 -0.367,-0.164 -0.367,-0.366 V 3.921 c 0,-0.203 0.166,-0.366 0.367,-0.366 h 3.258 C -7.497,2.587 -8.007,1.334 -8.007,0 c 0,-2.388 1.643,-4.45 4.004,-5.033 v -1.68 h -8.206 c -0.202,0 -0.366,-0.164 -0.366,-0.366 v -1.649 c 0,-0.203 0.164,-0.366 0.366,-0.366 H 5.593 c 1.111,0 2.015,0.903 2.015,2.015 0,0.202 -0.165,0.366 -0.367,0.366"
             style="fill:#0098d8;fill-opacity:1;fill-rule:nonzero;stroke:none"
             id="path88" /></g><g
           id="g90"
           transform="translate(86.8648,72.3843)"><path
             d="m 0,0 h -2.98 v 5.9 c 0,0.203 -0.164,0.366 -0.365,0.366 h -1.872 c -0.202,0 -0.365,-0.163 -0.365,-0.366 v -18.506 c 0,-0.199 0.163,-0.366 0.365,-0.366 1.233,0 2.237,1.004 2.237,2.237 v 8.355 h 1.332 c 1.109,0 2.015,0.906 2.015,2.014 C 0.367,-0.163 0.202,0 0,0"
             style="fill:#0098d8;fill-opacity:1;fill-rule:nonzero;stroke:none"
             id="path92" /></g><g
           id="g94"
           transform="translate(63.3116,58.7824)"><path
             d="m 0,0 h -9.922 v 4.329 c 0,0.198 -0.166,0.366 -0.368,0.366 h -1.871 c -0.2,0 -0.365,-0.168 -0.365,-0.366 v -4.407 c 0,-1.272 1.132,-2.302 2.527,-2.302 h 8.351 c 1.11,0 2.013,0.902 2.013,2.014 C 0.365,-0.167 0.201,0 0,0"
             style="fill:#0098d8;fill-opacity:1;fill-rule:nonzero;stroke:none"
             id="path96" /></g><g
           id="g98"
           transform="translate(56.6137,72.0186)"><path
             d="m 0,0 v -1.649 c 0,-0.202 0.163,-0.366 0.367,-0.366 h 3.841 v -7.32 c 0,-0.202 0.163,-0.366 0.364,-0.366 1.234,0 2.239,1.004 2.239,2.237 v 13.73 c 0,0.202 -0.165,0.366 -0.367,0.366 H 4.572 C 4.371,6.632 4.208,6.468 4.208,6.266 v -5.9 H 0.367 C 0.163,0.366 0,0.202 0,0"
             style="fill:#0098d8;fill-opacity:1;fill-rule:nonzero;stroke:none"
             id="path100" /></g><g
           id="g102"
           transform="translate(79.6768,66.4021)"><path
             d="m 0,0 c -3.755,2.33 -5.431,5.177 -5.431,9.234 v 1.719 c 0,0.198 -0.163,0.366 -0.364,0.366 h -1.872 c -0.202,0 -0.366,-0.168 -0.366,-0.366 V 9.059 c 0,-4.057 -1.675,-6.904 -5.436,-9.234 -0.165,-0.121 -0.201,-0.35 -0.082,-0.513 0.406,-0.557 1.027,-0.879 1.702,-0.879 0.473,0 0.938,0.155 1.341,0.451 1.729,1.31 2.979,2.765 3.82,4.446 0.839,-1.607 2.059,-3.007 3.732,-4.275 0.404,-0.292 0.866,-0.447 1.341,-0.447 0.676,0 1.295,0.318 1.702,0.879 C 0.204,-0.35 0.167,-0.121 0,0"
             style="fill:#0098d8;fill-opacity:1;fill-rule:nonzero;stroke:none"
             id="path104" /></g><g
           id="g106"
           transform="translate(55.222,65.7447)"><path
             d="m 0,0 c 0.394,-0.292 0.851,-0.447 1.321,-0.447 h 0.001 c 0.68,0 1.311,0.323 1.731,0.887 0.119,0.163 0.084,0.392 -0.083,0.517 -3.188,1.952 -4.731,4.006 -5.14,6.849 h 2.568 c 1.11,0 2.015,0.907 2.015,2.015 0,0.202 -0.165,0.366 -0.365,0.366 h -4.333 v 2.353 c 0,0.202 -0.164,0.366 -0.367,0.366 h -1.871 c -0.201,0 -0.367,-0.164 -0.367,-0.366 v -2.353 h -4.215 c -0.203,0 -0.366,-0.164 -0.366,-0.366 V 8.172 c 0,-0.202 0.163,-0.366 0.366,-0.366 h 4.16 C -5.25,4.73 -6.81,2.536 -10.15,0.49 c -0.162,-0.121 -0.196,-0.35 -0.076,-0.513 0.419,-0.564 1.05,-0.887 1.73,-0.887 0.471,0 0.928,0.155 1.323,0.447 1.703,1.26 2.922,2.622 3.715,4.162 C -2.666,2.345 -1.533,1.132 0,0"
             style="fill:#0098d8;fill-opacity:1;fill-rule:nonzero;stroke:none"
             id="path108" /></g><g
           id="g110"
           transform="translate(7.3833,68.907)"><path
             d="M 0,0 V 0 C 0.321,0 0.641,0.07 0.948,0.21 3.357,1.291 5.128,2.645 6.218,4.243 7.308,2.645 9.08,1.291 11.49,0.21 11.797,0.07 12.116,0 12.436,0 c 0.822,0 1.552,0.482 1.907,1.256 0.082,0.183 10e-4,0.401 -0.189,0.487 C 9.629,3.333 7.52,5.473 7.52,8.471 v 0.611 c 0,0.202 -0.165,0.366 -0.365,0.366 H 5.283 C 5.081,9.448 4.916,9.284 4.916,9.082 V 8.471 C 4.916,5.473 2.808,3.333 -1.723,1.743 -1.908,1.657 -1.99,1.439 -1.905,1.256 -1.551,0.482 -0.82,0 0,0"
             style="fill:#0098d8;fill-opacity:1;fill-rule:nonzero;stroke:none"
             id="path112" /></g></g></g></g></svg>
