<?xml version="1.0" encoding="UTF-8" standalone="no"?>
<svg
   xmlns:dc="http://purl.org/dc/elements/1.1/"
   xmlns:cc="http://creativecommons.org/ns#"
   xmlns:rdf="http://www.w3.org/1999/02/22-rdf-syntax-ns#"
   xmlns:svg="http://www.w3.org/2000/svg"
   xmlns="http://www.w3.org/2000/svg"
   xmlns:sodipodi="http://sodipodi.sourceforge.net/DTD/sodipodi-0.dtd"
   xmlns:inkscape="http://www.inkscape.org/namespaces/inkscape"
   version="1.1"
   id="svg2"
   xml:space="preserve"
   width="256"
   height="128"
   viewBox="0 0 256 128"
   sodipodi:docname="푸본현대생명.ai"><metadata
     id="metadata8"><rdf:RDF><cc:Work
         rdf:about=""><dc:format>image/svg+xml</dc:format><dc:type
           rdf:resource="http://purl.org/dc/dcmitype/StillImage" /></cc:Work></rdf:RDF></metadata><defs
     id="defs6"><clipPath
       clipPathUnits="userSpaceOnUse"
       id="clipPath18"><path
         d="M 0,96 H 192 V 0 H 0 Z"
         id="path16" /></clipPath></defs><sodipodi:namedview
     pagecolor="#ffffff"
     bordercolor="#666666"
     borderopacity="1"
     objecttolerance="10"
     gridtolerance="10"
     guidetolerance="10"
     inkscape:pageopacity="0"
     inkscape:pageshadow="2"
     inkscape:window-width="640"
     inkscape:window-height="480"
     id="namedview4" /><g
     id="g10"
     inkscape:groupmode="layer"
     inkscape:label="푸본현대생명"
     transform="matrix(1.3333333,0,0,-1.3333333,0,128)"><g
       id="g12"><g
         id="g14"
         clip-path="url(#clipPath18)"><g
           id="g20"
           transform="translate(30.0949,50.1493)"><path
             d="m 0,0 c -0.028,-0.007 0.018,0.011 0,0 0,0 -0.009,-0.117 0.351,-0.361 2.212,-1.784 3.381,-3.507 3.367,-7.01 -0.01,-4.384 -3.816,-7.559 -8.134,-7.559 v -6.046 c 7.515,0 14.353,5.35 14.353,12.981 0,2.732 -0.751,5.428 -2.613,8.043 C 7.41,0.155 7.809,0.634 8.14,1.216 8.599,2.022 8.688,3.005 8.688,6.299 V 20.555 H -10.598 V 9.193 h -6.153 V 2.948 h 12.435 v 11.22 h 6.94 V 4.489 C 2.624,4.489 2.901,1.791 0,0"
             style="fill:#009e99;fill-opacity:1;fill-rule:nonzero;stroke:none"
             id="path22" /></g><g
           id="g24"
           transform="translate(13.4064,70.7038)"><path
             d="m 0,0 h -1.789 c -3.275,-0.089 -6.699,-1.12 -8.978,-3.709 -2.41,-2.74 -2.639,-5.167 -2.639,-9.176 V -41.533 H 6.182 v 11.242 h 6.201 v 6.326 H -0.059 v -11.34 H -7.17 v 23.743 c 0,0 -0.466,5.161 5.753,5.302 l 1.421,0.069 z"
             style="fill:#00829c;fill-opacity:1;fill-rule:nonzero;stroke:none"
             id="path26" /></g><g
           id="g28"
           transform="translate(69.0004,47.2979)"><path
             d="M 0,0 C 0,-0.135 -0.041,-0.239 -0.117,-0.308 -0.194,-0.376 -0.294,-0.409 -0.411,-0.409 H -2.57 c -0.137,0 -0.241,0.033 -0.31,0.101 -0.068,0.069 -0.101,0.173 -0.101,0.308 v 6.749 c 0,0.12 -0.036,0.216 -0.102,0.283 -0.071,0.068 -0.164,0.104 -0.285,0.104 h -8.554 c -0.139,0 -0.24,0.037 -0.31,0.115 -0.065,0.075 -0.101,0.182 -0.101,0.321 v 1.742 c 0,0.121 0.036,0.219 0.101,0.298 0.07,0.076 0.171,0.113 0.31,0.113 H 8.941 C 9.056,9.725 9.154,9.688 9.234,9.612 9.313,9.533 9.352,9.435 9.352,9.314 V 7.572 C 9.352,7.433 9.313,7.326 9.234,7.251 9.154,7.173 9.056,7.136 8.941,7.136 H 0.383 C 0.247,7.136 0.148,7.1 0.087,7.032 0.028,6.965 0,6.869 0,6.749 Z m -9.711,11.984 c -0.137,0 -0.242,0.034 -0.31,0.105 -0.068,0.068 -0.101,0.169 -0.101,0.306 v 1.771 c 0,0.12 0.033,0.219 0.101,0.296 0.068,0.075 0.173,0.116 0.31,0.116 h 2.488 c 0.123,0 0.217,0.03 0.285,0.089 0.069,0.06 0.103,0.158 0.103,0.295 v 3.902 c 0,0.119 -0.034,0.213 -0.103,0.281 -0.068,0.067 -0.162,0.101 -0.285,0.101 h -2.23 c -0.139,0 -0.244,0.036 -0.312,0.105 -0.067,0.068 -0.101,0.171 -0.101,0.306 v 1.773 c 0,0.118 0.034,0.219 0.101,0.294 0.068,0.078 0.173,0.116 0.312,0.116 H 6.474 c 0.119,0 0.218,-0.038 0.295,-0.116 0.077,-0.075 0.116,-0.176 0.116,-0.294 V 19.657 C 6.885,19.522 6.846,19.419 6.769,19.351 6.692,19.282 6.593,19.246 6.474,19.246 H 4.238 C 4.101,19.246 4.003,19.212 3.941,19.145 3.882,19.077 3.852,18.983 3.852,18.864 v -3.902 c 0,-0.137 0.03,-0.235 0.089,-0.295 0.062,-0.059 0.16,-0.089 0.297,-0.089 H 6.73 c 0.119,0 0.217,-0.041 0.295,-0.116 0.077,-0.077 0.116,-0.176 0.116,-0.296 V 12.395 C 7.141,12.258 7.102,12.157 7.025,12.089 6.947,12.018 6.849,11.984 6.73,11.984 Z m 6.085,2.515 h 4.265 c 0.121,0 0.215,0.03 0.285,0.091 0.067,0.059 0.101,0.157 0.101,0.297 v 4.028 c 0,0.118 -0.034,0.212 -0.101,0.281 C 0.854,19.266 0.76,19.3 0.639,19.3 h -4.265 c -0.135,0 -0.233,-0.034 -0.293,-0.104 C -3.98,19.127 -4.01,19.033 -4.01,18.915 v -4.028 c 0,-0.14 0.03,-0.238 0.091,-0.297 0.06,-0.061 0.158,-0.091 0.293,-0.091"
             style="fill:#3f3f3f;fill-opacity:1;fill-rule:nonzero;stroke:none"
             id="path30" /></g><g
           id="g32"
           transform="translate(92.5558,59.5401)"><path
             d="m 0,0 c -0.133,0 -0.235,-0.034 -0.294,-0.101 -0.06,-0.072 -0.089,-0.166 -0.089,-0.285 v -1.387 c 0,-0.135 0.029,-0.233 0.089,-0.293 0.059,-0.061 0.161,-0.091 0.294,-0.091 h 8.504 c 0.12,0 0.219,-0.041 0.298,-0.127 0.076,-0.087 0.114,-0.19 0.114,-0.309 V -4.08 C 8.916,-4.217 8.878,-4.322 8.802,-4.389 8.723,-4.457 8.624,-4.491 8.504,-4.491 h -20.862 c -0.133,0 -0.24,0.034 -0.304,0.102 -0.072,0.067 -0.107,0.172 -0.107,0.309 v 1.487 c 0,0.119 0.035,0.222 0.107,0.309 0.064,0.086 0.171,0.127 0.304,0.127 h 8.506 c 0.12,0 0.214,0.03 0.281,0.091 0.07,0.06 0.104,0.158 0.104,0.293 v 1.387 c 0,0.119 -0.034,0.213 -0.104,0.285 C -3.638,-0.034 -3.732,0 -3.852,0 h -2.339 c -0.29,0 -0.558,0.03 -0.795,0.089 -0.239,0.059 -0.463,0.167 -0.668,0.322 l -1.543,1.104 c -0.222,0.153 -0.39,0.352 -0.5,0.601 -0.112,0.248 -0.167,0.543 -0.167,0.885 v 6.187 c 0,0.119 0.034,0.217 0.103,0.294 0.068,0.078 0.171,0.115 0.308,0.115 h 2.159 c 0.117,0 0.217,-0.037 0.295,-0.115 0.075,-0.077 0.116,-0.175 0.116,-0.294 V 7.444 c 0,-0.139 0.029,-0.237 0.089,-0.298 0.061,-0.06 0.158,-0.089 0.294,-0.089 h 9.173 c 0.121,0 0.214,0.029 0.283,0.089 0.066,0.061 0.102,0.159 0.102,0.298 v 1.744 c 0,0.119 0.036,0.217 0.101,0.294 0.072,0.078 0.173,0.115 0.312,0.115 H 5.628 C 5.747,9.597 5.845,9.56 5.922,9.482 6,9.405 6.039,9.307 6.039,9.188 V 0.411 C 6.039,0.272 6,0.171 5.922,0.101 5.845,0.034 5.747,0 5.628,0 Z m -6.959,-6.313 v -3.106 c 0,-0.137 0.028,-0.235 0.089,-0.294 0.06,-0.061 0.158,-0.091 0.293,-0.091 H 6.271 c 0.119,0 0.217,-0.037 0.295,-0.115 0.077,-0.077 0.114,-0.175 0.114,-0.294 v -1.771 c 0,-0.139 -0.037,-0.241 -0.114,-0.308 -0.078,-0.07 -0.176,-0.105 -0.295,-0.105 H -6.112 c -0.292,0 -0.559,0.03 -0.799,0.091 -0.237,0.06 -0.46,0.165 -0.668,0.322 l -1.798,1.281 c -0.222,0.155 -0.389,0.356 -0.5,0.602 -0.112,0.249 -0.167,0.545 -0.167,0.888 v 2.9 c 0,0.119 0.034,0.217 0.101,0.295 0.07,0.077 0.173,0.116 0.31,0.116 h 2.262 c 0.118,0 0.219,-0.039 0.294,-0.116 0.078,-0.078 0.118,-0.176 0.118,-0.295 M 3.058,2.693 V 4.338 C 3.058,4.455 3.019,4.557 2.942,4.631 2.867,4.71 2.766,4.747 2.647,4.747 h -9.17 c -0.139,0 -0.239,-0.034 -0.296,-0.101 -0.06,-0.07 -0.092,-0.164 -0.092,-0.283 V 2.668 c 0,-0.137 0.032,-0.235 0.092,-0.295 0.057,-0.061 0.157,-0.091 0.296,-0.091 h 9.17 c 0.119,0 0.22,0.035 0.295,0.105 0.077,0.068 0.116,0.171 0.116,0.306"
             style="fill:#3f3f3f;fill-opacity:1;fill-rule:nonzero;stroke:none"
             id="path34" /></g><g
           id="g36"
           transform="translate(116.1149,65.3159)"><path
             d="m 0,0 h -12.691 c -0.137,0 -0.242,0.034 -0.31,0.101 -0.065,0.068 -0.101,0.171 -0.101,0.308 v 1.643 c 0,0.119 0.036,0.217 0.101,0.294 0.068,0.078 0.173,0.117 0.31,0.117 h 4.341 c 0.12,0 0.216,0.029 0.282,0.089 0.067,0.059 0.105,0.159 0.105,0.294 v 2.131 c 0,0.121 0.032,0.219 0.101,0.295 0.07,0.078 0.171,0.116 0.31,0.116 h 2.105 c 0.12,0 0.221,-0.038 0.308,-0.116 C -5.053,5.196 -5.01,5.098 -5.01,4.977 V 2.846 c 0,-0.135 0.03,-0.235 0.089,-0.294 0.06,-0.06 0.158,-0.089 0.297,-0.089 L 0,2.463 C 0.119,2.463 0.219,2.424 0.297,2.346 0.372,2.269 0.409,2.171 0.409,2.052 V 0.409 C 0.409,0.272 0.372,0.169 0.297,0.101 0.219,0.034 0.119,0 0,0 m -1.002,-5.468 c 0,-0.65 -0.125,-1.257 -0.372,-1.821 -0.249,-0.566 -0.614,-1.062 -1.093,-1.488 -0.481,-0.429 -1.063,-0.763 -1.746,-1.002 -0.687,-0.24 -1.465,-0.359 -2.339,-0.359 -0.892,0 -1.682,0.119 -2.378,0.359 -0.692,0.239 -1.271,0.573 -1.733,1.002 -0.478,0.426 -0.841,0.922 -1.079,1.488 -0.239,0.564 -0.36,1.171 -0.36,1.821 0,0.634 0.121,1.232 0.36,1.798 0.238,0.564 0.601,1.059 1.079,1.486 0.462,0.411 1.041,0.746 1.733,1.002 0.696,0.256 1.486,0.383 2.378,0.383 0.874,0 1.652,-0.123 2.339,-0.372 0.683,-0.246 1.265,-0.584 1.746,-1.013 0.479,-0.427 0.844,-0.922 1.093,-1.486 0.247,-0.566 0.372,-1.164 0.372,-1.798 m -5.655,-6.237 v -3.49 c 0,-0.135 0.032,-0.233 0.093,-0.294 0.058,-0.06 0.156,-0.091 0.295,-0.091 H 6.552 c 0.119,0 0.217,-0.037 0.294,-0.115 0.078,-0.077 0.115,-0.175 0.115,-0.296 v -1.769 c 0,-0.137 -0.037,-0.24 -0.115,-0.308 -0.077,-0.068 -0.175,-0.103 -0.294,-0.103 H -5.806 c -0.292,0 -0.557,0.03 -0.798,0.091 -0.24,0.06 -0.462,0.165 -0.669,0.32 l -1.796,1.281 c -0.222,0.157 -0.389,0.356 -0.5,0.606 -0.114,0.247 -0.169,0.543 -0.169,0.884 v 3.284 c 0,0.121 0.036,0.221 0.103,0.297 0.068,0.075 0.171,0.116 0.306,0.116 h 2.263 c 0.121,0 0.217,-0.041 0.297,-0.116 0.075,-0.076 0.112,-0.176 0.112,-0.297 m 2.725,6.237 c 0,0.58 -0.222,1.109 -0.669,1.579 -0.442,0.47 -1.104,0.706 -1.978,0.706 -0.872,0 -1.523,-0.236 -1.95,-0.706 -0.429,-0.47 -0.643,-0.999 -0.643,-1.579 0,-0.598 0.214,-1.128 0.643,-1.591 0.427,-0.461 1.078,-0.693 1.95,-0.693 0.874,0 1.536,0.232 1.978,0.693 0.447,0.463 0.669,0.993 0.669,1.591 M 4.007,4.336 H 6.166 C 6.283,4.336 6.385,4.299 6.461,4.22 6.538,4.144 6.577,4.044 6.577,3.926 v -16.22 c 0,-0.137 -0.039,-0.24 -0.116,-0.308 -0.076,-0.069 -0.178,-0.101 -0.295,-0.101 H 4.007 c -0.137,0 -0.239,0.032 -0.31,0.101 -0.066,0.068 -0.102,0.171 -0.102,0.308 v 3.207 c 0,0.12 -0.033,0.216 -0.101,0.282 C 3.425,-8.736 3.332,-8.7 3.211,-8.7 H 0.256 c -0.137,0 -0.242,0.034 -0.309,0.101 -0.066,0.068 -0.102,0.173 -0.102,0.308 v 1.695 c 0,0.119 0.036,0.222 0.102,0.308 0.067,0.083 0.172,0.128 0.309,0.128 h 2.955 c 0.121,0 0.214,0.03 0.283,0.09 0.068,0.059 0.101,0.159 0.101,0.294 v 1.695 c 0,0.121 -0.033,0.213 -0.101,0.281 -0.069,0.069 -0.162,0.103 -0.283,0.103 H 0.256 c -0.137,0 -0.242,0.034 -0.309,0.102 -0.066,0.069 -0.102,0.172 -0.102,0.309 v 1.693 c 0,0.121 0.036,0.222 0.102,0.31 0.067,0.085 0.172,0.128 0.309,0.128 h 2.955 c 0.121,0 0.214,0.03 0.283,0.089 0.068,0.06 0.101,0.158 0.101,0.294 v 4.698 c 0,0.118 0.036,0.218 0.102,0.294 0.071,0.079 0.173,0.116 0.31,0.116"
             style="fill:#3f3f3f;fill-opacity:1;fill-rule:nonzero;stroke:none"
             id="path38" /></g><g
           id="g40"
           transform="translate(134.2505,68.1372)"><path
             d="M 0,0 C 0.117,0 0.217,-0.043 0.294,-0.128 0.37,-0.214 0.411,-0.317 0.411,-0.436 V -2.18 C 0.411,-2.319 0.37,-2.421 0.294,-2.49 0.217,-2.558 0.117,-2.592 0,-2.592 h -4.293 c -0.135,0 -0.237,-0.033 -0.294,-0.103 -0.06,-0.067 -0.089,-0.164 -0.089,-0.283 v -10.366 c 0,-0.137 0.029,-0.237 0.089,-0.297 0.057,-0.059 0.159,-0.089 0.294,-0.089 l 6.965,0.051 c 0.119,0 0.211,0.031 0.283,0.091 0.066,0.061 0.101,0.158 0.101,0.294 V 0.847 c 0,0.119 0.036,0.219 0.102,0.294 0.067,0.078 0.174,0.116 0.309,0.116 h 2.029 c 0.12,0 0.218,-0.038 0.296,-0.116 C 5.868,1.066 5.906,0.966 5.906,0.847 v -7.443 c 0,-0.136 0.03,-0.235 0.091,-0.294 0.06,-0.061 0.158,-0.091 0.297,-0.091 h 2.207 c 0.119,0 0.214,0.03 0.285,0.091 0.067,0.059 0.101,0.158 0.101,0.294 v 7.7 c 0,0.119 0.034,0.218 0.102,0.297 0.069,0.075 0.172,0.112 0.309,0.112 h 2.056 c 0.119,0 0.219,-0.037 0.296,-0.112 0.076,-0.079 0.115,-0.178 0.115,-0.297 v -21.943 c 0,-0.136 -0.039,-0.239 -0.115,-0.308 -0.077,-0.07 -0.177,-0.102 -0.296,-0.102 H 9.298 c -0.137,0 -0.24,0.032 -0.309,0.102 -0.068,0.069 -0.102,0.172 -0.102,0.308 v 10.88 c 0,0.121 -0.034,0.214 -0.101,0.283 -0.071,0.068 -0.166,0.105 -0.285,0.105 H 6.294 C 6.155,-9.571 6.057,-9.608 5.997,-9.676 5.936,-9.745 5.906,-9.838 5.906,-9.959 v -10.546 c 0,-0.139 -0.038,-0.24 -0.114,-0.308 -0.078,-0.069 -0.176,-0.101 -0.296,-0.101 H 3.467 c -0.135,0 -0.242,0.032 -0.309,0.101 -0.066,0.068 -0.102,0.169 -0.102,0.308 v 4.439 c 0,0.12 -0.035,0.214 -0.101,0.283 -0.072,0.068 -0.164,0.102 -0.283,0.102 l -5.294,-0.564 c -0.222,-0.034 -0.459,-0.061 -0.706,-0.077 -0.248,-0.018 -0.486,-0.027 -0.709,-0.027 h -0.048 c -0.294,0 -0.559,0.032 -0.797,0.091 -0.241,0.061 -0.461,0.166 -0.668,0.321 l -1.361,1.078 c -0.225,0.153 -0.39,0.353 -0.502,0.602 -0.111,0.247 -0.166,0.544 -0.166,0.886 v 12.96 c 0,0.121 0.032,0.219 0.102,0.297 C -7.41,-0.037 -7.307,0 -7.168,0 Z"
             style="fill:#3f3f3f;fill-opacity:1;fill-rule:nonzero;stroke:none"
             id="path42" /></g><g
           id="g44"
           transform="translate(153.4647,69.4721)"><path
             d="m 0,0 h 2.132 c 0.153,0 0.262,-0.039 0.321,-0.114 0.06,-0.078 0.091,-0.176 0.091,-0.297 v -2.077 c 0,-1.387 0.388,-2.663 1.169,-3.825 0.78,-1.164 1.785,-2.106 3.019,-2.825 C 6.867,-9.24 6.931,-9.352 6.924,-9.469 6.915,-9.59 6.86,-9.693 6.757,-9.777 l -1.414,-1.337 c -0.139,-0.103 -0.244,-0.158 -0.32,-0.165 -0.078,-0.009 -0.169,0.03 -0.271,0.115 -0.699,0.463 -1.349,1.061 -1.94,1.796 -0.589,0.735 -1.093,1.529 -1.502,2.387 -0.052,0.102 -0.096,0.155 -0.141,0.155 -0.042,0 -0.083,-0.053 -0.117,-0.155 -0.411,-0.941 -0.954,-1.819 -1.63,-2.631 -0.677,-0.813 -1.392,-1.477 -2.143,-1.988 -0.139,-0.103 -0.257,-0.158 -0.351,-0.169 -0.093,-0.007 -0.191,0.041 -0.294,0.143 l -1.49,1.333 c -0.138,0.105 -0.201,0.206 -0.194,0.311 0.011,0.102 0.066,0.196 0.169,0.281 1.286,0.803 2.354,1.741 3.211,2.811 0.855,1.066 1.284,2.415 1.284,4.042 v 2.437 c 0,0.121 0.026,0.219 0.076,0.297 C -0.256,-0.039 -0.155,0 0,0 m 7.116,-22.995 c -1.337,0 -2.529,0.119 -3.585,0.36 -1.052,0.24 -1.956,0.571 -2.709,1.002 -0.737,0.443 -1.303,0.961 -1.696,1.55 -0.393,0.591 -0.591,1.246 -0.591,1.963 0,0.684 0.192,1.328 0.579,1.926 0.384,0.598 0.947,1.113 1.682,1.54 0.737,0.427 1.635,0.765 2.698,1.013 1.063,0.249 2.26,0.373 3.599,0.373 2.686,0 4.786,-0.459 6.306,-1.374 1.515,-0.915 2.273,-2.075 2.273,-3.478 0,-0.701 -0.194,-1.351 -0.578,-1.95 -0.388,-0.598 -0.947,-1.113 -1.684,-1.538 -0.735,-0.447 -1.636,-0.787 -2.698,-1.027 -1.059,-0.241 -2.259,-0.36 -3.596,-0.36 M 1.67,-18.12 c 0,-0.769 0.505,-1.359 1.516,-1.771 1.009,-0.409 2.312,-0.614 3.907,-0.614 1.591,0 2.896,0.205 3.916,0.614 1.018,0.412 1.529,1.002 1.529,1.771 0,0.753 -0.511,1.339 -1.529,1.759 -1.02,0.42 -2.325,0.63 -3.916,0.63 -1.613,0 -2.917,-0.217 -3.921,-0.642 C 2.17,-16.802 1.67,-17.383 1.67,-18.12 m 6.165,18.043 h 2.031 c 0.121,0 0.219,-0.037 0.296,-0.115 0.076,-0.079 0.115,-0.176 0.115,-0.294 v -3.467 c 0,-0.135 0.031,-0.233 0.087,-0.296 0.065,-0.058 0.159,-0.089 0.298,-0.089 h 1.748 c 0.117,0 0.211,0.031 0.283,0.089 0.067,0.063 0.101,0.161 0.101,0.296 v 3.722 c 0,0.117 0.036,0.219 0.103,0.295 0.068,0.078 0.171,0.116 0.308,0.116 h 2.056 c 0.119,0 0.217,-0.038 0.292,-0.116 0.08,-0.076 0.119,-0.178 0.119,-0.295 v -12.421 c 0,-0.137 -0.039,-0.24 -0.119,-0.308 -0.075,-0.069 -0.173,-0.105 -0.292,-0.105 h -2.056 c -0.137,0 -0.24,0.036 -0.308,0.105 -0.067,0.068 -0.103,0.171 -0.103,0.308 v 5.337 c 0,0.121 -0.034,0.215 -0.101,0.283 -0.072,0.067 -0.166,0.103 -0.283,0.103 h -1.748 c -0.139,0 -0.233,-0.036 -0.298,-0.103 -0.056,-0.068 -0.087,-0.162 -0.087,-0.283 v -4.568 c 0,-0.137 -0.039,-0.24 -0.115,-0.308 -0.077,-0.067 -0.175,-0.101 -0.296,-0.101 H 7.835 c -0.137,0 -0.24,0.034 -0.306,0.101 -0.071,0.068 -0.105,0.171 -0.105,0.308 v 11.397 c 0,0.118 0.034,0.215 0.105,0.294 0.066,0.078 0.169,0.115 0.306,0.115"
             style="fill:#3f3f3f;fill-opacity:1;fill-rule:nonzero;stroke:none"
             id="path46" /></g><g
           id="g48"
           transform="translate(173.5298,68.8829)"><path
             d="m 0,0 h 10.224 c 0.121,0 0.219,-0.041 0.297,-0.117 0.077,-0.077 0.114,-0.175 0.114,-0.294 v -1.104 c 0,-0.139 0.03,-0.236 0.091,-0.297 0.059,-0.059 0.158,-0.089 0.295,-0.089 h 3.829 c 0.119,0 0.213,0.03 0.281,0.089 0.068,0.061 0.102,0.158 0.102,0.297 v 1.873 c 0,0.119 0.035,0.219 0.103,0.297 0.069,0.075 0.171,0.112 0.308,0.112 h 2.159 c 0.117,0 0.219,-0.037 0.295,-0.112 0.077,-0.078 0.116,-0.178 0.116,-0.297 v -12.755 c 0,-0.137 -0.039,-0.239 -0.116,-0.308 -0.076,-0.068 -0.178,-0.103 -0.295,-0.103 h -2.159 c -0.137,0 -0.239,0.035 -0.308,0.103 -0.068,0.069 -0.103,0.171 -0.103,0.308 v 3.232 c 0,0.121 -0.034,0.216 -0.102,0.283 -0.068,0.07 -0.162,0.102 -0.281,0.102 h -3.829 c -0.137,0 -0.236,-0.032 -0.295,-0.102 -0.061,-0.067 -0.091,-0.162 -0.091,-0.283 v -1.436 c 0,-0.137 -0.037,-0.239 -0.114,-0.308 -0.078,-0.068 -0.176,-0.102 -0.297,-0.102 H 3.289 c -0.293,0 -0.55,0.029 -0.772,0.089 -0.223,0.059 -0.447,0.177 -0.668,0.346 l -1.591,1.182 c -0.274,0.222 -0.456,0.478 -0.543,0.77 -0.085,0.29 -0.126,0.65 -0.126,1.077 v 7.136 c 0,0.119 0.034,0.217 0.101,0.294 C -0.24,-0.041 -0.137,0 0,0 m 10.069,-22.406 c -1.299,0 -2.474,0.121 -3.517,0.36 -1.045,0.238 -1.928,0.573 -2.649,1 -0.737,0.447 -1.295,0.963 -1.682,1.552 -0.384,0.591 -0.578,1.244 -0.578,1.965 0,0.684 0.19,1.325 0.566,1.924 0.377,0.598 0.933,1.113 1.669,1.54 0.721,0.427 1.597,0.764 2.635,1.015 1.036,0.245 2.212,0.37 3.531,0.37 2.638,0 4.703,-0.456 6.191,-1.372 1.491,-0.915 2.235,-2.074 2.235,-3.477 0,-0.701 -0.192,-1.352 -0.576,-1.95 -0.388,-0.6 -0.938,-1.113 -1.659,-1.542 -0.718,-0.445 -1.597,-0.787 -2.633,-1.025 -1.036,-0.239 -2.214,-0.36 -3.533,-0.36 M 2.955,-2.568 C 2.816,-2.568 2.718,-2.602 2.661,-2.67 2.599,-2.739 2.568,-2.832 2.568,-2.953 v -5.105 c 0,-0.139 0.031,-0.236 0.093,-0.297 0.057,-0.06 0.155,-0.091 0.294,-0.091 h 4.417 c 0.12,0 0.216,0.031 0.283,0.091 0.066,0.061 0.104,0.158 0.104,0.297 v 5.105 c 0,0.121 -0.038,0.214 -0.104,0.283 -0.067,0.068 -0.163,0.102 -0.283,0.102 z m 1.669,-14.987 c 0,-0.769 0.509,-1.366 1.527,-1.784 1.022,-0.42 2.32,-0.63 3.893,-0.63 1.559,0 2.855,0.21 3.893,0.63 1.036,0.418 1.554,1.015 1.554,1.784 0,0.77 -0.515,1.372 -1.542,1.81 -1.027,0.436 -2.328,0.653 -3.905,0.653 -1.591,0 -2.894,-0.221 -3.905,-0.666 -1.011,-0.446 -1.515,-1.044 -1.515,-1.797 m 6.011,12.883 v -1.333 c 0,-0.138 0.03,-0.237 0.091,-0.296 0.059,-0.062 0.158,-0.091 0.295,-0.091 h 3.829 c 0.119,0 0.213,0.029 0.281,0.091 0.068,0.059 0.102,0.158 0.102,0.296 v 1.333 c 0,0.121 -0.034,0.213 -0.102,0.283 -0.068,0.067 -0.162,0.101 -0.281,0.101 h -3.829 c -0.137,0 -0.236,-0.034 -0.295,-0.101 -0.061,-0.07 -0.091,-0.162 -0.091,-0.283"
             style="fill:#3f3f3f;fill-opacity:1;fill-rule:nonzero;stroke:none"
             id="path50" /></g><path
           d="m 47.937,29.173 h 0.831 v 41.531 h -0.831 z"
           style="fill:#3f3f3f;fill-opacity:1;fill-rule:nonzero;stroke:none"
           id="path52" /><g
           id="g54"
           transform="translate(66.1276,38.4908)"><path
             d="m 0,0 c 0,-0.089 -0.028,-0.148 -0.085,-0.182 -0.057,-0.033 -0.13,-0.051 -0.218,-0.051 h -4.752 c -0.096,0 -0.164,-0.025 -0.203,-0.08 -0.037,-0.052 -0.057,-0.121 -0.057,-0.21 l -0.014,-2.473 c 0,-0.085 0.018,-0.149 0.057,-0.188 0.039,-0.038 0.107,-0.059 0.205,-0.059 h 4.359 c 0.085,0 0.149,-0.023 0.188,-0.071 0.038,-0.048 0.057,-0.116 0.057,-0.201 v -1.059 c 0,-0.086 -0.019,-0.146 -0.057,-0.18 -0.039,-0.034 -0.103,-0.05 -0.188,-0.05 h -4.359 c -0.098,0 -0.166,-0.028 -0.205,-0.08 -0.039,-0.052 -0.057,-0.125 -0.057,-0.21 l 0.014,-3.98 c 0,-0.096 -0.028,-0.158 -0.085,-0.194 -0.059,-0.034 -0.132,-0.048 -0.217,-0.048 h -1.508 c -0.089,0 -0.153,0.014 -0.196,0.048 -0.046,0.036 -0.064,0.094 -0.064,0.181 v 7.336 c 0,0.405 0.084,0.761 0.251,1.071 0.169,0.308 0.433,0.568 0.79,0.781 l 1.711,0.94 c 0.151,0.086 0.317,0.155 0.484,0.203 0.169,0.048 0.342,0.071 0.514,0.071 h 3.332 c 0.088,0 0.161,-0.019 0.218,-0.064 C -0.028,1.207 0,1.141 0,1.055 Z"
             style="fill:#3f3f3f;fill-opacity:1;fill-rule:nonzero;stroke:none"
             id="path56" /></g><g
           id="g58"
           transform="translate(69.0111,29.0429)"><path
             d="M 0,0 C -0.445,0 -0.835,0.158 -1.168,0.477 -1.5,0.796 -1.666,1.193 -1.666,1.664 v 6.308 c 0,0.086 0.018,0.153 0.059,0.201 0.037,0.048 0.099,0.073 0.188,0.073 H 0.045 C 0.1,8.246 0.155,8.221 0.203,8.173 0.251,8.125 0.274,8.058 0.274,7.972 V 1.867 C 0.274,1.778 0.297,1.716 0.34,1.678 0.383,1.639 0.459,1.62 0.566,1.62 h 2.65 c 0.086,0 0.155,0.019 0.207,0.058 0.055,0.038 0.08,0.1 0.08,0.189 v 6.105 c 0,0.086 0.016,0.153 0.052,0.201 0.033,0.048 0.094,0.073 0.179,0.073 H 5.183 C 5.261,8.246 5.324,8.221 5.372,8.173 5.42,8.125 5.443,8.058 5.443,7.972 V 0.347 C 5.443,0.26 5.42,0.203 5.372,0.173 5.324,0.144 5.261,0.13 5.183,0.13 H 3.734 C 3.649,0.13 3.588,0.148 3.555,0.18 3.519,0.214 3.503,0.274 3.503,0.363 v 0.23 C 3.503,0.68 3.478,0.742 3.423,0.781 3.371,0.819 3.305,0.824 3.229,0.796 L 0.45,0.044 C 0.372,0.014 0.295,0 0.217,0 Z"
             style="fill:#3f3f3f;fill-opacity:1;fill-rule:nonzero;stroke:none"
             id="path60" /></g><g
           id="g62"
           transform="translate(78.1349,29.043)"><path
             d="M 0,0 C -0.317,0 -0.602,0.059 -0.847,0.173 -1.093,0.29 -1.301,0.443 -1.476,0.637 -1.65,0.821 -1.783,1.034 -1.874,1.28 -1.967,1.527 -2.011,1.775 -2.011,2.026 v 9.462 c 0,0.076 0.018,0.144 0.057,0.195 0.039,0.052 0.101,0.08 0.187,0.08 h 1.464 c 0.057,0 0.111,-0.028 0.159,-0.08 0.046,-0.051 0.075,-0.119 0.075,-0.195 V 7.597 c 0,-0.088 0.017,-0.146 0.053,-0.175 0.041,-0.028 0.119,-0.028 0.235,0 l 2.768,0.753 c 0.039,0 0.076,0.004 0.115,0.014 0.036,0.009 0.075,0.02 0.114,0.029 0.038,0.009 0.075,0.016 0.111,0.023 0.032,0.004 0.069,0.005 0.106,0.005 0.136,0 0.299,-0.03 0.492,-0.094 C 4.119,8.092 4.304,7.997 4.477,7.871 4.649,7.734 4.8,7.559 4.925,7.342 5.051,7.125 5.115,6.863 5.115,6.555 V 2.894 C 5.115,2.508 5.03,2.17 4.861,1.881 4.694,1.593 4.444,1.346 4.115,1.145 L 2.538,0.246 C 2.383,0.15 2.22,0.085 2.052,0.05 1.881,0.016 1.716,0 1.55,0 Z m 3.174,1.737 v 4.585 c 0,0.096 -0.029,0.171 -0.08,0.225 C 3.04,6.598 2.971,6.627 2.883,6.627 H 0.219 C 0.112,6.627 0.037,6.598 -0.007,6.547 -0.048,6.493 -0.069,6.418 -0.069,6.322 V 1.737 c 0,-0.085 0.021,-0.149 0.062,-0.188 0.044,-0.04 0.119,-0.057 0.226,-0.057 h 2.664 c 0.088,0 0.157,0.017 0.211,0.057 0.051,0.039 0.08,0.103 0.08,0.188"
             style="fill:#3f3f3f;fill-opacity:1;fill-rule:nonzero;stroke:none"
             id="path64" /></g><g
           id="g66"
           transform="translate(86.7088,29.043)"><path
             d="M 0,0 C -0.308,0 -0.589,0.059 -0.838,0.173 -1.088,0.29 -1.301,0.44 -1.476,0.623 -1.648,0.817 -1.78,1.032 -1.872,1.274 -1.967,1.515 -2.01,1.76 -2.01,2.011 V 5.18 c 0,0.375 0.082,0.712 0.253,1.007 0.168,0.294 0.427,0.541 0.776,0.744 L 0.611,7.857 C 0.765,7.944 0.926,8.01 1.095,8.058 1.264,8.106 1.436,8.131 1.607,8.131 H 3.129 C 3.352,8.131 3.581,8.088 3.818,8.003 4.055,7.915 4.27,7.784 4.462,7.609 4.667,7.438 4.831,7.221 4.955,6.967 5.082,6.71 5.144,6.415 5.144,6.077 V 2.939 C 5.144,2.561 5.064,2.223 4.897,1.924 4.735,1.627 4.487,1.374 4.158,1.173 L 2.52,0.247 C 2.358,0.15 2.193,0.085 2.029,0.05 1.865,0.016 1.696,0 1.522,0 Z M 3.188,1.737 V 6.338 C 3.188,6.426 3.165,6.495 3.115,6.547 3.069,6.6 2.994,6.627 2.898,6.627 H 0.233 C 0.128,6.627 0.052,6.6 0.009,6.547 -0.034,6.495 -0.057,6.426 -0.057,6.338 V 1.737 c 0,-0.085 0.023,-0.149 0.066,-0.188 C 0.052,1.511 0.128,1.492 0.233,1.492 h 2.665 c 0.096,0 0.171,0.019 0.217,0.057 0.05,0.039 0.073,0.103 0.073,0.188"
             style="fill:#3f3f3f;fill-opacity:1;fill-rule:nonzero;stroke:none"
             id="path68" /></g><g
           id="g70"
           transform="translate(100.5424,35.7265)"><path
             d="m 0,0 v -6.337 c 0,-0.087 -0.027,-0.144 -0.075,-0.172 -0.048,-0.03 -0.11,-0.045 -0.185,-0.045 h -1.449 c -0.089,0 -0.149,0.018 -0.181,0.05 -0.034,0.034 -0.052,0.095 -0.052,0.184 v 6.105 c 0,0.085 -0.027,0.156 -0.08,0.208 -0.052,0.053 -0.123,0.08 -0.208,0.08 h -2.652 c -0.105,0 -0.18,-0.027 -0.223,-0.08 -0.046,-0.052 -0.066,-0.123 -0.066,-0.208 V -6.32 c 0,-0.089 -0.026,-0.15 -0.073,-0.184 -0.049,-0.032 -0.099,-0.05 -0.16,-0.05 h -1.463 c -0.087,0 -0.148,0.015 -0.189,0.045 -0.037,0.028 -0.058,0.085 -0.058,0.172 v 7.624 c 0,0.087 0.021,0.155 0.058,0.203 0.041,0.048 0.102,0.075 0.189,0.075 h 1.463 c 0.061,0 0.111,-0.027 0.16,-0.075 0.047,-0.048 0.073,-0.116 0.073,-0.203 V 1.041 c 0,-0.085 0.018,-0.144 0.056,-0.172 0.04,-0.029 0.117,-0.029 0.233,0 l 2.766,0.753 c 0.032,0 0.06,0.005 0.094,0.012 0.036,0.011 0.069,0.021 0.109,0.03 0.037,0.011 0.076,0.016 0.11,0.023 0.03,0.006 0.069,0.008 0.107,0.008 0.473,0 0.875,-0.173 1.205,-0.515 C -0.166,0.838 0,0.445 0,0"
             style="fill:#3f3f3f;fill-opacity:1;fill-rule:nonzero;stroke:none"
             id="path72" /></g><g
           id="g74"
           transform="translate(114.351,29.39)"><path
             d="m 0,0 c 0,-0.085 -0.025,-0.144 -0.071,-0.174 -0.05,-0.029 -0.119,-0.043 -0.205,-0.043 h -1.506 c -0.087,0 -0.147,0.016 -0.181,0.05 -0.034,0.035 -0.052,0.094 -0.052,0.183 v 4.092 c 0,0.087 -0.03,0.157 -0.094,0.21 -0.063,0.053 -0.137,0.08 -0.223,0.08 H -6.288 C -6.374,4.398 -6.443,4.371 -6.49,4.318 -6.538,4.265 -6.563,4.195 -6.563,4.108 V 0.016 c 0,-0.089 -0.023,-0.148 -0.071,-0.183 -0.046,-0.034 -0.112,-0.05 -0.188,-0.05 h -1.535 c -0.078,0 -0.131,0.014 -0.16,0.043 -0.03,0.03 -0.046,0.089 -0.046,0.174 v 10.172 c 0,0.077 0.016,0.136 0.046,0.18 0.029,0.045 0.082,0.068 0.16,0.068 h 1.535 c 0.076,0 0.142,-0.024 0.188,-0.068 0.048,-0.044 0.071,-0.103 0.071,-0.18 V 6.235 c 0,-0.096 0.025,-0.167 0.073,-0.21 0.047,-0.043 0.116,-0.064 0.202,-0.064 h 3.956 c 0.086,0 0.16,0.021 0.223,0.064 0.064,0.043 0.094,0.114 0.094,0.21 v 3.937 c 0,0.077 0.018,0.136 0.052,0.18 0.034,0.045 0.094,0.068 0.181,0.068 h 1.506 c 0.086,0 0.155,-0.024 0.205,-0.068 C -0.025,10.308 0,10.249 0,10.172 Z"
             style="fill:#3f3f3f;fill-opacity:1;fill-rule:nonzero;stroke:none"
             id="path76" /></g><g
           id="g78"
           transform="translate(117.8984,29.0287)"><path
             d="m 0,0 c -0.281,0 -0.525,0.05 -0.739,0.153 -0.213,0.1 -0.393,0.228 -0.535,0.383 -0.145,0.164 -0.25,0.345 -0.319,0.541 -0.068,0.197 -0.1,0.395 -0.1,0.587 v 6.321 c 0,0.087 0.018,0.155 0.057,0.203 0.038,0.048 0.1,0.074 0.191,0.074 L 0,8.262 C 0.069,8.262 0.125,8.236 0.174,8.188 0.222,8.14 0.247,8.072 0.247,7.985 V 1.88 C 0.247,1.794 0.265,1.728 0.303,1.686 0.345,1.641 0.417,1.62 0.522,1.62 H 3.174 C 3.259,1.62 3.33,1.641 3.382,1.686 3.435,1.728 3.46,1.794 3.46,1.88 v 6.105 c 0,0.087 0.023,0.155 0.061,0.203 0.037,0.048 0.101,0.074 0.187,0.074 h 1.45 C 5.237,8.262 5.297,8.236 5.345,8.188 5.393,8.14 5.418,8.072 5.418,7.985 V -1.23 C 5.418,-1.346 5.404,-1.46 5.366,-1.57 5.334,-1.68 5.292,-1.791 5.244,-1.897 L 4.259,-3.503 C 4.211,-3.569 4.156,-3.624 4.094,-3.668 4.028,-3.713 3.964,-3.732 3.9,-3.732 H 3.708 c -0.086,0 -0.15,0.024 -0.187,0.069 -0.038,0.05 -0.061,0.114 -0.061,0.192 V 0.607 C 3.46,0.696 3.437,0.755 3.389,0.789 3.341,0.821 3.279,0.829 3.202,0.808 L 0.42,0.028 C 0.352,0.011 0.279,0 0.201,0 Z"
             style="fill:#3f3f3f;fill-opacity:1;fill-rule:nonzero;stroke:none"
             id="path80" /></g><g
           id="g82"
           transform="translate(126.6912,29.0429)"><path
             d="M 0,0 C -0.447,0 -0.835,0.158 -1.168,0.477 -1.5,0.796 -1.666,1.193 -1.666,1.664 v 6.308 c 0,0.086 0.018,0.153 0.057,0.201 0.039,0.048 0.101,0.073 0.19,0.073 H 0.043 C 0.1,8.246 0.155,8.221 0.201,8.173 0.251,8.125 0.274,8.058 0.274,7.972 V 1.867 C 0.274,1.778 0.295,1.716 0.34,1.678 0.381,1.639 0.457,1.62 0.562,1.62 h 2.653 c 0.085,0 0.156,0.019 0.21,0.058 0.051,0.038 0.078,0.1 0.078,0.189 v 6.105 c 0,0.086 0.019,0.153 0.05,0.201 0.035,0.048 0.094,0.073 0.179,0.073 H 5.183 C 5.261,8.246 5.322,8.221 5.372,8.173 5.42,8.125 5.445,8.058 5.445,7.972 V 0.347 C 5.445,0.26 5.42,0.203 5.372,0.173 5.322,0.144 5.261,0.13 5.183,0.13 H 3.732 C 3.647,0.13 3.588,0.148 3.553,0.18 3.522,0.214 3.503,0.274 3.503,0.363 v 0.23 C 3.503,0.68 3.476,0.742 3.425,0.781 3.371,0.819 3.305,0.824 3.227,0.796 L 0.447,0.044 C 0.37,0.014 0.294,0 0.217,0 Z"
             style="fill:#3f3f3f;fill-opacity:1;fill-rule:nonzero;stroke:none"
             id="path84" /></g><g
           id="g86"
           transform="translate(140.959,35.7265)"><path
             d="m 0,0 v -6.337 c 0,-0.087 -0.023,-0.144 -0.073,-0.172 -0.046,-0.03 -0.112,-0.045 -0.187,-0.045 h -1.45 c -0.088,0 -0.145,0.018 -0.18,0.05 -0.034,0.034 -0.05,0.095 -0.05,0.184 v 6.105 c 0,0.085 -0.029,0.156 -0.08,0.208 -0.055,0.053 -0.123,0.08 -0.212,0.08 h -2.649 c -0.106,0 -0.183,-0.027 -0.224,-0.08 -0.046,-0.052 -0.067,-0.123 -0.067,-0.208 V -6.32 c 0,-0.089 -0.024,-0.15 -0.072,-0.184 -0.048,-0.032 -0.101,-0.05 -0.162,-0.05 h -1.459 c -0.087,0 -0.151,0.015 -0.191,0.045 -0.035,0.028 -0.057,0.085 -0.057,0.172 v 7.624 c 0,0.087 0.022,0.155 0.057,0.203 0.04,0.048 0.104,0.075 0.191,0.075 h 1.459 c 0.061,0 0.114,-0.027 0.162,-0.075 0.048,-0.048 0.072,-0.116 0.072,-0.203 V 1.041 c 0,-0.085 0.019,-0.144 0.058,-0.172 0.038,-0.029 0.116,-0.029 0.233,0 l 2.766,0.753 c 0.031,0 0.059,0.005 0.095,0.012 0.034,0.011 0.071,0.021 0.107,0.03 0.042,0.011 0.074,0.016 0.108,0.023 0.036,0.006 0.07,0.008 0.109,0.008 0.473,0 0.875,-0.173 1.203,-0.515 C -0.164,0.838 0,0.445 0,0"
             style="fill:#3f3f3f;fill-opacity:1;fill-rule:nonzero;stroke:none"
             id="path88" /></g><g
           id="g90"
           transform="translate(142.5075,30.7072)"><path
             d="M 0,0 V 3.643 C 0,4.03 0.084,4.37 0.253,4.665 0.424,4.959 0.68,5.201 1.029,5.393 L 2.563,6.292 C 2.718,6.39 2.876,6.461 3.042,6.509 3.206,6.557 3.385,6.582 3.578,6.582 h 1.331 c 0.089,0 0.157,0.02 0.205,0.057 0.048,0.041 0.071,0.102 0.071,0.191 v 2.993 c 0,0.079 0.018,0.143 0.052,0.196 0.032,0.052 0.087,0.078 0.165,0.078 h 1.479 c 0.086,0 0.148,-0.026 0.187,-0.078 C 7.107,9.966 7.127,9.902 7.127,9.823 V -1.319 c 0,-0.085 -0.02,-0.144 -0.059,-0.173 C 7.029,-1.52 6.967,-1.534 6.881,-1.534 H 5.402 c -0.078,0 -0.133,0.016 -0.165,0.05 -0.034,0.033 -0.052,0.094 -0.052,0.181 v 0.231 c 0,0.088 -0.023,0.15 -0.071,0.187 -0.048,0.04 -0.116,0.045 -0.205,0.015 L 2.115,-1.62 C 2.027,-1.65 1.951,-1.664 1.883,-1.664 H 1.678 C 1.484,-1.675 1.29,-1.641 1.091,-1.565 0.895,-1.486 0.714,-1.376 0.552,-1.23 0.386,-1.075 0.253,-0.895 0.151,-0.687 0.052,-0.481 0,-0.251 0,0 m 5.185,0.201 v 4.585 c 0,0.098 -0.023,0.173 -0.071,0.226 -0.048,0.054 -0.121,0.08 -0.217,0.08 H 2.218 C 2.109,5.092 2.036,5.066 1.997,5.012 1.96,4.959 1.942,4.884 1.942,4.786 V 0.201 c 0,-0.085 0.018,-0.149 0.055,-0.187 0.039,-0.039 0.112,-0.058 0.221,-0.058 h 2.679 c 0.096,0 0.169,0.019 0.217,0.058 0.048,0.038 0.071,0.102 0.071,0.187"
             style="fill:#3f3f3f;fill-opacity:1;fill-rule:nonzero;stroke:none"
             id="path92" /></g><g
           id="g94"
           transform="translate(152.8773,29.043)"><path
             d="M 0,0 C -0.466,0 -0.86,0.162 -1.189,0.484 -1.516,0.806 -1.68,1.2 -1.68,1.664 v 3.644 c 0,0.386 0.082,0.726 0.245,1.021 0.166,0.292 0.42,0.536 0.769,0.728 L 0.885,7.956 C 1.036,8.054 1.196,8.125 1.36,8.173 1.525,8.221 1.698,8.245 1.881,8.245 h 3.318 c 0.078,0 0.135,-0.024 0.18,-0.072 C 5.423,8.125 5.445,8.058 5.445,7.97 V 0.345 C 5.445,0.26 5.423,0.201 5.379,0.173 5.334,0.144 5.277,0.13 5.199,0.13 H 3.724 C 3.636,0.13 3.578,0.146 3.547,0.18 3.519,0.214 3.505,0.274 3.505,0.361 V 0.593 C 3.505,0.68 3.48,0.742 3.425,0.78 3.369,0.819 3.304,0.824 3.215,0.794 L 0.434,0.045 C 0.347,0.014 0.269,0 0.201,0 Z M 3.505,1.865 V 6.45 C 3.505,6.548 3.48,6.621 3.425,6.676 3.369,6.73 3.304,6.757 3.215,6.757 H 0.534 C 0.429,6.757 0.358,6.73 0.319,6.676 0.279,6.621 0.26,6.548 0.26,6.45 V 1.865 C 0.26,1.78 0.279,1.716 0.319,1.678 0.358,1.639 0.429,1.62 0.534,1.62 h 2.681 c 0.089,0 0.154,0.019 0.21,0.058 0.055,0.038 0.08,0.102 0.08,0.187"
             style="fill:#3f3f3f;fill-opacity:1;fill-rule:nonzero;stroke:none"
             id="path96" /></g><g
           id="g98"
           transform="translate(161.9443,39.3433)"><path
             d="m 0,0 c 0,-0.089 -0.023,-0.148 -0.075,-0.18 -0.046,-0.034 -0.103,-0.05 -0.171,-0.05 h -1.448 c -0.097,0 -0.162,0.016 -0.196,0.05 -0.034,0.032 -0.05,0.091 -0.05,0.18 v 1.189 c 0,0.075 0.016,0.141 0.05,0.192 0.034,0.054 0.099,0.08 0.196,0.08 h 1.448 c 0.068,0 0.125,-0.026 0.171,-0.08 C -0.023,1.33 0,1.264 0,1.189 Z m 0,-9.953 c 0,-0.086 -0.023,-0.144 -0.075,-0.175 -0.046,-0.03 -0.103,-0.041 -0.171,-0.041 h -1.448 c -0.097,0 -0.162,0.011 -0.196,0.041 -0.034,0.031 -0.05,0.089 -0.05,0.175 v 7.625 c 0,0.087 0.016,0.153 0.05,0.201 0.034,0.05 0.099,0.073 0.196,0.073 h 1.448 c 0.068,0 0.125,-0.023 0.171,-0.073 C -0.023,-2.175 0,-2.241 0,-2.328 Z"
             style="fill:#3f3f3f;fill-opacity:1;fill-rule:nonzero;stroke:none"
             id="path100" /></g><g
           id="g102"
           transform="translate(169.2935,29.1729)"><path
             d="M 0,0 C -0.388,0 -0.712,0.069 -0.979,0.208 -1.246,0.351 -1.465,0.527 -1.638,0.737 -1.801,0.938 -1.919,1.166 -1.994,1.41 -2.065,1.655 -2.1,1.88 -2.1,2.083 v 8.289 c 0,0.089 0.019,0.153 0.057,0.197 0.039,0.043 0.103,0.066 0.188,0.066 h 1.522 c 0.086,0 0.155,-0.023 0.201,-0.066 0.05,-0.044 0.073,-0.108 0.073,-0.197 V 1.821 C -0.059,1.727 -0.039,1.655 0,1.613 0.037,1.57 0.105,1.549 0.201,1.549 H 5.083 C 5.169,1.549 5.24,1.529 5.293,1.49 5.345,1.452 5.372,1.397 5.372,1.331 5.372,1.244 5.347,1.169 5.299,1.107 5.253,1.043 5.192,0.993 5.124,0.956 L 3.894,0.26 C 3.722,0.164 3.546,0.096 3.366,0.057 3.188,0.018 3.005,0 2.823,0 Z"
             style="fill:#3f3f3f;fill-opacity:1;fill-rule:nonzero;stroke:none"
             id="path104" /></g><g
           id="g106"
           transform="translate(177.0985,39.3433)"><path
             d="m 0,0 c 0,-0.089 -0.023,-0.148 -0.073,-0.18 -0.044,-0.034 -0.105,-0.05 -0.174,-0.05 h -1.446 c -0.096,0 -0.162,0.016 -0.197,0.05 -0.032,0.032 -0.05,0.091 -0.05,0.18 v 1.189 c 0,0.075 0.018,0.141 0.05,0.192 0.035,0.054 0.101,0.08 0.197,0.08 h 1.446 c 0.069,0 0.13,-0.026 0.174,-0.08 C -0.023,1.33 0,1.264 0,1.189 Z m 0,-9.953 c 0,-0.086 -0.023,-0.144 -0.073,-0.175 -0.044,-0.03 -0.105,-0.041 -0.174,-0.041 h -1.446 c -0.096,0 -0.162,0.011 -0.197,0.041 -0.032,0.031 -0.05,0.089 -0.05,0.175 v 7.625 c 0,0.087 0.018,0.153 0.05,0.201 0.035,0.05 0.101,0.073 0.197,0.073 h 1.446 c 0.069,0 0.13,-0.023 0.174,-0.073 C -0.023,-2.175 0,-2.241 0,-2.328 Z"
             style="fill:#3f3f3f;fill-opacity:1;fill-rule:nonzero;stroke:none"
             id="path108" /></g><g
           id="g110"
           transform="translate(184.0669,39.5462)"><path
             d="m 0,0 c 0,-0.085 -0.025,-0.144 -0.073,-0.174 -0.048,-0.029 -0.116,-0.045 -0.203,-0.045 h -2.839 c -0.098,0 -0.167,-0.027 -0.208,-0.085 -0.046,-0.057 -0.068,-0.129 -0.068,-0.216 v -1.493 c 0,-0.084 0.022,-0.15 0.068,-0.194 0.041,-0.045 0.11,-0.064 0.208,-0.064 h 2.565 c 0.087,0 0.15,-0.027 0.189,-0.071 0.039,-0.05 0.057,-0.118 0.057,-0.205 v -0.997 c 0,-0.089 -0.018,-0.148 -0.057,-0.183 -0.039,-0.034 -0.102,-0.05 -0.189,-0.05 h -2.565 c -0.098,0 -0.167,-0.023 -0.208,-0.071 -0.046,-0.048 -0.068,-0.118 -0.068,-0.205 v -6.075 c 0,-0.096 -0.025,-0.16 -0.078,-0.194 -0.053,-0.034 -0.109,-0.05 -0.167,-0.05 h -1.462 c -0.087,0 -0.149,0.016 -0.192,0.05 -0.036,0.034 -0.053,0.093 -0.053,0.18 v 8.419 c 0,0.388 0.08,0.728 0.245,1.022 0.166,0.293 0.424,0.543 0.782,0.746 l 1.591,0.923 c 0.148,0.089 0.303,0.157 0.466,0.21 0.164,0.054 0.347,0.082 0.548,0.082 h 1.435 c 0.087,0 0.155,-0.028 0.203,-0.082 C -0.025,1.125 0,1.061 0,0.986 Z"
             style="fill:#3f3f3f;fill-opacity:1;fill-rule:nonzero;stroke:none"
             id="path112" /></g><g
           id="g114"
           transform="translate(191.7419,33.8452)"><path
             d="M 0,0 C 0,-0.249 -0.048,-0.457 -0.146,-0.623 -0.242,-0.787 -0.356,-0.915 -0.493,-1.013 -0.627,-1.12 -0.772,-1.191 -0.922,-1.23 -1.07,-1.269 -1.194,-1.287 -1.29,-1.287 h -3.532 c -0.108,0 -0.181,-0.027 -0.219,-0.08 -0.039,-0.055 -0.058,-0.117 -0.058,-0.194 v -1.39 c 0,-0.087 0.019,-0.15 0.058,-0.187 0.038,-0.041 0.111,-0.061 0.219,-0.061 h 4.459 c 0.087,0 0.153,-0.019 0.196,-0.064 0.044,-0.041 0.066,-0.097 0.066,-0.165 0,-0.077 -0.02,-0.144 -0.059,-0.201 -0.039,-0.059 -0.096,-0.103 -0.173,-0.132 l -1.143,-0.667 c -0.156,-0.097 -0.32,-0.159 -0.493,-0.193 -0.174,-0.035 -0.352,-0.05 -0.539,-0.05 h -2.519 c -0.299,0 -0.573,0.054 -0.818,0.166 -0.244,0.109 -0.454,0.262 -0.629,0.457 -0.183,0.182 -0.322,0.396 -0.42,0.641 -0.096,0.248 -0.146,0.5 -0.146,0.76 V 0.52 c 0,0.377 0.084,0.712 0.253,1.005 0.173,0.294 0.429,0.54 0.776,0.732 l 1.595,0.942 c 0.153,0.085 0.315,0.153 0.484,0.201 0.167,0.048 0.338,0.073 0.513,0.073 h 1.361 c 0.184,0 0.394,-0.04 0.63,-0.114 0.237,-0.079 0.463,-0.2 0.675,-0.363 0.212,-0.164 0.39,-0.378 0.536,-0.638 C -0.071,2.099 0,1.783 0,1.419 Z m -1.926,0.274 v 1.435 c 0,0.096 -0.03,0.172 -0.089,0.231 -0.055,0.055 -0.133,0.084 -0.233,0.084 H -4.822 C -4.93,2.024 -5.005,1.995 -5.048,1.94 -5.092,1.881 -5.114,1.805 -5.114,1.709 V 0.274 c 0,-0.085 0.022,-0.146 0.066,-0.18 0.043,-0.033 0.118,-0.05 0.226,-0.05 h 2.574 c 0.1,0 0.178,0.017 0.233,0.05 0.059,0.034 0.089,0.095 0.089,0.18"
             style="fill:#3f3f3f;fill-opacity:1;fill-rule:nonzero;stroke:none"
             id="path116" /></g></g></g></g></svg>
