<?xml version="1.0" encoding="UTF-8" standalone="no"?>
<svg
   xmlns:dc="http://purl.org/dc/elements/1.1/"
   xmlns:cc="http://creativecommons.org/ns#"
   xmlns:rdf="http://www.w3.org/1999/02/22-rdf-syntax-ns#"
   xmlns:svg="http://www.w3.org/2000/svg"
   xmlns="http://www.w3.org/2000/svg"
   xmlns:sodipodi="http://sodipodi.sourceforge.net/DTD/sodipodi-0.dtd"
   xmlns:inkscape="http://www.inkscape.org/namespaces/inkscape"
   version="1.1"
   id="svg2"
   xml:space="preserve"
   width="341.33334"
   height="170.66667"
   viewBox="0 0 341.33334 170.66667"
   sodipodi:docname="현대해상.ai"><metadata
     id="metadata8"><rdf:RDF><cc:Work
         rdf:about=""><dc:format>image/svg+xml</dc:format><dc:type
           rdf:resource="http://purl.org/dc/dcmitype/StillImage" /></cc:Work></rdf:RDF></metadata><defs
     id="defs6"><clipPath
       clipPathUnits="userSpaceOnUse"
       id="clipPath18"><path
         d="M 0,128 H 256 V 0 H 0 Z"
         id="path16" /></clipPath></defs><sodipodi:namedview
     pagecolor="#ffffff"
     bordercolor="#666666"
     borderopacity="1"
     objecttolerance="10"
     gridtolerance="10"
     guidetolerance="10"
     inkscape:pageopacity="0"
     inkscape:pageshadow="2"
     inkscape:window-width="640"
     inkscape:window-height="480"
     id="namedview4" /><g
     id="g10"
     inkscape:groupmode="layer"
     inkscape:label="현대해상"
     transform="matrix(1.3333333,0,0,-1.3333333,0,170.66667)"><g
       id="g12"><g
         id="g14"
         clip-path="url(#clipPath18)"><g
           id="g20"
           transform="translate(20.8589,74.0108)"><path
             d="M 0,0 C 10.005,0 18.096,8.073 18.096,18.078 L 34.789,18.08 34.78,-37.554 H 13.915 v 23.64 H 0 v -23.647 h -20.859 v 55.639 l 20.859,0 z"
             style="fill:#f28d39;fill-opacity:1;fill-rule:evenodd;stroke:none"
             id="path22" /></g><g
           id="g24"
           transform="translate(250.6665,79.3261)"><path
             d="m 0,0 v -7.18 h 5.333 v -5.658 H 0 v -8.375 H -6.6 V 0 Z"
             style="fill:#001847;fill-opacity:1;fill-rule:evenodd;stroke:none"
             id="path26" /></g><g
           id="g28"
           transform="translate(238.0641,41.3925)"><path
             d="M 0,0 C 3.192,0 5.78,2.389 5.78,5.446 5.78,8.501 3.192,10.833 0,10.833 -3.19,10.836 -5.658,8.501 -5.658,5.446 -5.658,2.391 -3.19,-0.001 0,0 m -12.23,5.44 c 0,5.967 5.227,10.864 12.293,10.864 7.063,0 12.293,-4.898 12.293,-10.865 0,-5.969 -5.23,-10.922 -12.293,-10.922 -7.066,0.002 -12.293,4.952 -12.293,10.923"
             style="fill:#001847;fill-opacity:1;fill-rule:evenodd;stroke:none"
             id="path30" /></g><g
           id="g32"
           transform="translate(222.373,79.3104)"><path
             d="m 0,0 c -0.031,-5.962 -0.332,-10.868 -9.067,-14.943 l 3.182,-4.861 c 3.768,1.089 8.007,4.366 9.628,7.286 1.622,-2.918 5.861,-6.198 9.63,-7.287 l 3.18,4.863 C 7.816,-10.868 7.518,-5.964 7.487,0 Z"
             style="fill:#001847;fill-opacity:1;fill-rule:evenodd;stroke:none"
             id="path34" /></g><g
           id="g36"
           transform="translate(150.1374,69.3023)"><path
             d="m 0,0 h -3.485 v 9.938 h -6.228 v -42.869 h 6.228 V -6.248 H 0 V -32.931 H 6.405 V 9.938 L 0,9.938 Z"
             style="fill:#001847;fill-opacity:1;fill-rule:evenodd;stroke:none"
             id="path38" /></g><g
           id="g40"
           transform="translate(200.0314,69.3023)"><path
             d="m 0,0 h -3.016 v 9.938 h -6.299 v -42.869 h 6.299 V -6.248 H 0 V -32.931 H 6.476 V 9.938 L 0,9.938 Z"
             style="fill:#001847;fill-opacity:1;fill-rule:evenodd;stroke:none"
             id="path42" /></g><g
           id="g44"
           transform="translate(81.958,51.1434)"><path
             d="M 0,0 H 6.792 V -8.519 H 26.99 v -5.555 H 0 Z"
             style="fill:#001847;fill-opacity:1;fill-rule:evenodd;stroke:none"
             id="path46" /></g><g
           id="g48"
           transform="translate(102.3724,56.5976)"><path
             d="M 0,0 H -5.012 V 5.519 H 0 v 3.696 h -5.019 v 5.517 H 0 V 22.67 H 6.604 V -8.861 H 0 Z"
             style="fill:#001847;fill-opacity:1;fill-rule:evenodd;stroke:none"
             id="path50" /></g><g
           id="g52"
           transform="translate(182.3053,65.2468)"><path
             d="m 0,0 c 0,-2.278 -1.956,-4.491 -4.491,-4.491 -2.533,0.003 -4.489,2.211 -4.489,4.49 0,2.286 1.956,4.492 4.489,4.492 C -1.956,4.492 0,2.282 0,0 m -7.822,15.898 v -3.416 h -7.536 V 7.244 h 3.718 c -2.223,-1.495 -3.514,-4.334 -3.514,-7.355 0,-5.209 4.482,-9.664 10.674,-9.664 6.191,0 10.674,4.452 10.674,9.664 0,3.023 -1.29,5.858 -3.514,7.355 h 3.715 v 5.238 h -7.534 v 3.416 z"
             style="fill:#001847;fill-opacity:1;fill-rule:evenodd;stroke:none"
             id="path54" /></g><g
           id="g56"
           transform="translate(88.3595,65.6728)"><path
             d="m 0,0 c 0,-2.282 -1.955,-4.265 -4.49,-4.265 -2.534,10e-4 -4.49,1.983 -4.49,4.263 0,2.283 1.956,4.261 4.49,4.261 C -1.955,4.261 0,2.279 0,0 m -8.006,15.438 v -3.412 h -8.379 V 6.79 h 4.658 c -2.173,-1.448 -3.425,-4.254 -3.425,-6.904 0,-5.211 4.481,-9.437 10.673,-9.437 6.19,0.003 10.673,4.225 10.673,9.437 0,2.65 -1.252,5.455 -3.426,6.901 l 4.66,0.003 v 5.236 h -8.382 v 3.412 z"
             style="fill:#001847;fill-opacity:1;fill-rule:evenodd;stroke:none"
             id="path58" /></g><g
           id="g60"
           transform="translate(138.1612,56.1435)"><path
             d="m 0,0 h -10.775 v 16.267 h 8.856 v 5.624 H -17.504 V -5.644 l 17.504,0 z"
             style="fill:#001847;fill-opacity:1;fill-rule:evenodd;stroke:none"
             id="path62" /></g></g></g></g></svg>
