<?xml version="1.0" encoding="UTF-8" standalone="no"?>
<svg
   xmlns:dc="http://purl.org/dc/elements/1.1/"
   xmlns:cc="http://creativecommons.org/ns#"
   xmlns:rdf="http://www.w3.org/1999/02/22-rdf-syntax-ns#"
   xmlns:svg="http://www.w3.org/2000/svg"
   xmlns="http://www.w3.org/2000/svg"
   xmlns:sodipodi="http://sodipodi.sourceforge.net/DTD/sodipodi-0.dtd"
   xmlns:inkscape="http://www.inkscape.org/namespaces/inkscape"
   version="1.1"
   id="svg2"
   xml:space="preserve"
   width="256"
   height="128"
   viewBox="0 0 256 128"
   sodipodi:docname="흥국화재.ai"><metadata
     id="metadata8"><rdf:RDF><cc:Work
         rdf:about=""><dc:format>image/svg+xml</dc:format><dc:type
           rdf:resource="http://purl.org/dc/dcmitype/StillImage" /></cc:Work></rdf:RDF></metadata><defs
     id="defs6"><clipPath
       clipPathUnits="userSpaceOnUse"
       id="clipPath22"><path
         d="M 0,96 H 192 V 0 H 0 Z"
         id="path20" /></clipPath></defs><sodipodi:namedview
     pagecolor="#ffffff"
     bordercolor="#666666"
     borderopacity="1"
     objecttolerance="10"
     gridtolerance="10"
     guidetolerance="10"
     inkscape:pageopacity="0"
     inkscape:pageshadow="2"
     inkscape:window-width="640"
     inkscape:window-height="480"
     id="namedview4" /><g
     id="g10"
     inkscape:groupmode="layer"
     inkscape:label="흥국화재"
     transform="matrix(1.3333333,0,0,-1.3333333,0,128)"><g
       id="g12"
       transform="translate(76.532,47.7759)"><path
         d="M 0,0 V 7.115 H -6.549 V 0 h -2.914 v 16.348 h 2.914 V 9.158 H 0 v 7.19 H 2.949 L 2.949,0 Z"
         style="fill:#2e2661;fill-opacity:1;fill-rule:nonzero;stroke:none"
         id="path14" /></g><g
       id="g16"><g
         id="g18"
         clip-path="url(#clipPath22)"><g
           id="g24"
           transform="translate(87.579,47.522)"><path
             d="m 0,0 c -2.947,0 -5.322,1.385 -5.322,6.392 0,5.004 2.892,6.718 5.738,6.718 2.8,0 4.818,-1.46 4.818,-5.584 C 5.234,7.07 5.204,6.77 5.152,6.243 H -2.43 c 0.175,-3.5 1.399,-4.206 2.921,-4.206 1.176,0 2.75,0.427 4.442,0.954 L 5.374,1.184 C 3.312,0.5 1.744,0 0,0 m 0.194,11.346 c -1.051,0 -2.304,-0.451 -2.547,-3.37 h 4.69 c 0.042,2.416 -0.792,3.37 -2.143,3.37"
             style="fill:#2e2661;fill-opacity:1;fill-rule:nonzero;stroke:none"
             id="path26" /></g><g
           id="g28"
           transform="translate(103.1147,47.7759)"><path
             d="m 0,0 -0.118,2.237 h -0.029 c -1.448,-1.662 -2.917,-2.491 -4.266,-2.491 -1.91,0 -3.34,0.78 -3.34,4.053 v 8.804 H -4.93 V 4.299 c 0,-1.915 0.39,-2.463 1.3,-2.463 0.688,0 1.397,0.579 2.183,1.359 0.413,0.447 0.808,0.928 1.131,1.432 v 7.976 H 2.507 L 2.507,0 Z"
             style="fill:#2e2661;fill-opacity:1;fill-rule:nonzero;stroke:none"
             id="path30" /></g><g
           id="g32"
           transform="translate(115.947,47.7759)"><path
             d="m 0,0 v 8.252 c 0,1.335 -0.021,2.513 -1.201,2.513 -0.686,0 -1.322,-0.373 -2.232,-1.178 C -3.799,9.207 -4.215,8.652 -4.582,8.1 V 0 h -2.827 v 12.603 h 2.529 l 0.101,-2.344 h 0.026 c 1.298,1.717 2.842,2.597 4.367,2.597 2.646,0 3.212,-1.536 3.212,-4.304 V 0 Z"
             style="fill:#2e2661;fill-opacity:1;fill-rule:nonzero;stroke:none"
             id="path34" /></g><g
           id="g36"
           transform="translate(126.7263,42.5142)"><path
             d="m 0,0 c -1.747,0 -3.462,0.379 -4.981,0.828 l 0.614,1.889 c 1.616,-0.351 2.992,-0.675 4.565,-0.675 1.569,0 2.329,1.003 2.329,2.511 0,0.981 -0.099,1.688 -0.17,2.47 -1.473,-1.489 -2.531,-2.067 -3.953,-2.067 -2.039,0 -4.073,1.333 -4.073,6.115 0,6.237 3.213,6.996 5.912,6.996 1.473,0 3.411,-0.326 4.861,-0.651 V 8.831 C 5.104,7.199 5.369,6.466 5.369,4.776 5.369,2.286 3.947,0 0,0 m 2.306,15.903 c -0.665,0.124 -1.82,0.3 -2.4,0.3 -1.429,0 -2.631,-0.653 -2.631,-4.706 0,-3.873 0.931,-4.552 1.914,-4.552 0.738,0 1.641,0.577 3.117,2.167 z"
             style="fill:#2e2661;fill-opacity:1;fill-rule:nonzero;stroke:none"
             id="path38" /></g><g
           id="g40"
           transform="translate(142.603,47.7759)"><path
             d="M 0,0 C -1.741,2.664 -3.017,3.973 -4.761,6.489 V 0 h -2.824 v 17.608 h 2.824 V 6.991 c 1.964,1.286 3.313,3.117 4.447,5.612 H 2.871 C 1.374,9.587 0.172,7.898 -1.689,6.644 0.054,4.452 1.595,3.093 3.709,0 Z"
             style="fill:#2e2661;fill-opacity:1;fill-rule:nonzero;stroke:none"
             id="path42" /></g><g
           id="g44"
           transform="translate(155.3628,47.7759)"><path
             d="m 0,0 -0.125,2.237 h -0.024 c -1.445,-1.662 -2.916,-2.491 -4.268,-2.491 -1.912,0 -3.333,0.78 -3.333,4.053 v 8.804 h 2.819 V 4.299 c 0,-1.915 0.392,-2.463 1.301,-2.463 0.692,0 1.401,0.579 2.185,1.359 0.418,0.447 0.806,0.928 1.128,1.432 v 7.976 H 2.507 L 2.507,0 Z"
             style="fill:#2e2661;fill-opacity:1;fill-rule:nonzero;stroke:none"
             id="path46" /></g><g
           id="g48"
           transform="translate(168.6144,47.7759)"><path
             d="M 0,0 C -1.736,2.664 -3.011,3.973 -4.757,6.489 V 0 h -2.821 v 17.608 h 2.821 V 6.991 c 1.958,1.286 3.312,3.117 4.443,5.612 H 2.87 C 1.375,9.587 0.173,7.898 -1.691,6.644 0.055,4.452 1.596,3.093 3.711,0 Z"
             style="fill:#2e2661;fill-opacity:1;fill-rule:nonzero;stroke:none"
             id="path50" /></g><g
           id="g52"
           transform="translate(68.5942,38.4032)"><path
             d="M 0,0 V -2.499 H 3.022 V -3.73 H 0 V -6.978 H -1.526 V 1.234 H 3.123 V 0 Z"
             style="fill:#2e2661;fill-opacity:1;fill-rule:nonzero;stroke:none"
             id="path54" /></g><g
           id="g56"
           transform="translate(73.8738,38.716)"><path
             d="M 0,0 C -0.574,0 -0.901,0.287 -0.901,0.829 -0.901,1.336 -0.574,1.64 0,1.64 0.571,1.64 0.89,1.336 0.89,0.829 0.89,0.287 0.571,0 0,0 m -0.761,-0.955 h 1.487 v -6.336 h -1.487 z"
             style="fill:#2e2661;fill-opacity:1;fill-rule:nonzero;stroke:none"
             id="path58" /></g><g
           id="g60"
           transform="translate(79.8977,36.3615)"><path
             d="m 0,0 c -0.273,0.074 -0.475,0.097 -0.653,0.097 -0.631,0 -1.073,-0.352 -1.496,-1.322 v -3.711 h -1.49 v 6.384 h 1.323 l 0.065,-1.111 h 0.012 c 0.487,0.921 1.072,1.199 1.788,1.199 0.266,0 0.553,-0.057 0.77,-0.137 z"
             style="fill:#2e2661;fill-opacity:1;fill-rule:nonzero;stroke:none"
             id="path62" /></g><g
           id="g64"
           transform="translate(83.2257,31.3091)"><path
             d="m 0,0 c -1.515,0 -2.749,0.69 -2.749,3.238 0,2.423 1.485,3.389 2.987,3.389 1.425,0 2.459,-0.778 2.459,-2.81 0,-0.258 -0.017,-0.568 -0.038,-0.793 h -3.882 c 0.104,-1.514 0.72,-1.753 1.473,-1.753 0.608,0 1.413,0.216 2.295,0.501 L 2.769,0.632 C 1.688,0.201 0.882,0 0,0 m 0.063,5.49 c -0.554,0 -1.135,-0.248 -1.246,-1.342 H 1.171 C 1.193,5.014 0.793,5.49 0.063,5.49"
             style="fill:#2e2661;fill-opacity:1;fill-rule:nonzero;stroke:none"
             id="path66" /></g><g
           id="g68"
           transform="translate(95.6678,31.425)"><path
             d="m 0,0 -0.955,0.842 c -0.64,-0.566 -1.498,-0.946 -2.619,-0.946 -1.616,0 -2.727,1.059 -2.727,2.394 0,0.82 0.52,1.566 1.391,2.115 -0.545,0.569 -0.824,1.124 -0.824,1.703 0,1.282 1.098,2.166 2.736,2.166 0.652,0 1.286,-0.162 1.917,-0.414 L -1.387,6.674 c -0.729,0.281 -1.285,0.365 -1.74,0.365 -0.726,0 -1.157,-0.379 -1.157,-0.821 0,-0.389 0.194,-0.727 0.785,-1.256 l 2.303,-2.046 c 0.153,0.432 0.216,0.94 0.216,1.428 0,0.379 -0.051,0.756 -0.153,1.147 H 0.254 C 0.364,5.175 0.445,4.759 0.445,4.344 0.445,3.562 0.267,2.707 -0.108,1.964 L 2.108,0 Z m -4.004,3.562 c -0.554,-0.34 -0.847,-0.744 -0.847,-1.185 0,-0.742 0.631,-1.296 1.376,-1.296 0.618,0 1.145,0.215 1.562,0.616 z"
             style="fill:#2e2661;fill-opacity:1;fill-rule:nonzero;stroke:none"
             id="path70" /></g><g
           id="g72"
           transform="translate(107.6579,31.425)"><path
             d="M 0,0 C -0.084,2.235 -0.277,4.48 -0.477,6.371 H -0.49 L -2.569,0 H -4.37 L -6.244,6.46 H -6.261 C -6.486,4.658 -6.686,2.414 -6.773,0 h -1.415 c 0.128,3.035 0.365,5.391 0.791,8.212 h 2.221 l 1.822,-6.391 h 0.018 l 2.103,6.391 H 0.874 C 1.201,5.1 1.438,2.743 1.552,0 Z"
             style="fill:#2e2661;fill-opacity:1;fill-rule:nonzero;stroke:none"
             id="path74" /></g><g
           id="g76"
           transform="translate(114.3194,31.4191)"><path
             d="m 0,0 -0.076,0.784 h -0.012 c -0.619,-0.582 -1.224,-0.908 -1.992,-0.908 -1.071,0 -1.799,0.528 -1.799,1.841 0,1.171 0.467,2.116 3.061,2.116 0.212,0 0.43,-0.014 0.617,-0.021 v 0.385 c 0,0.707 -0.09,1.059 -0.91,1.059 -0.768,0 -1.648,-0.415 -2.452,-0.894 L -3.702,5.596 C -2.743,6.154 -1.725,6.54 -0.707,6.54 0.189,6.54 0.894,6.224 1.148,5.497 1.249,5.206 1.272,4.915 1.272,4.388 V 0 Z m -0.201,2.761 c -0.239,0.023 -0.494,0.038 -0.631,0.038 -1.347,0 -1.546,-0.314 -1.546,-0.917 0,-0.556 0.215,-0.771 0.64,-0.771 0.416,0 0.959,0.266 1.537,0.834 z"
             style="fill:#2e2661;fill-opacity:1;fill-rule:nonzero;stroke:none"
             id="path78" /></g><g
           id="g80"
           transform="translate(120.7687,36.3615)"><path
             d="m 0,0 c -0.275,0.074 -0.481,0.097 -0.655,0.097 -0.633,0 -1.069,-0.352 -1.503,-1.322 v -3.711 h -1.483 v 6.384 h 1.319 l 0.065,-1.111 h 0.013 c 0.494,0.921 1.074,1.199 1.792,1.199 0.261,0 0.553,-0.057 0.765,-0.137 z"
             style="fill:#2e2661;fill-opacity:1;fill-rule:nonzero;stroke:none"
             id="path82" /></g><g
           id="g84"
           transform="translate(122.4142,38.716)"><path
             d="M 0,0 C -0.563,0 -0.89,0.287 -0.89,0.829 -0.89,1.336 -0.563,1.64 0,1.64 0.582,1.64 0.895,1.336 0.895,0.829 0.895,0.287 0.582,0 0,0 m -0.755,-0.955 h 1.489 v -6.336 h -1.489 z"
             style="fill:#2e2661;fill-opacity:1;fill-rule:nonzero;stroke:none"
             id="path86" /></g><g
           id="g88"
           transform="translate(128.6026,31.425)"><path
             d="m 0,0 v 4.094 c 0,0.564 -0.014,1.081 -0.607,1.081 -0.339,0 -0.666,-0.151 -1.12,-0.517 C -1.92,4.521 -2.117,4.318 -2.305,4.094 V 0 h -1.489 v 6.385 h 1.338 L -2.411,5.36 h 0.016 c 0.653,0.696 1.449,1.152 2.227,1.152 1.365,0 1.655,-0.779 1.655,-2.247 L 1.487,0 Z"
             style="fill:#2e2661;fill-opacity:1;fill-rule:nonzero;stroke:none"
             id="path90" /></g><g
           id="g92"
           transform="translate(134.0417,31.3091)"><path
             d="m 0,0 c -1.514,0 -2.748,0.69 -2.748,3.238 0,2.423 1.487,3.389 2.981,3.389 1.428,0 2.46,-0.778 2.46,-2.81 0,-0.258 -0.011,-0.568 -0.035,-0.793 h -3.881 c 0.098,-1.514 0.717,-1.753 1.474,-1.753 0.605,0 1.41,0.216 2.292,0.501 L 2.771,0.632 C 1.687,0.201 0.883,0 0,0 m 0.058,5.49 c -0.551,0 -1.13,-0.248 -1.243,-1.342 H 1.169 C 1.196,5.014 0.792,5.49 0.058,5.49"
             style="fill:#2e2661;fill-opacity:1;fill-rule:nonzero;stroke:none"
             id="path94" /></g><path
           d="m 140.755,31.419 h 1.519 v 8.213 h -1.519 z"
           style="fill:#2e2661;fill-opacity:1;fill-rule:nonzero;stroke:none"
           id="path96" /><g
           id="g98"
           transform="translate(147.9949,31.425)"><path
             d="M 0,0 V 4.094 C 0,4.658 -0.012,5.175 -0.607,5.175 -0.944,5.175 -1.271,5.024 -1.724,4.658 -1.913,4.521 -2.118,4.318 -2.306,4.094 V 0 H -3.791 V 6.385 H -2.46 L -2.403,5.36 h 0.009 c 0.652,0.696 1.45,1.152 2.23,1.152 1.36,0 1.653,-0.779 1.653,-2.247 L 1.489,0 Z"
             style="fill:#2e2661;fill-opacity:1;fill-rule:nonzero;stroke:none"
             id="path100" /></g><g
           id="g102"
           transform="translate(152.6172,31.3498)"><path
             d="m 0,0 c -0.758,0 -1.68,0.271 -2.235,0.527 l 0.32,1.136 c 0.629,-0.201 1.471,-0.408 2.018,-0.408 0.714,0 1.004,0.268 1.004,0.592 0,0.249 -0.176,0.482 -0.642,0.667 l -1.147,0.443 c -0.73,0.286 -1.273,0.808 -1.273,1.727 0,0.871 0.717,1.903 2.354,1.903 0.657,0 1.436,-0.176 2.105,-0.456 L 2.217,4.973 C 1.434,5.226 0.788,5.349 0.3,5.349 c -0.613,0 -0.83,-0.24 -0.83,-0.494 0,-0.248 0.187,-0.478 0.692,-0.679 L 1.31,3.73 C 2.203,3.381 2.594,2.771 2.594,1.999 2.594,1.127 1.953,0 0,0"
             style="fill:#2e2661;fill-opacity:1;fill-rule:nonzero;stroke:none"
             id="path104" /></g><g
           id="g106"
           transform="translate(160.283,31.425)"><path
             d="m 0,0 -0.061,1.005 h -0.01 c -0.758,-0.797 -1.488,-1.121 -2.181,-1.121 -0.984,0 -1.717,0.407 -1.717,2.089 v 4.412 h 1.492 v -4.15 c 0,-0.815 0.199,-1.042 0.642,-1.042 0.339,0 0.692,0.178 1.093,0.519 0.216,0.187 0.416,0.403 0.58,0.613 v 4.06 H 1.322 L 1.322,0 Z"
             style="fill:#2e2661;fill-opacity:1;fill-rule:nonzero;stroke:none"
             id="path108" /></g><g
           id="g110"
           transform="translate(166.807,36.3615)"><path
             d="m 0,0 c -0.275,0.074 -0.474,0.097 -0.654,0.097 -0.63,0 -1.074,-0.352 -1.499,-1.322 v -3.711 h -1.483 v 6.384 h 1.324 l 0.059,-1.111 h 0.01 c 0.494,0.921 1.072,1.199 1.79,1.199 0.264,0 0.557,-0.057 0.767,-0.137 z"
             style="fill:#2e2661;fill-opacity:1;fill-rule:nonzero;stroke:none"
             id="path112" /></g><g
           id="g114"
           transform="translate(171.3153,31.4191)"><path
             d="m 0,0 -0.074,0.784 h -0.014 c -0.615,-0.582 -1.221,-0.908 -1.99,-0.908 -1.071,0 -1.803,0.528 -1.803,1.841 0,1.171 0.468,2.116 3.066,2.116 0.214,0 0.425,-0.014 0.617,-0.021 v 0.385 c 0,0.707 -0.09,1.059 -0.91,1.059 -0.769,0 -1.651,-0.415 -2.457,-0.894 l -0.142,1.234 c 0.96,0.558 1.984,0.944 3.004,0.944 0.889,0 1.598,-0.316 1.852,-1.043 C 1.248,5.206 1.273,4.915 1.273,4.388 V 0 Z M -0.198,2.761 C -0.44,2.784 -0.69,2.799 -0.829,2.799 -2.18,2.799 -2.38,2.485 -2.38,1.882 c 0,-0.556 0.21,-0.771 0.644,-0.771 0.416,0 0.956,0.266 1.538,0.834 z"
             style="fill:#2e2661;fill-opacity:1;fill-rule:nonzero;stroke:none"
             id="path116" /></g><g
           id="g118"
           transform="translate(177.9173,31.425)"><path
             d="m 0,0 v 4.094 c 0,0.564 -0.012,1.081 -0.607,1.081 -0.339,0 -0.667,-0.151 -1.121,-0.517 -0.188,-0.137 -0.39,-0.34 -0.577,-0.564 V 0 h -1.49 v 6.385 h 1.336 l 0.05,-1.025 h 0.015 c 0.656,0.696 1.448,1.152 2.225,1.152 1.366,0 1.653,-0.779 1.653,-2.247 L 1.484,0 Z"
             style="fill:#2e2661;fill-opacity:1;fill-rule:nonzero;stroke:none"
             id="path120" /></g><g
           id="g122"
           transform="translate(183.3403,31.2946)"><path
             d="m 0,0 c -1.27,0 -2.706,0.568 -2.706,3.328 0,2.595 1.678,3.325 3.087,3.325 0.517,0 1.034,-0.1 1.562,-0.275 L 1.756,5.206 C 1.112,5.368 0.708,5.431 0.293,5.431 c -0.67,0 -1.465,-0.315 -1.465,-2.001 0,-1.678 0.733,-2.195 1.447,-2.195 0.446,0 0.937,0.153 1.641,0.503 L 2.272,0.635 C 1.502,0.227 0.735,0 0,0"
             style="fill:#2e2661;fill-opacity:1;fill-rule:nonzero;stroke:none"
             id="path124" /></g><g
           id="g126"
           transform="translate(189.2222,31.3091)"><path
             d="m 0,0 c -1.51,0 -2.742,0.69 -2.742,3.238 0,2.423 1.486,3.389 2.982,3.389 1.42,0 2.462,-0.778 2.462,-2.81 0,-0.258 -0.018,-0.568 -0.044,-0.793 h -3.88 C -1.12,1.51 -0.5,1.271 0.256,1.271 c 0.603,0 1.404,0.216 2.292,0.501 l 0.23,-1.14 C 1.689,0.201 0.887,0 0,0 m 0.069,5.49 c -0.557,0 -1.138,-0.248 -1.247,-1.342 H 1.17 C 1.199,5.014 0.798,5.49 0.069,5.49"
             style="fill:#2e2661;fill-opacity:1;fill-rule:nonzero;stroke:none"
             id="path128" /></g><g
           id="g130"
           transform="translate(16.3612,47.7759)"><path
             d="M 0,0 17.16,-17.16 34.318,0 17.16,17.157 Z"
             style="fill:#e63183;fill-opacity:1;fill-rule:nonzero;stroke:none"
             id="path132" /></g><path
           d="M 0,51.048 H 13.088 V 64.137 H 0 Z"
           style="fill:#e63183;fill-opacity:1;fill-rule:nonzero;stroke:none"
           id="path134" /><path
           d="M 0,31.413 H 13.088 V 44.504 H 0 Z"
           style="fill:#e63183;fill-opacity:1;fill-rule:nonzero;stroke:none"
           id="path136" /></g></g></g></svg>
