<?xml version="1.0" encoding="UTF-8" standalone="no"?>
<svg
   xmlns:dc="http://purl.org/dc/elements/1.1/"
   xmlns:cc="http://creativecommons.org/ns#"
   xmlns:rdf="http://www.w3.org/1999/02/22-rdf-syntax-ns#"
   xmlns:svg="http://www.w3.org/2000/svg"
   xmlns="http://www.w3.org/2000/svg"
   xmlns:sodipodi="http://sodipodi.sourceforge.net/DTD/sodipodi-0.dtd"
   xmlns:inkscape="http://www.inkscape.org/namespaces/inkscape"
   version="1.1"
   id="svg2"
   xml:space="preserve"
   width="256"
   height="128"
   viewBox="0 0 256 128"
   sodipodi:docname="흥국생명.ai"><metadata
     id="metadata8"><rdf:RDF><cc:Work
         rdf:about=""><dc:format>image/svg+xml</dc:format><dc:type
           rdf:resource="http://purl.org/dc/dcmitype/StillImage" /></cc:Work></rdf:RDF></metadata><defs
     id="defs6"><clipPath
       clipPathUnits="userSpaceOnUse"
       id="clipPath22"><path
         d="M 0,96 H 192 V 0 H 0 Z"
         id="path20" /></clipPath></defs><sodipodi:namedview
     pagecolor="#ffffff"
     bordercolor="#666666"
     borderopacity="1"
     objecttolerance="10"
     gridtolerance="10"
     guidetolerance="10"
     inkscape:pageopacity="0"
     inkscape:pageshadow="2"
     inkscape:window-width="640"
     inkscape:window-height="480"
     id="namedview4" /><g
     id="g10"
     inkscape:groupmode="layer"
     inkscape:label="흥국생명"
     transform="matrix(1.3333333,0,0,-1.3333333,0,128)"><g
       id="g12"
       transform="translate(85.2785,47.741)"><path
         d="M 0,0 V 7.937 H -7.3 V 0 h -3.255 V 18.231 H -7.3 V 10.208 H 0 v 8.023 H 3.281 V 0 Z"
         style="fill:#2e2661;fill-opacity:1;fill-rule:nonzero;stroke:none"
         id="path14" /></g><g
       id="g16"><g
         id="g18"
         clip-path="url(#clipPath22)"><g
           id="g24"
           transform="translate(97.8018,60.1093)"><path
             d="M 0,0 C -1.175,0 -2.569,-0.505 -2.844,-3.759 H 2.379 C 2.434,-1.066 1.504,0 0,0 m -0.219,-12.65 c -3.28,0 -5.932,1.543 -5.932,7.126 0,5.579 3.226,7.487 6.398,7.487 3.116,0 5.358,-1.627 5.358,-6.225 0,-0.506 -0.027,-0.843 -0.082,-1.431 h -8.448 c 0.191,-3.899 1.558,-4.685 3.253,-4.685 1.313,0 3.063,0.478 4.949,1.068 l 0.492,-2.021 C 3.472,-12.088 1.722,-12.65 -0.219,-12.65"
             style="fill:#2e2661;fill-opacity:1;fill-rule:nonzero;stroke:none"
             id="path26" /></g><g
           id="g28"
           transform="translate(114.8922,47.741)"><path
             d="m 0,0 -0.137,2.495 h -0.027 c -1.613,-1.851 -3.253,-2.776 -4.756,-2.776 -2.134,0 -3.72,0.869 -3.72,4.514 v 9.818 h 3.144 V 4.795 c 0,-2.131 0.438,-2.748 1.45,-2.748 0.765,0 1.558,0.646 2.433,1.515 0.464,0.505 0.902,1.038 1.257,1.599 v 8.89 H 2.788 L 2.788,0 Z"
             style="fill:#2e2661;fill-opacity:1;fill-rule:nonzero;stroke:none"
             id="path30" /></g><g
           id="g32"
           transform="translate(129.1926,47.741)"><path
             d="m 0,0 v 9.2 c 0,1.484 -0.027,2.804 -1.34,2.804 -0.766,0 -1.477,-0.422 -2.487,-1.32 C -4.236,10.265 -4.702,9.648 -5.112,9.031 V 0 h -3.144 v 14.051 h 2.816 l 0.109,-2.607 h 0.028 c 1.449,1.906 3.171,2.887 4.865,2.887 2.954,0 3.583,-1.711 3.583,-4.796 L 3.145,0 Z"
             style="fill:#2e2661;fill-opacity:1;fill-rule:nonzero;stroke:none"
             id="path34" /></g><g
           id="g36"
           transform="translate(143.7669,59.6045)"><path
             d="m 0,0 c -0.739,0.14 -2.023,0.337 -2.68,0.337 -1.585,0 -2.925,-0.73 -2.925,-5.246 0,-4.319 1.039,-5.075 2.134,-5.075 0.818,0 1.831,0.644 3.471,2.412 z m -2.57,-17.726 c -1.941,0 -3.855,0.423 -5.55,0.926 l 0.683,2.103 c 1.805,-0.392 3.337,-0.756 5.086,-0.756 1.749,0 2.597,1.121 2.597,2.804 0,1.094 -0.109,1.88 -0.191,2.748 -1.64,-1.654 -2.816,-2.299 -4.4,-2.299 -2.271,0 -4.541,1.487 -4.541,6.815 0,6.956 3.582,7.797 6.588,7.797 1.642,0 3.802,-0.365 5.416,-0.729 V -7.88 c 0,-1.824 0.299,-2.637 0.299,-4.517 0,-2.776 -1.585,-5.329 -5.987,-5.329"
             style="fill:#2e2661;fill-opacity:1;fill-rule:nonzero;stroke:none"
             id="path38" /></g><g
           id="g40"
           transform="translate(158.8889,47.741)"><path
             d="M 0,0 C -1.942,2.973 -3.364,4.431 -5.305,7.236 V 0 h -3.144 v 19.633 h 3.144 V 7.797 c 2.186,1.43 3.692,3.478 4.949,6.254 H 3.198 C 1.53,10.684 0.191,8.807 -1.888,7.404 0.054,4.965 1.776,3.449 4.126,0 Z"
             style="fill:#2e2661;fill-opacity:1;fill-rule:nonzero;stroke:none"
             id="path42" /></g><g
           id="g44"
           transform="translate(173.1071,47.741)"><path
             d="m 0,0 -0.136,2.495 h -0.028 c -1.614,-1.851 -3.254,-2.776 -4.758,-2.776 -2.132,0 -3.718,0.869 -3.718,4.514 v 9.818 h 3.144 V 4.795 c 0,-2.131 0.437,-2.748 1.45,-2.748 0.764,0 1.557,0.646 2.433,1.515 0.464,0.505 0.902,1.038 1.257,1.599 v 8.89 H 2.788 L 2.788,0 Z"
             style="fill:#2e2661;fill-opacity:1;fill-rule:nonzero;stroke:none"
             id="path46" /></g><g
           id="g48"
           transform="translate(187.8721,47.741)"><path
             d="M 0,0 C -1.941,2.973 -3.362,4.431 -5.303,7.236 V 0 h -3.145 v 19.633 h 3.145 V 7.797 c 2.187,1.43 3.691,3.478 4.948,6.254 H 3.199 C 1.532,10.684 0.192,8.807 -1.887,7.404 0.055,4.965 1.777,3.449 4.128,0 Z"
             style="fill:#2e2661;fill-opacity:1;fill-rule:nonzero;stroke:none"
             id="path50" /></g><g
           id="g52"
           transform="translate(18.2336,47.7428)"><path
             d="M 0,0 19.117,-19.117 38.234,0 19.117,19.116 Z"
             style="fill:#e63183;fill-opacity:1;fill-rule:nonzero;stroke:none"
             id="path54" /></g><path
           d="M 0,65.975 H 14.586 V 51.389 H 0 Z"
           style="fill:#e63183;fill-opacity:1;fill-rule:nonzero;stroke:none"
           id="path56" /><path
           d="M 0,44.097 H 14.586 V 29.51 H 0 Z"
           style="fill:#e63183;fill-opacity:1;fill-rule:nonzero;stroke:none"
           id="path58" /><g
           id="g60"
           transform="translate(74.569,29.5207)"><path
             d="M 0,0 V 9.146 H 1.699 V 1.375 H 5.444 V 0 Z"
             style="fill:#2e2661;fill-opacity:1;fill-rule:nonzero;stroke:none"
             id="path62" /></g><path
           d="m 81.276,36.577 h 1.655 v -7.055 h -1.655 z m 0.842,1.066 c -0.631,0 -0.995,0.323 -0.995,0.927 0,0.559 0.364,0.897 0.995,0.897 0.645,0 0.996,-0.338 0.996,-0.897 0,-0.604 -0.351,-0.927 -0.996,-0.927"
           style="fill:#2e2661;fill-opacity:1;fill-rule:nonzero;stroke:none"
           id="path64" /><g
           id="g66"
           transform="translate(88.9928,37.8251)"><path
             d="m 0,0 c -0.603,0.169 -1.151,0.268 -1.543,0.268 -0.492,0 -0.73,-0.212 -0.73,-0.73 0,-0.38 0.028,-0.645 0.056,-1.01 h 1.895 v -1.305 h -1.852 v -5.527 h -1.642 v 5.527 h -0.996 v 1.305 h 0.968 c 0,0.337 -0.042,0.729 -0.042,1.038 0,1.36 0.786,2.061 2.314,2.061 0.646,0 1.446,-0.182 1.881,-0.337 z"
             style="fill:#2e2661;fill-opacity:1;fill-rule:nonzero;stroke:none"
             id="path68" /></g><g
           id="g70"
           transform="translate(92.3608,35.5108)"><path
             d="M 0,0 C -0.618,0 -1.263,-0.281 -1.388,-1.501 H 1.234 C 1.262,-0.533 0.813,0 0,0 m -0.07,-6.117 c -1.684,0 -3.059,0.772 -3.059,3.607 0,2.692 1.657,3.773 3.324,3.773 1.587,0 2.736,-0.87 2.736,-3.129 0,-0.281 -0.013,-0.632 -0.041,-0.884 h -4.32 c 0.11,-1.683 0.798,-1.95 1.64,-1.95 0.675,0 1.572,0.238 2.553,0.562 L 3.016,-5.415 C 1.81,-5.893 0.913,-6.117 -0.07,-6.117"
             style="fill:#2e2661;fill-opacity:1;fill-rule:nonzero;stroke:none"
             id="path72" /></g><path
           d="m 99.769,38.667 h 1.698 v -9.145 h -1.698 z"
           style="fill:#2e2661;fill-opacity:1;fill-rule:nonzero;stroke:none"
           id="path74" /><g
           id="g76"
           transform="translate(107.8362,29.5207)"><path
             d="M 0,0 V 4.559 C 0,5.19 -0.014,5.766 -0.674,5.766 -1.051,5.766 -1.417,5.597 -1.92,5.19 -2.133,5.037 -2.356,4.812 -2.567,4.559 V 0 h -1.655 v 7.113 h 1.486 L -2.68,5.977 h 0.015 c 0.729,0.771 1.614,1.277 2.484,1.277 1.515,0 1.836,-0.871 1.836,-2.498 L 1.655,0 Z"
             style="fill:#2e2661;fill-opacity:1;fill-rule:nonzero;stroke:none"
             id="path78" /></g><g
           id="g80"
           transform="translate(112.986,29.4363)"><path
             d="m 0,0 c -0.841,0 -1.864,0.31 -2.483,0.589 l 0.351,1.262 C -1.43,1.628 -0.49,1.403 0.113,1.403 c 0.799,0 1.122,0.295 1.122,0.66 0,0.279 -0.196,0.533 -0.716,0.742 l -1.276,0.491 c -0.814,0.323 -1.417,0.899 -1.417,1.923 0,0.967 0.8,2.118 2.623,2.118 0.73,0 1.6,-0.196 2.342,-0.505 L 2.469,5.541 C 1.6,5.822 0.885,5.963 0.337,5.963 c -0.688,0 -0.925,-0.266 -0.925,-0.549 0,-0.278 0.209,-0.532 0.771,-0.758 L 1.459,4.152 C 2.456,3.774 2.89,3.086 2.89,2.229 2.89,1.262 2.175,0 0,0"
             style="fill:#2e2661;fill-opacity:1;fill-rule:nonzero;stroke:none"
             id="path82" /></g><g
           id="g84"
           transform="translate(121.5306,29.5207)"><path
             d="m 0,0 -0.07,1.122 h -0.014 c -0.842,-0.884 -1.656,-1.248 -2.428,-1.248 -1.094,0 -1.908,0.449 -1.908,2.328 v 4.911 h 1.656 V 2.497 c 0,-0.911 0.223,-1.165 0.715,-1.165 0.379,0 0.772,0.196 1.221,0.575 0.24,0.211 0.463,0.45 0.646,0.687 V 7.113 H 1.473 L 1.473,0 Z"
             style="fill:#2e2661;fill-opacity:1;fill-rule:nonzero;stroke:none"
             id="path86" /></g><g
           id="g88"
           transform="translate(128.7992,35.0197)"><path
             d="m 0,0 c -0.308,0.084 -0.533,0.113 -0.73,0.113 -0.701,0 -1.191,-0.393 -1.669,-1.474 V -5.499 H -4.054 V 1.614 H -2.58 L -2.511,0.38 h 0.014 c 0.548,1.022 1.193,1.331 1.992,1.331 0.295,0 0.618,-0.069 0.856,-0.154 z"
             style="fill:#2e2661;fill-opacity:1;fill-rule:nonzero;stroke:none"
             id="path90" /></g><g
           id="g92"
           transform="translate(133.5988,32.593)"><path
             d="m 0,0 c -0.268,0.027 -0.548,0.041 -0.702,0.041 -1.501,0 -1.726,-0.349 -1.726,-1.023 0,-0.618 0.238,-0.857 0.715,-0.857 0.464,0 1.067,0.295 1.713,0.927 z m 0.223,-3.072 -0.084,0.87 H 0.125 c -0.687,-0.645 -1.36,-1.011 -2.216,-1.011 -1.192,0 -2.006,0.589 -2.006,2.048 0,1.305 0.518,2.358 3.409,2.358 0.238,0 0.477,-0.014 0.688,-0.03 v 0.436 c 0,0.787 -0.099,1.178 -1.011,1.178 -0.855,0 -1.838,-0.463 -2.735,-0.996 l -0.155,1.376 c 1.066,0.617 2.201,1.05 3.339,1.05 C 0.435,4.207 1.219,3.859 1.5,3.044 1.613,2.721 1.641,2.398 1.641,1.81 v -4.882 z"
             style="fill:#2e2661;fill-opacity:1;fill-rule:nonzero;stroke:none"
             id="path94" /></g><g
           id="g96"
           transform="translate(141.1746,29.5207)"><path
             d="M 0,0 V 4.559 C 0,5.19 -0.014,5.766 -0.674,5.766 -1.052,5.766 -1.417,5.597 -1.922,5.19 -2.133,5.037 -2.356,4.812 -2.567,4.559 V 0 h -1.655 v 7.113 h 1.486 l 0.057,-1.136 h 0.013 c 0.73,0.771 1.614,1.277 2.484,1.277 1.515,0 1.837,-0.871 1.837,-2.498 L 1.655,0 Z"
             style="fill:#2e2661;fill-opacity:1;fill-rule:nonzero;stroke:none"
             id="path98" /></g><g
           id="g100"
           transform="translate(147.2224,29.3802)"><path
             d="m 0,0 c -1.417,0 -3.016,0.63 -3.016,3.703 0,2.891 1.866,3.704 3.437,3.704 0.574,0 1.15,-0.112 1.739,-0.309 L 1.949,5.794 C 1.234,5.976 0.786,6.046 0.323,6.046 c -0.744,0 -1.627,-0.35 -1.627,-2.229 0,-1.868 0.814,-2.443 1.613,-2.443 0.491,0 1.038,0.169 1.823,0.563 L 2.525,0.702 C 1.67,0.253 0.814,0 0,0"
             style="fill:#2e2661;fill-opacity:1;fill-rule:nonzero;stroke:none"
             id="path102" /></g><g
           id="g104"
           transform="translate(153.8457,35.5108)"><path
             d="M 0,0 C -0.618,0 -1.263,-0.281 -1.389,-1.501 H 1.234 C 1.263,-0.533 0.813,0 0,0 m -0.07,-6.117 c -1.685,0 -3.059,0.772 -3.059,3.607 0,2.692 1.655,3.773 3.324,3.773 1.587,0 2.736,-0.87 2.736,-3.129 0,-0.281 -0.013,-0.632 -0.042,-0.884 h -4.321 c 0.112,-1.683 0.801,-1.95 1.641,-1.95 0.674,0 1.573,0.238 2.554,0.562 L 3.016,-5.415 C 1.81,-5.893 0.911,-6.117 -0.07,-6.117"
             style="fill:#2e2661;fill-opacity:1;fill-rule:nonzero;stroke:none"
             id="path106" /></g></g></g></g></svg>
