<?xml version="1.0" encoding="UTF-8" standalone="no"?>
<svg
   xmlns:dc="http://purl.org/dc/elements/1.1/"
   xmlns:cc="http://creativecommons.org/ns#"
   xmlns:rdf="http://www.w3.org/1999/02/22-rdf-syntax-ns#"
   xmlns:svg="http://www.w3.org/2000/svg"
   xmlns="http://www.w3.org/2000/svg"
   xmlns:sodipodi="http://sodipodi.sourceforge.net/DTD/sodipodi-0.dtd"
   xmlns:inkscape="http://www.inkscape.org/namespaces/inkscape"
   version="1.1"
   id="svg2"
   xml:space="preserve"
   width="341.33334"
   height="170.66667"
   viewBox="0 0 341.33334 170.66667"
   sodipodi:docname="하나생명.ai"><metadata
     id="metadata8"><rdf:RDF><cc:Work
         rdf:about=""><dc:format>image/svg+xml</dc:format><dc:type
           rdf:resource="http://purl.org/dc/dcmitype/StillImage" /></cc:Work></rdf:RDF></metadata><defs
     id="defs6"><clipPath
       clipPathUnits="userSpaceOnUse"
       id="clipPath18"><path
         d="M 0,128 H 256 V 0 H 0 Z"
         id="path16" /></clipPath></defs><sodipodi:namedview
     pagecolor="#ffffff"
     bordercolor="#666666"
     borderopacity="1"
     objecttolerance="10"
     gridtolerance="10"
     guidetolerance="10"
     inkscape:pageopacity="0"
     inkscape:pageshadow="2"
     inkscape:window-width="640"
     inkscape:window-height="480"
     id="namedview4" /><g
     id="g10"
     inkscape:groupmode="layer"
     inkscape:label="하나생명"
     transform="matrix(1.3333333,0,0,-1.3333333,0,170.66667)"><g
       id="g12"><g
         id="g14"
         clip-path="url(#clipPath18)"><g
           id="g20"
           transform="translate(49.4644,57.6381)"><path
             d="m 0,0 c -0.173,1.046 -0.457,2.071 -0.879,3.019 -1.327,2.846 -3.172,5.26 -5.949,6.876 -4.317,2.514 -9.525,2.497 -13.783,-0.083 -1.929,-1.173 -3.508,-2.853 -4.529,-4.864 -0.346,-0.693 -0.63,-1.399 -0.859,-2.119 -1.125,-3.587 -1.091,-8.386 0.938,-11.644 0.662,-1.056 1.617,-1.97 2.784,-2.42 1.167,-0.447 2.555,-0.392 3.601,0.284 1.361,0.879 1.596,2.544 1.347,4.016 -0.319,1.894 -0.561,3.781 0.135,5.633 0.225,0.592 0.54,1.16 1.001,1.603 0.266,0.267 0.599,0.482 0.955,0.644 0.731,0.367 1.569,0.523 2.375,0.398 1.406,-0.218 2.566,-1.326 3.186,-2.61 0.633,-1.285 0.803,-2.732 0.869,-4.159 0.304,-6.225 -1.184,-12.679 -2.77,-18.651 -0.163,-0.61 -0.333,-1.229 -0.513,-1.828 -0.142,-0.475 -0.38,-1.077 -0.072,-1.538 0.128,-0.197 0.339,-0.332 0.554,-0.426 0.921,-0.373 1.675,0.194 2.292,0.818 3.656,3.673 5.986,8.399 7.586,13.271 0.592,1.814 1.111,3.666 1.447,5.543 C 0.194,-5.657 0.461,-2.714 0,0"
             style="fill:#029793;fill-opacity:1;fill-rule:nonzero;stroke:none"
             id="path22" /></g><g
           id="g24"
           transform="translate(75.571,86.4017)"><path
             d="M 0,0 C 0,0.928 -0.821,1.551 -1.71,1.52 -2.611,1.478 -3.448,1.025 -4.276,0.699 c -16.038,-6.1 -34.135,-7.25 -51.039,-4.823 -2.901,0.426 -5.823,1.011 -8.728,1.455 -1.828,0.29 -3.625,0.706 -5.46,0.834 -1.569,0.132 -3.515,0.183 -4.772,-0.904 -1.672,-1.444 -1.558,-4.179 -0.609,-5.976 1.143,-2.167 3.13,-3.788 5.19,-5.02 2.015,-1.212 4.418,-2.472 6.807,-2.323 6.464,0.419 12.911,1.028 19.337,1.862 10.945,1.42 22.433,2.763 32.716,7.019 3.362,1.384 6.676,3.119 9.563,5.359 C -0.751,-1.413 0,-0.769 0,0"
             style="fill:#029793;fill-opacity:1;fill-rule:nonzero;stroke:none"
             id="path26" /></g><g
           id="g28"
           transform="translate(29.5621,91.8961)"><path
             d="m 0,0 c 0,-3.494 2.822,-6.322 6.319,-6.322 3.48,0 6.312,2.828 6.312,6.322 0,0.509 -0.135,1.042 -0.35,1.51 -0.54,1.146 -1.149,1.703 -1.08,3.071 C 11.266,6.437 8.895,6.454 7.617,6.454 6.225,6.454 4.743,6.253 3.487,5.633 2.479,5.131 1.61,4.356 1.004,3.407 0.377,2.438 0.028,1.288 0,0.142 Z"
             style="fill:#e42956;fill-opacity:1;fill-rule:nonzero;stroke:none"
             id="path30" /></g><g
           id="g32"
           transform="translate(117.138,63.2894)"><path
             d="M 0,0 V -27.484 H -6.869 V 18.579 H 0 V 4.567 H 6.62 V 0 Z m -24.527,9.058 c -2.805,0 -5.038,-4.27 -4.99,-10.838 -0.048,-6.249 2.137,-10.432 4.931,-10.432 2.856,0 4.989,4.069 4.989,10.432 0,6.87 -2.036,10.838 -4.93,10.838 m -3.567,4.688 v 4.833 h 7.126 v -4.833 h 9.515 V 9.161 h -4.983 c 2.237,-2.7 3.67,-6.516 3.722,-10.941 -0.052,-8.604 -4.899,-15.012 -11.813,-15.012 -7.126,-0.056 -11.859,6.408 -11.859,15.012 0,4.425 1.427,8.241 3.656,10.941 h -4.677 v 4.585 z"
             style="fill:#2c292a;fill-opacity:1;fill-rule:nonzero;stroke:none"
             id="path34" /></g><g
           id="g36"
           transform="translate(136.0414,53.6266)"><path
             d="m 0,0 h 11.561 c 3.099,0 5.443,-0.177 8.337,1.368 v 26.874 h 6.873 V 14.23 h 6.62 V 9.663 h -6.62 V -17.824 H 19.898 V -3.206 C 17.513,-4.29 14.306,-4.584 11.402,-4.584 H -3.816 c -2.998,0 -5.293,2.891 -5.293,6.312 v 24.475 h 6.872 V 1.877 C -2.237,0.703 -1.468,0 0,0"
             style="fill:#2c292a;fill-opacity:1;fill-rule:nonzero;stroke:none"
             id="path38" /></g><g
           id="g40"
           transform="translate(203.5861,69.1398)"><path
             d="m 0,0 v -10.228 c 1.167,-0.305 2.24,-0.717 3.296,-1.226 V 0 Z m -2.905,-14.5 c -2.794,0 -6.007,-2.746 -6.007,-7.694 0,-4.515 3.009,-7.575 5.959,-7.575 2.842,0 6.007,2.953 6.007,7.575 C 3.005,-17.153 0,-14.5 -2.905,-14.5 m 12.828,-7.735 c -0.048,-7.327 -6.509,-12.112 -12.828,-12.112 -6.866,0 -12.925,4.785 -12.87,12.153 -0.055,5.609 4.013,10.183 9.155,11.724 V 12.728 H 0 V 4.581 h 3.296 v 8.147 h 6.627 z m -26.21,34.201 V 9.21 c 0,-7.375 2.593,-12.818 7.375,-14.497 v -4.795 c -5.595,0.765 -10.325,4.996 -11.042,7.333 -0.709,-2.337 -5.598,-6.61 -10.84,-7.333 v 4.795 c 4.632,1.631 7.33,7.015 7.378,14.448 v 2.805 z"
             style="fill:#2c292a;fill-opacity:1;fill-rule:nonzero;stroke:none"
             id="path42" /></g><path
           d="m 241.24,67.857 h 7.894 v 5.107 h -7.894 z m 1.942,-13.22 c -2.808,0 -6.014,-2.745 -6.014,-7.693 0,-4.512 3.006,-7.572 5.952,-7.572 2.853,0 6.014,2.953 6.014,7.572 -0.055,5.045 -3.061,7.693 -5.952,7.693 m -17.204,21.63 v -9.47 c 0,-1.312 0.762,-1.977 1.876,-1.977 h 6.524 v 11.447 z m 15.262,4.566 v -3.296 h 7.894 v 4.332 H 256 V 46.944 c 0,-7.365 -6.506,-12.153 -12.818,-12.153 -6.876,0 -12.925,4.789 -12.876,12.153 -0.049,6.883 6.104,12.274 12.876,12.274 2.081,0 4.117,-0.509 5.952,-1.426 v 5.498 h -7.894 v -3.061 h -17.149 c -3.054,0 -4.993,2.753 -4.993,6.16 v 14.444 z"
           style="fill:#2c292a;fill-opacity:1;fill-rule:nonzero;stroke:none"
           id="path44" /></g></g></g></svg>
