<?xml version="1.0" encoding="UTF-8" standalone="no"?>
<svg
   xmlns:dc="http://purl.org/dc/elements/1.1/"
   xmlns:cc="http://creativecommons.org/ns#"
   xmlns:rdf="http://www.w3.org/1999/02/22-rdf-syntax-ns#"
   xmlns:svg="http://www.w3.org/2000/svg"
   xmlns="http://www.w3.org/2000/svg"
   xmlns:sodipodi="http://sodipodi.sourceforge.net/DTD/sodipodi-0.dtd"
   xmlns:inkscape="http://www.inkscape.org/namespaces/inkscape"
   version="1.1"
   id="svg2"
   xml:space="preserve"
   width="256"
   height="128"
   viewBox="0 0 256 128"
   sodipodi:docname="한화손해.ai"><metadata
     id="metadata8"><rdf:RDF><cc:Work
         rdf:about=""><dc:format>image/svg+xml</dc:format><dc:type
           rdf:resource="http://purl.org/dc/dcmitype/StillImage" /></cc:Work></rdf:RDF></metadata><defs
     id="defs6"><clipPath
       clipPathUnits="userSpaceOnUse"
       id="clipPath18"><path
         d="M 0,96 H 192 V 0 H 0 Z"
         id="path16" /></clipPath></defs><sodipodi:namedview
     pagecolor="#ffffff"
     bordercolor="#666666"
     borderopacity="1"
     objecttolerance="10"
     gridtolerance="10"
     guidetolerance="10"
     inkscape:pageopacity="0"
     inkscape:pageshadow="2"
     inkscape:window-width="640"
     inkscape:window-height="480"
     id="namedview4" /><g
     id="g10"
     inkscape:groupmode="layer"
     inkscape:label="한화손해"
     transform="matrix(1.3333333,0,0,-1.3333333,0,128)"><g
       id="g12"><g
         id="g14"
         clip-path="url(#clipPath18)"><g
           id="g20"
           transform="translate(52.9984,45.4548)"><path
             d="m 0,0 c -0.794,7.751 -9.626,14.104 -19.725,14.19 -10.099,0.083 -17.647,-6.137 -16.853,-13.892 0.794,-7.756 9.627,-14.111 19.727,-14.191 C -6.752,-13.979 0.791,-7.755 0,0 m -33.412,1.941 c -0.691,6.251 5.867,11.27 14.643,11.199 8.773,-0.068 16.447,-5.191 17.135,-11.443 0.691,-6.252 -5.864,-11.27 -14.644,-11.201 -8.771,0.07 -16.446,5.188 -17.134,11.445"
             style="fill:#fbb584;fill-opacity:1;fill-rule:nonzero;stroke:none"
             id="path22" /></g><g
           id="g24"
           transform="translate(19.3212,48.4647)"><path
             d="m 0,0 c -5.781,-6.043 -5.877,-15.334 -0.215,-20.758 5.665,-5.426 14.946,-4.921 20.727,1.117 5.786,6.04 5.878,15.332 0.214,20.761 C 15.064,6.543 5.784,6.039 0,0 M 18.426,-17.063 C 13.453,-22.259 5.471,-22.69 0.6,-18.023 c -4.879,4.661 -4.797,12.66 0.182,17.859 4.974,5.194 12.961,5.62 17.831,0.96 4.874,-4.664 4.792,-12.663 -0.187,-17.859"
             style="fill:#f89b6c;fill-opacity:1;fill-rule:nonzero;stroke:none"
             id="path26" /></g><g
           id="g28"
           transform="translate(10.2402,64.5827)"><path
             d="m 0,0 c -10.737,-8.498 -13.467,-20.809 -6.106,-27.501 7.362,-6.69 22.034,-5.228 32.771,3.272 10.731,8.499 13.463,20.813 6.104,27.502 C 25.402,9.966 10.733,8.501 0,0 M 9.605,3.331 C 19.95,7.212 30.18,3.287 32.457,-5.428 c 2.278,-8.718 -4.268,-18.927 -14.615,-22.802 -10.344,-3.883 -20.572,0.046 -22.851,8.761 -2.274,8.714 4.271,18.924 14.614,22.8"
             style="fill:#f37321;fill-opacity:1;fill-rule:nonzero;stroke:none"
             id="path30" /></g><g
           id="g32"
           transform="translate(78.0239,52.6646)"><path
             d="M 0,0 H 2.862 V -2.17 H 0 V -9.164 H -2.748 V 5.078 l 2.748,0 z m -11.587,-6.07 c 0.723,0 1.343,0.199 1.858,0.6 0.515,0.399 0.772,0.9 0.772,1.5 0,0.585 -0.257,1.077 -0.772,1.477 -0.515,0.4 -1.135,0.6 -1.858,0.6 -0.724,0 -1.344,-0.2 -1.86,-0.6 -0.515,-0.4 -0.772,-0.892 -0.772,-1.477 0,-0.6 0.257,-1.101 0.772,-1.5 0.516,-0.401 1.136,-0.6 1.86,-0.6 m -3.186,11.494 h 6.37 V 3.416 h -6.37 z m 4.132,-18.004 H 0.091 v -2.123 H -11.31 c -2.463,0 -3.695,1.146 -3.695,3.439 v 2.215 h 2.772 v -1.892 c 0,-1.093 0.53,-1.639 1.592,-1.639 m -0.946,4.57 c -1.57,0 -2.847,0.397 -3.832,1.189 -0.985,0.792 -1.477,1.743 -1.477,2.851 0,1.093 0.492,2.035 1.477,2.827 0.985,0.792 2.262,1.189 3.832,1.189 1.57,0 2.846,-0.397 3.83,-1.189 0.986,-0.792 1.479,-1.734 1.479,-2.827 0,-1.108 -0.493,-2.059 -1.479,-2.851 -0.984,-0.792 -2.26,-1.189 -3.83,-1.189 m 6.209,8.725 h -12.419 v 1.986 h 12.419 z"
             style="fill:#000000;fill-opacity:1;fill-rule:nonzero;stroke:none"
             id="path34" /></g><g
           id="g36"
           transform="translate(89.4485,46.5943)"><path
             d="M 0,0 C 0.723,0 1.342,0.2 1.858,0.6 2.373,0.999 2.632,1.5 2.632,2.1 2.632,2.685 2.373,3.177 1.858,3.578 1.342,3.977 0.723,4.177 0,4.177 -0.723,4.177 -1.342,3.977 -1.858,3.578 -2.373,3.177 -2.632,2.685 -2.632,2.1 -2.632,1.5 -2.373,0.999 -1.858,0.6 -1.342,0.2 -0.723,0 0,0 M -3.186,11.494 H 3.185 V 9.486 H -3.186 Z M 6.162,6.785 H -6.255 V 8.771 H 6.162 Z m -7.524,-8.609 c -0.985,0.169 -1.824,0.539 -2.516,1.108 -0.953,0.785 -1.431,1.724 -1.431,2.816 0,1.093 0.493,2.035 1.477,2.827 C -2.847,5.72 -1.57,6.116 0,6.116 1.57,6.116 2.846,5.72 3.832,4.927 4.816,4.135 5.309,3.193 5.309,2.1 5.309,1.008 4.831,0.069 3.878,-0.716 3.201,-1.27 2.377,-1.639 1.407,-1.824 v -2.1 h 3.071 c 2.77,0 4.154,1.069 4.154,3.208 V 11.148 H 11.38 V 4.501 h 2.862 V 2.308 H 11.38 V -8.679 H 8.632 v 3.716 C 7.802,-5.702 6.57,-6.071 4.939,-6.071 H -6.694 v 2.147 h 5.332 z"
             style="fill:#000000;fill-opacity:1;fill-rule:nonzero;stroke:none"
             id="path38" /></g><g
           id="g40"
           transform="translate(112.369,40.1079)"><path
             d="M 0,0 H 11.241 V -2.146 H -0.878 c -2.339,0 -3.508,1.223 -3.508,3.669 v 2.355 h 2.77 V 1.754 C -1.616,0.585 -1.077,0 0,0 m 4.709,17.427 c 0,-1.6 0.775,-3.016 2.33,-4.247 1.493,-1.185 3.154,-1.855 4.986,-2.008 V 9.094 C 9.824,9.156 7.654,9.887 5.516,11.287 4.608,11.872 3.877,12.534 3.323,13.272 2.753,12.534 2.015,11.872 1.107,11.287 -1.033,9.887 -3.202,9.156 -5.402,9.094 v 2.078 c 1.832,0.153 3.493,0.823 4.986,2.008 1.555,1.231 2.33,2.647 2.33,4.247 v 0.162 H 4.709 Z M 13.433,7.34 V 5.17 H -6.81 v 2.17 h 8.703 v 2.816 H 4.709 V 7.34 Z"
             style="fill:#000000;fill-opacity:1;fill-rule:nonzero;stroke:none"
             id="path42" /></g><g
           id="g44"
           transform="translate(144.659,57.7425)"><path
             d="M 0,0 H 2.702 V -19.827 H 0 V -8.84 H -1.939 V -19.827 H -4.593 V 0 h 2.654 V -6.648 H 0 Z m -8.955,-11.356 c 0,0.907 -0.201,1.627 -0.6,2.158 -0.401,0.53 -0.946,0.796 -1.639,0.796 -0.678,0 -1.212,-0.266 -1.605,-0.796 -0.392,-0.531 -0.588,-1.251 -0.588,-2.158 0,-0.909 0.196,-1.628 0.588,-2.159 0.393,-0.53 0.927,-0.796 1.605,-0.796 0.693,0 1.238,0.266 1.639,0.796 0.399,0.531 0.6,1.25 0.6,2.159 m -5.102,11.287 h 5.771 V -2.17 h -5.771 z m 7.779,-11.287 c 0,-1.431 -0.454,-2.624 -1.361,-3.578 -0.908,-0.955 -2.085,-1.431 -3.532,-1.431 -1.447,0 -2.624,0.476 -3.532,1.431 -0.908,0.954 -1.361,2.147 -1.361,3.578 0,1.431 0.453,2.623 1.361,3.577 0.908,0.954 2.085,1.431 3.532,1.431 1.447,0 2.624,-0.477 3.532,-1.431 0.907,-0.954 1.361,-2.146 1.361,-3.577 m 0.439,5.978 h -10.71 v 2.077 h 10.71 z"
             style="fill:#000000;fill-opacity:1;fill-rule:nonzero;stroke:none"
             id="path46" /></g><g
           id="g48"
           transform="translate(165.5243,48.187)"><path
             d="M 0,0 V 3.462 H -10.201 V 1.477 C -10.201,0.492 -9.701,0 -8.702,0 Z m 2.748,-2.147 h -6.232 v -3.878 h 8.725 v -2.193 h -20.244 v 2.193 H -6.3 v 3.878 h -3.118 c -2.353,0 -3.53,1.177 -3.53,3.532 v 7.709 h 2.747 V 5.586 H 0 v 3.508 h 2.748 z"
             style="fill:#000000;fill-opacity:1;fill-rule:nonzero;stroke:none"
             id="path50" /></g><g
           id="g52"
           transform="translate(189.252,49.8254)"><path
             d="M 0,0 H -3.53 V 2.17 H 0 V 7.917 H 2.748 V -4.27 H 0 Z m 0,-7.293 h -9.555 v -1.501 c 0,-0.692 0.376,-1.039 1.13,-1.039 H 0 Z m 2.748,0.623 v -5.194 H -9.001 c -2.202,0 -3.3,0.954 -3.3,2.862 v 3.739 H 1.225 c 1.014,0 1.523,-0.469 1.523,-1.407 m -15.096,6.024 c 0,-0.539 0.254,-0.963 0.761,-1.27 0.509,-0.307 1.155,-0.462 1.939,-0.462 0.786,0 1.432,0.155 1.939,0.462 0.508,0.307 0.763,0.731 0.763,1.27 0,0.538 -0.255,0.965 -0.763,1.281 -0.507,0.315 -1.153,0.473 -1.939,0.473 -0.784,0 -1.43,-0.158 -1.939,-0.473 -0.507,-0.316 -0.761,-0.743 -0.761,-1.281 m -0.485,8.909 h 6.371 V 6.255 h -6.371 z m -2.261,-8.886 c 0,1.046 0.504,1.916 1.511,2.608 1.008,0.693 2.319,1.039 3.935,1.039 1.601,0 2.909,-0.346 3.925,-1.039 1.014,-0.692 1.523,-1.562 1.523,-2.608 0,-1.047 -0.509,-1.92 -1.523,-2.62 -1.016,-0.7 -2.324,-1.051 -3.925,-1.051 -1.616,0 -2.927,0.351 -3.935,1.051 -1.007,0.7 -1.511,1.573 -1.511,2.62 m 11.655,4.224 h -12.417 v 1.985 h 12.417 z"
             style="fill:#000000;fill-opacity:1;fill-rule:nonzero;stroke:none"
             id="path54" /></g></g></g></g></svg>
