<?xml version="1.0" encoding="UTF-8" standalone="no"?>
<svg
   xmlns:dc="http://purl.org/dc/elements/1.1/"
   xmlns:cc="http://creativecommons.org/ns#"
   xmlns:rdf="http://www.w3.org/1999/02/22-rdf-syntax-ns#"
   xmlns:svg="http://www.w3.org/2000/svg"
   xmlns="http://www.w3.org/2000/svg"
   xmlns:sodipodi="http://sodipodi.sourceforge.net/DTD/sodipodi-0.dtd"
   xmlns:inkscape="http://www.inkscape.org/namespaces/inkscape"
   version="1.1"
   id="svg2"
   xml:space="preserve"
   width="256"
   height="128"
   viewBox="0 0 256 128"
   sodipodi:docname="한화생명.ai"><metadata
     id="metadata8"><rdf:RDF><cc:Work
         rdf:about=""><dc:format>image/svg+xml</dc:format><dc:type
           rdf:resource="http://purl.org/dc/dcmitype/StillImage" /></cc:Work></rdf:RDF></metadata><defs
     id="defs6"><clipPath
       clipPathUnits="userSpaceOnUse"
       id="clipPath18"><path
         d="M 0,96 H 192 V 0 H 0 Z"
         id="path16" /></clipPath></defs><sodipodi:namedview
     pagecolor="#ffffff"
     bordercolor="#666666"
     borderopacity="1"
     objecttolerance="10"
     gridtolerance="10"
     guidetolerance="10"
     inkscape:pageopacity="0"
     inkscape:pageshadow="2"
     inkscape:window-width="640"
     inkscape:window-height="480"
     id="namedview4" /><g
     id="g10"
     inkscape:groupmode="layer"
     inkscape:label="한화생명"
     transform="matrix(1.3333333,0,0,-1.3333333,0,128)"><g
       id="g12"><g
         id="g14"
         clip-path="url(#clipPath18)"><g
           id="g20"
           transform="translate(70.1416,44.6294)"><path
             d="m 0,0 c -1.057,10.264 -12.737,18.675 -26.106,18.782 -13.365,0.114 -23.348,-8.128 -22.301,-18.38 1.045,-10.263 12.733,-18.684 26.099,-18.793 C -8.943,-18.493 1.047,-10.268 0,0 m -44.218,2.569 c -0.911,8.279 7.762,14.923 19.379,14.83 11.609,-0.098 21.77,-6.878 22.674,-15.149 0.909,-8.279 -7.759,-14.911 -19.371,-14.826 -11.616,0.092 -21.773,6.876 -22.682,15.145"
             style="fill:#f4af82;fill-opacity:1;fill-rule:evenodd;stroke:none"
             id="path22" /></g><g
           id="g24"
           transform="translate(25.5733,48.6063)"><path
             d="m 0,0 c -7.658,-7.987 -7.784,-20.294 -0.285,-27.467 7.496,-7.17 19.777,-6.518 27.431,1.479 7.648,8 7.777,20.296 0.281,27.475 C 19.934,8.669 7.648,8.002 0,0 m 24.383,-22.57 c -6.578,-6.889 -17.143,-7.455 -23.598,-1.276 -6.446,6.174 -6.342,16.755 0.249,23.635 6.582,6.878 17.15,7.448 23.599,1.273 6.449,-6.179 6.345,-16.761 -0.25,-23.632"
             style="fill:#ed7b3e;fill-opacity:1;fill-rule:evenodd;stroke:none"
             id="path26" /></g><g
           id="g28"
           transform="translate(13.5555,69.9464)"><path
             d="m 0,0 c -14.214,-11.246 -17.824,-27.545 -8.085,-36.402 9.743,-8.857 29.159,-6.917 43.366,4.343 14.207,11.233 17.824,27.534 8.082,36.397 C 33.61,13.191 14.201,11.25 0,0 M 12.714,4.417 C 26.405,9.543 39.948,4.356 42.948,-7.184 45.964,-18.721 37.303,-32.229 23.611,-37.356 9.923,-42.5 -3.623,-37.301 -6.632,-25.767 -9.645,-14.23 -0.984,-0.728 12.714,4.417"
             style="fill:#e95515;fill-opacity:1;fill-rule:evenodd;stroke:none"
             id="path30" /></g><g
           id="g32"
           transform="translate(188.2246,60.0529)"><path
             d="M 0,0 V -3.41 H -3.633 V -5.937 H 0 V -7.5 h -3.633 v -2.545 H 0 V -13.96 H 3.775 V 0 Z"
             style="fill:#231916;fill-opacity:1;fill-rule:nonzero;stroke:none"
             id="path34" /></g><g
           id="g36"
           transform="translate(172.241,57.1166)"><path
             d="M 0,0 H 7.623 V -7.575 H 1.544 c -1.259,0 -1.553,1.077 -1.544,1.627 z M 9.246,2.678 H -3.604 V -5.99 c -0.009,-0.435 0.289,-4.258 4.863,-4.258 h 9.984 V 0.9 C 11.25,1.325 11.241,2.678 9.246,2.678"
             style="fill:#231916;fill-opacity:1;fill-rule:nonzero;stroke:none"
             id="path38" /></g><g
           id="g40"
           transform="translate(154.9241,35.0694)"><path
             d="m 0,0 c -2.465,0 -4.472,1.744 -4.472,4.13 0,2.392 2.007,4.134 4.472,4.134 2.484,0 4.484,-1.742 4.484,-4.134 C 4.484,1.744 2.484,0 0,0 m 0.016,10.881 c -4.468,0 -8.095,-3.027 -8.095,-6.769 0,-3.732 3.627,-6.78 8.095,-6.78 4.468,0 8.093,3.048 8.093,6.78 0,3.742 -3.625,6.769 -8.093,6.769"
             style="fill:#231916;fill-opacity:1;fill-rule:nonzero;stroke:none"
             id="path42" /></g><g
           id="g44"
           transform="translate(159.99,60.0529)"><path
             d="M 0,0 V -5.194 H -1.814 V 0 h -3.044 v -13.691 h 3.044 v 5.727 H 0 v -5.727 H 3.043 L 3.043,0 Z"
             style="fill:#231916;fill-opacity:1;fill-rule:nonzero;stroke:none"
             id="path46" /></g><g
           id="g48"
           transform="translate(148.0827,53.8689)"><path
             d="m 0,0 c -0.105,0.318 -0.253,0.668 -0.295,1.037 -0.252,1.82 0,4.896 0,4.896 h -3.796 c 0,0 0.196,-3.418 -0.026,-4.725 C -4.19,0.781 -4.3,0.369 -4.418,0 -5.024,-1.845 -7.088,-4.68 -9.913,-4.823 v -2.649 c 4.856,0.042 7.329,3.626 7.698,4.459 0.376,-0.833 2.845,-4.439 7.702,-4.483 v 2.673 C 2.659,-4.68 0.598,-1.845 0,0"
             style="fill:#231916;fill-opacity:1;fill-rule:nonzero;stroke:none"
             id="path50" /></g><g
           id="g52"
           transform="translate(183.8983,35.0694)"><path
             d="m 0,0 c -2.475,0 -4.484,1.744 -4.484,4.13 0,2.392 2.009,4.134 4.484,4.134 2.478,0 4.478,-1.742 4.478,-4.134 C 4.478,1.744 2.478,0 0,0 m 0.007,10.881 c -4.462,0 -8.088,-3.027 -8.088,-6.769 0,-3.732 3.626,-6.78 8.088,-6.78 4.474,0 8.095,3.048 8.095,6.78 0,3.742 -3.621,6.769 -8.095,6.769"
             style="fill:#231916;fill-opacity:1;fill-rule:nonzero;stroke:none"
             id="path54" /></g><g
           id="g56"
           transform="translate(106.1851,50.9176)"><path
             d="M 0,0 V 2.888 H -3.86 V 9.132 H -7.635 V -9.3 H -3.86 V 0 Z"
             style="fill:#231916;fill-opacity:1;fill-rule:nonzero;stroke:none"
             id="path58" /></g><g
           id="g60"
           transform="translate(102.3247,36.2627)"><path
             d="m 0,0 h -14.182 c -0.813,0.003 -1.376,0.278 -1.807,0.772 -0.55,0.615 -0.62,1.407 -0.61,2.376 v 2.764 h -3.785 v -4.24 c 0,-1.133 0.278,-4.53 5.088,-4.552 L 0,-2.88 Z"
             style="fill:#231916;fill-opacity:1;fill-rule:nonzero;stroke:none"
             id="path62" /></g><path
           d="m 90.721,58.821 h -8.613 v 2.455 h 8.613 z"
           style="fill:#231916;fill-opacity:1;fill-rule:nonzero;stroke:none"
           id="path64" /><g
           id="g66"
           transform="translate(86.4718,46.0866)"><path
             d="m 0,0 c -1.997,0.006 -3.572,1.468 -3.566,3.264 0.009,1.8 1.601,3.068 3.598,3.059 C 2.019,6.319 3.627,5.036 3.617,3.242 3.608,1.442 1.987,-0.006 0,0 m 0.025,8.668 c -4.25,0 -7.173,-2.466 -7.173,-5.513 0,-2.665 2.911,-5.503 7.173,-5.503 4.345,0 7.173,2.913 7.173,5.503 0,3.047 -2.784,5.513 -7.173,5.513"
             style="fill:#231916;fill-opacity:1;fill-rule:nonzero;stroke:none"
             id="path68" /></g><path
           d="M 94.901,57.963 H 78.118 v -2.367 h 16.783 z"
           style="fill:#231916;fill-opacity:1;fill-rule:nonzero;stroke:none"
           id="path70" /><g
           id="g72"
           transform="translate(135.9984,50.8261)"><path
             d="M 0,0 H -3.851 V 9.348 H -7.657 V -7.299 c 0,-1.806 -0.798,-2.981 -1.551,-3.525 -1.364,-0.924 -4.183,-0.924 -4.183,-0.924 h -4.319 v 4.554 h -3.763 v -4.554 h -6.809 v -2.939 h 15.03 c 0.095,0 4.136,0 5.496,1.568 0.055,0.046 0.099,0.096 0.143,0.144 v -5.378 h 3.762 V -3.038 H 0 Z"
             style="fill:#231916;fill-opacity:1;fill-rule:evenodd;stroke:none"
             id="path74" /></g><path
           d="m 111.849,58.924 h 8.647 v 2.494 h -8.647 z"
           style="fill:#231916;fill-opacity:1;fill-rule:nonzero;stroke:none"
           id="path76" /><path
           d="m 107.852,55.545 h 16.869 v 2.447 h -16.869 z"
           style="fill:#231916;fill-opacity:1;fill-rule:nonzero;stroke:none"
           id="path78" /><g
           id="g80"
           transform="translate(116.2197,54.6409)"><path
             d="m 0,0 c -4.231,0 -7.142,-2.549 -7.142,-5.729 0,-2.788 2.911,-5.777 7.142,-5.777 v 2.453 c -1.972,0.046 -3.618,1.562 -3.574,3.423 0,1.864 1.602,3.183 3.574,3.183 z M 0.044,0 H 0 v -2.447 h 0.044 c 1.978,0 3.572,-1.319 3.572,-3.183 0,-1.909 -1.594,-3.377 -3.616,-3.423 v -2.453 h 0.044 c 4.325,0 7.192,3.087 7.192,5.777 C 7.236,-2.549 4.417,0 0.044,0"
             style="fill:#231916;fill-opacity:1;fill-rule:evenodd;stroke:none"
             id="path82" /></g></g></g></g></svg>
