<?xml version="1.0" encoding="UTF-8" standalone="no"?>
<svg
   xmlns:dc="http://purl.org/dc/elements/1.1/"
   xmlns:cc="http://creativecommons.org/ns#"
   xmlns:rdf="http://www.w3.org/1999/02/22-rdf-syntax-ns#"
   xmlns:svg="http://www.w3.org/2000/svg"
   xmlns="http://www.w3.org/2000/svg"
   xmlns:sodipodi="http://sodipodi.sourceforge.net/DTD/sodipodi-0.dtd"
   xmlns:inkscape="http://www.inkscape.org/namespaces/inkscape"
   version="1.1"
   id="svg2"
   xml:space="preserve"
   width="341.33334"
   height="170.66667"
   viewBox="0 0 341.33334 170.66667"
   sodipodi:docname="db손해.ai"><metadata
     id="metadata8"><rdf:RDF><cc:Work
         rdf:about=""><dc:format>image/svg+xml</dc:format><dc:type
           rdf:resource="http://purl.org/dc/dcmitype/StillImage" /></cc:Work></rdf:RDF></metadata><defs
     id="defs6"><clipPath
       clipPathUnits="userSpaceOnUse"
       id="clipPath18"><path
         d="M 0,128 H 256 V 0 H 0 Z"
         id="path16" /></clipPath><linearGradient
       x1="0"
       y1="0"
       x2="1"
       y2="0"
       gradientUnits="userSpaceOnUse"
       gradientTransform="matrix(-25.370207,0.2418635,0.2418635,25.370207,24.680035,55.426029)"
       spreadMethod="pad"
       id="linearGradient82"><stop
         style="stop-opacity:1;stop-color:#ed7b3a"
         offset="0"
         id="stop72" /><stop
         style="stop-opacity:1;stop-color:#ed7b3a"
         offset="0.0996612"
         id="stop74" /><stop
         style="stop-opacity:1;stop-color:#ed7b3a"
         offset="0.440321"
         id="stop76" /><stop
         style="stop-opacity:1;stop-color:#c7283b"
         offset="0.999661"
         id="stop78" /><stop
         style="stop-opacity:1;stop-color:#c7283b"
         offset="1"
         id="stop80" /></linearGradient><linearGradient
       x1="0"
       y1="0"
       x2="1"
       y2="0"
       gradientUnits="userSpaceOnUse"
       gradientTransform="matrix(22.720503,-0.2165832,-0.2165832,-22.720503,25.189897,80.788246)"
       spreadMethod="pad"
       id="linearGradient104"><stop
         style="stop-opacity:1;stop-color:#2baee4"
         offset="0"
         id="stop98" /><stop
         style="stop-opacity:1;stop-color:#2baee4"
         offset="0.0555792"
         id="stop100" /><stop
         style="stop-opacity:1;stop-color:#1d569b"
         offset="1"
         id="stop102" /></linearGradient><linearGradient
       x1="0"
       y1="0"
       x2="1"
       y2="0"
       gradientUnits="userSpaceOnUse"
       gradientTransform="matrix(33.560574,-0.3199642,-0.3199642,-33.560574,26.83778,52.284279)"
       spreadMethod="pad"
       id="linearGradient126"><stop
         style="stop-opacity:1;stop-color:#91c443"
         offset="0"
         id="stop120" /><stop
         style="stop-opacity:1;stop-color:#91c443"
         offset="0.378511"
         id="stop122" /><stop
         style="stop-opacity:1;stop-color:#098e51"
         offset="1"
         id="stop124" /></linearGradient></defs><sodipodi:namedview
     pagecolor="#ffffff"
     bordercolor="#666666"
     borderopacity="1"
     objecttolerance="10"
     gridtolerance="10"
     guidetolerance="10"
     inkscape:pageopacity="0"
     inkscape:pageshadow="2"
     inkscape:window-width="640"
     inkscape:window-height="480"
     id="namedview4" /><g
     id="g10"
     inkscape:groupmode="layer"
     inkscape:label="db손해"
     transform="matrix(1.3333333,0,0,-1.3333333,0,170.66667)"><g
       id="g12"><g
         id="g14"
         clip-path="url(#clipPath18)"><g
           id="g20"
           transform="translate(155.9692,59.0995)"><path
             d="m 0,0 h -11.552 v 4.694 h -5.161 V 4.331 c 0,-0.796 0.324,-1.332 0.975,-1.627 V 0 h -11.588 c -0.508,0 -0.934,-0.174 -1.282,-0.524 -0.35,-0.35 -0.525,-0.776 -0.525,-1.281 0,-0.529 0.175,-0.969 0.525,-1.32 0.348,-0.349 0.774,-0.521 1.282,-0.521 H 0 c 0.505,0 0.93,0.172 1.281,0.521 0.347,0.351 0.522,0.791 0.522,1.32 0,0.505 -0.175,0.931 -0.522,1.281 C 0.93,-0.174 0.505,0 0,0"
             style="fill:#17804e;fill-opacity:1;fill-rule:nonzero;stroke:none"
             id="path22" /></g><g
           id="g24"
           transform="translate(152.4691,48.2709)"><path
             d="m 0,0 h -15.596 c -0.719,0 -1.081,0.359 -1.081,1.082 v 3.972 h -5.271 V 4.693 c 0,-0.796 0.336,-1.323 1.01,-1.588 v -3 c 0,-2.48 1.384,-3.716 4.147,-3.716 H 0 c 0.482,0 0.903,0.172 1.281,0.524 0.371,0.347 0.558,0.774 0.558,1.284 0,0.48 -0.187,0.899 -0.558,1.26 C 0.903,-0.182 0.482,0 0,0"
             style="fill:#17804e;fill-opacity:1;fill-rule:nonzero;stroke:none"
             id="path26" /></g><g
           id="g28"
           transform="translate(130.6275,61.5544)"><path
             d="m 0,0 c 0.339,-0.025 0.686,0.013 1.049,0.106 1.513,0.457 2.808,0.987 3.877,1.59 1.073,0.602 2.03,1.216 2.87,1.839 1.638,1.134 2.963,2.471 3.974,4.008 1.01,-1.537 2.335,-2.874 3.968,-4.008 0.845,-0.623 1.807,-1.237 2.886,-1.839 1.088,-0.603 2.374,-1.133 3.865,-1.59 C 22.852,0.013 23.2,-0.025 23.532,0 c 0.63,0.047 1.085,0.361 1.376,0.937 0.268,0.552 0.268,1.099 0,1.63 -0.241,0.402 -0.65,0.704 -1.227,0.897 -1.471,0.457 -2.749,1.013 -3.845,1.661 -1.094,0.65 -2.026,1.325 -2.799,2.024 -2.092,1.874 -3.161,4.101 -3.209,6.675 v 0.433 h -5.2 v -0.395 c 0,-0.29 0.048,-0.542 0.143,-0.76 C 8.869,12.885 9.06,12.631 9.35,12.349 9.35,10.734 8.388,9.001 6.462,7.149 5.69,6.45 4.777,5.775 3.72,5.125 2.659,4.477 1.373,3.921 -0.142,3.464 -0.719,3.271 -1.132,2.969 -1.373,2.567 -1.638,2.036 -1.638,1.489 -1.373,0.937 -1.085,0.361 -0.624,0.047 0,0"
             style="fill:#17804e;fill-opacity:1;fill-rule:nonzero;stroke:none"
             id="path30" /></g><g
           id="g32"
           transform="translate(187.0133,66.8247)"><path
             d="M 0,0 H -2.707 V 8.987 H -7.654 V 8.592 c 0,-0.771 0.339,-1.301 1.013,-1.592 v -27.577 c 0,-0.529 0.193,-0.988 0.577,-1.374 0.383,-0.383 0.853,-0.576 1.408,-0.576 0.529,0 0.989,0.193 1.37,0.576 0.386,0.386 0.579,0.845 0.579,1.374 V -3.716 H 0 v -16.823 c 0,-0.533 0.199,-0.995 0.597,-1.393 0.395,-0.395 0.859,-0.595 1.387,-0.595 0.556,0 1.028,0.2 1.426,0.595 0.396,0.398 0.598,0.86 0.598,1.393 V 8.987 L 0,8.987 Z"
             style="fill:#17804e;fill-opacity:1;fill-rule:nonzero;stroke:none"
             id="path34" /></g><g
           id="g36"
           transform="translate(176.9434,72.9245)"><path
             d="M 0,0 H -5.235 V 3.103 H -9.639 V 0 h -5.485 c -0.534,0 -0.965,-0.174 -1.301,-0.522 -0.339,-0.347 -0.509,-0.767 -0.509,-1.247 0,-0.48 0.17,-0.896 0.509,-1.244 0.336,-0.35 0.767,-0.523 1.301,-0.523 h 1.219 c -0.576,-0.656 -1.058,-1.395 -1.438,-2.221 -0.482,-1.048 -0.723,-2.149 -0.723,-3.303 0,-1.179 0.229,-2.287 0.687,-3.324 0.458,-1.032 1.081,-1.947 1.875,-2.741 0.748,-0.769 1.636,-1.386 2.674,-1.842 1.034,-0.455 2.154,-0.685 3.357,-0.685 1.177,0 2.279,0.23 3.305,0.685 1.021,0.456 1.916,1.073 2.686,1.842 0.796,0.794 1.414,1.709 1.859,2.741 0.446,1.037 0.666,2.145 0.666,3.324 0,1.154 -0.232,2.255 -0.701,3.303 -0.369,0.826 -0.847,1.565 -1.42,2.221 H 0 c 0.478,0 0.903,0.173 1.263,0.523 0.36,0.348 0.541,0.764 0.541,1.244 0,0.48 -0.181,0.9 -0.541,1.247 C 0.903,-0.174 0.478,0 0,0 m -3.247,-10.936 c -0.244,-0.63 -0.568,-1.169 -0.978,-1.625 -0.431,-0.484 -0.933,-0.855 -1.501,-1.119 -0.564,-0.265 -1.146,-0.395 -1.747,-0.395 -0.65,0 -1.26,0.13 -1.827,0.395 -0.561,0.264 -1.052,0.635 -1.459,1.119 -0.407,0.456 -0.728,0.995 -0.957,1.625 -0.229,0.625 -0.344,1.286 -0.344,1.984 0,0.697 0.115,1.358 0.344,1.985 0.229,0.625 0.55,1.166 0.957,1.624 0.407,0.481 0.898,0.856 1.459,1.122 0.567,0.263 1.177,0.394 1.827,0.394 0.601,0 1.183,-0.131 1.747,-0.394 0.568,-0.266 1.07,-0.641 1.501,-1.122 0.41,-0.458 0.734,-0.999 0.978,-1.624 0.237,-0.627 0.359,-1.288 0.359,-1.985 0,-0.698 -0.122,-1.359 -0.359,-1.984"
             style="fill:#17804e;fill-opacity:1;fill-rule:nonzero;stroke:none"
             id="path38" /></g><g
           id="g40"
           transform="translate(224.5578,52.2047)"><path
             d="m 0,0 h -11.547 v 5.163 h 4.838 c 2.718,0 4.08,1.226 4.08,3.681 v 13.712 h -5.165 v -0.355 c 0,-0.795 0.315,-1.326 0.937,-1.591 v -3.105 h -13.57 v 5.051 h -5.2 v -0.355 c 0,-0.795 0.327,-1.326 0.975,-1.591 V 8.844 c 0,-2.455 1.349,-3.681 4.04,-3.681 h 4.879 V 0 h -11.588 c -0.505,0 -0.935,-0.166 -1.28,-0.506 -0.354,-0.337 -0.527,-0.77 -0.527,-1.299 0,-0.503 0.173,-0.932 0.527,-1.283 0.345,-0.348 0.775,-0.523 1.28,-0.523 H 0 c 0.511,0 0.936,0.175 1.283,0.523 0.351,0.351 0.526,0.78 0.526,1.283 0,0.529 -0.175,0.962 -0.526,1.299 C 0.936,-0.166 0.511,0 0,0 m -19.343,8.735 c -0.725,0 -1.084,0.369 -1.084,1.118 v 4.008 h 13.57 V 9.853 c 0,-0.749 -0.36,-1.118 -1.082,-1.118 z"
             style="fill:#17804e;fill-opacity:1;fill-rule:nonzero;stroke:none"
             id="path42" /></g><g
           id="g44"
           transform="translate(250.8391,75.8112)"><path
             d="m 0,0 v -0.395 c 0,-0.771 0.323,-1.3 0.974,-1.591 v -6.351 h -5.88 c -0.068,0.177 -0.136,0.355 -0.22,0.523 -0.359,0.733 -0.882,1.41 -1.539,2.038 h 2.372 c 0.454,0 0.846,0.166 1.172,0.49 0.325,0.325 0.488,0.716 0.488,1.173 0,0.434 -0.163,0.824 -0.488,1.172 -0.326,0.35 -0.718,0.523 -1.172,0.523 h -6.211 v 2.924 h -4.623 v -2.924 h -6.207 c -0.434,0 -0.82,-0.173 -1.156,-0.523 -0.338,-0.348 -0.505,-0.738 -0.505,-1.172 0,-0.457 0.167,-0.848 0.505,-1.173 0.336,-0.324 0.722,-0.49 1.156,-0.49 h 2.261 c -0.659,-0.628 -1.185,-1.305 -1.56,-2.038 -0.418,-0.83 -0.629,-1.761 -0.629,-2.796 0,-1.041 0.211,-2.008 0.629,-2.907 0.425,-0.905 1.032,-1.706 1.825,-2.401 0.745,-0.675 1.63,-1.201 2.653,-1.591 1.022,-0.385 2.124,-0.577 3.304,-0.577 1.153,0 2.237,0.192 3.248,0.577 1.013,0.39 1.901,0.916 2.674,1.591 0.793,0.695 1.393,1.496 1.803,2.401 0.255,0.568 0.425,1.163 0.52,1.783 h 5.58 v -4.617 c 0,-0.575 0.205,-1.072 0.615,-1.482 0.407,-0.407 0.901,-0.61 1.48,-0.61 0.577,0 1.07,0.203 1.48,0.61 0.407,0.41 0.612,0.907 0.612,1.482 L 5.161,0 Z m -9.835,-13.485 c -0.785,-0.802 -1.789,-1.205 -3.016,-1.205 -1.254,0 -2.276,0.403 -3.067,1.205 -0.796,0.811 -1.194,1.779 -1.194,2.911 0,1.13 0.398,2.092 1.194,2.89 0.791,0.792 1.813,1.189 3.067,1.189 1.227,0 2.231,-0.397 3.016,-1.189 0.778,-0.798 1.174,-1.76 1.174,-2.89 0,-1.132 -0.396,-2.1 -1.174,-2.911"
             style="fill:#17804e;fill-opacity:1;fill-rule:nonzero;stroke:none"
             id="path46" /></g><g
           id="g48"
           transform="translate(233.6173,55.7786)"><path
             d="m 0,0 c 0,-0.795 0.326,-1.325 0.977,-1.59 v -5.813 c 0,-2.48 1.359,-3.716 4.077,-3.716 h 13.287 c 2.692,0 4.042,1.236 4.042,3.716 V 0.359 H 0 Z m 5.167,-3.033 h 13.065 v -3.576 c 0,-0.721 -0.384,-1.081 -1.154,-1.081 H 6.319 c -0.769,0 -1.152,0.36 -1.152,1.081 z"
             style="fill:#17804e;fill-opacity:1;fill-rule:nonzero;stroke:none"
             id="path50" /></g><g
           id="g52"
           transform="translate(77.7865,76.2959)"><path
             d="M 0,0 H -11.891 V -32.509 H 0.003 c 9.817,0 16.939,6.812 16.939,16.195 C 16.942,-6.557 10.132,0.004 0,0 m 11.202,-16.275 c 0,-6.836 -4.538,-11.25 -11.357,-11.25 H -6.15 v 22.543 h 5.995 c 7.025,0 11.357,-4.247 11.357,-11.293"
             style="fill:#17804e;fill-opacity:1;fill-rule:nonzero;stroke:none"
             id="path54" /></g><g
           id="g56"
           transform="translate(117.8926,60.6096)"><path
             d="m 0,0 c 2.122,1.443 3.518,4.321 3.518,7.345 0,5.226 -4.193,8.346 -11.213,8.341 h -12.893 v -32.509 h 13.121 c 7.934,0 12.667,3.477 12.667,9.287 C 5.2,-4.057 3.497,-1.587 0,0 m -9.835,2.344 c -1.055,-0.253 -1.688,-0.896 -1.854,-1.882 -0.128,-0.752 0.045,-1.547 0.455,-2.121 0.329,-0.455 0.787,-0.751 1.319,-0.834 0.743,-0.126 1.563,-0.163 2.428,-0.199 2.558,-0.116 5.267,-0.229 6.477,-2.496 0.716,-1.352 0.609,-3.102 -0.267,-4.367 -0.904,-1.309 -2.681,-2.101 -5.283,-2.255 -0.336,-0.019 -0.678,-0.029 -1.05,-0.029 h -7.237 l -0.004,22.543 h 6.561 c 4.32,0 6.065,-1.243 6.065,-3.881 C -2.222,5.376 -2.775,4.042 -3.868,3.255 -4.852,2.542 -6.281,2.524 -7.66,2.509 -8.275,2.501 -9.151,2.489 -9.835,2.344"
             style="fill:#17804e;fill-opacity:1;fill-rule:nonzero;stroke:none"
             id="path58" /></g></g></g><g
       id="g60"><g
         id="g62"><g
           id="g68"><g
             id="g70"><path
               d="M 0.451,74.572 C 0.449,74.566 0.448,74.559 0.447,74.552 v 0 C 0.446,74.551 0.446,74.549 0.446,74.548 v 0 C 0.445,74.543 0.444,74.538 0.443,74.533 v 0 C 0.442,74.531 0.442,74.528 0.441,74.525 v 0 C 0.44,74.521 0.439,74.517 0.438,74.512 v 0 c 0,-0.003 -0.001,-0.006 -0.001,-0.009 v 0 C 0.436,74.5 0.435,74.496 0.435,74.492 v 0 C 0.434,74.489 0.433,74.485 0.433,74.482 v 0 C 0.432,74.478 0.431,74.475 0.431,74.472 v 0 C 0.43,74.467 0.429,74.463 0.428,74.459 v 0 c 0,-0.002 0,-0.004 -0.001,-0.006 v 0 C 0.426,74.447 0.425,74.442 0.424,74.437 v 0 c 0,-10e-4 0,-0.002 0,-0.003 v 0 C 0.419,74.407 0.414,74.379 0.41,74.349 v 0 c -0.001,0 -0.001,0 -0.001,-0.001 v 0 C 0.11,72.482 0.003,66.118 0,59.219 v 0 c 0,0 0,-0.002 0,-0.002 v 0 -0.67 c 0,-10e-4 0,0.001 0,0 v 0 c 0.002,-3.123 0.023,-6.328 0.057,-9.255 v 0 c 0.001,-0.049 0.002,-0.098 0.002,-0.147 v 0 c 0,-0.011 0,-0.023 0.001,-0.035 v 0 c 0.063,-5.334 0.166,-9.708 0.26,-10.9 v 0 c 0.188,-2.511 1.245,-3.977 4.187,-3.916 v 0 c 0.12,0.002 0.24,0.004 0.359,0.008 v 0 c 12.874,0.39 19.679,10.519 19.674,20.833 v 0 c -0.003,5.888 -2.225,11.837 -6.806,16.066 v 0 c -2.029,1.87 -4.501,3.407 -7.479,4.453 v 0 C 8.762,76.18 6.296,76.95 4.192,76.95 v 0 c -1.806,0 -3.349,-0.575 -3.741,-2.378"
               style="fill:url(#linearGradient82);stroke:none"
               id="path84" /></g></g></g></g><g
       id="g86"><g
         id="g88"><g
           id="g94"><g
             id="g96"><path
               d="m 25.537,97.957 c -0.302,-1.39 -0.404,-7.52 -0.405,-14.149 v 0 c 0,-8.193 0.156,-17.149 0.287,-18.868 v 0 c 0.177,-2.268 1.132,-3.597 3.802,-3.558 v 0 c 11.903,0.199 18.199,9.482 18.198,18.933 v 0 c -10e-4,5.347 -2.018,10.747 -6.176,14.586 v 0 c -1.842,1.697 -4.106,3.094 -6.787,4.04 v 0 c -1.363,0.487 -3.598,1.181 -5.508,1.181 v 0 c -1.652,0 -3.048,-0.533 -3.411,-2.165"
               style="fill:url(#linearGradient104);stroke:none"
               id="path106" /></g></g></g></g><g
       id="g108"><g
         id="g110"><g
           id="g116"><g
             id="g118"><path
               d="M 29.733,73.836 H 29.732 C 29.347,72.093 29.216,64.451 29.216,56.164 v 0 c 0,-10.322 0.202,-21.645 0.371,-23.812 v 0 c 0.228,-2.868 1.414,-4.523 4.769,-4.473 v 0 c 14.957,0.238 22.874,11.902 22.876,23.78 v 0 c 0,6.72 -2.533,13.508 -7.758,18.335 v 0 c -2.311,2.132 -5.164,3.891 -8.531,5.076 v 0 c -1.72,0.612 -4.533,1.482 -6.923,1.482 v 0 c -2.071,0 -3.839,-0.657 -4.287,-2.716"
               style="fill:url(#linearGradient126);stroke:none"
               id="path128" /></g></g></g></g></g></svg>
