<?xml version="1.0" encoding="UTF-8" standalone="no"?>
<svg
   xmlns:dc="http://purl.org/dc/elements/1.1/"
   xmlns:cc="http://creativecommons.org/ns#"
   xmlns:rdf="http://www.w3.org/1999/02/22-rdf-syntax-ns#"
   xmlns:svg="http://www.w3.org/2000/svg"
   xmlns="http://www.w3.org/2000/svg"
   xmlns:sodipodi="http://sodipodi.sourceforge.net/DTD/sodipodi-0.dtd"
   xmlns:inkscape="http://www.inkscape.org/namespaces/inkscape"
   version="1.1"
   id="svg2"
   xml:space="preserve"
   width="256"
   height="128"
   viewBox="0 0 256 128"
   sodipodi:docname="교보생명.ai"><metadata
     id="metadata8"><rdf:RDF><cc:Work
         rdf:about=""><dc:format>image/svg+xml</dc:format><dc:type
           rdf:resource="http://purl.org/dc/dcmitype/StillImage" /></cc:Work></rdf:RDF></metadata><defs
     id="defs6"><clipPath
       clipPathUnits="userSpaceOnUse"
       id="clipPath22"><path
         d="M 0,96 H 192 V 0 H 0 Z"
         id="path20" /></clipPath></defs><sodipodi:namedview
     pagecolor="#ffffff"
     bordercolor="#666666"
     borderopacity="1"
     objecttolerance="10"
     gridtolerance="10"
     guidetolerance="10"
     inkscape:pageopacity="0"
     inkscape:pageshadow="2"
     inkscape:window-width="640"
     inkscape:window-height="480"
     id="namedview4" /><g
     id="g10"
     inkscape:groupmode="layer"
     inkscape:label="교보생명"
     transform="matrix(1.3333333,0,0,-1.3333333,0,128)"><g
       id="g12"
       transform="translate(61.752,3.8309)"><path
         d="M 0,0 V 8.04 H -2.892 V 0 H -4.867 V 8.04 H -7.762 V 0 h -3.914 V -2.266 H 6.2 L 6.2,0 Z"
         style="fill:#252f5e;fill-opacity:1;fill-rule:nonzero;stroke:none"
         id="path14" /></g><g
       id="g16"><g
         id="g18"
         clip-path="url(#clipPath22)"><g
           id="g24"
           transform="translate(63.378,6.0309)"><path
             d="m 0,0 h 1.888 c 0.708,3.631 1.206,8.166 1.505,11.208 0.161,1.641 0.169,2.497 -1.309,2.497 h -13.45 v -2.268 l 11.366,0 z"
             style="fill:#252f5e;fill-opacity:1;fill-rule:nonzero;stroke:none"
             id="path26" /></g><g
           id="g28"
           transform="translate(81.3396,3.8309)"><path
             d="M 0,0 V 3.871 H -3.227 V 0 h -7.377 V -2.266 H 7.272 l 0,2.266 z"
             style="fill:#252f5e;fill-opacity:1;fill-rule:nonzero;stroke:none"
             id="path30" /></g><path
           d="M 76.473,13.936 H 82.87 V 10.87 h -6.397 z m 7.834,-5.015 c 1.334,0 1.793,0.741 1.793,1.8 v 9.208 H 82.87 V 16.2 h -6.397 v 3.729 h -3.226 v -9.208 c 0,-1.059 0.455,-1.8 1.791,-1.8 z"
           style="fill:#252f5e;fill-opacity:1;fill-rule:nonzero;stroke:none"
           id="path32" /><g
           id="g34"
           transform="translate(122.6312,2.8131)"><path
             d="m 0,0 c -0.595,-0.493 -1.402,-0.708 -2.281,-0.708 -0.875,0 -1.681,0.215 -2.279,0.708 -0.538,0.442 -0.695,0.966 -0.695,1.544 0,0.58 0.157,1.103 0.695,1.547 0.598,0.488 1.404,0.701 2.279,0.701 C -1.402,3.792 -0.595,3.579 0,3.091 0.54,2.647 0.697,2.124 0.697,1.544 0.697,0.966 0.54,0.442 0,0 M 2.001,4.802 C 0.816,5.57 -0.67,5.9 -2.281,5.9 -3.887,5.9 -5.375,5.57 -6.561,4.802 -7.866,3.959 -8.463,2.816 -8.463,1.544 c 0,-1.271 0.597,-2.419 1.902,-3.259 1.186,-0.764 2.674,-1.098 4.28,-1.098 1.611,0 3.097,0.334 4.282,1.098 1.305,0.84 1.904,1.988 1.904,3.259 0,1.272 -0.599,2.415 -1.904,3.258"
             style="fill:#252f5e;fill-opacity:1;fill-rule:nonzero;stroke:none"
             id="path36" /></g><g
           id="g38"
           transform="translate(123.3586,20.632)"><path
             d="M 0,0 V -2.45 H -2.436 V -4.714 H 0 V -6.251 H -2.436 V -8.518 H 0 v -2.896 H 3.228 V 0 Z"
             style="fill:#252f5e;fill-opacity:1;fill-rule:nonzero;stroke:none"
             id="path40" /></g><path
           d="m 116.66,12.469 h -2.351 v 4.999 h 2.351 z m 1.434,-2.266 c 1.338,0 1.795,0.742 1.795,1.799 v 7.733 h -8.807 v -7.733 c 0,-1.057 0.456,-1.799 1.793,-1.799 z"
           style="fill:#252f5e;fill-opacity:1;fill-rule:nonzero;stroke:none"
           id="path42" /><g
           id="g44"
           transform="translate(97.5511,9.6878)"><path
             d="m 0,0 1.455,1.094 c -2.389,2.712 -3.079,5.521 -3.079,9.147 H -4.62 c 0,-3.626 -0.687,-6.435 -3.077,-9.147 L -6.24,0 c 1.438,1.251 2.345,2.588 3.119,4.214 C -2.347,2.588 -1.442,1.251 0,0"
             style="fill:#252f5e;fill-opacity:1;fill-rule:nonzero;stroke:none"
             id="path46" /></g><g
           id="g48"
           transform="translate(102.7209,2.7847)"><path
             d="m 0,0 c -0.596,-0.474 -1.404,-0.679 -2.281,-0.679 -0.875,0 -1.685,0.205 -2.28,0.679 -0.539,0.426 -0.694,0.928 -0.694,1.485 0,0.556 0.155,1.06 0.694,1.484 0.595,0.473 1.405,0.676 2.28,0.676 C -1.404,3.645 -0.596,3.442 0,2.969 0.538,2.545 0.697,2.041 0.697,1.485 0.697,0.928 0.538,0.426 0,0 m 2.001,4.675 c -1.186,0.753 -2.671,1.078 -4.282,1.078 -1.608,0 -3.095,-0.325 -4.282,-1.078 -1.305,-0.823 -1.901,-1.944 -1.901,-3.19 0,-1.247 0.596,-2.371 1.901,-3.196 1.187,-0.748 2.674,-1.074 4.282,-1.074 1.611,0 3.096,0.326 4.282,1.074 1.305,0.825 1.901,1.949 1.901,3.196 0,1.246 -0.596,2.367 -1.901,3.19"
             style="fill:#252f5e;fill-opacity:1;fill-rule:nonzero;stroke:none"
             id="path50" /></g><g
           id="g52"
           transform="translate(103.7819,20.632)"><path
             d="M 0,0 V -4.231 H -1.197 V 0 h -2.894 v -11.241 h 2.894 v 4.748 H 0 v -4.748 H 2.893 V 0 Z"
             style="fill:#252f5e;fill-opacity:1;fill-rule:nonzero;stroke:none"
             id="path54" /></g><g
           id="g56"
           transform="translate(91.8991,34.9646)"><path
             d="m 0,0 v -0.002 c -1.075,-1.367 -2.766,-2.148 -4.704,-2.148 -1.903,0 -3.632,0.781 -4.67,2.148 -1.201,1.488 -1.832,3.968 -1.832,7.093 0,3.126 0.631,5.571 1.832,7.096 1.037,1.366 2.766,2.111 4.67,2.111 1.938,0 3.631,-0.745 4.704,-2.111 C 1.202,12.66 1.82,10.217 1.82,7.091 1.82,3.966 1.202,1.486 0,0 m -4.704,19.929 c -3.286,0 -6.174,-1.067 -8.128,-3.066 -2.236,-2.207 -3.464,-5.68 -3.464,-9.771 0,-4.089 1.228,-7.562 3.464,-9.77 1.954,-2.003 4.842,-3.095 8.128,-3.095 3.284,0 6.211,1.092 8.164,3.095 2.197,2.206 3.427,5.681 3.427,9.77 0,4.091 -1.23,7.564 -3.427,9.771 -1.955,1.999 -4.88,3.066 -8.164,3.066"
             style="fill:#252f5e;fill-opacity:1;fill-rule:nonzero;stroke:none"
             id="path58" /></g><g
           id="g60"
           transform="translate(147.2443,34.9648)"><path
             d="m 0,0 v -0.002 c -1.074,-1.365 -2.765,-2.149 -4.703,-2.149 -1.903,0 -3.633,0.784 -4.678,2.151 -1.191,1.486 -1.826,3.965 -1.826,7.091 0,3.126 0.635,5.571 1.826,7.096 1.044,1.366 2.773,2.111 4.678,2.111 1.939,0 3.63,-0.745 4.703,-2.109 C 1.202,12.662 1.815,10.217 1.815,7.091 1.815,3.965 1.202,1.486 0,0 m 3.461,16.863 c -1.961,1.999 -4.882,3.066 -8.164,3.066 -3.286,0 -6.175,-1.067 -8.146,-3.066 -2.217,-2.207 -3.438,-5.68 -3.438,-9.771 0,-4.089 1.221,-7.562 3.438,-9.77 1.971,-2.003 4.859,-3.095 8.146,-3.095 3.282,0 6.203,1.092 8.164,3.095 2.203,2.208 3.426,5.681 3.426,9.77 0,4.091 -1.222,7.564 -3.426,9.771"
             style="fill:#252f5e;fill-opacity:1;fill-rule:nonzero;stroke:none"
             id="path62" /></g><g
           id="g64"
           transform="translate(64.146,29.7812)"><path
             d="m 0,0 c -0.282,0.254 -0.622,0.84 -0.622,1.718 v 8.914 L 7.694,24.569 H 1.998 C 2.41,24.158 2.451,23.504 1.95,22.719 l -4.504,-7.802 c -3.787,6.858 -3.782,7.053 -4.467,8.3 -0.536,0.941 -0.99,1.352 -2.001,1.352 h -4.487 c 0.354,-0.329 0.721,-0.823 1.489,-2.101 L -5.389,10.696 V 1.718 C -5.389,0.84 -5.727,0.254 -6.009,0 Z"
             style="fill:#252f5e;fill-opacity:1;fill-rule:nonzero;stroke:none"
             id="path66" /></g><g
           id="g68"
           transform="translate(117.4348,33.9177)"><path
             d="m 0,0 c 1.409,0.907 1.734,2.223 1.734,3.603 0,2.694 -2.368,3.935 -4.65,3.935 -0.487,0 -1.665,-0.018 -2.411,-0.144 V -0.478 C -3.76,-0.915 -1.252,-0.806 0,0 m -5.327,11.155 c 0.887,-0.102 2.697,0.013 3.474,0.419 0.779,0.405 1.67,1 1.67,2.547 0,1.474 -1.291,2.776 -3.169,2.776 -0.705,0 -1.291,-0.038 -1.975,-0.25 z m -5.388,-15.292 c 0.283,0.255 0.623,0.841 0.623,1.718 v 21.135 c 0,0.876 -0.34,1.464 -0.623,1.717 h 8.137 c 3.907,0 7.312,-1.884 7.312,-5.539 0,-1.547 -0.71,-3.741 -2.515,-4.707 2.191,-0.838 4.513,-2.856 4.513,-6.285 0,-2.54 -1.26,-4.77 -2.96,-6.05 C 2.2,-3.333 0.388,-4.137 -2.578,-4.137 Z"
             style="fill:#252f5e;fill-opacity:1;fill-rule:nonzero;stroke:none"
             id="path70" /></g><g
           id="g72"
           transform="translate(29.2195,31.4987)"><path
             d="M 0,0 C 0,-0.877 -0.34,-1.463 -0.623,-1.718 H 5.386 C 5.104,-1.463 4.764,-0.877 4.764,0 v 9.598 l 6.979,-9.962 c 0.645,-0.943 1.146,-1.354 2.156,-1.354 h 4.815 c -0.392,0.33 -0.817,0.825 -1.732,2.102 l -7.871,11.158 8.048,11.31 h -5.92 c 0.308,-0.402 0.345,-0.905 -0.23,-1.871 L 4.764,11.979 v 9.155 c 0,0.877 0.34,1.465 0.622,1.718 H -0.623 C -0.34,22.599 0,22.011 0,21.134 Z"
             style="fill:#252f5e;fill-opacity:1;fill-rule:nonzero;stroke:none"
             id="path74" /></g><g
           id="g76"
           transform="translate(129.9492,82.8624)"><path
             d="M 0,0 C -1.923,-0.121 -3.559,1.329 -3.681,3.236 -3.8,5.143 -2.358,6.792 -0.437,6.912 1.465,7.034 3.102,5.579 3.223,3.672 3.344,1.766 1.901,0.121 0,0 M 31.891,5.14 C 29.651,7.409 25.943,7.017 23.754,4.699 20.914,1.713 18.703,0.601 16.069,0.714 12.392,0.872 10.577,3.715 8.688,7.302 c -1.962,3.751 -4.976,5.836 -8.736,5.836 -5.913,0 -9.463,-4.788 -9.463,-10.127 0,-8.217 5.779,-13.131 9.778,-15.203 3.325,-1.728 7.021,-2.45 10.31,-2.531 -0.194,-1.967 -0.773,-4.56 -1.413,-6.393 h 0.342 3.066 3.067 0.292 c -0.668,1.833 -1.259,4.637 -1.436,6.607 9.909,1.287 14.614,5.79 17.193,10.077 1.156,1.878 1.773,3.83 1.766,5.583 -0.007,1.537 -0.498,2.932 -1.563,3.989"
             style="fill:#6bb340;fill-opacity:1;fill-rule:nonzero;stroke:none"
             id="path78" /></g></g></g></g></svg>
