<?xml version="1.0" encoding="UTF-8" standalone="no"?>
<svg
   xmlns:dc="http://purl.org/dc/elements/1.1/"
   xmlns:cc="http://creativecommons.org/ns#"
   xmlns:rdf="http://www.w3.org/1999/02/22-rdf-syntax-ns#"
   xmlns:svg="http://www.w3.org/2000/svg"
   xmlns="http://www.w3.org/2000/svg"
   xmlns:sodipodi="http://sodipodi.sourceforge.net/DTD/sodipodi-0.dtd"
   xmlns:inkscape="http://www.inkscape.org/namespaces/inkscape"
   version="1.1"
   id="svg2"
   xml:space="preserve"
   width="256"
   height="128"
   viewBox="0 0 256 128"
   sodipodi:docname="교보라이프플래닛생명.ai"><metadata
     id="metadata8"><rdf:RDF><cc:Work
         rdf:about=""><dc:format>image/svg+xml</dc:format><dc:type
           rdf:resource="http://purl.org/dc/dcmitype/StillImage" /></cc:Work></rdf:RDF></metadata><defs
     id="defs6"><clipPath
       clipPathUnits="userSpaceOnUse"
       id="clipPath22"><path
         d="M 0,96 H 192 V 0 H 0 Z"
         id="path20" /></clipPath></defs><sodipodi:namedview
     pagecolor="#ffffff"
     bordercolor="#666666"
     borderopacity="1"
     objecttolerance="10"
     gridtolerance="10"
     guidetolerance="10"
     inkscape:pageopacity="0"
     inkscape:pageshadow="2"
     inkscape:window-width="640"
     inkscape:window-height="480"
     id="namedview4" /><g
     id="g10"
     inkscape:groupmode="layer"
     inkscape:label="교보라이프플래닛생명"
     transform="matrix(1.3333333,0,0,-1.3333333,0,128)"><g
       id="g12"
       transform="translate(70.9566,26.3347)"><path
         d="M 0,0 H -1.939 V -5.389 H -3.261 V 0 h -1.94 V -5.389 H -7.823 V -6.907 H 4.156 v 1.518 H 0 Z"
         style="fill:#70706f;fill-opacity:1;fill-rule:nonzero;stroke:none"
         id="path14" /></g><g
       id="g16"><g
         id="g18"
         clip-path="url(#clipPath22)"><g
           id="g24"
           transform="translate(72.0485,22.4206)"><path
             d="m 0,0 h 1.263 c 0.475,2.434 0.81,5.473 1.009,7.51 0.109,1.1 0.113,1.676 -0.877,1.676 H -7.617 V 7.667 H 0 Z"
             style="fill:#70706f;fill-opacity:1;fill-rule:nonzero;stroke:none"
             id="path26" /></g><g
           id="g28"
           transform="translate(83.4442,23.5401)"><path
             d="M 0,0 H -2.161 V -2.594 H -7.108 V -4.112 H 4.874 v 1.518 l -4.874,0 z"
             style="fill:#70706f;fill-opacity:1;fill-rule:nonzero;stroke:none"
             id="path30" /></g><g
           id="g32"
           transform="translate(79.2201,24.3573)"><path
             d="M 0,0 H 2.514 3.697 6.208 C 7.105,0 7.414,0.498 7.414,1.206 V 7.377 H 5.248 V 4.878 H 0.959 V 7.377 H -1.202 V 1.206 C -1.202,0.498 -0.898,0 0,0 M 5.248,3.36 V 1.306 H 3.697 2.514 0.959 V 3.36 Z"
             style="fill:#70706f;fill-opacity:1;fill-rule:nonzero;stroke:none"
             id="path34" /></g><g
           id="g36"
           transform="translate(190.067,23.4799)"><path
             d="m 0,0 c -0.793,0.515 -1.792,0.738 -2.869,0.738 -1.074,0 -2.073,-0.223 -2.87,-0.738 -0.874,-0.563 -1.275,-1.33 -1.275,-2.178 0,-0.857 0.401,-1.626 1.275,-2.185 0.796,-0.515 1.796,-0.738 2.87,-0.738 1.077,0 2.076,0.223 2.869,0.738 0.877,0.559 1.275,1.328 1.275,2.185 C 1.275,-1.33 0.877,-0.563 0,0 m -1.342,-3.217 c -0.397,-0.331 -0.939,-0.475 -1.527,-0.475 -0.587,0 -1.127,0.144 -1.528,0.475 -0.36,0.297 -0.466,0.65 -0.466,1.039 0,0.385 0.106,0.736 0.466,1.033 0.401,0.329 0.941,0.473 1.528,0.473 0.588,0 1.13,-0.144 1.527,-0.473 0.363,-0.297 0.47,-0.648 0.47,-1.033 0,-0.389 -0.107,-0.742 -0.47,-1.039"
             style="fill:#70706f;fill-opacity:1;fill-rule:nonzero;stroke:none"
             id="path38" /></g><g
           id="g40"
           transform="translate(189.2155,30.5668)"><path
             d="M 0,0 H -1.633 V -1.52 H 0 v -1.029 h -1.633 v -1.52 H 0 V -6.012 H 2.162 V 1.64 L 0,1.64 Z"
             style="fill:#70706f;fill-opacity:1;fill-rule:nonzero;stroke:none"
             id="path42" /></g><g
           id="g44"
           transform="translate(185.6861,25.2164)"><path
             d="M 0,0 C 0.897,0 1.201,0.497 1.201,1.207 V 6.391 H -0.071 -0.962 -2.535 -3.906 -4.7 V 1.207 C -4.7,0.497 -4.393,0 -3.496,0 h 0.658 1.184 z m -0.962,1.521 h -1.573 v 3.351 h 1.573 z"
             style="fill:#70706f;fill-opacity:1;fill-rule:nonzero;stroke:none"
             id="path46" /></g><g
           id="g48"
           transform="translate(172.6701,24.8712)"><path
             d="m 0,0 0.972,0.733 c -1.6,1.819 -2.06,3.701 -2.06,6.13 h -2.006 c 0,-2.429 -0.462,-4.311 -2.062,-6.13 L -4.182,0 c 0.961,0.838 1.571,1.734 2.089,2.825 C -1.571,1.734 -0.968,0.838 0,0"
             style="fill:#70706f;fill-opacity:1;fill-rule:nonzero;stroke:none"
             id="path50" /></g><g
           id="g52"
           transform="translate(177.4741,23.3767)"><path
             d="m 0,0 c -0.792,0.506 -1.792,0.723 -2.868,0.723 -1.08,0 -2.076,-0.217 -2.872,-0.723 -0.872,-0.548 -1.271,-1.3 -1.271,-2.136 0,-0.836 0.399,-1.59 1.271,-2.141 0.796,-0.504 1.792,-0.72 2.872,-0.72 1.076,0 2.076,0.216 2.868,0.72 0.875,0.551 1.276,1.305 1.276,2.141 C 1.276,-1.3 0.875,-0.548 0,0 m -1.341,-3.132 c -0.398,-0.319 -0.939,-0.457 -1.527,-0.457 -0.588,0 -1.131,0.138 -1.527,0.457 -0.362,0.284 -0.465,0.622 -0.465,0.996 0,0.371 0.103,0.709 0.465,0.994 0.396,0.317 0.939,0.454 1.527,0.454 0.588,0 1.129,-0.137 1.527,-0.454 0.362,-0.285 0.469,-0.623 0.469,-0.994 0,-0.374 -0.107,-0.712 -0.469,-0.996"
             style="fill:#70706f;fill-opacity:1;fill-rule:nonzero;stroke:none"
             id="path54" /></g><g
           id="g56"
           transform="translate(176.8449,29.3705)"><path
             d="m 0,0 h -0.803 v 2.836 h -1.936 v -7.533 h 1.936 v 3.179 H 0 v -3.179 h 1.94 v 7.533 l -1.94,0 z"
             style="fill:#70706f;fill-opacity:1;fill-rule:nonzero;stroke:none"
             id="path58" /></g><g
           id="g60"
           transform="translate(159.9853,23.7383)"><path
             d="m 0,0 c -0.524,-1.493 -2.471,-3.219 -4.277,-3.931 l 0.594,-1.163 c 1.796,0.41 3.632,1.612 4.776,2.99 1.144,-1.378 2.981,-2.58 4.778,-2.99 l 0.593,1.163 C 4.658,-3.219 2.564,-1.493 2.187,0 Z"
             style="fill:#70706f;fill-opacity:1;fill-rule:nonzero;stroke:none"
             id="path62" /></g><g
           id="g64"
           transform="translate(163.0277,26.0361)"><path
             d="m 0,0 c -2.581,-1.173 -6.299,-0.967 -6.299,-0.967 -0.391,0.027 -0.666,0.114 -0.823,0.265 -0.16,0.149 -0.238,0.401 -0.238,0.754 v 5.519 h 2.164 V 0.724 C -1.264,0.631 0,1.083 0,1.083 Z"
             style="fill:#70706f;fill-opacity:1;fill-rule:nonzero;stroke:none"
             id="path66" /></g><g
           id="g68"
           transform="translate(96.6331,24.2978)"><path
             d="m 0,0 v -1.078 c -0.568,-0.234 -3.15,-0.703 -4.741,-0.832 -0.537,-0.044 -2.33,-0.358 -2.52,1.143 v 4.389 h 4.119 V 5.79 h -4.119 v 1.519 h 5.232 c 0.558,0 0.722,-0.019 0.849,-0.05 0.125,-0.034 0.214,-0.092 0.286,-0.162 0.239,-0.23 0.211,-0.632 0.168,-0.913 L -1.116,3.362 C -1.243,2.899 -1.466,2.715 -1.618,2.58 -1.772,2.446 -2.055,2.298 -2.391,2.298 h -2.71 l 0.009,-2.674 C -1.659,-0.376 0,0 0,0"
             style="fill:#70706f;fill-opacity:1;fill-rule:nonzero;stroke:none"
             id="path70" /></g><g
           id="g72"
           transform="translate(101.4274,27.1882)"><path
             d="M 0,0 H -1.771 V 5.018 H -3.935 V -8.427 h 2.164 v 6.911 H 0 Z"
             style="fill:#70706f;fill-opacity:1;fill-rule:nonzero;stroke:none"
             id="path74" /></g><path
           d="m 111.245,18.762 h 2.163 v 13.445 h -2.163 z"
           style="fill:#70706f;fill-opacity:1;fill-rule:nonzero;stroke:none"
           id="path76" /><g
           id="g78"
           transform="translate(109.7191,28.9683)"><path
             d="m 0,0 c -0.179,0.579 -0.432,1.07 -0.76,1.48 -0.329,0.407 -0.728,0.725 -1.2,0.949 -0.472,0.226 -1.002,0.337 -1.587,0.337 -0.577,0 -1.098,-0.114 -1.565,-0.344 C -5.58,2.192 -5.976,1.87 -6.305,1.459 -6.632,1.046 -6.887,0.551 -7.064,-0.026 c -0.18,-0.577 -0.269,-1.212 -0.269,-1.906 0,-0.676 0.089,-1.296 0.269,-1.858 0.177,-0.561 0.432,-1.048 0.759,-1.455 0.329,-0.409 0.725,-0.726 1.193,-0.95 0.467,-0.224 0.988,-0.338 1.565,-0.338 0.585,0 1.115,0.114 1.587,0.338 0.472,0.224 0.871,0.538 1.2,0.943 0.328,0.403 0.581,0.888 0.76,1.456 C 0.18,-3.23 0.268,-2.6 0.268,-1.904 0.268,-1.211 0.18,-0.577 0,0 m -3.533,-5.061 c -0.912,0 -1.65,1.481 -1.65,3.178 0,1.695 0.738,3.178 1.65,3.178 0.913,0 1.651,-1.483 1.651,-3.178 0,-1.697 -0.738,-3.178 -1.651,-3.178"
             style="fill:#70706f;fill-opacity:1;fill-rule:nonzero;stroke:none"
             id="path80" /></g><g
           id="g82"
           transform="translate(147.8367,24.2978)"><path
             d="m 0,0 v -1.078 c -0.568,-0.234 -2.945,-0.727 -4.716,-0.817 -1.131,-0.059 -1.318,0.676 -1.318,1.029 v 4.488 h 3.087 V 5.79 h -3.087 v 1.519 h 4.18 c 0.558,0 0.724,-0.019 0.85,-0.05 0.125,-0.034 0.215,-0.092 0.286,-0.162 0.238,-0.23 0.21,-0.632 0.167,-0.913 L -0.941,3.362 C -1.069,2.899 -1.29,2.715 -1.444,2.58 -1.597,2.446 -1.88,2.298 -2.214,2.298 h -1.66 L -3.885,-0.376 C -1.256,-0.376 0,0 0,0"
             style="fill:#70706f;fill-opacity:1;fill-rule:nonzero;stroke:none"
             id="path84" /></g><g
           id="g86"
           transform="translate(151.1746,27.1882)"><path
             d="M 0,0 H -0.804 V 5.018 H -2.741 V -8.427 h 1.937 v 6.902 H 0 V -8.427 H 1.938 V 5.018 L 0,5.018 Z"
             style="fill:#70706f;fill-opacity:1;fill-rule:nonzero;stroke:none"
             id="path88" /></g><path
           d="m 115.115,19.428 h 11.983 v 1.518 h -11.983 z"
           style="fill:#70706f;fill-opacity:1;fill-rule:nonzero;stroke:none"
           id="path90" /><g
           id="g92"
           transform="translate(126.0774,30.2994)"><path
             d="M 0,0 V 1.307 H -9.943 V 0 h 1.605 V -4.636 H -9.943 V -5.942 H 0 v 1.306 H -1.602 V 0 Z M -3.77,-4.636 H -6.172 V 0 h 2.402 z"
             style="fill:#70706f;fill-opacity:1;fill-rule:nonzero;stroke:none"
             id="path94" /></g><path
           d="m 163.586,24.555 h 2.164 v 7.651 h -2.164 z"
           style="fill:#70706f;fill-opacity:1;fill-rule:nonzero;stroke:none"
           id="path96" /><g
           id="g98"
           transform="translate(139.0144,18.6443)"><path
             d="m 0,0 h -7.848 c -1.235,0 -1.215,1.182 -1.215,1.182 v 2.552 h 6.895 v 0.895 h -6.895 v 1.307 h 8.381 C 0.136,5.936 0,5.048 0,5.048 0,5.048 0.022,3.334 0,3.22 0,3.22 0,2.429 -0.712,2.429 H -6.898 V 1.497 l 6.898,0 z"
             style="fill:#70706f;fill-opacity:1;fill-rule:nonzero;stroke:none"
             id="path100" /></g><g
           id="g102"
           transform="translate(139.2987,30.7832)"><path
             d="M 0,0 V 1.306 H -9.942 V 0 h 1.603 V -1.844 H -9.942 V -3.151 H 0 v 1.307 H -1.604 V 0 Z M -3.77,-1.844 H -6.172 V 0 h 2.402 z"
             style="fill:#70706f;fill-opacity:1;fill-rule:nonzero;stroke:none"
             id="path104" /></g><g
           id="g106"
           transform="translate(128.3369,25.6052)"><path
             d="M 0,0 H 11.982 V 1.307 H 0 Z"
             style="fill:#70706f;fill-opacity:1;fill-rule:nonzero;stroke:none"
             id="path108" /></g><g
           id="g110"
           transform="translate(87.3322,57.8359)"><path
             d="m 0,0 c -0.006,3.372 -1.336,6.405 -3.514,8.561 l -0.002,0.002 c -2.182,2.163 -5.206,3.448 -8.521,3.455 -0.013,10e-4 -0.089,10e-4 -0.103,10e-4 -3.81,0 -6.837,-2.254 -6.83,-2.307 -0.154,1.109 -1.353,2.116 -2.576,2.128 -1.446,-0.014 -2.584,-1.152 -2.602,-2.571 v -27.037 c 0.018,-1.435 1.151,-2.571 2.57,-2.589 1.449,0.016 2.593,1.152 2.608,2.572 v 8.038 c 2.062,-1.682 4.213,-2.35 6.74,-2.37 h 0.164 c 3.327,0 6.366,1.268 8.552,3.438 2.161,2.14 3.482,5.138 3.515,8.486 z m -12.075,-7.044 c -3.863,0.044 -6.86,2.876 -6.897,6.99 0.037,4.105 3.038,6.943 6.905,6.982 3.972,-0.062 6.835,-2.795 6.891,-6.992 -0.056,-4.184 -2.919,-6.916 -6.899,-6.98"
             style="fill:#00a4af;fill-opacity:1;fill-rule:nonzero;stroke:none"
             id="path112" /></g><g
           id="g114"
           transform="translate(146.3909,66.7206)"><path
             d="m 0,0 c -1.945,1.948 -4.678,3.129 -7.712,3.132 0,0 -0.072,0.003 -0.093,0 -3.01,-0.014 -5.732,-1.19 -7.668,-3.135 -1.95,-1.946 -3.113,-4.654 -3.113,-7.615 0.005,0 10e-4,-10.64 10e-4,-10.64 0.019,-1.433 1.154,-2.567 2.572,-2.586 1.451,0.017 2.591,1.151 2.604,2.573 l 0.006,10.687 c 0.066,3.238 2.212,5.517 5.675,5.582 3.439,-0.063 5.592,-2.344 5.659,-5.591 l -0.002,-10.665 c 0.02,-1.433 1.155,-2.569 2.575,-2.586 1.449,0.017 2.588,1.151 2.606,2.571 V -7.62 L 3.108,-7.619 C 3.11,-4.657 1.949,-1.948 0,0"
             style="fill:#00a4af;fill-opacity:1;fill-rule:nonzero;stroke:none"
             id="path116" /></g><g
           id="g118"
           transform="translate(120.6438,66.313)"><path
             d="m 0,0 c 0,0 -0.898,0.828 -0.902,0.825 -2.065,1.7 -4.749,2.712 -7.71,2.715 -0.003,0 -0.075,10e-4 -0.093,0 -3.39,-0.009 -6.43,-1.35 -8.58,-3.542 -2.159,-2.187 -3.43,-5.215 -3.434,-8.513 v -0.036 c 0.002,-3.3 1.274,-6.329 3.437,-8.521 2.145,-2.189 5.182,-3.531 8.583,-3.54 l 0.327,0.002 c 0,0 4.064,0.105 6.618,2.508 l 0.088,-0.351 c 0.277,-1.136 1.279,-1.968 2.496,-1.984 1.449,0.017 2.588,1.152 2.602,2.573 v 9.47 C 3.399,-5.143 2.126,-2.163 0,0 m -8.641,-15.521 c -4.034,0.051 -6.842,2.913 -6.899,6.991 0.057,4.066 2.866,6.932 6.902,6.98 4.028,-0.048 6.839,-2.914 6.894,-6.994 -0.055,-4.064 -2.863,-6.926 -6.897,-6.977"
             style="fill:#00a4af;fill-opacity:1;fill-rule:nonzero;stroke:none"
             id="path120" /></g><g
           id="g122"
           transform="translate(5.1795,74.9177)"><path
             d="m 0,0 c -0.011,1.419 -1.166,2.566 -2.59,2.566 -1.417,0 -2.564,-1.137 -2.588,-2.547 0,0 -0.001,-26.487 -0.001,-26.495 0.013,-1.417 1.165,-2.566 2.589,-2.566 1.415,0 2.563,1.137 2.588,2.544 C -0.002,-26.483 0,0 0,0"
             style="fill:#00a4af;fill-opacity:1;fill-rule:nonzero;stroke:none"
             id="path124" /></g><g
           id="g126"
           transform="translate(96.2209,74.9177)"><path
             d="m 0,0 c -0.011,1.419 -1.166,2.566 -2.59,2.566 -1.417,0 -2.564,-1.137 -2.588,-2.547 0,0 -0.002,-26.487 -0.002,-26.495 0.013,-1.417 1.167,-2.566 2.59,-2.566 1.416,0 2.563,1.137 2.589,2.544 C -0.001,-26.483 0,0 0,0"
             style="fill:#00a4af;fill-opacity:1;fill-rule:nonzero;stroke:none"
             id="path128" /></g><g
           id="g130"
           transform="translate(13.533,74.8206)"><path
             d="m 0,0 c -1.88,0 -3.403,-1.524 -3.403,-3.404 0,-1.881 1.523,-3.405 3.403,-3.407 1.882,0.002 3.405,1.526 3.405,3.407 C 3.405,-1.524 1.882,0 0,0"
             style="fill:#00a4af;fill-opacity:1;fill-rule:nonzero;stroke:none"
             id="path132" /></g><g
           id="g134"
           transform="translate(16.1235,62.5362)"><path
             d="m 0,0 c -0.012,1.419 -1.166,2.566 -2.59,2.566 -1.417,0 -2.563,-1.137 -2.588,-2.546 0,0 -0.001,-14.107 -0.001,-14.115 0.013,-1.418 1.167,-2.565 2.589,-2.565 1.417,0 2.563,1.136 2.589,2.542 C -0.001,-14.102 0,0 0,0"
             style="fill:#00a4af;fill-opacity:1;fill-rule:nonzero;stroke:none"
             id="path136" /></g><g
           id="g138"
           transform="translate(188.1862,45.8837)"><path
             d="m 0,0 c 0.065,0 0.128,-0.007 0.194,-0.007 1.373,0 2.533,1.061 2.633,2.454 0.107,1.458 -0.901,2.614 -2.443,2.829 -2.46,0.641 -2.251,3.134 -2.251,4.117 v 7.553 h 3.035 c 1.46,0 2.646,1.184 2.646,2.644 0,1.46 -1.186,2.645 -2.646,2.645 h -3.035 v 6.857 c 0,1.462 -1.184,2.645 -2.645,2.645 -1.461,0 -2.645,-1.183 -2.645,-2.645 v -6.857 h -1.414 c -1.458,0 -2.641,-1.185 -2.641,-2.645 0,-1.46 1.183,-2.644 2.641,-2.644 h 1.414 V 7.67 C -7.157,6.798 -6.609,0 0,0"
             style="fill:#00a4af;fill-opacity:1;fill-rule:nonzero;stroke:none"
             id="path140" /></g><g
           id="g142"
           transform="translate(31.9019,68.117)"><path
             d="M 0,0 C 1.46,0 2.643,-1.183 2.643,-2.642 2.643,-4.103 1.46,-5.287 0,-5.287 h -3.121 v -14.308 c 0,-1.46 -1.185,-2.645 -2.645,-2.645 -1.461,0 -2.648,1.185 -2.648,2.645 v 14.308 h -1.41 c -1.46,0 -2.645,1.184 -2.645,2.645 0,1.459 1.185,2.642 2.645,2.642 h 1.41 c 0.038,0.745 -0.033,4.316 1.674,6.348 0.656,0.781 1.363,1.584 2.273,2.081 1.225,0.67 2.575,0.957 4.049,1.067 C 1.039,9.601 2.307,8.506 2.413,7.05 2.517,5.594 1.424,4.327 -0.034,4.221 -1.043,4.151 -2.121,3.399 -2.499,2.663 -2.747,2.177 -3.114,1.465 -3.121,0 H 0"
             style="fill:#00a4af;fill-opacity:1;fill-rule:nonzero;stroke:none"
             id="path144" /></g><g
           id="g146"
           transform="translate(47.9533,70.004)"><path
             d="m 0,0 c -6.361,-0.003 -11.436,-5.258 -11.45,-11.698 0,-0.62 0.253,-1.227 0.692,-1.666 0.438,-0.439 1.045,-0.691 1.666,-0.691 H 9.094 c 0.621,0 1.228,0.252 1.666,0.691 0.439,0.439 0.691,1.046 0.691,1.666 C 11.44,-5.258 6.365,-0.003 0,0 m -6.347,-9.341 c 0.581,2.65 3.446,4.794 6.347,4.799 2.905,-0.005 5.414,-2.067 6.349,-4.799 z"
             style="fill:#ffc40b;fill-opacity:1;fill-rule:nonzero;stroke:none"
             id="path148" /></g><g
           id="g150"
           transform="translate(57.3953,54.1181)"><path
             d="m 0,0 c -0.936,0.694 -2.63,0.496 -3.295,-0.402 -1.43,-1.92 -3.642,-3.045 -6.143,-3.045 h -0.007 c -2.499,0 -4.712,1.125 -6.14,3.045 -0.665,0.898 -2.361,1.096 -3.296,0.402 -1.045,-0.774 -1.263,-2.337 -0.489,-3.382 2.251,-3.04 5.864,-5.035 9.925,-5.035 h 0.007 c 4.063,0 7.675,1.995 9.925,5.035 C 1.26,-2.337 1.045,-0.774 0,0"
             style="fill:#ffc40b;fill-opacity:1;fill-rule:nonzero;stroke:none"
             id="path152" /></g><g
           id="g154"
           transform="translate(164.2973,70.004)"><path
             d="m 0,0 c -6.363,-0.003 -11.437,-5.258 -11.45,-11.698 0,-0.62 0.253,-1.227 0.691,-1.666 0.439,-0.439 1.045,-0.691 1.666,-0.691 H 9.095 c 0.62,0 1.227,0.252 1.664,0.691 0.439,0.439 0.69,1.046 0.69,1.666 C 11.437,-5.258 6.365,-0.003 0,0 m -6.347,-9.341 c 0.581,2.65 3.444,4.794 6.347,4.799 2.905,-0.005 5.412,-2.067 6.35,-4.799 z"
             style="fill:#ffc40b;fill-opacity:1;fill-rule:nonzero;stroke:none"
             id="path156" /></g><g
           id="g158"
           transform="translate(173.7374,54.1181)"><path
             d="m 0,0 c -0.935,0.694 -2.628,0.496 -3.295,-0.402 -1.429,-1.92 -3.64,-3.045 -6.141,-3.045 h -0.006 c -2.502,0 -4.711,1.125 -6.142,3.045 -0.666,0.898 -2.361,1.096 -3.296,0.402 -1.045,-0.774 -1.261,-2.337 -0.488,-3.382 2.251,-3.04 5.863,-5.035 9.926,-5.035 h 0.006 c 4.061,0 7.673,1.995 9.924,5.035 C 1.263,-2.337 1.046,-0.774 0,0"
             style="fill:#ffc40b;fill-opacity:1;fill-rule:nonzero;stroke:none"
             id="path160" /></g></g></g></g></svg>
