<?xml version="1.0" encoding="UTF-8" standalone="no"?>
<svg
   xmlns:dc="http://purl.org/dc/elements/1.1/"
   xmlns:cc="http://creativecommons.org/ns#"
   xmlns:rdf="http://www.w3.org/1999/02/22-rdf-syntax-ns#"
   xmlns:svg="http://www.w3.org/2000/svg"
   xmlns="http://www.w3.org/2000/svg"
   xmlns:sodipodi="http://sodipodi.sourceforge.net/DTD/sodipodi-0.dtd"
   xmlns:inkscape="http://www.inkscape.org/namespaces/inkscape"
   version="1.1"
   id="svg2"
   xml:space="preserve"
   width="256"
   height="128"
   viewBox="0 0 256 128"
   sodipodi:docname="kdb생명.ai"><metadata
     id="metadata8"><rdf:RDF><cc:Work
         rdf:about=""><dc:format>image/svg+xml</dc:format><dc:type
           rdf:resource="http://purl.org/dc/dcmitype/StillImage" /></cc:Work></rdf:RDF></metadata><defs
     id="defs6"><clipPath
       clipPathUnits="userSpaceOnUse"
       id="clipPath22"><path
         d="M 0,96 H 192 V 0 H 0 Z"
         id="path20" /></clipPath><radialGradient
       fx="0"
       fy="0"
       cx="0"
       cy="0"
       r="1"
       gradientUnits="userSpaceOnUse"
       gradientTransform="matrix(0,22.433468,24.746725,0,0.3000094,73.537666)"
       spreadMethod="pad"
       id="radialGradient128"><stop
         style="stop-opacity:1;stop-color:#bbd8ec"
         offset="0"
         id="stop120" /><stop
         style="stop-opacity:1;stop-color:#89bee1"
         offset="0.25"
         id="stop122" /><stop
         style="stop-opacity:1;stop-color:#446dae"
         offset="0.7"
         id="stop124" /><stop
         style="stop-opacity:1;stop-color:#2a4381"
         offset="1"
         id="stop126" /></radialGradient><radialGradient
       fx="0"
       fy="0"
       cx="0"
       cy="0"
       r="1"
       gradientUnits="userSpaceOnUse"
       gradientTransform="matrix(15.862108,0,0,15.862108,18.480242,84.002685)"
       spreadMethod="pad"
       id="radialGradient152"><stop
         style="stop-opacity:1;stop-color:#bbd8ec"
         offset="0"
         id="stop144" /><stop
         style="stop-opacity:1;stop-color:#89bee1"
         offset="0.25"
         id="stop146" /><stop
         style="stop-opacity:1;stop-color:#446dae"
         offset="0.7"
         id="stop148" /><stop
         style="stop-opacity:1;stop-color:#2a4381"
         offset="1"
         id="stop150" /></radialGradient><radialGradient
       fx="0"
       fy="0"
       cx="0"
       cy="0"
       r="1"
       gradientUnits="userSpaceOnUse"
       gradientTransform="matrix(0,-22.433119,-24.746374,0,34.012119,71.606667)"
       spreadMethod="pad"
       id="radialGradient176"><stop
         style="stop-opacity:1;stop-color:#bbd8ec"
         offset="0"
         id="stop168" /><stop
         style="stop-opacity:1;stop-color:#89bee1"
         offset="0.25"
         id="stop170" /><stop
         style="stop-opacity:1;stop-color:#446dae"
         offset="0.7"
         id="stop172" /><stop
         style="stop-opacity:1;stop-color:#2a4381"
         offset="1"
         id="stop174" /></radialGradient><radialGradient
       fx="0"
       fy="0"
       cx="0"
       cy="0"
       r="1"
       gradientUnits="userSpaceOnUse"
       gradientTransform="matrix(-15.861598,0,0,-15.861598,15.8323,61.142448)"
       spreadMethod="pad"
       id="radialGradient200"><stop
         style="stop-opacity:1;stop-color:#bbd8ec"
         offset="0"
         id="stop192" /><stop
         style="stop-opacity:1;stop-color:#89bee1"
         offset="0.25"
         id="stop194" /><stop
         style="stop-opacity:1;stop-color:#446dae"
         offset="0.7"
         id="stop196" /><stop
         style="stop-opacity:1;stop-color:#2a4381"
         offset="1"
         id="stop198" /></radialGradient></defs><sodipodi:namedview
     pagecolor="#ffffff"
     bordercolor="#666666"
     borderopacity="1"
     objecttolerance="10"
     gridtolerance="10"
     guidetolerance="10"
     inkscape:pageopacity="0"
     inkscape:pageshadow="2"
     inkscape:window-width="640"
     inkscape:window-height="480"
     id="namedview4" /><g
     id="g10"
     inkscape:groupmode="layer"
     inkscape:label="kdb생명"
     transform="matrix(1.3333333,0,0,-1.3333333,0,128)"><g
       id="g12"
       transform="translate(133.2205,80.0277)"><path
         d="M 0,0 H -2.301 V 4.599 H -4.516 V -7.989 h 2.215 v 6.094 H 0 V -8.459 H 2.215 V 4.599 H 0 Z"
         style="fill:#2a4281;fill-opacity:1;fill-rule:nonzero;stroke:none"
         id="path14" /></g><g
       id="g16"><g
         id="g18"
         clip-path="url(#clipPath22)"><g
           id="g24"
           transform="translate(127.0911,70.5208)"><path
             d="m 0,0 c -4.547,0 -8.235,-2.194 -8.235,-4.878 0,-2.707 3.688,-4.898 8.235,-4.898 4.554,0 8.237,2.191 8.237,4.898 C 8.237,-2.194 4.554,0 0,0 m 0,-7.902 c -3.246,0 -5.902,1.349 -5.902,3.024 0,1.645 2.656,3.009 5.902,3.009 3.262,0 5.894,-1.364 5.894,-3.009 0,-1.675 -2.632,-3.024 -5.894,-3.024 z"
             style="fill:#2a4281;fill-opacity:1;fill-rule:nonzero;stroke:none"
             id="path26" /></g><g
           id="g28"
           transform="translate(126.3728,77.1571)"><path
             d="m 0,0 c 0,1.328 -0.569,2.568 -1.617,3.504 l -0.198,0.173 h 2.156 v 1.87 H -4.073 V 7.756 H -6.434 V 5.547 h -4.509 v -1.87 h 2.278 L -8.882,3.504 c -1.021,-0.936 -1.6,-2.176 -1.6,-3.504 0,-2.688 2.346,-4.863 5.239,-4.863 C -2.341,-4.863 0,-2.688 0,0 m -8.27,0.106 c 0,1.768 1.362,3.214 3.027,3.214 1.662,0 3.039,-1.446 3.039,-3.214 0,-1.756 -1.377,-3.202 -3.039,-3.202 -1.665,0 -3.027,1.446 -3.027,3.202"
             style="fill:#2a4281;fill-opacity:1;fill-rule:nonzero;stroke:none"
             id="path30" /></g><g
           id="g32"
           transform="translate(82.9861,68.0438)"><path
             d="m 0,0 h -10.935 v 2.623 h -2.385 v -8.116 c 0,-0.611 0.568,-1.117 1.242,-1.117 H 2.357 V 2.623 L 0,2.623 V 0 m -0.016,-4.717 h -10.919 v 2.827 h 10.919 z"
             style="fill:#2a4281;fill-opacity:1;fill-rule:nonzero;stroke:none"
             id="path34" /></g><g
           id="g36"
           transform="translate(82.9861,80.0017)"><path
             d="m 0,0 h -4.794 c -0.511,2.654 -2.999,4.673 -6.029,4.673 -3.385,0 -6.125,-2.538 -6.125,-5.654 0,-3.126 2.74,-5.667 6.125,-5.667 3.043,0 5.561,2.061 6.035,4.73 H 0 V -7.663 H 2.357 V 4.627 H 0 V 0 m -10.823,-4.799 c -2.029,0 -3.702,1.713 -3.702,3.818 0,2.09 1.673,3.808 3.702,3.808 2.029,0 3.697,-1.718 3.697,-3.808 0,-2.105 -1.668,-3.818 -3.697,-3.818"
             style="fill:#2a4281;fill-opacity:1;fill-rule:nonzero;stroke:none"
             id="path38" /></g><g
           id="g40"
           transform="translate(59.7599,84.6286)"><path
             d="M 0,0 H -2.367 V -16.81 H 0 v 9 h 3.485 v 1.907 l -3.485,0 z"
             style="fill:#2a4281;fill-opacity:1;fill-rule:nonzero;stroke:none"
             id="path42" /></g><g
           id="g44"
           transform="translate(46.8283,77.7292)"><path
             d="M 0,0 0.1,0.194 0.187,0 c 1.175,-2.289 3.22,-4.245 5.757,-5.497 l 1.108,1.472 C 5.678,-3.233 3.826,-1.84 2.58,0.316 1.196,2.837 1.303,5.863 1.303,5.892 V 6.483 H -1.106 V 5.912 c 0,-0.049 0.097,-3.075 -1.27,-5.596 -1.248,-2.156 -3.107,-3.549 -4.479,-4.341 l 1.104,-1.472 C -3.2,-4.245 -1.16,-2.289 0,0"
             style="fill:#2a4281;fill-opacity:1;fill-rule:nonzero;stroke:none"
             id="path46" /></g><g
           id="g48"
           transform="translate(46.6378,69.3462)"><path
             d="m 0,0 h -2.356 v -6.795 c 0,-0.619 0.573,-1.133 1.247,-1.133 h 14.476 v 1.909 H 0 Z"
             style="fill:#2a4281;fill-opacity:1;fill-rule:nonzero;stroke:none"
             id="path50" /></g><g
           id="g52"
           transform="translate(96.0674,68.6851)"><path
             d="m 0,0 h -2.366 v -6.134 c 0,-0.619 0.56,-1.133 1.232,-1.133 h 15.156 v 1.909 L 0,-5.358 V 0"
             style="fill:#2a4281;fill-opacity:1;fill-rule:nonzero;stroke:none"
             id="path54" /></g><path
           d="m 91.072,70.68 h 21.101 v 1.906 H 91.072 Z"
           style="fill:#2a4281;fill-opacity:1;fill-rule:nonzero;stroke:none"
           id="path56" /><g
           id="g58"
           transform="translate(101.6143,74.8073)"><path
             d="M 0,0 C 4.63,0 8.397,2.326 8.397,5.22 8.397,8.086 4.63,10.428 0,10.428 -4.623,10.428 -8.384,8.086 -8.384,5.22 -8.384,2.326 -4.623,0 0,0 M 0,8.565 C 3.348,8.565 6.059,7.064 6.059,5.22 6.059,3.372 3.348,1.874 0,1.874 c -3.332,0 -6.051,1.498 -6.051,3.346 0,1.844 2.719,3.345 6.051,3.345"
             style="fill:#2a4281;fill-opacity:1;fill-rule:nonzero;stroke:none"
             id="path60" /></g><g
           id="g62"
           transform="translate(174.764,75.4582)"><path
             d="M 0,0 0.017,0.049 H 6.072 V -2.73 H 8.423 V 9.17 H 6.072 V 6.615 6.51 H 5.948 0.511 0.447 L 0.435,6.564 c -1.136,1.657 -3.08,2.653 -5.189,2.653 -3.384,0 -6.118,-2.538 -6.118,-5.644 0,-3.116 2.734,-5.657 6.118,-5.657 1.837,0 3.574,0.769 4.754,2.084 m 1.131,2.02 c 0.146,0.513 0.23,1.037 0.23,1.553 0,0.286 -0.038,0.603 -0.089,0.965 l -0.04,0.11 H 1.366 5.948 6.072 V 4.544 1.993 1.893 H 5.948 1.228 1.082 Z m -9.577,1.553 c 0,2.084 1.648,3.798 3.692,3.798 2.029,0 3.684,-1.714 3.684,-3.798 0,-2.105 -1.655,-3.806 -3.684,-3.806 -2.044,0 -3.692,1.701 -3.692,3.806"
             style="fill:#2a4281;fill-opacity:1;fill-rule:nonzero;stroke:none"
             id="path64" /></g><g
           id="g66"
           transform="translate(169.708,63.327)"><path
             d="m 0,0 v 2.046 h 13.479 v 4.55 c 0,0.598 -0.562,1.129 -1.246,1.129 H -2.396 V 5.851 H 11.097 V 3.891 H -2.384 v -4.632 c 0,-0.6 0.566,-1.134 1.232,-1.134 H 13.906 V 0 Z"
             style="fill:#2a4281;fill-opacity:1;fill-rule:nonzero;stroke:none"
             id="path68" /></g><path
           d="m 157.305,61.452 h 2.215 v 23.177 h -2.215 z"
           style="fill:#2a4281;fill-opacity:1;fill-rule:nonzero;stroke:none"
           id="path70" /><g
           id="g72"
           transform="translate(152.8106,80.3797)"><path
             d="m 0,0 v -0.102 h -2.943 l 0.007,0.107 c 0,0.225 0.021,0.414 0.021,0.557 V 1.619 C -2.943,2.631 -3.408,3.07 -4.421,3.07 h -7.814 V 1.122 H -5.409 -5.3 V 1.016 0.015 c -0.062,-4.888 -2.645,-8.617 -7.646,-11.092 l 0.998,-1.401 c 2.495,0.947 4.651,2.492 6.218,4.461 l 0.05,0.041 H -5.65 -0.118 0 v -0.11 -10.842 H 2.186 V 4.249 L 0,4.249 V 0 M 0,-2.138 V -6.05 h -4.421 l 0.062,0.153 c 0.568,1.126 0.957,2.398 1.204,3.769 l 0.005,0.09 H -3.057 -0.118 0 Z"
             style="fill:#2a4281;fill-opacity:1;fill-rule:nonzero;stroke:none"
             id="path74" /></g><g
           id="g76"
           transform="translate(178.4755,33.4678)"><path
             d="m 0,0 h 9.292 v -6.61 h 4.111 V 16.136 H 9.292 V 11.2 H 0 v 3.761 h -18.941 v -17.22 c 0,-1.06 0.981,-1.935 2.145,-1.935 L 0,-4.194 V 0 M 0,7.971 H 9.292 V 3.226 H 0 Z m -4.098,-8.898 h -10.716 v 12.599 h 10.716 z"
             style="fill:#2a4281;fill-opacity:1;fill-rule:nonzero;stroke:none"
             id="path78" /></g><g
           id="g80"
           transform="translate(177.6735,25.1315)"><path
             d="m 0,0 c -7.882,0 -14.301,-3.816 -14.301,-8.5 0,-4.689 6.419,-8.502 14.301,-8.502 7.898,0 14.322,3.813 14.322,8.502 C 14.322,-3.816 7.898,0 0,0 m 0,-13.745 c -5.659,0 -10.262,2.357 -10.262,5.245 0,2.889 4.603,5.238 10.262,5.238 5.67,0 10.282,-2.349 10.282,-5.238 0,-2.888 -4.612,-5.245 -10.282,-5.245"
             style="fill:#2a4281;fill-opacity:1;fill-rule:nonzero;stroke:none"
             id="path82" /></g><g
           id="g84"
           transform="translate(145.7644,41.6457)"><path
             d="m 0,0 h -4.011 v 8.001 h -3.846 v -21.867 h 3.846 V -3.351 H 0 V -14.676 H 3.829 V 8.001 H 0 V 0"
             style="fill:#2a4281;fill-opacity:1;fill-rule:nonzero;stroke:none"
             id="path86" /></g><g
           id="g88"
           transform="translate(135.1193,25.1446)"><path
             d="m 0,0 c -7.898,0 -14.315,-3.805 -14.315,-8.497 0,-4.695 6.417,-8.497 14.315,-8.497 7.884,0 14.312,3.802 14.312,8.497 C 14.312,-3.805 7.884,0 0,0 m 0,-13.743 c -5.665,0 -10.268,2.353 -10.268,5.246 0,2.897 4.603,5.25 10.268,5.25 5.654,0 10.261,-2.353 10.261,-5.25 0,-2.893 -4.607,-5.246 -10.261,-5.246"
             style="fill:#2a4281;fill-opacity:1;fill-rule:nonzero;stroke:none"
             id="path90" /></g><g
           id="g92"
           transform="translate(124.1319,38.3716)"><path
             d="m 0,0 0.162,-0.342 c 1.875,-3.836 4.929,-7.036 8.624,-9.046 l 1.838,2.544 C 9.372,-6.069 2.073,-1.048 2.062,9.619 v 0.929 H -2.06 V 9.619 C -2.068,-1.048 -9.373,-6.069 -10.616,-6.844 l 1.834,-2.544 c 3.704,2.01 6.753,5.21 8.618,9.046 z"
             style="fill:#2a4281;fill-opacity:1;fill-rule:nonzero;stroke:none"
             id="path94" /></g><g
           id="g96"
           transform="translate(36.2163,48.1014)"><path
             d="M 0,0 H 13.457 C 25.64,0 34.053,-8.361 34.053,-19.272 v -0.112 C 34.056,-30.296 25.64,-38.764 13.46,-38.764 H 0 V 0 m 13.457,-34.724 c 9.802,0 16.06,6.646 16.057,15.238 v 0.097 c 0,8.587 -6.256,15.334 -16.057,15.334 H 4.376 v -30.669 z"
             style="fill:#2a4281;fill-opacity:1;fill-rule:nonzero;stroke:none"
             id="path98" /></g><g
           id="g100"
           transform="translate(99.0222,29.3859)"><path
             d="m 0,0 c 3.044,1.333 6.144,3.928 6.144,8.966 v 0.112 c 0,2.492 -0.885,4.54 -2.494,6.206 -2.215,2.16 -5.703,3.438 -10.129,3.438 l -16.507,-0.007 v -38.763 h 17.228 c 8.47,0.005 14.064,3.931 14.064,10.583 v 0.107 C 8.306,-4.051 4.595,-1.384 0,0 m -18.662,14.789 h 11.791 c 5.544,0 8.581,-2.499 8.583,-6.325 V 8.362 c 0,-4.551 -3.65,-6.926 -8.914,-6.926 l -8.734,-0.005 -2.327,-3.868 h 11.834 c 6.756,0 10.306,-2.436 10.306,-6.645 v -0.111 c 0,-4.322 -3.654,-6.928 -9.529,-6.928 h -13.01 z"
             style="fill:#2a4281;fill-opacity:1;fill-rule:nonzero;stroke:none"
             id="path102" /></g><g
           id="g104"
           transform="translate(24.0723,48.1014)"><path
             d="M 0,0 H 6.351 L -14.79,-19.149 8.827,-38.764 H 2.02 l -21.66,18.455 h -0.154 v -18.455 h -4.275 l -0.003,38.76 h 4.278 v -18.149 h 0.146 L 0,0"
             style="fill:#2a4281;fill-opacity:1;fill-rule:nonzero;stroke:none"
             id="path106" /></g></g></g><g
       id="g108"><g
         id="g110"><g
           id="g116"><g
             id="g118"><path
               d="M 0.467,72.204 C 0.178,71.746 0.028,71.14 0.029,70.533 v 0 c 0,-0.589 0.141,-1.179 0.434,-1.636 v 0 l 6.352,-9.981 c 0.577,-0.886 1.893,-1.653 3.234,-1.653 v 0 h 8.509 L 6.911,75.549 c -0.609,0.95 -1.134,2.639 -1.132,4.008 v 0 c 0.001,0.535 0.083,1.022 0.272,1.395 v 0 z"
               style="fill:url(#radialGradient128);stroke:none"
               id="path130" /></g></g></g></g><g
       id="g132"><g
         id="g134"><g
           id="g140"><g
             id="g142"><path
               d="m 10.041,83.705 c -1.482,0 -2.659,-0.654 -3.291,-1.655 v 0 L 6.051,80.952 C 5.862,80.579 5.78,80.092 5.779,79.557 v 0 C 5.777,78.188 6.302,76.499 6.911,75.549 v 0 l 3.934,-6.176 c -0.18,0.358 -0.249,0.747 -0.25,1.12 v 0 c 0,0.6 0.18,1.154 0.37,1.454 v 0 l 7.448,11.758 z"
               style="fill:url(#radialGradient152);stroke:none"
               id="path154" /></g></g></g></g><g
       id="g156"><g
         id="g158"><g
           id="g164"><g
             id="g166"><path
               d="m 15.758,87.871 8.067,-12.664 h 0.001 v -10e-4 l 0.188,-0.295 v 0 0 l 2.119,-3.327 v 0 0 L 27.4,69.596 c 0.84,-1.31 1.518,-4.017 0.88,-5.364 v 0 0 0 c -0.007,-0.014 -0.013,-0.027 -0.02,-0.04 v 0 l 5.583,8.75 c 0.034,0.055 0.067,0.111 0.098,0.17 v 0 0.001 0 c 0.009,0.017 0.018,0.035 0.027,0.052 v 0 0.002 h 10e-4 c 0.05,0.102 0.095,0.21 0.133,0.321 v 0 0.002 0 c 0.044,0.125 0.079,0.255 0.107,0.389 v 0 0.013 h 0.003 c 0.009,0.044 0.017,0.088 0.024,0.133 v 0 10e-4 0 c 0.011,0.066 0.02,0.132 0.027,0.199 v 0 0.042 h 0.004 c 0.022,0.231 0.022,0.466 -0.001,0.698 v 0 h -0.003 v 0.031 c -0.007,0.061 -0.015,0.123 -0.025,0.184 v 0 h -0.002 v 0.014 c -0.007,0.041 -0.014,0.08 -0.022,0.12 v 0 h -0.005 v 0.024 c -0.016,0.073 -0.033,0.146 -0.054,0.217 v 0 0 10e-4 c -0.008,0.027 -0.016,0.053 -0.024,0.08 v 0 h -0.002 v 0.006 c -0.008,0.025 -0.016,0.05 -0.025,0.074 v 0 h -0.002 v 0.006 c -0.039,0.11 -0.083,0.215 -0.134,0.316 v 0 0 0 c -0.037,0.073 -0.076,0.142 -0.119,0.209 v 0 l -0.123,0.194 v 0 0 l -1.127,1.77 v 0 0 l -0.563,0.885 v 0 10e-4 l -2.442,3.836 v 0 0 l -2.098,3.297 c -0.054,0.083 -0.114,0.164 -0.181,0.245 v 0 h -0.002 v 0.002 c -0.123,0.149 -0.267,0.292 -0.427,0.427 v 0 h -0.002 v 0.002 c -0.032,0.027 -0.064,0.053 -0.097,0.079 v 0 h -0.01 v 0.008 c -0.008,0.006 -0.017,0.013 -0.025,0.019 v 0 H 26.75 v 0.002 c -0.035,0.026 -0.07,0.052 -0.106,0.078 v 0 h -10e-4 v 0.001 c -0.051,0.036 -0.103,0.072 -0.156,0.106 v 0 h -0.005 v 0.004 c -0.041,0.026 -0.083,0.052 -0.125,0.077 v 0 h -0.009 v 0.006 c -0.043,0.025 -0.087,0.05 -0.131,0.074 v 0 h -0.004 v 0.002 c -0.049,0.028 -0.1,0.054 -0.151,0.079 v 0 h -0.01 v 0.005 c -0.015,0.008 -0.03,0.015 -0.045,0.022 v 0 h -0.008 v 0.004 c -0.016,0.008 -0.031,0.015 -0.047,0.022 v 0 h -0.007 v 0.003 c -0.017,0.009 -0.035,0.017 -0.052,0.024 v 0 h -0.002 v 0.001 c -0.085,0.038 -0.173,0.074 -0.262,0.107 v 0 h -0.006 v 0.002 c -0.023,0.008 -0.046,0.016 -0.069,0.025 v 0 h -0.011 v 0.003 c -0.023,0.008 -0.046,0.016 -0.069,0.023 v 0 h -0.012 v 0.005 c -0.024,0.007 -0.049,0.015 -0.073,0.023 v 0 h -0.007 v 0.002 c -0.061,0.018 -0.123,0.035 -0.185,0.051 v 0 h -0.003 v 0 c -0.037,0.01 -0.074,0.018 -0.111,0.027 v 0 H 25.06 v 0.005 c -0.036,0.008 -0.073,0.015 -0.109,0.022 v 0 h -0.025 v 0.004 c -0.127,0.023 -0.255,0.04 -0.384,0.05 v 0 z"
               style="fill:url(#radialGradient176);stroke:none"
               id="path178" /></g></g></g></g><g
       id="g180"><g
         id="g182"><g
           id="g188"><g
             id="g190"><path
               d="m 23.714,74.652 c 0.001,-0.6 -0.179,-1.154 -0.369,-1.454 v 0 L 15.899,61.44 h 8.37 c 1.484,0 2.661,0.653 3.292,1.654 v 0 l 0.699,1.098 c 0.189,0.374 0.271,0.861 0.272,1.397 v 0 c 0.003,1.368 -0.522,3.056 -1.132,4.007 v 0 l -3.936,6.177 c 0.18,-0.358 0.25,-0.748 0.25,-1.121"
               style="fill:url(#radialGradient200);stroke:none"
               id="path202" /></g></g></g></g></g></svg>
