<?xml version="1.0" encoding="UTF-8" standalone="no"?>
<svg
   xmlns:dc="http://purl.org/dc/elements/1.1/"
   xmlns:cc="http://creativecommons.org/ns#"
   xmlns:rdf="http://www.w3.org/1999/02/22-rdf-syntax-ns#"
   xmlns:svg="http://www.w3.org/2000/svg"
   xmlns="http://www.w3.org/2000/svg"
   xmlns:sodipodi="http://sodipodi.sourceforge.net/DTD/sodipodi-0.dtd"
   xmlns:inkscape="http://www.inkscape.org/namespaces/inkscape"
   version="1.1"
   id="svg2"
   xml:space="preserve"
   width="256"
   height="128"
   viewBox="0 0 256 128"
   sodipodi:docname="라이나생명.ai"><metadata
     id="metadata8"><rdf:RDF><cc:Work
         rdf:about=""><dc:format>image/svg+xml</dc:format><dc:type
           rdf:resource="http://purl.org/dc/dcmitype/StillImage" /></cc:Work></rdf:RDF></metadata><defs
     id="defs6"><clipPath
       clipPathUnits="userSpaceOnUse"
       id="clipPath18"><path
         d="M 0,96 H 192 V 0 H 0 Z"
         id="path16" /></clipPath></defs><sodipodi:namedview
     pagecolor="#ffffff"
     bordercolor="#666666"
     borderopacity="1"
     objecttolerance="10"
     gridtolerance="10"
     guidetolerance="10"
     inkscape:pageopacity="0"
     inkscape:pageshadow="2"
     inkscape:window-width="640"
     inkscape:window-height="480"
     id="namedview4" /><g
     id="g10"
     inkscape:groupmode="layer"
     inkscape:label="라이나생명"
     transform="matrix(1.3333333,0,0,-1.3333333,0,128)"><g
       id="g12"><g
         id="g14"
         clip-path="url(#clipPath18)"><g
           id="g20"
           transform="translate(27.3283,59.0539)"><path
             d="m 0,0 v 0 c 0,-0.236 -0.247,-0.499 -0.573,-0.903 -1.109,-1.364 -3.578,-3.786 -3.578,-9.787 0,-3.107 0.512,-4.397 0.512,-5.854 0,-0.66 -0.13,-1.006 -0.474,-1.006 -0.782,0.002 -2.106,3.279 -2.106,7.212 0,8.229 5.191,10.522 5.993,10.522 C -0.069,0.184 0,0.097 0,0 m -13.082,0.184 c 0.799,0 5.99,-2.293 5.99,-10.522 0,-3.933 -1.323,-7.212 -2.106,-7.212 -0.343,0.002 -0.474,0.345 -0.474,1.006 0,1.458 0.512,2.745 0.512,5.854 0,6.003 -2.471,8.423 -3.578,9.787 -0.326,0.405 -0.573,0.665 -0.573,0.902 0,0.099 0.069,0.185 0.229,0.185"
             style="fill:#0071b4;fill-opacity:1;fill-rule:evenodd;stroke:none"
             id="path22" /></g><g
           id="g24"
           transform="translate(18.7784,57.5898)"><path
             d="M 0,0 C 0,-1.074 0.846,-1.946 1.894,-1.946 2.941,-1.946 3.79,-1.075 3.79,0 3.79,1.077 2.941,1.945 1.894,1.945 0.846,1.946 0,1.076 0,0"
             style="fill:#f0873a;fill-opacity:1;fill-rule:evenodd;stroke:none"
             id="path26" /></g><g
           id="g28"
           transform="translate(20.6726,66.5933)"><path
             d="M 0,0 V 0 C -0.77,0.362 -1.528,1.025 -1.528,2.411 -1.528,3.734 -0.904,5.006 0,5.577 0.906,5.008 1.529,3.733 1.529,2.411 1.529,1.026 0.771,0.361 0,0 m 16.206,-21.224 v 0 c -2.695,1.659 -6.8,3.382 -12.745,3.927 -0.014,-0.072 -0.063,-0.512 -0.063,-0.933 0,-0.196 0.033,-0.457 0.04,-0.509 5.803,-0.375 9.938,-1.608 12.74,-2.612 0.057,-0.02 0.111,-0.043 0.138,-0.043 0.032,10e-4 0.048,0.019 0.048,0.043 0,0.044 -0.048,0.059 -0.158,0.127 M 3.079,0.961 C 3.685,1.042 4.347,1.34 4.646,2.293 4.925,3.205 4.767,4.216 4.264,4.802 3.52,4.599 2.82,3.856 2.538,2.945 2.243,1.989 2.624,1.372 3.079,0.961 m 4.378,-3.644 c 0.533,-0.248 1.226,-0.351 1.957,0.268 0.701,0.594 1.091,1.493 0.989,2.227 C 9.695,0.034 8.746,-0.205 8.044,-0.798 7.311,-1.419 7.299,-2.116 7.457,-2.683 m 0.138,-5.498 v 0 c 0.186,0.545 0.58,1.103 1.516,1.206 0.893,0.098 1.795,-0.233 2.246,-0.8 -0.319,-0.655 -1.132,-1.167 -2.024,-1.262 -0.934,-0.1 -1.441,0.359 -1.738,0.856 M 6.014,-10.17 v 0 c 0.3,0.413 0.779,0.786 1.601,0.626 0.785,-0.15 1.465,-0.669 1.702,-1.272 -0.441,-0.471 -1.268,-0.695 -2.052,-0.539 -0.824,0.161 -1.132,0.683 -1.251,1.185 m -4.771,5.196 c 0.733,0.097 1.526,0.455 1.882,1.602 0.338,1.093 0.147,2.303 -0.457,3.007 C 1.776,-0.605 0.934,-1.497 0.596,-2.592 0.243,-3.737 0.698,-4.479 1.243,-4.974 m 2.083,-1.21 v 0 c -0.174,0.639 -0.162,1.42 0.662,2.119 0.788,0.67 1.855,0.936 2.652,0.689 C 6.756,-4.203 6.314,-5.214 5.529,-5.881 4.706,-6.578 3.927,-6.463 3.326,-6.184 m 1.389,4.445 v 0 C 4.318,-1.104 4.075,-0.247 4.742,0.777 5.379,1.757 6.449,2.396 7.395,2.384 7.79,1.528 7.643,0.286 7.005,-0.691 6.338,-1.719 5.458,-1.848 4.715,-1.739 m 2.812,-3.859 v 0 c 0.004,0.698 0.246,1.489 1.284,1.959 0.991,0.45 2.153,0.41 2.887,-0.073 C 11.577,-4.583 10.838,-5.482 9.849,-5.93 8.807,-6.397 8.053,-6.058 7.527,-5.598 M -16.364,-21.35 v 0 c 0,-0.025 0.015,-0.044 0.047,-0.044 0.029,10e-4 0.083,0.023 0.139,0.043 2.801,1.004 6.935,2.236 12.739,2.612 0.005,0.052 0.042,0.31 0.042,0.509 0,0.421 -0.049,0.861 -0.064,0.933 -5.946,-0.544 -10.049,-2.27 -12.746,-3.927 -0.11,-0.066 -0.157,-0.085 -0.157,-0.126 M -4.645,2.295 c 0.296,-0.957 0.959,-1.253 1.566,-1.337 0.454,0.414 0.838,1.032 0.542,1.987 -0.283,0.911 -0.983,1.656 -1.73,1.857 -0.5,-0.587 -0.662,-1.597 -0.378,-2.507 m -4.769,-4.709 c 0.733,-0.621 1.42,-0.516 1.958,-0.27 0.155,0.568 0.142,1.265 -0.59,1.886 -0.698,0.591 -1.649,0.833 -2.356,0.61 -0.103,-0.735 0.289,-1.631 0.988,-2.226 m 0.078,-6.621 v 0 c -0.89,0.093 -1.701,0.605 -2.021,1.26 0.452,0.569 1.356,0.898 2.247,0.8 0.935,-0.1 1.329,-0.662 1.515,-1.207 -0.298,-0.495 -0.805,-0.957 -1.741,-0.853 m 2.073,-2.32 v 0 c -0.784,-0.155 -1.61,0.068 -2.055,0.539 0.235,0.604 0.918,1.121 1.702,1.272 0.821,0.162 1.303,-0.213 1.603,-0.627 -0.12,-0.501 -0.429,-1.026 -1.25,-1.184 m 4.139,7.984 c 0.356,-1.148 1.152,-1.506 1.879,-1.603 0.547,0.493 1.002,1.239 0.65,2.382 -0.341,1.094 -1.18,1.987 -2.073,2.227 -0.602,-0.704 -0.795,-1.913 -0.456,-3.006 M -5.53,-5.88 v 0 c -0.785,0.666 -1.225,1.676 -1.108,2.504 0.795,0.247 1.865,-0.021 2.65,-0.689 0.823,-0.699 0.836,-1.481 0.661,-2.12 -0.601,-0.277 -1.378,-0.393 -2.203,0.305 m -1.471,5.189 v 0 c -0.639,0.977 -0.788,2.219 -0.393,3.075 0.942,0.012 2.015,-0.627 2.654,-1.607 0.664,-1.024 0.425,-1.882 0.026,-2.517 -0.744,-0.108 -1.625,0.021 -2.287,1.049 m -2.843,-5.238 c -0.992,0.447 -1.734,1.346 -1.855,2.217 0.733,0.485 1.896,0.522 2.889,0.073 1.038,-0.469 1.278,-1.262 1.284,-1.961 -0.524,-0.456 -1.279,-0.798 -2.318,-0.329"
             style="fill:#38a751;fill-opacity:1;fill-rule:evenodd;stroke:none"
             id="path30" /></g><g
           id="g32"
           transform="translate(24.3304,27.4613)"><path
             d="M 0,0 V 0 5.833 C 0,6.616 -0.071,8.117 -0.092,8.457 L 1.721,8.459 1.806,7.271 H 1.843 C 2.054,7.603 2.732,8.647 4.314,8.647 6.225,8.649 7.283,7.245 7.283,5.496 V 0 H 5.269 v 5.097 c 0,1.076 -0.598,1.886 -1.626,1.886 -1.058,0 -1.624,-0.858 -1.624,-1.887 V 0 Z m -11.788,8.434 v 0 h -2.019 V 0 h 2.019 z M 16.979,0 V 0 C 16.915,0.471 16.725,1.715 16.725,2.784 V 8.265 C 16.41,8.346 15.265,8.647 13.951,8.647 10.528,8.649 9.062,6.355 9.062,3.878 c 0,-2.279 1.142,-4.069 3.34,-4.069 1.606,0.001 2.325,1.04 2.596,1.592 l 0.054,0.002 c 0.02,-0.262 0.092,-1.157 0.117,-1.404 z m -2.271,4.184 v 0 c 0,-1.935 -0.757,-2.741 -1.851,-2.741 -1.107,10e-4 -1.727,0.936 -1.727,2.577 0,1.679 0.966,3.067 2.739,3.067 0.362,0 0.62,-0.04 0.839,-0.09 z M -15.824,2.061 v 0 c -0.548,-0.254 -1.428,-0.428 -2.279,-0.428 -2.317,0 -4.024,1.66 -4.024,4.186 0,2.511 1.694,4.19 4.024,4.19 1.156,10e-4 1.98,-0.284 2.279,-0.426 v 1.808 c -0.505,0.187 -1.33,0.375 -2.492,0.375 -3.598,10e-4 -6.014,-2.488 -6.014,-5.947 0,-3.268 2.224,-5.943 6.014,-5.943 1.112,0 1.95,0.175 2.492,0.379 z M -4.197,1.013 v 0 -0.633 c 0,-1.721 -1.061,-2.395 -2.379,-2.395 -1.186,0.002 -2.059,0.356 -2.335,0.454 v -1.706 c 0.224,-0.061 1.188,-0.364 2.561,-0.364 2.437,10e-4 4.065,1.006 4.065,4.456 v 7.44 c -0.312,0.081 -1.457,0.382 -2.774,0.382 -3.418,0.002 -4.89,-2.292 -4.89,-4.769 0,-2.279 1.149,-4.069 3.345,-4.069 1.446,0.001 2.144,0.874 2.371,1.202 z m -0.106,3.171 v 0 c 0,-1.935 -0.756,-2.741 -1.851,-2.741 -1.105,10e-4 -1.723,0.936 -1.723,2.577 0,1.679 0.96,3.067 2.737,3.067 0.367,0 0.622,-0.04 0.837,-0.09 z m -9.744,6.453 c 0,-0.678 0.557,-1.225 1.247,-1.225 0.69,0 1.253,0.547 1.253,1.224 0,0.678 -0.563,1.225 -1.253,1.225 -0.69,0.003 -1.247,-0.548 -1.247,-1.224"
             style="fill:#0071b4;fill-opacity:1;fill-rule:evenodd;stroke:none"
             id="path34" /></g><g
           id="g36"
           transform="translate(44.8224,27.7516)"><path
             d="m 0,0 v 0 c -0.207,-0.209 -0.461,-0.314 -0.755,-0.314 -0.294,0.001 -0.545,0.103 -0.751,0.313 -0.205,0.21 -0.31,0.459 -0.31,0.755 0,0.295 0.107,0.545 0.312,0.752 0.206,0.21 0.458,0.311 0.749,0.311 C -0.461,1.818 -0.207,1.714 0,1.506 0.207,1.3 0.312,1.049 0.312,0.754 0.312,0.46 0.207,0.209 0,0 m -1.401,1.404 c 0.179,0.178 0.394,0.267 0.646,0.267 0.255,0 0.47,-0.088 0.649,-0.268 C 0.073,1.222 0.162,1.006 0.162,0.754 0.162,0.498 0.073,0.281 -0.106,0.1 -0.284,-0.077 -0.5,-0.167 -0.755,-0.168 c -0.254,0 -0.468,0.091 -0.646,0.268 -0.179,0.18 -0.267,0.399 -0.267,0.654 0,0.252 0.088,0.468 0.267,0.65 m 0.626,-0.063 v 0 c 0.145,0 0.253,-0.013 0.319,-0.041 0.121,-0.052 0.182,-0.149 0.182,-0.296 0,-0.105 -0.038,-0.184 -0.115,-0.23 C -0.43,0.746 -0.484,0.729 -0.558,0.717 -0.465,0.704 -0.398,0.664 -0.356,0.601 -0.314,0.539 -0.293,0.48 -0.293,0.422 V 0.337 c 0,-0.027 0,-0.058 0.002,-0.089 0.004,-0.029 0.006,-0.05 0.01,-0.06 l 0.007,-0.014 h -0.191 c -0.002,0.005 -0.002,0.007 -0.003,0.011 0,0.005 -0.003,0.006 -0.003,0.013 l -0.004,0.038 v 0.092 c 0,0.134 -0.036,0.224 -0.111,0.267 -0.044,0.024 -0.121,0.038 -0.231,0.038 h -0.16 V 0.174 H -1.182 V 1.341 Z M -0.552,1.159 C -0.604,1.189 -0.688,1.2 -0.8,1.2 L -0.977,1.201 V 0.779 h 0.184 c 0.088,0 0.155,0.006 0.199,0.024 0.08,0.033 0.121,0.094 0.121,0.184 0,0.085 -0.027,0.14 -0.079,0.172"
             style="fill:#0071b4;fill-opacity:1;fill-rule:evenodd;stroke:none"
             id="path38" /></g><g
           id="g40"
           transform="translate(106.0812,27.4613)"><path
             d="m 0,0 v 26.983 c 0,0.798 -0.341,1.035 -1.153,1.035 L -3.86,28.019 V 0 Z"
             style="fill:#0071b4;fill-opacity:1;fill-rule:evenodd;stroke:none"
             id="path42" /></g><g
           id="g44"
           transform="translate(132.2404,27.4613)"><path
             d="M 0,0 V 17.376 H 4.214 V 20.48 H 0 v 6.503 c 0,0.798 -0.341,1.035 -1.153,1.035 l -2.707,10e-4 v -14.38 c -1.383,-0.291 -3.322,-0.467 -5.208,-0.467 h -7.198 c -0.37,0 -0.616,0.242 -0.616,0.604 v 13.472 h -3.829 V 12.704 c 0,-1.479 1.23,-2.635 2.803,-2.635 l 8.84,10e-4 c 1.703,0 3.454,0.234 5.208,0.684 L -3.86,0 Z"
             style="fill:#0071b4;fill-opacity:1;fill-rule:evenodd;stroke:none"
             id="path46" /></g><g
           id="g48"
           transform="translate(90.3198,54.9771)"><path
             d="m 0,0 v 0 c -2.953,0 -8.599,-3.791 -8.599,-9.732 0,-4.732 3.536,-8.039 8.599,-8.039 5.065,0 8.601,3.307 8.601,8.039 C 8.601,-3.791 2.955,0 0,0 m 4.575,-9.741 c 0,-2.918 -1.88,-4.956 -4.572,-4.956 -2.688,0 -4.568,2.036 -4.568,4.956 0,4.01 3.25,6.668 4.568,6.668 1.319,0.002 4.572,-2.659 4.572,-6.668"
             style="fill:#0071b4;fill-opacity:1;fill-rule:evenodd;stroke:none"
             id="path50" /></g><g
           id="g52"
           transform="translate(183.0142,39.8566)"><path
             d="m 0,0 v 0 c -2.756,0 -8.664,-2.455 -8.664,-7.207 0,-3.691 3.481,-6.172 8.664,-6.172 5.184,0 8.665,2.481 8.665,6.172 C 8.665,-2.453 2.743,-0.001 0,0 m -0.005,-3.004 c 1.561,0 4.648,-1.388 4.648,-4.081 0,-1.968 -1.867,-3.291 -4.648,-3.291 -2.78,10e-4 -4.649,1.323 -4.649,3.291 0,2.694 3.129,4.08 4.649,4.081"
             style="fill:#0071b4;fill-opacity:1;fill-rule:evenodd;stroke:none"
             id="path54" /></g><g
           id="g56"
           transform="translate(74.653,27.4613)"><path
             d="M 0,0 V 17.376 H 4.211 V 20.48 H 0 l -0.002,6.503 c 0,0.798 -0.342,1.035 -1.153,1.035 l -2.708,10e-4 V 12.078 C -5.235,11.86 -6.99,11.73 -8.579,11.73 l -8.849,10e-4 c -0.367,0 -0.582,0.24 -0.582,0.599 v 4.043 h 9.667 v 10.875 h -13.529 v -3.102 h 9.669 v -4.67 h -9.669 v -8.22 c 0,-1.476 1.23,-2.631 2.802,-2.631 h 10.107 c 1.722,0 3.615,0.2 5.1,0.528 l 0,-9.153 z"
             style="fill:#0071b4;fill-opacity:1;fill-rule:evenodd;stroke:none"
             id="path58" /></g><g
           id="g60"
           transform="translate(164.1667,40.8453)"><path
             d="M 0,0 H -0.013 -3.542 Z"
             style="fill:#0071b4;fill-opacity:1;fill-rule:evenodd;stroke:none"
             id="path62" /></g><g
           id="g64"
           transform="translate(155.0257,39.8566)"><path
             d="m 0,0 v 0 c -2.757,0 -8.663,-2.455 -8.663,-7.207 0,-3.691 3.48,-6.172 8.663,-6.172 5.184,0 8.666,2.481 8.666,6.172 C 8.666,-2.453 2.745,-0.001 0,0 m -0.003,-3.004 c 1.561,0 4.648,-1.388 4.648,-4.081 0,-1.968 -1.869,-3.291 -4.648,-3.291 -2.781,10e-4 -4.651,1.323 -4.651,3.291 0,2.694 3.129,4.08 4.651,4.081"
             style="fill:#0071b4;fill-opacity:1;fill-rule:evenodd;stroke:none"
             id="path66" /></g><g
           id="g68"
           transform="translate(190.8596,55.4807)"><path
             d="m 0,0 v 0 h -2.681 v -2.487 h -4.921 v 1.971 H -21.88 v -11.019 c 0,-1.478 1.229,-2.636 2.798,-2.636 l 11.48,0.002 v 2.438 h 4.921 v -2.904 H 1.14 V -1.026 C 1.14,-0.236 0.804,-0.001 0,0 m -11.429,-11.068 v 0 h -6.007 c -0.369,0 -0.615,0.241 -0.615,0.604 v 6.842 h 6.622 z m 3.827,5.475 h 4.92 v -3.034 h -4.92 z"
             style="fill:#0071b4;fill-opacity:1;fill-rule:evenodd;stroke:none"
             id="path70" /></g><g
           id="g72"
           transform="translate(163.3034,55.4826)"><path
             d="m 0,0 h -2.679 v -5.458 h -2.677 v 4.432 c 0,0.79 -0.338,1.024 -1.143,1.024 L -9.18,0 v -14.635 h 3.824 v 6.071 h 2.677 v -6.071 H 1.142 V -1.026 C 1.142,-0.236 0.805,-0.002 0,0"
             style="fill:#0071b4;fill-opacity:1;fill-rule:evenodd;stroke:none"
             id="path74" /></g><g
           id="g76"
           transform="translate(146.4765,52.1385)"><path
             d="M 0,0 C 0.351,0 0.471,-0.255 0.576,-0.69 L 3.299,-11.293 H 7.264 L 4.384,-0.355 C 3.778,1.98 2.582,3.108 0.014,3.108 h -0.029 c -2.568,0 -3.762,-1.13 -4.37,-3.463 l -2.879,-10.938 h 3.965 l 2.722,10.605 C -0.47,-0.255 -0.351,-0.001 0,0"
             style="fill:#0071b4;fill-opacity:1;fill-rule:evenodd;stroke:none"
             id="path78" /></g></g></g></g></svg>
