<?xml version="1.0" encoding="UTF-8" standalone="no"?>
<svg
   xmlns:dc="http://purl.org/dc/elements/1.1/"
   xmlns:cc="http://creativecommons.org/ns#"
   xmlns:rdf="http://www.w3.org/1999/02/22-rdf-syntax-ns#"
   xmlns:svg="http://www.w3.org/2000/svg"
   xmlns="http://www.w3.org/2000/svg"
   xmlns:sodipodi="http://sodipodi.sourceforge.net/DTD/sodipodi-0.dtd"
   xmlns:inkscape="http://www.inkscape.org/namespaces/inkscape"
   version="1.1"
   id="svg2"
   xml:space="preserve"
   width="256"
   height="128"
   viewBox="0 0 256 128"
   sodipodi:docname="롯데손해.ai"><metadata
     id="metadata8"><rdf:RDF><cc:Work
         rdf:about=""><dc:format>image/svg+xml</dc:format><dc:type
           rdf:resource="http://purl.org/dc/dcmitype/StillImage" /></cc:Work></rdf:RDF></metadata><defs
     id="defs6"><clipPath
       clipPathUnits="userSpaceOnUse"
       id="clipPath18"><path
         d="M 0,96 H 192 V 0 H 0 Z"
         id="path16" /></clipPath></defs><sodipodi:namedview
     pagecolor="#ffffff"
     bordercolor="#666666"
     borderopacity="1"
     objecttolerance="10"
     gridtolerance="10"
     guidetolerance="10"
     inkscape:pageopacity="0"
     inkscape:pageshadow="2"
     inkscape:window-width="640"
     inkscape:window-height="480"
     id="namedview4" /><g
     id="g10"
     inkscape:groupmode="layer"
     inkscape:label="롯데손해"
     transform="matrix(1.3333333,0,0,-1.3333333,0,128)"><g
       id="g12"><g
         id="g14"
         clip-path="url(#clipPath18)"><g
           id="g20"
           transform="translate(28.7794,34.0063)"><path
             d="m 0,0 -1.278,-1.933 c -2.582,0.235 -8.716,2.179 -12.369,6.209 -3.657,-4.03 -9.688,-5.974 -12.377,-6.209 L -27.296,0 c 2.585,0.379 9.751,3.621 11.229,8.589 h 4.828 C -9.751,3.621 -2.582,0.347 0,0 m 1.516,12.825 v -2.21 h -30.295 v 2.21 h 12.885 v 3.029 h -7.129 c -1.244,0 -2.309,0.972 -2.309,2.272 v 5.277 H -6.86 v 3.064 h -18.472 v 2.207 h 22.848 v -7.513 h -18.401 v -2.098 c 0,-0.701 0.239,-0.937 0.857,-0.937 h 17.954 v -2.272 h -9.339 v -3.029 z"
             style="fill:#898989;fill-opacity:1;fill-rule:nonzero;stroke:none"
             id="path22" /></g><path
           d="m 56.798,63.202 h 4.38 V 32.383 h -4.38 z M 45.904,43.722 c 1.722,0 2.689,-0.035 3.448,0.62 v 6.866 h -6.307 v 2.271 h 6.307 v 9.723 h 4.38 V 32.383 h -4.38 v 9.584 c -0.621,-0.351 -1.726,-0.554 -3.448,-0.554 h -8.996 c -1.789,0 -2.963,1.345 -2.963,2.929 V 61.985 H 46.49 v -2.3 H 38.359 V 44.867 c 0,-0.69 0.24,-1.145 1.067,-1.145 z"
           style="fill:#898989;fill-opacity:1;fill-rule:nonzero;stroke:none"
           id="path24" /><g
           id="g26"
           transform="translate(73.5457,35.7902)"><path
             d="M 0,0 C 0,-0.575 0,-1.128 1.136,-1.128 H 18.925 V -3.407 H -2.17 c -2.274,0 -2.274,1.661 -2.274,2.832 v 6.4 H 0 Z m 9.063,26.89 v -1.345 c 0,-5.172 5.934,-8.966 10.655,-9.924 L 18.647,13.932 C 15.992,13.965 8.995,16.275 6.557,20.066 4.309,16.579 -1.549,14.207 -5.308,14.002 L -6.372,15.65 C -0.999,16.579 4.17,20.652 4.17,25.545 V 26.89 Z M 22.233,8.312 H -8.064 v 2.279 h 12.55 v 4.651 h 4.477 v -4.651 h 13.27 z"
             style="fill:#898989;fill-opacity:1;fill-rule:nonzero;stroke:none"
             id="path28" /></g><g
           id="g30"
           transform="translate(116.1434,63.2019)"><path
             d="M 0,0 H 4.348 V -10.721 H 6.79 V 0 h 4.415 V -30.819 H 6.79 v 17.824 H 4.348 V -30.819 H 0 Z m -9.507,-20.58 c 2.065,0 3.418,3.035 3.418,7.101 0,4.071 -1.353,6.791 -3.418,6.791 -2.036,0 -3.377,-2.72 -3.377,-6.791 0,-4.066 1.341,-7.101 3.377,-7.101 m -4.515,14.235 h -3.622 v 2.266 h 5.861 v 3.975 h 4.409 v -3.975 h 6.029 v -2.266 h -3.648 c 1.752,-1.347 2.999,-4.206 2.999,-7.102 0,-4.619 -2.381,-9.343 -7.513,-9.343 -5.133,0 -7.519,4.724 -7.519,9.343 0,2.896 1.213,5.755 3.004,7.102"
             style="fill:#898989;fill-opacity:1;fill-rule:nonzero;stroke:none"
             id="path32" /></g><g
           id="g34"
           transform="translate(139.69,49.5176)"><path
             d="M 0,0 C 0,-0.525 0.203,-0.793 0.789,-0.793 H 13.781 V 5.136 H 0 Z m 0,12.782 v -5.37 h 13.781 v 5.37 h 4.381 V -3.072 H 9.438 v -5.82 h 12.825 v -2.274 H -8.071 v 2.274 H 4.858 v 5.82 h -6.515 c -1.83,0 -2.798,1.11 -2.798,2.799 v 13.055 z"
             style="fill:#898989;fill-opacity:1;fill-rule:nonzero;stroke:none"
             id="path36" /></g><g
           id="g38"
           transform="translate(174.2526,35.1406)"><path
             d="M 0,0 C 0,-0.511 0.203,-0.788 0.8,-0.788 H 13.238 V 5.794 H 0 Z m -0.69,12.785 c 2.347,0 3.72,2.346 3.72,5.032 0,2.694 -1.373,5.039 -3.72,5.039 -2.345,0 -3.719,-2.345 -3.719,-5.039 0,-2.686 1.374,-5.032 3.719,-5.032 M -1.655,-3.067 c -1.82,0 -2.79,1.103 -2.79,2.79 V 8.03 H 17.712 V -3.067 Z m -4.787,26.056 h -4.136 v 2.214 h 7.65 v 3.583 H 1.555 V 25.203 H 9.171 V 22.989 H 5.075 c 1.167,-0.997 1.956,-2.273 2.264,-3.758 h 5.968 v 8.83 h 4.44 V 9.862 h -4.44 v 7.062 H 7.408 c -0.41,-3.652 -3.446,-6.168 -8.098,-6.168 -5.032,0 -8.164,2.934 -8.164,7.061 0,2.111 0.82,3.9 2.412,5.172"
             style="fill:#898989;fill-opacity:1;fill-rule:nonzero;stroke:none"
             id="path40" /></g></g></g></g></svg>
