<?xml version="1.0" encoding="UTF-8" standalone="no"?>
<svg
   xmlns:dc="http://purl.org/dc/elements/1.1/"
   xmlns:cc="http://creativecommons.org/ns#"
   xmlns:rdf="http://www.w3.org/1999/02/22-rdf-syntax-ns#"
   xmlns:svg="http://www.w3.org/2000/svg"
   xmlns="http://www.w3.org/2000/svg"
   xmlns:sodipodi="http://sodipodi.sourceforge.net/DTD/sodipodi-0.dtd"
   xmlns:inkscape="http://www.inkscape.org/namespaces/inkscape"
   version="1.1"
   id="svg2"
   xml:space="preserve"
   width="256"
   height="128"
   viewBox="0 0 256 128"
   sodipodi:docname="미래애셋.ai"><metadata
     id="metadata8"><rdf:RDF><cc:Work
         rdf:about=""><dc:format>image/svg+xml</dc:format><dc:type
           rdf:resource="http://purl.org/dc/dcmitype/StillImage" /></cc:Work></rdf:RDF></metadata><defs
     id="defs6"><clipPath
       clipPathUnits="userSpaceOnUse"
       id="clipPath18"><path
         d="M 0,96 H 192 V 0 H 0 Z"
         id="path16" /></clipPath></defs><sodipodi:namedview
     pagecolor="#ffffff"
     bordercolor="#666666"
     borderopacity="1"
     objecttolerance="10"
     gridtolerance="10"
     guidetolerance="10"
     inkscape:pageopacity="0"
     inkscape:pageshadow="2"
     inkscape:window-width="640"
     inkscape:window-height="480"
     id="namedview4" /><g
     id="g10"
     inkscape:groupmode="layer"
     inkscape:label="미래애셋"
     transform="matrix(1.3333333,0,0,-1.3333333,0,128)"><g
       id="g12"><g
         id="g14"
         clip-path="url(#clipPath18)"><g
           id="g20"
           transform="translate(167.3104,55.1901)"><path
             d="M 0,0 C 0.088,0.044 0.167,0.086 0.247,0.122 0.167,0.086 0.088,0.044 0,0"
             style="fill:#004889;fill-opacity:1;fill-rule:nonzero;stroke:none"
             id="path22" /></g><g
           id="g24"
           transform="translate(167.7658,55.4144)"><path
             d="M 0,0 C 0.022,0.013 0.044,0.021 0.059,0.028 0.044,0.021 0.022,0.013 0,0"
             style="fill:#004889;fill-opacity:1;fill-rule:nonzero;stroke:none"
             id="path26" /></g><g
           id="g28"
           transform="translate(185.7128,78.0956)"><path
             d="m 0,0 c -2.983,-11.39 -12.302,-18.263 -15.017,-20.481 l 0.29,-0.383 c 6.619,3.783 17.882,10.866 21.014,23.86 z"
             style="fill:#f08311;fill-opacity:1;fill-rule:nonzero;stroke:none"
             id="path30" /></g><g
           id="g32"
           transform="translate(167.5571,55.3124)"><path
             d="M 0,0 C 0.072,0.03 0.143,0.066 0.209,0.102 0.143,0.066 0.072,0.03 0,0"
             style="fill:#004889;fill-opacity:1;fill-rule:nonzero;stroke:none"
             id="path34" /></g><g
           id="g36"
           transform="translate(167.2462,55.1536)"><path
             d="M 0,0 C 0.022,0.016 0.051,0.021 0.064,0.037 0.051,0.021 0.022,0.016 0,0"
             style="fill:#004889;fill-opacity:1;fill-rule:nonzero;stroke:none"
             id="path38" /></g><g
           id="g40"
           transform="translate(25.6332,36.6074)"><path
             d="m 0,0 h 5.379 c 0.181,1.193 2.577,17.961 2.8,19.528 H 2.8 C 2.635,18.337 0.23,1.567 0,0"
             style="fill:#004889;fill-opacity:1;fill-rule:nonzero;stroke:none"
             id="path42" /></g><g
           id="g44"
           transform="translate(69.6473,36.6074)"><path
             d="m 0,0 h 12.611 c 0.124,0.86 0.44,3.118 0.6,4.216 H 5.573 l 0.512,3.612 h 6.937 c 0.116,0.836 0.411,2.865 0.563,3.932 h -6.93 l 0.506,3.552 h 7.435 c 0.123,0.86 0.455,3.126 0.607,4.216 H 2.801 C 2.635,18.337 0.224,1.567 0,0"
             style="fill:#004889;fill-opacity:1;fill-rule:nonzero;stroke:none"
             id="path46" /></g><g
           id="g48"
           transform="translate(12.5529,44.9537)"><path
             d="m 0,0 -1.531,11.182 h -6.518 c -0.289,-1.002 -3.999,-17.78 -4.504,-19.528 h 4.843 c 1.003,3.922 2.83,13.052 2.952,13.673 L -3.031,-8.346 H 0.822 C 1.184,-7.471 6.67,5.327 6.67,5.327 L 5.861,-8.346 h 4.874 c -0.014,1.387 0.894,18.157 0.879,19.528 H 4.851 C 4.504,10.288 0,0 0,0"
             style="fill:#004889;fill-opacity:1;fill-rule:nonzero;stroke:none"
             id="path50" /></g><g
           id="g52"
           transform="translate(58.386,44.5929)"><path
             d="M 0,0 3.089,7.247 4.092,0 Z M 6.93,11.543 H 0.397 C 0.02,10.719 -7.429,-6.064 -8.309,-7.986 h 5.233 c 0.282,0.659 1.603,3.95 1.603,3.95 l 6.079,0.008 c 0,0 0.345,-3.183 0.468,-3.958 H 10.23 C 9.948,-6.367 7.132,10.401 6.93,11.543"
             style="fill:#004889;fill-opacity:1;fill-rule:nonzero;stroke:none"
             id="path54" /></g><g
           id="g56"
           transform="translate(45.2408,49.769)"><path
             d="m 0,0 c 0,0 -0.159,-1.496 -1.142,-1.965 0,0 -0.679,-0.439 -1.797,-0.467 h -1.719 c 0.405,2.843 0.73,5.131 0.73,5.131 h 1.206 c 0.809,0 1.725,-0.086 2.295,-0.743 C -0.022,1.487 0.114,0.829 0,0 M 5.218,-0.072 C 5.283,0.39 5.319,0.836 5.319,1.249 5.319,2.628 4.958,3.733 4.251,4.554 2.952,6.049 0.728,6.367 -0.918,6.367 h -7.363 c -0.181,-1.191 -2.584,-17.961 -2.808,-19.529 h 4.894 c 0.094,0.6 0.773,5.344 1.358,9.488 l 4.057,-9.488 H 4.438 L 0.49,-4.931 c 2.39,0.441 4.26,1.149 4.728,4.859"
             style="fill:#004889;fill-opacity:1;fill-rule:nonzero;stroke:none"
             id="path58" /></g><g
           id="g60"
           transform="translate(155.4642,56.1284)"><path
             d="M 0,0 C -0.122,-0.816 -0.49,-3.378 -0.678,-4.643 3.119,-3.58 7.702,-2.059 11.948,0 Z"
             style="fill:#004889;fill-opacity:1;fill-rule:nonzero;stroke:none"
             id="path62" /></g><g
           id="g64"
           transform="translate(168.8635,55.998)"><path
             d="m 0,0 c -0.296,-0.172 -0.65,-0.361 -1.038,-0.555 -0.016,-0.008 -0.037,-0.015 -0.06,-0.029 -0.065,-0.035 -0.136,-0.071 -0.208,-0.102 -0.08,-0.036 -0.159,-0.078 -0.247,-0.122 -0.014,-0.015 -0.042,-0.021 -0.064,-0.036 -2.224,-1.085 -5.5,-2.476 -9.789,-3.877 -2.051,-0.679 -4.332,-1.35 -6.829,-1.999 h -0.022 c -0.332,-0.095 -0.678,-0.181 -1.025,-0.261 -0.021,-0.013 -0.051,-0.02 -0.073,-0.028 -0.323,-0.08 -0.671,-0.16 -1.01,-0.237 -0.035,-0.015 -0.065,-0.024 -0.1,-0.032 -0.333,-0.077 -0.664,-0.157 -0.997,-0.237 -0.05,-0.008 -0.101,-0.021 -0.152,-0.035 -0.122,-0.03 -0.26,-0.05 -0.382,-0.081 -0.195,-0.05 -0.39,-0.086 -0.593,-0.137 -0.064,-0.02 -0.129,-0.028 -0.193,-0.042 -0.319,-0.072 -0.636,-0.138 -0.953,-0.204 -0.081,-0.021 -0.16,-0.036 -0.246,-0.049 -0.311,-0.064 -0.614,-0.131 -0.931,-0.195 -0.094,-0.021 -0.188,-0.036 -0.289,-0.056 -0.297,-0.065 -0.6,-0.125 -0.903,-0.182 -0.115,-0.021 -0.224,-0.043 -0.339,-0.064 -0.297,-0.059 -0.592,-0.108 -0.881,-0.168 -0.129,-0.021 -0.26,-0.049 -0.382,-0.065 -0.289,-0.056 -0.585,-0.107 -0.874,-0.157 -0.138,-0.023 -0.274,-0.044 -0.412,-0.072 -0.02,0 -0.029,0 -0.034,-0.009 -0.268,-0.043 -0.551,-0.087 -0.825,-0.136 -0.151,-0.023 -0.303,-0.044 -0.462,-0.072 -0.273,-0.044 -0.548,-0.088 -0.83,-0.129 -0.166,-0.031 -0.331,-0.052 -0.506,-0.081 -0.274,-0.044 -0.54,-0.079 -0.815,-0.123 -0.173,-0.029 -0.361,-0.049 -0.541,-0.078 -0.26,-0.037 -0.535,-0.072 -0.793,-0.109 -0.196,-0.023 -0.398,-0.059 -0.593,-0.08 -0.26,-0.036 -0.519,-0.064 -0.779,-0.1 -0.202,-0.028 -0.42,-0.051 -0.622,-0.08 -0.26,-0.029 -0.513,-0.057 -0.764,-0.094 -0.224,-0.023 -0.441,-0.043 -0.657,-0.067 -0.261,-0.035 -0.506,-0.056 -0.76,-0.085 -0.231,-0.022 -0.461,-0.051 -0.699,-0.072 -0.244,-0.028 -0.491,-0.051 -0.744,-0.08 -0.237,-0.02 -0.483,-0.043 -0.729,-0.064 -0.238,-0.029 -0.484,-0.044 -0.729,-0.065 h -0.029 c -0.245,-0.029 -0.484,-0.044 -0.736,-0.065 -0.231,-0.023 -0.476,-0.036 -0.714,-0.059 -0.268,-0.02 -0.534,-0.044 -0.802,-0.064 -0.238,-0.014 -0.469,-0.029 -0.7,-0.052 -0.274,-0.013 -0.555,-0.028 -0.837,-0.05 -0.231,-0.014 -0.47,-0.028 -0.701,-0.043 -0.288,-0.013 -0.569,-0.029 -0.858,-0.049 -0.239,-0.008 -0.471,-0.024 -0.702,-0.031 h -0.042 c -0.282,-0.02 -0.556,-0.028 -0.845,-0.041 -0.231,-0.008 -0.462,-0.016 -0.693,-0.031 -0.303,-0.006 -0.606,-0.021 -0.909,-0.028 -0.232,-0.014 -0.455,-0.014 -0.686,-0.022 -0.311,-0.007 -0.629,-0.015 -0.945,-0.028 -0.225,0 -0.449,0 -0.68,-0.008 -0.317,-0.008 -0.641,-0.015 -0.967,-0.015 -0.223,-0.008 -0.454,-0.008 -0.685,-0.014 h -0.99 -0.303 -0.374 -1.011 c -0.231,0.006 -0.464,0.014 -0.686,0.014 -0.339,0.007 -0.679,0.007 -1.027,0.015 -0.229,0.008 -0.46,0.008 -0.691,0.014 -0.348,0.007 -0.693,0.015 -1.04,0.03 -0.238,0 -0.478,0.014 -0.709,0.021 -0.352,0.015 -0.693,0.021 -1.047,0.044 -0.244,0 -0.481,0.014 -0.728,0.021 -0.354,0.023 -0.692,0.035 -1.045,0.051 -0.203,0.008 -0.39,0.028 -0.594,0.028 -0.05,0.008 -0.099,0.008 -0.15,0.016 -0.356,0.013 -0.709,0.035 -1.062,0.056 -0.246,0.016 -0.498,0.029 -0.743,0.044 -0.354,0.029 -0.708,0.044 -1.077,0.073 -0.252,0.021 -0.518,0.041 -0.779,0.064 -0.354,0.021 -0.708,0.044 -1.061,0.073 -0.273,0.028 -0.556,0.049 -0.837,0.072 -0.34,0.029 -0.673,0.065 -1.018,0.093 -0.339,0.029 -0.671,0.065 -1.01,0.101 -0.29,0.029 -0.585,0.051 -0.867,0.088 -0.636,0.056 -1.271,0.129 -1.906,0.201 l 4.166,3.913 c 0,0 2.418,-0.729 5.759,-1.329 -0.627,3.777 -1.19,7.097 -1.277,7.581 h -6.525 c -0.384,-0.824 -7.833,-17.607 -8.714,-19.529 h 5.241 c 0.282,0.659 2.035,4.852 2.035,4.852 h 5.459 c 0,0 0.534,-4.077 0.649,-4.852 h 5.161 c -0.108,0.63 -0.614,3.582 -1.191,7.004 3.681,-0.208 7.372,-0.252 10.8,-0.202 0.173,-0.288 0.259,-0.6 0.259,-0.939 0,-0.115 0,-0.232 -0.02,-0.353 -0.087,-0.442 -0.311,-0.8 -0.665,-1.053 -0.714,-0.499 -1.733,-0.391 -2.433,-0.269 -1.667,0.297 -2.981,1.56 -4.049,2.608 -0.68,-1.098 -2.08,-3.38 -2.541,-4.131 1.977,-1.782 4.1,-2.879 6.345,-3.192 2.274,-0.345 4.526,0.169 6.201,1.403 1.458,1.075 2.374,2.649 2.664,4.54 0.094,0.548 0.122,1.068 0.1,1.56 3.682,0.15 6.736,0.39 8.707,0.555 0.641,-0.469 0.974,-1.024 0.974,-1.668 0,-0.115 -0.014,-0.232 -0.029,-0.353 -0.079,-0.442 -0.31,-0.8 -0.664,-1.053 -0.715,-0.499 -1.732,-0.391 -2.432,-0.269 -1.669,0.297 -2.996,1.56 -4.058,2.608 -0.671,-1.098 -2.078,-3.38 -2.534,-4.131 1.971,-1.782 4.094,-2.879 6.346,-3.192 2.275,-0.345 4.526,0.169 6.193,1.403 1.467,1.075 2.383,2.649 2.672,4.54 0.173,1.061 0.138,2.014 -0.124,2.866 0.838,0.115 1.639,0.238 2.411,0.361 -0.59,-4.094 -1.139,-7.927 -1.247,-8.643 h 12.619 c 0.114,0.86 0.446,3.119 0.597,4.216 h -7.636 l 0.512,3.613 h 6.931 c 0.114,0.748 0.36,2.452 0.512,3.564 0.952,0.302 1.422,0.483 1.422,0.483 0,0 2.346,0.7 5.378,1.828 -0.44,-3.062 -1.776,-12.402 -1.963,-13.704 h 5.464 c 0.158,1.157 2.108,14.67 2.108,14.67 h 3.941 c 0.123,0.838 0.499,3.516 0.673,4.737 C 0.028,0.008 0.014,0.008 0,0"
             style="fill:#004889;fill-opacity:1;fill-rule:nonzero;stroke:none"
             id="path66" /></g><g
           id="g68"
           transform="translate(110.4552,47.841)"><path
             d="M 0,0 C 2.439,-0.186 5.783,-0.338 9.63,-0.368 9.161,0 8.612,0.325 7.969,0.607 7.947,0.621 6.555,1.321 6.555,1.321 L 6.532,1.329 6.512,1.342 C 6.057,1.603 4.981,2.225 4.981,3.27 4.989,3.776 5.19,4.223 5.552,4.52 5.999,4.894 6.671,5.031 7.407,4.909 8.331,4.758 9.392,4.158 10.554,3.161 11.111,4.223 12.163,6.252 12.547,6.98 11.211,8.085 9.911,8.671 7.984,9.017 5.602,9.363 3.299,8.865 1.681,7.638 0.318,6.591 -0.527,5.068 -0.751,3.219 -0.787,2.902 -0.808,2.599 -0.808,2.31 -0.808,1.445 -0.649,0.686 -0.346,0.022 -0.231,0.015 -0.115,0.007 0,0"
             style="fill:#004889;fill-opacity:1;fill-rule:nonzero;stroke:none"
             id="path70" /></g><g
           id="g72"
           transform="translate(134.6164,47.9767)"><path
             d="m 0,0 c -0.282,0.168 -0.585,0.326 -0.916,0.471 -0.029,0.015 -1.423,0.715 -1.423,0.715 l -0.014,0.007 -0.022,0.014 c -0.462,0.26 -1.529,0.883 -1.529,1.928 0,0.505 0.201,0.952 0.562,1.249 0.455,0.375 1.126,0.512 1.856,0.389 C -0.555,4.622 0.499,4.022 1.66,3.026 2.216,4.087 3.271,6.116 3.653,6.844 2.318,7.949 1.024,8.535 -0.909,8.881 -3.291,9.227 -5.594,8.729 -7.204,7.503 -8.568,6.455 -9.412,4.932 -9.643,3.083 -9.673,2.766 -9.695,2.464 -9.695,2.175 c 0,-1.018 0.21,-1.899 0.636,-2.634 C -6.143,-0.395 -3.089,-0.25 0,0"
             style="fill:#004889;fill-opacity:1;fill-rule:nonzero;stroke:none"
             id="path74" /></g><g
           id="g76"
           transform="translate(145.5095,51.9192)"><path
             d="M 0,0 H 7.436 C 7.559,0.86 7.884,3.126 8.043,4.217 H -4.36 C -4.438,3.71 -4.908,0.382 -5.45,-3.385 c 1.71,0.217 3.408,0.463 5.074,0.757 z"
             style="fill:#004889;fill-opacity:1;fill-rule:nonzero;stroke:none"
             id="path78" /></g><g
           id="g80"
           transform="translate(69.1204,30.7478)"><path
             d="M 0,0 -2.722,-15.421 H -5.4 L -2.686,0 Z m -12.114,-2.447 -1.603,-9.024 h 3.784 l 1.58,9.024 z m 6.823,2.129 -2.354,-13.327 h -6.894 c -0.744,0 -1.271,0.152 -1.574,0.462 -0.317,0.297 -0.418,0.744 -0.31,1.335 l 2.028,11.53 z"
             style="fill:#004889;fill-opacity:1;fill-rule:nonzero;stroke:none"
             id="path82" /></g><g
           id="g84"
           transform="translate(79.2338,30.4222)"><path
             d="m 0,0 -1.264,-7.154 h -3.5 l -0.744,-4.187 h 4.749 L 1.307,0.326 H 3.985 L 2.908,-5.796 H 4.902 L 5.985,0.326 H 8.67 L 5.948,-15.095 H 3.284 l 1.277,7.306 H 2.563 l -1.277,-7.313 h -2.702 l 0.319,1.791 h -5.104 c -0.758,0 -1.306,0.149 -1.645,0.433 -0.341,0.31 -0.462,0.749 -0.363,1.335 l 1.076,6.077 h 3.486 l 0.608,3.525 H -6.512 L -6.164,0 Z"
             style="fill:#004889;fill-opacity:1;fill-rule:nonzero;stroke:none"
             id="path86" /></g><g
           id="g88"
           transform="translate(106.4276,30.7478)"><path
             d="M 0,0 -2.722,-15.421 H -5.328 L -2.614,0 Z m -13.261,-3.171 c -0.42,-0.973 -0.781,-2.251 -1.062,-3.839 -0.295,-1.683 -0.397,-3.018 -0.325,-4.014 0.073,-1.069 0.368,-1.603 0.874,-1.603 0.484,0 0.96,0.534 1.422,1.603 0.433,0.996 0.794,2.331 1.089,4.014 0.275,1.588 0.376,2.866 0.297,3.839 -0.088,1.057 -0.382,1.588 -0.859,1.588 -0.506,0 -0.982,-0.531 -1.436,-1.588 m 3.472,-4.936 0.381,1.991 h 1.777 l 1.082,6.123 h 2.594 l -2.716,-15.42 h -2.612 l 1.291,7.306 z m 0.989,0.844 c -0.405,-2.049 -1.04,-3.71 -1.935,-4.982 -0.945,-1.364 -2.057,-2.05 -3.32,-2.05 -1.293,0 -2.173,0.715 -2.642,2.137 -0.433,1.314 -0.464,3.031 -0.088,5.148 0.354,2.035 0.982,3.71 1.87,5.004 0.975,1.399 2.108,2.099 3.393,2.099 1.112,0 1.921,-0.527 2.433,-1.604 0.469,-0.994 0.636,-2.331 0.505,-4.004 0,0 -0.022,-0.499 -0.216,-1.748"
             style="fill:#004889;fill-opacity:1;fill-rule:nonzero;stroke:none"
             id="path90" /></g><g
           id="g92"
           transform="translate(119.3567,18.2652)"><path
             d="M 0,0 C 0.994,-0.752 2.237,-1.235 3.74,-1.458 L 2.346,-2.987 c -1.292,0.222 -2.455,0.613 -3.479,1.167 -1.033,0.585 -1.747,1.242 -2.152,1.979 -0.621,-0.737 -1.596,-1.401 -2.902,-1.999 -1.306,-0.585 -2.707,-0.997 -4.188,-1.22 l -0.75,1.509 c 1.552,0.201 3.003,0.691 4.345,1.479 1.568,0.924 2.455,1.999 2.664,3.206 h 2.679 C -1.654,1.927 -1.17,0.873 0,0 M 5.587,12.483 4.042,3.682 h -2.65 l 1.546,8.801 z m -3.955,0 -1.553,-8.794 h -2.643 l 0.76,4.308 h -1.914 l 0.311,1.742 h 1.913 l 0.484,2.744 z M -4.75,12.358 C -5.097,10.388 -5.134,8.836 -4.866,7.696 -4.613,6.591 -4.043,5.739 -3.148,5.124 L -4.736,4.007 C -5.321,4.396 -5.833,4.915 -6.267,5.558 -6.526,5.912 -6.794,6.382 -7.075,6.967 -7.48,6.475 -7.904,6.013 -8.368,5.574 -9.039,4.938 -9.739,4.396 -10.461,3.971 l -1.17,1.14 c 1.098,0.679 1.942,1.495 2.542,2.456 0.758,1.169 1.299,2.765 1.668,4.791 z"
             style="fill:#004889;fill-opacity:1;fill-rule:nonzero;stroke:none"
             id="path94" /></g><g
           id="g96"
           transform="translate(140.06,20.4101)"><path
             d="m 0,0 c 1.054,-0.606 1.495,-1.35 1.343,-2.238 -0.151,-0.881 -0.867,-1.624 -2.13,-2.231 -1.407,-0.686 -3.219,-1.033 -5.428,-1.033 -2.216,0 -3.913,0.347 -5.098,1.033 -1.068,0.607 -1.508,1.35 -1.365,2.231 0.161,0.873 0.882,1.625 2.161,2.238 1.421,0.692 3.233,1.033 5.457,1.033 C -2.852,1.033 -1.163,0.692 0,0 m -8.671,-1.169 c -0.786,-0.289 -1.22,-0.644 -1.292,-1.069 -0.064,-0.405 0.239,-0.759 0.918,-1.054 0.751,-0.319 1.796,-0.476 3.139,-0.476 1.329,0 2.42,0.157 3.286,0.476 0.78,0.287 1.212,0.636 1.284,1.054 0.08,0.425 -0.223,0.78 -0.909,1.069 -0.744,0.318 -1.783,0.483 -3.118,0.483 -1.336,0 -2.441,-0.165 -3.308,-0.483 m 5.365,11.507 h 2.67 l -0.65,-3.633 h 1.401 l 0.643,3.633 h 2.65 L 1.863,1.596 h -2.65 l 0.585,3.312 H -1.595 L -2.187,1.596 H -4.851 L -4.8,1.846 Z M -6.923,10.213 -7.255,8.344 c -0.187,-1.089 -0.108,-2.107 0.26,-3.046 0.369,-0.909 0.996,-1.66 1.87,-2.239 L -6.699,1.949 C -7.313,2.368 -7.861,2.858 -8.338,3.429 -8.749,3.919 -9.045,4.366 -9.241,4.787 -9.6,4.324 -10.027,3.868 -10.517,3.429 -11.167,2.858 -11.882,2.36 -12.618,1.934 l -1.184,1.125 c 1.038,0.615 1.869,1.33 2.489,2.131 0.701,0.903 1.163,1.949 1.372,3.133 l 0.332,1.89 z"
             style="fill:#004889;fill-opacity:1;fill-rule:nonzero;stroke:none"
             id="path98" /></g><g
           id="g100"
           transform="translate(158.4095,20.4512)"><path
             d="m 0,0 c 1.047,-0.611 1.488,-1.378 1.329,-2.279 -0.166,-0.876 -0.88,-1.618 -2.145,-2.223 -1.414,-0.694 -3.232,-1.033 -5.471,-1.033 -2.209,0 -3.905,0.339 -5.076,1.033 -1.031,0.605 -1.478,1.347 -1.32,2.223 0.159,0.901 0.858,1.668 2.116,2.279 1.422,0.687 3.241,1.033 5.442,1.033 C -2.88,1.033 -1.176,0.687 0,0 m -8.735,-1.174 c -0.742,-0.297 -1.16,-0.659 -1.233,-1.084 -0.081,-0.418 0.209,-0.765 0.866,-1.054 0.721,-0.326 1.768,-0.497 3.134,-0.497 1.385,0 2.503,0.171 3.348,0.497 0.766,0.289 1.184,0.636 1.264,1.054 0.071,0.425 -0.217,0.787 -0.881,1.084 -0.735,0.323 -1.804,0.483 -3.183,0.483 -1.364,0 -2.47,-0.16 -3.315,-0.483 M -0.303,5.055 0.08,7.184 H -2.475 L -2.851,5.055 Z M -8.698,8.252 -9.449,4.038 h 3.747 l 0.751,4.214 z m 6.714,1.726 -0.195,-1.084 h 2.555 l 0.246,1.403 H 3.307 L 1.77,1.555 h -2.685 l 0.317,1.81 H -3.155 L -3.349,2.247 h -6.858 c -0.743,0 -1.27,0.159 -1.595,0.469 -0.304,0.302 -0.405,0.743 -0.304,1.314 l 1.047,5.948 z"
             style="fill:#004889;fill-opacity:1;fill-rule:nonzero;stroke:none"
             id="path102" /></g></g></g></g></svg>
