<?xml version="1.0" encoding="UTF-8" standalone="no"?>
<svg
   xmlns:dc="http://purl.org/dc/elements/1.1/"
   xmlns:cc="http://creativecommons.org/ns#"
   xmlns:rdf="http://www.w3.org/1999/02/22-rdf-syntax-ns#"
   xmlns:svg="http://www.w3.org/2000/svg"
   xmlns="http://www.w3.org/2000/svg"
   xmlns:sodipodi="http://sodipodi.sourceforge.net/DTD/sodipodi-0.dtd"
   xmlns:inkscape="http://www.inkscape.org/namespaces/inkscape"
   version="1.1"
   id="svg2"
   xml:space="preserve"
   width="256"
   height="128"
   viewBox="0 0 256 128"
   sodipodi:docname="dd3dcbfb7cae3bff2966d910262dd9592263341459baf2ec5aa0b3ff4728a8892f3a9562821c27187464d93dd86ac5a000560cce8c63df177575ba08c141ee6dd8d8c2ed5b92c479815d59e5b545db68f1d400cc8d67bc25c42b5204aab496fb.ai"><metadata
     id="metadata8"><rdf:RDF><cc:Work
         rdf:about=""><dc:format>image/svg+xml</dc:format><dc:type
           rdf:resource="http://purl.org/dc/dcmitype/StillImage" /></cc:Work></rdf:RDF></metadata><defs
     id="defs6"><linearGradient
       x1="0"
       y1="0"
       x2="1"
       y2="0"
       gradientUnits="userSpaceOnUse"
       gradientTransform="matrix(-5.5312409,31.369215,-31.369215,-5.5312409,14.362897,24.627314)"
       spreadMethod="pad"
       id="linearGradient32"><stop
         style="stop-opacity:1;stop-color:#55c3f1"
         offset="0"
         id="stop24" /><stop
         style="stop-opacity:1;stop-color:#55c3f1"
         offset="0.149994"
         id="stop26" /><stop
         style="stop-opacity:1;stop-color:#55c3f1"
         offset="0.471731"
         id="stop28" /><stop
         style="stop-opacity:1;stop-color:#0068b7"
         offset="1"
         id="stop30" /></linearGradient><linearGradient
       x1="0"
       y1="0"
       x2="1"
       y2="0"
       gradientUnits="userSpaceOnUse"
       gradientTransform="matrix(31.111017,11.323488,-11.323488,31.111017,9.4368687,54.699444)"
       spreadMethod="pad"
       id="linearGradient56"><stop
         style="stop-opacity:1;stop-color:#55c3f1"
         offset="0"
         id="stop48" /><stop
         style="stop-opacity:1;stop-color:#55c3f1"
         offset="0.149994"
         id="stop50" /><stop
         style="stop-opacity:1;stop-color:#55c3f1"
         offset="0.471731"
         id="stop52" /><stop
         style="stop-opacity:1;stop-color:#0068b7"
         offset="1"
         id="stop54" /></linearGradient><linearGradient
       x1="0"
       y1="0"
       x2="1"
       y2="0"
       gradientUnits="userSpaceOnUse"
       gradientTransform="matrix(-5.512681,-31.263943,31.263943,-5.512681,45.222439,55.491489)"
       spreadMethod="pad"
       id="linearGradient80"><stop
         style="stop-opacity:1;stop-color:#55c3f1"
         offset="0"
         id="stop72" /><stop
         style="stop-opacity:1;stop-color:#55c3f1"
         offset="0.149994"
         id="stop74" /><stop
         style="stop-opacity:1;stop-color:#55c3f1"
         offset="0.471731"
         id="stop76" /><stop
         style="stop-opacity:1;stop-color:#0068b7"
         offset="1"
         id="stop78" /></linearGradient><clipPath
       clipPathUnits="userSpaceOnUse"
       id="clipPath90"><path
         d="M 0,96 H 192 V 0 H 0 Z"
         id="path88" /></clipPath></defs><sodipodi:namedview
     pagecolor="#ffffff"
     bordercolor="#666666"
     borderopacity="1"
     objecttolerance="10"
     gridtolerance="10"
     guidetolerance="10"
     inkscape:pageopacity="0"
     inkscape:pageshadow="2"
     inkscape:window-width="640"
     inkscape:window-height="480"
     id="namedview4" /><g
     id="g10"
     inkscape:groupmode="layer"
     inkscape:label="dd3dcbfb7cae3bff2966d910262dd9592263341459baf2ec5aa0b3ff4728a8892f3a9562821c27187464d93dd86ac5a000560cce8c63df177575ba08c141ee6dd8d8c2ed5b92c479815d59e5b545db68f1d400cc8d67bc25c42b5204aab496fb"
     transform="matrix(1.3333333,0,0,-1.3333333,0,128)"><g
       id="g12"><g
         id="g14"><g
           id="g20"><g
             id="g22"><path
               d="M 0,40.861 C 0,31.992 7.195,24.795 16.069,24.795 v 0 c 2.841,0 5.512,0.743 7.828,2.032 v 0 10.375 c -1.359,-1.778 -3.5,-2.93 -5.912,-2.93 v 0 c -4.103,0 -7.429,3.329 -7.429,7.431 v 0 c 0,1.945 0.75,3.719 1.973,5.041 v 0 c -1.283,2.355 -2.007,5.046 -2.007,7.913 v 0 c 0,0.439 0.017,0.881 0.052,1.311 v 0 C 4.406,53.725 0,47.808 0,40.861"
               style="fill:url(#linearGradient32);stroke:none"
               id="path34" /></g></g></g></g><g
       id="g36"><g
         id="g38"><g
           id="g44"><g
             id="g46"><path
               d="m 10.522,54.657 c 0,-2.867 0.724,-5.558 2.007,-7.913 v 0 c 1.358,1.472 3.3,2.391 5.456,2.391 v 0 c 0.837,0 1.645,-0.141 2.398,-0.398 v 0 c -0.835,1.268 -1.324,2.784 -1.324,4.411 v 0 c 0,4.423 3.588,8.012 8.015,8.012 v 0 c 3.228,0 6.008,-1.911 7.274,-4.661 v 0 c 1.198,0.286 2.446,0.433 3.726,0.433 v 0 c 1.931,0 3.781,-0.337 5.494,-0.964 v 0 c -0.671,8.524 -7.801,15.236 -16.496,15.236 v 0 c -9.141,0 -16.55,-7.407 -16.55,-16.547"
               style="fill:url(#linearGradient56);stroke:none"
               id="path58" /></g></g></g></g><g
       id="g60"><g
         id="g62"><g
           id="g68"><g
             id="g70"><path
               d="m 34.348,56.499 c 0.472,-1.019 0.737,-2.153 0.737,-3.351 v 0 c 0,-1.627 -0.488,-3.143 -1.324,-4.405 v 0 c 0.752,0.251 1.555,0.392 2.395,0.392 v 0 c 4.103,0 7.433,-3.325 7.433,-7.432 v 0 c 0,-4.102 -3.33,-7.431 -7.433,-7.431 v 0 c -2.41,0 -4.552,1.147 -5.91,2.928 v 0 -10.373 c 2.317,-1.289 4.987,-2.032 7.828,-2.032 v 0 c 8.873,0 16.069,7.197 16.069,16.066 v 0 c 0,8.877 -7.196,16.071 -16.069,16.071 v 0 c -1.28,0 -2.528,-0.147 -3.726,-0.433"
               style="fill:url(#linearGradient80);stroke:none"
               id="path82" /></g></g></g></g><g
       id="g84"><g
         id="g86"
         clip-path="url(#clipPath90)"><g
           id="g92"
           transform="translate(95.1951,42.5416)"><path
             d="M 0,0 H 4.669 V -2.626 C 3.256,-3.934 1.4,-4.544 -0.456,-4.544 c -3.6,0 -6.402,2.295 -6.402,7.038 0,3.678 1.766,7.027 6.414,7.027 2.34,0 4.306,-0.944 4.985,-3.536 h 3.42 c -0.371,3.806 -3.405,6.745 -8.2,6.745 -6.215,0 -10.3,-3.844 -10.3,-10.389 0,-6.646 4.552,-10.214 10.295,-10.214 2.687,0 6.024,1.173 8.388,3.867 V 3.206 L 0,3.206 Z"
             style="fill:#00336d;fill-opacity:1;fill-rule:nonzero;stroke:none"
             id="path94" /></g><g
           id="g96"
           transform="translate(72.5861,40.1061)"><path
             d="M 0,0 -5.457,14.834 H -9.968 V -5.102 h 3.44 V 8.421 l 4.913,-13.286 h 3.23 L 6.527,8.421 V -5.102 H 9.97 V 14.834 H 5.459 Z"
             style="fill:#00336d;fill-opacity:1;fill-rule:nonzero;stroke:none"
             id="path98" /></g><g
           id="g100"
           transform="translate(128.3112,44.2596)"><path
             d="m 0,0 h -8.828 v 2.608 h -3.228 V 0 h -8.831 V -2.137 H 0 Z"
             style="fill:#00336d;fill-opacity:1;fill-rule:nonzero;stroke:none"
             id="path102" /></g><g
           id="g104"
           transform="translate(117.8687,50.0743)"><path
             d="m 0,0 c 1.47,-2.562 5.104,-3.537 8.781,-3.681 v 2.139 C 4.392,-1.307 1.635,1.351 1.635,4.033 V 5.338 H -1.637 V 4.033 c 0,-2.682 -2.756,-5.34 -7.144,-5.575 V -3.681 C -5.104,-3.537 -1.475,-2.562 0,0"
             style="fill:#00336d;fill-opacity:1;fill-rule:nonzero;stroke:none"
             id="path106" /></g><g
           id="g108"
           transform="translate(109.796,40.9387)"><path
             d="m 0,0 v -4.512 c 0,-1.042 0.858,-1.896 1.903,-1.896 h 14.475 v 2.134 H 3.206 l 0,4.274 z"
             style="fill:#00336d;fill-opacity:1;fill-rule:nonzero;stroke:none"
             id="path110" /></g><g
           id="g112"
           transform="translate(149.4692,55.4146)"><path
             d="M 0,0 H -3.061 V -6.763 H -4.768 V 0 h -3.066 v -20.884 h 3.066 v 11.866 h 1.707 V -20.884 H 0 Z"
             style="fill:#00336d;fill-opacity:1;fill-rule:nonzero;stroke:none"
             id="path114" /></g><g
           id="g116"
           transform="translate(130.005,45.9202)"><path
             d="m 0,0 c 0,-3.795 1.974,-6.644 4.986,-6.644 3.015,0 4.985,2.849 4.985,6.644 0,2.03 -0.563,3.789 -1.546,4.985 h 2.258 V 7.122 H 6.673 V 9.73 H 3.301 V 7.122 H -0.71 V 4.985 H 1.548 C 0.562,3.789 0,2.03 0,0 M 4.986,4.51 C 6.171,4.51 6.885,2.612 6.885,0 6.885,-2.611 6.171,-4.507 4.986,-4.507 3.798,-4.507 3.09,-2.611 3.09,0 c 0,2.612 0.708,4.51 1.896,4.51"
             style="fill:#00336d;fill-opacity:1;fill-rule:nonzero;stroke:none"
             id="path118" /></g><g
           id="g120"
           transform="translate(172.3608,39.0406)"><path
             d="m 0,0 h -8.832 v 3.797 h 6.456 v 11.627 h -3.202 v -3.559 h -9.731 v 3.559 h -3.206 V 5.693 c 0,-1.046 0.856,-1.896 1.899,-1.896 h 4.56 V 0 h -8.831 v -2.137 l 20.887,0 z m -15.309,9.731 h 9.732 V 5.932 h -9.732 z"
             style="fill:#00336d;fill-opacity:1;fill-rule:nonzero;stroke:none"
             id="path122" /></g><g
           id="g124"
           transform="translate(176.3354,42.5999)"><path
             d="M 0,0 V -6.174 C 0,-7.22 0.855,-8.07 1.897,-8.07 h 13.768 v 7.001 C 15.665,-0.477 15.189,0 14.596,0 Z M 12.459,-5.935 H 3.206 v 3.797 h 9.253 z"
             style="fill:#00336d;fill-opacity:1;fill-rule:nonzero;stroke:none"
             id="path126" /></g><g
           id="g128"
           transform="translate(192,55.4148)"><path
             d="m 0,0 h -3.205 v -5.341 h -3.17 c -0.249,0.716 -0.699,1.313 -1.326,1.782 h 2.479 v 2.133 h -5.197 v 1.899 h -3.369 v -1.899 h -5.201 v -2.133 h 2.485 c -0.98,-0.729 -1.53,-1.776 -1.53,-3.084 0,-2.708 2.347,-4.751 5.932,-4.751 3.15,0 5.346,1.581 5.832,3.799 h 3.065 v -4.273 H 0 Z m -12.102,-9.256 c -1.617,0 -2.614,1.092 -2.614,2.613 0,1.515 0.997,2.61 2.614,2.61 1.614,0 2.609,-1.095 2.609,-2.61 0,-1.521 -0.995,-2.613 -2.609,-2.613"
             style="fill:#00336d;fill-opacity:1;fill-rule:nonzero;stroke:none"
             id="path130" /></g></g></g></g></svg>
