<?xml version="1.0" encoding="UTF-8" standalone="no"?>
<svg
   xmlns:dc="http://purl.org/dc/elements/1.1/"
   xmlns:cc="http://creativecommons.org/ns#"
   xmlns:rdf="http://www.w3.org/1999/02/22-rdf-syntax-ns#"
   xmlns:svg="http://www.w3.org/2000/svg"
   xmlns="http://www.w3.org/2000/svg"
   xmlns:sodipodi="http://sodipodi.sourceforge.net/DTD/sodipodi-0.dtd"
   xmlns:inkscape="http://www.inkscape.org/namespaces/inkscape"
   version="1.1"
   id="svg2"
   xml:space="preserve"
   width="256"
   height="128"
   viewBox="0 0 256 128"
   sodipodi:docname="메리츠화재.ai"><metadata
     id="metadata8"><rdf:RDF><cc:Work
         rdf:about=""><dc:format>image/svg+xml</dc:format><dc:type
           rdf:resource="http://purl.org/dc/dcmitype/StillImage" /></cc:Work></rdf:RDF></metadata><defs
     id="defs6"><clipPath
       clipPathUnits="userSpaceOnUse"
       id="clipPath18"><path
         d="M 0,96 H 192 V 0 H 0 Z"
         id="path16" /></clipPath></defs><sodipodi:namedview
     pagecolor="#ffffff"
     bordercolor="#666666"
     borderopacity="1"
     objecttolerance="10"
     gridtolerance="10"
     guidetolerance="10"
     inkscape:pageopacity="0"
     inkscape:pageshadow="2"
     inkscape:window-width="640"
     inkscape:window-height="480"
     id="namedview4" /><g
     id="g10"
     inkscape:groupmode="layer"
     inkscape:label="메리츠화재"
     transform="matrix(1.3333333,0,0,-1.3333333,0,128)"><g
       id="g12"><g
         id="g14"
         clip-path="url(#clipPath18)"><g
           id="g20"
           transform="translate(176.8672,38.5095)"><path
             d="m 0,0 0.88,-1.548 c 0,0 2.52,1.196 3.318,3.166 0.798,-1.97 3.318,-3.166 3.318,-3.166 L 8.394,0 C 8.394,0 7.444,0.634 6.32,1.758 5.194,2.884 5.264,5.91 5.264,5.91 v 5.593 h 2.44 v 1.794 H 0.692 v -1.794 h 2.44 V 5.91 c 0,0 0.07,-3.026 -1.056,-4.152 C 0.95,0.634 0,0 0,0"
             style="fill:#656263;fill-opacity:1;fill-rule:nonzero;stroke:none"
             id="path22" /></g><g
           id="g24"
           transform="translate(115.004,46.0059)"><path
             d="M 0,0 H -2.104 V 5.812 H -8.93 V -8.832 h 6.826 v 6.948 H 0 v -9.769 H 2.102 V 6.01 H 0 Z M -4.188,-7.008 H -6.846 V 3.967 h 2.658 z"
             style="fill:#656263;fill-opacity:1;fill-rule:nonzero;stroke:none"
             id="path26" /></g><path
           d="m 118.734,34.137 h 2.102 v 17.999 h -2.102 z"
           style="fill:#656263;fill-opacity:1;fill-rule:nonzero;stroke:none"
           id="path28" /><g
           id="g30"
           transform="translate(173.7611,52.0282)"><path
             d="M 0,0 H -2.104 V -17.793 H 0 v 9.751 h 2.896 v 1.884 l -2.896,0 z"
             style="fill:#656263;fill-opacity:1;fill-rule:nonzero;stroke:none"
             id="path32" /></g><g
           id="g34"
           transform="translate(192,52.0462)"><path
             d="M 0,0 H -2.104 V -5.082 H -3.78 V 0.09 h -2.102 v -17.999 h 2.102 v 10.943 h 1.676 V -17.811 H 0 Z"
             style="fill:#656263;fill-opacity:1;fill-rule:nonzero;stroke:none"
             id="path36" /></g><g
           id="g38"
           transform="translate(130.6988,39.0575)"><path
             d="m 0,0 h -4.49 v 4.686 h 6.25 v 8.075 h -8.394 v -1.906 h 6.27 V 6.572 h -6.27 V -1.884 L -0.006,-1.872 0,-1.878 c 2.436,0 4.152,0.438 4.152,0.438 v 1.872 c 0,0 -1.72,-0.436 -4.152,-0.436 z"
             style="fill:#656263;fill-opacity:1;fill-rule:nonzero;stroke:none"
             id="path40" /></g><path
           d="m 136.269,34.137 h 2.164 v 17.999 h -2.164 z"
           style="fill:#656263;fill-opacity:1;fill-rule:nonzero;stroke:none"
           id="path42" /><path
           d="m 141.165,35.409 h 15.977 v 1.864 h -15.977 z"
           style="fill:#656263;fill-opacity:1;fill-rule:nonzero;stroke:none"
           id="path44" /><g
           id="g46"
           transform="translate(148.0517,53.0123)"><path
             d="M 0,0 V -2.182 H -5.69 V -4.068 H 0 c -0.04,-3.472 -2.792,-5.274 -6.402,-6.097 v -0.005 l 0.004,0.005 0.472,-1.768 c 3.048,0.584 5.682,1.968 7.016,4.037 0.004,-0.005 0.007,-0.011 0.01,-0.015 0.002,0.004 0.008,0.01 0.01,0.015 1.335,-2.069 3.971,-3.453 7.021,-4.037 l 0.472,1.768 0.004,-0.005 v 0.005 c -3.61,0.823 -6.366,2.625 -6.406,6.097 h 5.692 v 1.886 H 2.201 l 0,2.182 z"
             style="fill:#656263;fill-opacity:1;fill-rule:nonzero;stroke:none"
             id="path48" /></g><g
           id="g50"
           transform="translate(21.2471,52.8023)"><path
             d="M 0,0 C -2.418,0 -4.148,-0.794 -5.556,-2.814 -6.456,-1.048 -8.296,0 -10.859,0 c -1.948,0 -4.256,-1.01 -5.158,-2.596 v 2.056 h -5.23 v -17.929 h 5.482 v 10.317 c 0,1.622 1.048,3.102 2.958,3.102 1.984,0 2.886,-1.336 2.886,-3.03 v -10.389 h 5.411 v 10.353 c 0,1.586 1.048,3.066 2.994,3.066 1.948,0 2.85,-1.336 2.85,-3.03 V -18.469 H 6.636 V -6.854 C 6.636,-1.984 3.39,0 0,0"
             style="fill:#ee2d21;fill-opacity:1;fill-rule:nonzero;stroke:none"
             id="path52" /></g><g
           id="g54"
           transform="translate(61.0892,46.8499)"><path
             d="M 0,0 V 5.412 C -0.362,5.518 -0.904,5.59 -1.444,5.59 -2.888,5.59 -5.162,5.014 -6.1,2.994 v 2.418 h -5.305 v -17.929 h 5.485 v 7.827 c 0,3.572 1.986,4.87 4.188,4.87 C -1.19,0.18 -0.614,0.144 0,0"
             style="fill:#ee2d21;fill-opacity:1;fill-rule:nonzero;stroke:none"
             id="path56" /></g><path
           d="m 62.965,34.333 h 5.482 v 17.929 h -5.482 z"
           style="fill:#ee2d21;fill-opacity:1;fill-rule:nonzero;stroke:none"
           id="path58" /><g
           id="g60"
           transform="translate(72.9578,39.7796)"><path
             d="m 0,0 c 0,-3.57 2.272,-5.77 5.986,-5.77 1.732,0 2.634,0.396 2.852,0.504 v 4.544 C 8.512,-0.794 7.97,-0.902 7.396,-0.902 6.204,-0.902 5.41,-0.504 5.41,0.974 v 6.71 h 3.5 v 4.797 h -3.5 v 5.23 H 0.506 v -2.308 c 0,-1.658 -0.902,-2.922 -2.78,-2.922 h -0.9 V 7.684 l 3.174,0 z"
             style="fill:#ee2d21;fill-opacity:1;fill-rule:nonzero;stroke:none"
             id="path62" /></g><g
           id="g64"
           transform="translate(65.6674,55.2444)"><path
             d="M 0,0 C 1.986,0 3.574,1.59 3.574,3.536 3.574,5.482 1.986,7.072 0,7.072 -1.906,7.072 -3.496,5.482 -3.496,3.536 -3.496,1.59 -1.906,0 0,0"
             style="fill:#ee2d21;fill-opacity:1;fill-rule:nonzero;stroke:none"
             id="path66" /></g><g
           id="g68"
           transform="translate(39.118,33.6833)"><path
             d="M 0,0 C 4.11,0 6.844,2.102 8.004,4.788 L 3.468,6.51 C 2.876,5.408 1.8,4.708 0.074,4.708 c -2.152,0 -4.014,1.458 -4.122,3.5 h 12.62 c 0.038,0.108 0.112,0.948 0.112,1.715 0,5.836 -3.468,9.302 -9.084,9.302 -4.706,0 -9.048,-3.72 -9.048,-9.556 C -9.448,3.576 -4.998,0 0,0 m -0.326,14.847 c 2.626,0 3.574,-1.676 3.646,-3.064 h -7.26 c 0.11,1.35 1.278,3.064 3.614,3.064"
             style="fill:#ee2d21;fill-opacity:1;fill-rule:nonzero;stroke:none"
             id="path70" /></g><g
           id="g72"
           transform="translate(90.6307,39.1315)"><path
             d="m 0,0 8.19,8.62 v 4.511 H -6.49 V 8.332 H 1.092 L -6.706,0.036 V -4.798 H 8.334 V 0 Z"
             style="fill:#ee2d21;fill-opacity:1;fill-rule:nonzero;stroke:none"
             id="path74" /></g><g
           id="g76"
           transform="translate(163.4305,53.0123)"><path
             d="m 0,0 v -2.19 h -3.834 v -1.76 h 9.778 v 1.76 H 2.11 l 0,2.19 z"
             style="fill:#656263;fill-opacity:1;fill-rule:nonzero;stroke:none"
             id="path78" /></g><g
           id="g80"
           transform="translate(165.6806,40.4416)"><path
             d="m 0,0 c 1.922,0.422 3.364,1.966 3.364,3.938 0,2.32 -1.996,4.106 -4.422,4.106 -2.426,0 -4.484,-1.786 -4.484,-4.106 0,-1.928 1.42,-3.448 3.292,-3.908 V -2.2 c -2.294,-0.012 -4.08,0.058 -4.08,0.058 V -4.1 C 4.258,-4.198 4.996,-3.48 4.996,-3.48 v 1.724 C 3.578,-1.99 1.762,-2.108 0,-2.162 Z m -3.472,3.938 c 0,1.274 1.08,2.308 2.414,2.308 1.332,0 2.414,-1.034 2.414,-2.308 0,-1.274 -1.082,-2.308 -2.414,-2.308 -1.334,0 -2.414,1.034 -2.414,2.308"
             style="fill:#656263;fill-opacity:1;fill-rule:nonzero;stroke:none"
             id="path82" /></g></g></g></g></svg>
