<?xml version="1.0" encoding="UTF-8" standalone="no"?>
<svg
   xmlns:dc="http://purl.org/dc/elements/1.1/"
   xmlns:cc="http://creativecommons.org/ns#"
   xmlns:rdf="http://www.w3.org/1999/02/22-rdf-syntax-ns#"
   xmlns:svg="http://www.w3.org/2000/svg"
   xmlns="http://www.w3.org/2000/svg"
   xmlns:sodipodi="http://sodipodi.sourceforge.net/DTD/sodipodi-0.dtd"
   xmlns:inkscape="http://www.inkscape.org/namespaces/inkscape"
   version="1.1"
   id="svg2"
   xml:space="preserve"
   width="341.33334"
   height="170.66667"
   viewBox="0 0 341.33334 170.66667"
   sodipodi:docname="메트라이프.ai"><metadata
     id="metadata8"><rdf:RDF><cc:Work
         rdf:about=""><dc:format>image/svg+xml</dc:format><dc:type
           rdf:resource="http://purl.org/dc/dcmitype/StillImage" /></cc:Work></rdf:RDF></metadata><defs
     id="defs6"><clipPath
       clipPathUnits="userSpaceOnUse"
       id="clipPath18"><path
         d="M 0,128 H 256 V 0 H 0 Z"
         id="path16" /></clipPath></defs><sodipodi:namedview
     pagecolor="#ffffff"
     bordercolor="#666666"
     borderopacity="1"
     objecttolerance="10"
     gridtolerance="10"
     guidetolerance="10"
     inkscape:pageopacity="0"
     inkscape:pageshadow="2"
     inkscape:window-width="640"
     inkscape:window-height="480"
     id="namedview4" /><g
     id="g10"
     inkscape:groupmode="layer"
     inkscape:label="메트라이프"
     transform="matrix(1.3333333,0,0,-1.3333333,0,170.66667)"><g
       id="g12"><g
         id="g14"
         clip-path="url(#clipPath18)"><g
           id="g20"
           transform="translate(56.7692,91.5196)"><path
             d="m 0,0 c -0.968,-0.003 -2.228,-0.296 -3.885,-0.868 -6.992,-2.415 -13.233,-6.457 -18.938,-12.263 l -3.976,-4.692 1.533,-2.194 c 2.627,-3.708 5.376,-9.991 6.662,-15.279 0.789,-3.036 1.099,-4.912 1.229,-8.044 0.022,-0.526 0.048,-1.081 0.061,-1.691 0.014,-0.604 0.024,-1.256 0.03,-1.965 0.029,-3.753 0.075,-8.043 -0.318,-8.043 H 1.139 l 1.062,1.082 c 0.661,0.947 0.759,4.292 0.759,26.644 0,23.107 -0.078,25.655 -0.804,26.461 C 1.644,-0.286 0.969,0.002 0,0 Z"
             style="fill:#a5cc50;fill-opacity:1;fill-rule:nonzero;stroke:none"
             id="path22" /></g><g
           id="g24"
           transform="translate(3.0807,91.5196)"><path
             d="m 0,0 c -0.941,0.016 -1.625,-0.239 -2.201,-0.762 -0.839,-0.761 -0.88,-2.228 -0.88,-26.46 0,-22.429 0.098,-25.788 0.759,-26.736 l 0.759,-1.081 h 18.635 c 14.386,0 18.723,0.139 19.014,0.609 0.207,0.335 0.348,3.68 0.319,7.434 -0.044,5.672 -0.267,7.648 -1.321,11.699 -2.306,8.866 -6.651,16.858 -12.906,22.814 C 16.737,-7.302 10.474,-3.186 3.763,-0.868 2.142,-0.309 0.94,-0.016 0,-0.001 Z"
             style="fill:#1791cd;fill-opacity:1;fill-rule:nonzero;stroke:none"
             id="path26" /></g><g
           id="g28"
           transform="translate(29.9715,73.6973)"><path
             d="m 0,0 -1.184,-1.433 c -2.104,-2.574 -5.941,-11.106 -7.224,-16.057 -1.048,-4.047 -1.268,-6.018 -1.304,-11.714 -0.025,-3.765 -0.092,-8.014 0.288,-8.014 H 9.195 c 0.393,0 0.348,4.29 0.319,8.044 -0.044,5.672 -0.331,7.631 -1.32,11.699 C 6.907,-12.187 4.165,-5.908 1.538,-2.2 Z"
             style="fill:#0065a5;fill-opacity:1;fill-rule:nonzero;stroke:none"
             id="path30" /></g><g
           id="g32"
           transform="translate(206.3788,71.1215)"><path
             d="m 0,0 -3.763,-0.137 -3.764,-0.137 -0.136,-12.187 c -0.072,-6.698 -0.024,-12.456 0.106,-12.796 0.162,-0.424 1.394,-0.61 3.9,-0.61 l 3.657,0 z m 36.663,-5.393 c 1.697,0 2.48,-0.291 3.596,-1.341 0.785,-0.737 1.573,-1.834 1.745,-2.437 0.313,-1.092 0.287,-1.097 -5.341,-1.097 -5.629,0 -5.654,0.005 -5.342,1.097 0.172,0.603 0.96,1.7 1.745,2.437 1.116,1.05 1.899,1.341 3.597,1.341 z m 0.379,5.926 c -7.573,0 -12.594,-4.667 -13.126,-12.217 -0.441,-6.255 1.832,-10.698 6.752,-13.193 2.941,-1.491 3.297,-1.551 7.709,-1.386 3.867,0.145 5.087,0.4 7.405,1.539 1.528,0.75 2.778,1.525 2.778,1.721 0,0.196 -0.649,1.38 -1.442,2.635 l -1.442,2.285 -1.73,-1.036 c -2.313,-1.37 -7.306,-1.789 -9.257,-0.777 -1.726,0.897 -2.891,2.183 -3.338,3.657 l -0.334,1.096 h 18.604 l -0.334,2.56 C 48.145,-3.639 44.252,0.533 37.042,0.533 Z M -74.266,-5.362 c 1.497,0.024 2.901,-0.475 3.884,-1.463 0.781,-0.784 1.427,-1.88 1.427,-2.437 0,-0.964 -0.258,-1.006 -5.342,-1.006 -3.405,0 -5.341,0.177 -5.341,0.503 0,1.151 1.463,3.232 2.656,3.778 0.884,0.404 1.817,0.61 2.716,0.625 z m -0.061,5.926 c -5.283,-0.034 -9.453,-2.706 -11.578,-7.419 -1.462,-3.242 -1.401,-9.161 0.136,-12.476 1.3,-2.803 3.958,-5.218 6.844,-6.247 4.322,-1.54 11.951,-0.675 15.418,1.753 l 1.32,0.913 -1.472,2.392 -1.456,2.376 -2.519,-1.172 c -2.684,-1.255 -6.146,-1.556 -8.347,-0.717 -1.636,0.626 -3.656,2.821 -3.656,3.976 0,0.848 0.559,0.914 8.983,0.914 h 8.984 v 2.347 c -10e-4,7.984 -5.144,13.407 -12.657,13.359 z m 18.969,6.261 v -6.81 l -2.064,-0.137 -2.064,-0.152 v -5.85 l 2.064,-0.153 2.064,-0.152 0.015,-6.429 c 0.028,-8.532 0.873,-10.921 4.507,-12.72 2.514,-1.244 7.659,-1.027 10.546,0.442 l 2.398,1.219 -1.456,2.376 -1.457,2.377 -2.11,-0.777 c -1.959,-0.708 -2.221,-0.699 -3.399,0.076 -1.267,0.834 -1.275,0.869 -1.275,7.16 v 6.337 h 6.313 v 6.337 h -6.267 l -0.152,3.291 -0.137,3.29 -3.763,0.137 -3.764,0.138 z m 20.395,3.869 v -17.96 c 0,-9.876 0.14,-18.102 0.318,-18.281 0.179,-0.179 5.533,-0.32 11.898,-0.32 h 11.578 v 6.825 h -15.54 v 29.736 z m -57.3,0.03 -3.946,-0.136 -3.93,-0.138 -4.355,-8.043 c -2.395,-4.424 -4.51,-8.197 -4.689,-8.379 -0.179,-0.181 -2.395,3.492 -4.932,8.166 l -4.614,8.5 -3.884,-0.122 -3.885,-0.122 -0.562,-12.431 c -0.305,-6.836 -0.696,-15.008 -0.864,-18.158 l -0.304,-5.728 h 7.648 l 0.319,6.215 c 0.174,3.419 0.347,8.08 0.379,10.359 0.113,7.87 0.157,7.866 4.538,0.061 l 3.869,-6.886 h 4.082 l 3.81,7.191 3.793,7.19 0.364,-8.531 c 0.2,-4.692 0.496,-10.121 0.653,-12.065 l 0.273,-3.535 h 7.694 l -0.015,2.316 c -0.006,1.273 -0.324,8.787 -0.713,16.696 -0.389,7.909 -0.707,15.098 -0.714,15.98 l -0.015,1.601 z m 88.302,0.884 C -7.757,11.41 -9.651,5.67 -5.903,3.626 -4.01,2.593 -2.69,2.745 -1.017,4.159 c 1.2,1.014 1.503,1.638 1.503,3.169 0,2.151 -1.153,3.623 -3.218,4.143 -0.429,0.108 -0.836,0.157 -1.229,0.137 m 22.808,0.046 C 16.228,11.649 13.674,10.732 11.851,9.125 9.68,7.211 8.883,5.635 8.467,2.483 L 8.133,-0.03 H 4.37 v -6.337 h 3.885 v -9.43 c 0,-5.184 0.14,-9.571 0.318,-9.75 0.178,-0.179 1.927,-0.32 3.885,-0.32 h 3.566 v 19.5 h 5.827 v 6.337 h -5.827 v 1.614 c 0,2.374 1.795,3.913 4.219,3.626 1.019,-0.12 2.198,-0.373 2.625,-0.563 0.575,-0.257 1.167,0.265 2.291,1.995 l 1.533,2.347 -1.093,0.822 c -1.275,0.973 -4.489,1.847 -6.752,1.843 z"
             style="fill:#000000;fill-opacity:1;fill-rule:nonzero;stroke:none"
             id="path34" /></g></g></g></g></svg>
