<?xml version="1.0" encoding="UTF-8" standalone="no"?>
<svg
   xmlns:dc="http://purl.org/dc/elements/1.1/"
   xmlns:cc="http://creativecommons.org/ns#"
   xmlns:rdf="http://www.w3.org/1999/02/22-rdf-syntax-ns#"
   xmlns:svg="http://www.w3.org/2000/svg"
   xmlns="http://www.w3.org/2000/svg"
   xmlns:sodipodi="http://sodipodi.sourceforge.net/DTD/sodipodi-0.dtd"
   xmlns:inkscape="http://www.inkscape.org/namespaces/inkscape"
   version="1.1"
   id="svg2"
   xml:space="preserve"
   width="341.33334"
   height="170.66667"
   viewBox="0 0 341.33334 170.66667"
   sodipodi:docname="nh농협생명.ai"><metadata
     id="metadata8"><rdf:RDF><cc:Work
         rdf:about=""><dc:format>image/svg+xml</dc:format><dc:type
           rdf:resource="http://purl.org/dc/dcmitype/StillImage" /></cc:Work></rdf:RDF></metadata><defs
     id="defs6"><clipPath
       clipPathUnits="userSpaceOnUse"
       id="clipPath22"><path
         d="M 0,128 H 256 V 0 H 0 Z"
         id="path20" /></clipPath></defs><sodipodi:namedview
     pagecolor="#ffffff"
     bordercolor="#666666"
     borderopacity="1"
     objecttolerance="10"
     gridtolerance="10"
     guidetolerance="10"
     inkscape:pageopacity="0"
     inkscape:pageshadow="2"
     inkscape:window-width="640"
     inkscape:window-height="480"
     id="namedview4" /><g
     id="g10"
     inkscape:groupmode="layer"
     inkscape:label="nh농협생명"
     transform="matrix(1.3333333,0,0,-1.3333333,0,170.66667)"><g
       id="g12"
       transform="translate(22.4674,82.6591)"><path
         d="M 0,0 -7.362,-3.697 -14.716,0 -7.362,-13.99 Z"
         style="fill:#fcbb33;fill-opacity:1;fill-rule:nonzero;stroke:none"
         id="path14" /></g><g
       id="g16"><g
         id="g18"
         clip-path="url(#clipPath22)"><g
           id="g24"
           transform="translate(25.0385,71.8471)"><path
             d="m 0,0 -0.113,0.097 5.252,2.208 v 7.38 L -3.984,5.797 c 0,0 -4.942,-9.361 -5.053,-9.575 3.869,-0.462 6.776,-3.708 6.776,-7.616 0,-4.233 -3.442,-7.681 -7.672,-7.681 -4.234,0 -7.674,3.448 -7.674,7.681 0,3.908 2.904,7.151 6.773,7.616 -0.112,0.214 -5.047,9.575 -5.047,9.575 l -9.111,3.888 V 2.305 L -19.747,0.097 -19.859,0 c -3.292,-2.878 -5.179,-7.03 -5.179,-11.394 0,-8.333 6.776,-15.112 15.105,-15.112 8.33,0 15.108,6.779 15.108,15.112 C 5.175,-7.034 3.289,-2.882 0,0"
             style="fill:#fcbb33;fill-opacity:1;fill-rule:nonzero;stroke:none"
             id="path26" /></g><g
           id="g28"
           transform="translate(195.4549,69.2685)"><path
             d="m 0,0 c 3.106,-3.531 8.034,-5.26 8.034,-5.26 l 1.465,2.467 C 4.093,-0.432 2.473,4.038 2.473,5.633 V 7.71 C 2.447,8.009 2.33,8.27 2.123,8.493 1.909,8.716 1.643,8.827 1.32,8.827 H -2.475 V 5.633 c 0,-1.595 -1.618,-6.065 -7.025,-8.426 l 1.464,-2.467 c 0,0 4.931,1.729 8.036,5.26"
             style="fill:#1775b6;fill-opacity:1;fill-rule:nonzero;stroke:none"
             id="path30" /></g><g
           id="g32"
           transform="translate(212.8941,59.5988)"><path
             d="m 0,0 c 0.943,-0.943 1.569,-2.056 1.605,-3.39 0.163,-5.916 -7.029,-5.84 -8.932,-5.84 -1.904,0 -9.045,0.517 -8.985,5.709 0.061,5.257 6.371,5.231 10.106,5.231 h 7.564 1.447 3.5 V 17.673 C 6.28,17.97 6.162,18.23 5.951,18.453 5.741,18.677 5.475,18.789 5.153,18.789 H 1.358 V 13.171 H -0.98 v 4.502 c -0.026,0.297 -0.143,0.557 -0.354,0.78 -0.211,0.224 -0.477,0.336 -0.799,0.336 H -5.928 V 3.437 h -3.747 c -6.119,0 -11.499,-1.335 -11.595,-6.99 -0.101,-5.721 7.118,-7.791 14.097,-7.791 6.98,0 13.875,1.812 13.875,8.123 C 6.702,-2.039 6.326,-1 5.748,0 Z M -0.98,11.012 H 1.358 V 3.437 H -0.98 Z"
             style="fill:#1775b6;fill-opacity:1;fill-rule:nonzero;stroke:none"
             id="path34" /></g><g
           id="g36"
           transform="translate(255.048,59.5988)"><path
             d="m 0,0 h -5.748 c 0.941,-0.943 1.568,-2.056 1.606,-3.39 0.161,-5.916 -7.03,-5.84 -8.935,-5.84 -1.903,0 -9.042,0.517 -8.982,5.709 0.063,5.257 6.37,5.231 10.104,5.231 h 7.565 1.448 3.5 v 15.963 c -0.027,0.297 -0.144,0.557 -0.355,0.78 -0.212,0.224 -0.478,0.336 -0.799,0.336 H -4.39 v -3.436 h -6.487 v 1.99 c 0,0.298 -0.117,0.558 -0.339,0.784 -0.224,0.221 -0.496,0.343 -0.818,0.37 H -30.197 V 7.572 c 0.025,-0.645 0.247,-1.179 0.67,-1.599 0.422,-0.423 0.955,-0.645 1.601,-0.672 h 17.049 v 3.058 h 0.698 2.364 2.345 1.08 V 3.437 h -11.033 c -6.116,0 -11.498,-1.335 -11.594,-6.99 -0.099,-5.721 7.12,-7.791 14.096,-7.791 6.979,0 13.873,1.812 13.873,8.123 C 0.952,-2.039 0.577,-1 0,0 m -15.831,7.424 h -8.56 c -0.273,0 -0.486,0.067 -0.634,0.205 -0.149,0.134 -0.224,0.338 -0.224,0.614 v 8.132 h 9.418 z m 4.954,5.771 h 6.487 v -2.679 h -6.487 z"
             style="fill:#1775b6;fill-opacity:1;fill-rule:nonzero;stroke:none"
             id="path38" /></g><g
           id="g40"
           transform="translate(146.6632,63.5659)"><path
             d="m 0,0 h -13.07 v 4.043 h 12.439 c 0.218,0 0.381,0.169 0.412,0.416 0.018,0.125 0.097,0.785 -0.008,1.326 -0.041,0.224 -0.198,0.359 -0.415,0.359 h -23.569 c -0.661,0 -1.207,0.525 -1.207,1.157 v 5.755 c 0,0.644 -0.542,1.158 -1.206,1.158 h -3.701 V 6.217 c 0,-1.193 1.023,-2.174 2.288,-2.174 h 10.055 V 0 h -14.423 l 1.394,-2.112 h 4.3 c -1.892,-1.29 -3.021,-3.093 -3.021,-5.416 0,-5.538 6.38,-8.06 14.238,-8.06 7.863,0 14.243,2.522 14.243,8.06 0,1.475 -0.448,2.735 -1.262,3.782 h -5.93 c 1.441,-0.917 2.308,-2.254 2.308,-4.031 0,-3.888 -4.187,-5.662 -9.359,-5.662 -5.172,0 -9.356,1.774 -9.356,5.662 0,3.887 4.126,5.655 9.356,5.655 l -0.068,0.01 H 0.005 c 0.208,0 0.374,0.171 0.403,0.428 0.015,0.123 0.101,0.773 -0.004,1.317 C 0.356,-0.141 0.208,0 0,0"
             style="fill:#1775b6;fill-opacity:1;fill-rule:nonzero;stroke:none"
             id="path42" /></g><g
           id="g44"
           transform="translate(180.9613,78.3204)"><path
             d="m 0,0 h -3.817 v -5.576 h -11.904 c 0.258,-0.285 0.483,-0.6 0.671,-0.949 0.422,-0.75 0.677,-1.626 0.677,-2.551 0,-2.863 -2.067,-5.178 -5.105,-5.178 -3.048,0 -5.103,2.315 -5.103,5.178 0,2.831 2.185,5.143 5.038,5.174 h 10.988 c 0.211,0 0.378,0.173 0.409,0.426 0.016,0.126 0.104,0.806 -0.005,1.36 -0.049,0.23 -0.201,0.364 -0.414,0.364 h -8.39 v 1.159 c 0,0.646 -0.552,1.174 -1.242,1.174 h -3.805 v -2.333 h -9.552 c 0.198,-0.278 1.369,-2.069 1.425,-2.15 h 3.603 c -1.845,-1.321 -2.982,-3.152 -2.982,-5.174 0,-4.022 4.038,-7.265 10.03,-7.265 4.03,0 6.986,1.466 8.712,3.663 h 6.949 v -7.88 h -18.456 v 2.197 c 0,0.663 -0.552,1.184 -1.241,1.184 h -3.792 v -9.816 c 0,-1.223 1.06,-2.228 2.349,-2.228 H 1.245 V -1.185 C 1.245,-0.524 0.681,0 0,0 m -3.817,-27.067 h -17.778 c -0.375,0 -0.678,0.29 -0.678,0.659 v 3.694 h 18.456 z m 0,16.544 H -9.66 c 0.131,0.462 0.2,0.955 0.2,1.447 0,0.454 -0.061,0.9 -0.17,1.345 h 5.813 z"
             style="fill:#1775b6;fill-opacity:1;fill-rule:nonzero;stroke:none"
             id="path46" /></g><g
           id="g48"
           transform="translate(107.3635,77.5877)"><path
             d="M 0,0 H -4.411 V -11.383 H -22.438 V 0 h -4.41 c -1.039,0 -1.893,-1.002 -1.893,-2.243 v -24.066 c 0,-1.235 0.848,-2.248 1.893,-2.248 h 4.41 v 12.226 H -4.411 V -28.557 H 0 c 1.048,0 1.896,1.013 1.896,2.248 V -2.243 C 1.896,-1.002 1.055,0 0,0"
             style="fill:#1775b6;fill-opacity:1;fill-rule:nonzero;stroke:none"
             id="path50" /></g><g
           id="g52"
           transform="translate(71.2682,77.5877)"><path
             d="M 0,0 H -4.413 V -21.867 L -17.67,-4.399 C -19.873,-1.85 -21.388,0 -24.909,0 h -4.493 v -26.309 c 0,-1.235 0.843,-2.248 1.903,-2.248 h 4.405 v 21.97 l 13.341,-17.348 c 2.256,-2.612 4.26,-4.622 7.527,-4.622 H 1.895 V -2.243 C 1.895,-1.002 1.048,0 0,0"
             style="fill:#1775b6;fill-opacity:1;fill-rule:nonzero;stroke:none"
             id="path54" /></g></g></g></g></svg>
