<svg width="61" height="16" viewBox="0 0 61 16" fill="none" xmlns="http://www.w3.org/2000/svg">
<path fill-rule="evenodd" clip-rule="evenodd" d="M5.43985 4.13645C5.6878 4.13645 7.30725 4.84932 7.30725 7.41408C7.30725 8.63835 6.89658 9.65341 6.64862 9.65341C6.54014 9.65341 6.5014 9.55267 6.5014 9.34346C6.5014 8.8863 6.66412 8.49113 6.66412 7.52256C6.69431 6.96468 6.61099 6.40646 6.4192 5.88171C6.22741 5.35696 5.93115 4.87658 5.54833 4.46964C5.4476 4.34566 5.37012 4.26818 5.37012 4.19069C5.37012 4.11321 5.37011 4.13645 5.43985 4.13645V4.13645ZM9.51558 4.19069C9.51558 4.26818 9.43809 4.34566 9.33736 4.46964C8.9538 4.87606 8.65705 5.35637 8.46522 5.88125C8.27338 6.40613 8.19048 6.96459 8.22158 7.52256C8.22158 8.49113 8.3843 8.8863 8.3843 9.34346C8.3843 9.55267 8.3378 9.65341 8.23707 9.65341C7.98912 9.65341 7.57845 8.63835 7.57845 7.41408C7.57845 4.84932 9.19789 4.13645 9.44584 4.13645C9.49233 4.13645 9.51558 4.1597 9.51558 4.19069V4.19069Z" fill="#0071B5"/>
<path fill-rule="evenodd" clip-rule="evenodd" d="M6.85796 4.64784C6.85694 4.72619 6.87136 4.80398 6.9004 4.87676C6.92944 4.94954 6.97253 5.01589 7.02722 5.07201C7.0819 5.12814 7.14711 5.17294 7.21911 5.20386C7.29111 5.23478 7.3685 5.25121 7.44685 5.25223C7.60714 5.25223 7.76087 5.18855 7.87421 5.07521C7.98756 4.96186 8.05124 4.80813 8.05124 4.64784C8.05124 4.48755 7.98756 4.33382 7.87421 4.22048C7.76087 4.10713 7.60714 4.04346 7.44685 4.04346C7.3685 4.04447 7.29111 4.0609 7.21911 4.09183C7.14711 4.12275 7.0819 4.16754 7.02722 4.22367C6.97253 4.27979 6.92944 4.34614 6.9004 4.41892C6.87136 4.4917 6.85694 4.56949 6.85796 4.64784V4.64784Z" fill="#F1883A"/>
<path fill-rule="evenodd" clip-rule="evenodd" d="M4.37815 3.68693C4.23298 3.62717 4.10436 3.53329 4.00319 3.41324C3.90202 3.29319 3.8313 3.15051 3.79701 2.99731C3.93607 2.92592 4.09013 2.8887 4.24643 2.8887C4.40274 2.8887 4.55679 2.92592 4.69584 2.99731C4.76936 2.99485 4.8423 3.01114 4.9078 3.04461C4.9733 3.07809 5.02921 3.12766 5.07029 3.18868C5.11136 3.2497 5.13625 3.32016 5.14262 3.39345C5.14898 3.46673 5.13661 3.54043 5.10667 3.60761C5.07673 3.6748 5.0302 3.73329 4.97145 3.77755C4.9127 3.82182 4.84366 3.85042 4.77082 3.86067C4.69798 3.87092 4.62372 3.8625 4.55504 3.83617C4.48635 3.80985 4.42548 3.76649 4.37815 3.71018V3.68693ZM5.26149 2.05974C5.16427 1.92173 5.10218 1.76209 5.08057 1.59467C5.05897 1.42725 5.07851 1.25708 5.13751 1.09892C5.30594 1.11032 5.46917 1.16203 5.61346 1.24968C5.75774 1.33733 5.87885 1.45836 5.9666 1.60258C6.04524 1.71647 6.08736 1.8516 6.08736 1.99001C6.08736 2.12841 6.04524 2.26354 5.9666 2.37743C5.82868 2.40424 5.68584 2.38728 5.55803 2.32893C5.43022 2.27059 5.32383 2.17376 5.25374 2.052L5.26149 2.05974ZM5.71865 3.67144C5.60203 3.58068 5.50981 3.46234 5.45029 3.32708C5.39078 3.19182 5.36584 3.04388 5.37772 2.89658C5.52143 2.86451 5.67068 2.86673 5.81338 2.90307C5.95607 2.93942 6.0882 3.00886 6.19906 3.10579C6.26599 3.12368 6.3273 3.15822 6.37729 3.20618C6.42728 3.25414 6.46433 3.31397 6.48498 3.3801C6.50563 3.44623 6.50922 3.51651 6.49541 3.58439C6.4816 3.65228 6.45084 3.71557 6.40599 3.76838C6.36115 3.82118 6.30367 3.86178 6.23892 3.8864C6.17416 3.91102 6.10423 3.91884 6.03563 3.90917C5.96703 3.89949 5.90199 3.87263 5.84657 3.83106C5.79115 3.7895 5.74714 3.73458 5.71865 3.67144V3.67144ZM6.4935 2.89658C6.4807 2.97385 6.48797 3.05312 6.5146 3.12677C6.54123 3.20043 6.58634 3.26601 6.64561 3.31722C6.70487 3.36843 6.77629 3.40356 6.85303 3.41923C6.92977 3.43491 7.00925 3.4306 7.08385 3.40672C7.15845 3.38285 7.22566 3.34022 7.27905 3.28291C7.33243 3.2256 7.37019 3.15552 7.38872 3.07942C7.40724 3.00332 7.4059 2.92373 7.38482 2.8483C7.36374 2.77286 7.32364 2.70411 7.26836 2.64862C7.22618 2.48963 7.14541 2.34351 7.03323 2.22321C6.92104 2.10291 6.7809 2.01216 6.62523 1.95901C6.52805 2.09243 6.46461 2.24739 6.44033 2.41066C6.41604 2.57392 6.43163 2.74065 6.48576 2.89658H6.4935ZM5.1995 5.37611C5.15513 5.42846 5.09686 5.46721 5.03143 5.48789C4.96599 5.50857 4.89604 5.51034 4.82964 5.493C4.76324 5.47565 4.70309 5.43989 4.65613 5.38985C4.60917 5.33981 4.5773 5.27751 4.5642 5.21015C4.5511 5.14278 4.55731 5.07309 4.58209 5.00909C4.60688 4.9451 4.64925 4.88941 4.70431 4.84845C4.75937 4.80749 4.82489 4.78292 4.89331 4.77757C4.96172 4.77222 5.03026 4.78631 5.09102 4.81822C5.18466 4.79289 5.28393 4.79802 5.37448 4.83284C5.46502 4.86767 5.54214 4.93038 5.59467 5.01193C5.57461 5.10607 5.52582 5.19167 5.45504 5.2569C5.38425 5.32213 5.29497 5.36379 5.1995 5.37611V5.37611ZM4.55637 4.65549C4.49098 4.69611 4.41549 4.71754 4.33852 4.71733C4.26154 4.71711 4.18617 4.69526 4.12101 4.65427C4.05585 4.61329 4.00352 4.55482 3.97 4.48553C3.93647 4.41624 3.92309 4.33891 3.93139 4.26238C3.93969 4.18585 3.96933 4.1132 4.01693 4.0527C4.06453 3.99221 4.12818 3.94631 4.20061 3.92025C4.27304 3.89418 4.35134 3.88899 4.42657 3.90528C4.50181 3.92157 4.57095 3.95868 4.62611 4.01237C4.68281 3.99323 4.74342 3.98867 4.80235 3.99912C4.86128 4.00957 4.91664 4.03469 4.9633 4.07217C5.00996 4.10964 5.04644 4.15826 5.06936 4.21355C5.09229 4.26883 5.10092 4.329 5.09447 4.3885C5.08802 4.448 5.06669 4.50492 5.03245 4.554C4.99821 4.60309 4.95216 4.64276 4.89854 4.66936C4.84493 4.69596 4.78548 4.70864 4.72568 4.70621C4.66588 4.70379 4.60765 4.68635 4.55637 4.65549V4.65549ZM4.55637 2.59439C4.63702 2.67022 4.73923 2.71915 4.84887 2.73442C4.95852 2.74968 5.0702 2.73054 5.16851 2.67963C5.20109 2.5742 5.20074 2.46135 5.16751 2.35613C5.13429 2.25091 5.06976 2.15832 4.98254 2.09073C4.88018 1.99588 4.75514 1.92896 4.61944 1.89639C4.48374 1.86382 4.34195 1.86671 4.20769 1.90477C4.20098 2.03606 4.22558 2.16706 4.27947 2.28696C4.33336 2.40687 4.41499 2.51225 4.51763 2.59439H4.55637ZM6.04409 1.12992C6.07053 1.24174 6.13228 1.34206 6.22021 1.41603C6.30814 1.49 6.41755 1.53368 6.53225 1.54059C6.62008 1.46847 6.68304 1.37058 6.71224 1.26074C6.74144 1.15091 6.7354 1.03467 6.69497 0.92845C6.65994 0.795353 6.59293 0.672835 6.49974 0.571551C6.40656 0.470266 6.29004 0.393284 6.16032 0.34731C6.08039 0.457755 6.02811 0.585769 6.00789 0.720596C5.98767 0.855422 6.00008 0.993127 6.04409 1.12216V1.12992ZM2.39453 8.49103H2.44102C3.71976 8.04502 5.05569 7.7841 6.40827 7.71617C6.40827 7.71617 6.40827 7.62318 6.40827 7.56119C6.417 7.46324 6.417 7.36471 6.40827 7.26676C5.00911 7.3633 3.65127 7.78232 2.44102 8.49103C2.40228 8.49103 2.39453 8.49103 2.39453 8.49103V8.49103ZM9.83312 3.5862C9.82711 3.45574 9.86196 3.32665 9.93279 3.21692C10.0036 3.1072 10.1069 3.0223 10.2283 2.97406C10.3687 2.90261 10.524 2.86538 10.6816 2.86538C10.8391 2.86538 10.9945 2.90261 11.1349 2.97406C11.1006 3.12727 11.0299 3.26994 10.9287 3.38999C10.8275 3.51005 10.6989 3.60393 10.5537 3.66368C10.4386 3.72619 10.3065 3.75014 10.1768 3.73201C10.0471 3.71388 9.92666 3.65463 9.83312 3.56296V3.5862ZM8.95754 2.38518C8.87785 2.2717 8.83509 2.13641 8.83509 1.99775C8.83509 1.85909 8.87785 1.7238 8.95754 1.61032C9.04529 1.4661 9.1664 1.34507 9.31068 1.25742C9.45497 1.16977 9.6182 1.11808 9.78663 1.10667C9.84368 1.26518 9.8622 1.43498 9.84064 1.60205C9.81908 1.76912 9.75808 1.92866 9.66266 2.06748C9.59172 2.18845 9.48521 2.2846 9.35764 2.34284C9.23007 2.40108 9.08765 2.41856 8.94979 2.39292L8.95754 2.38518ZM8.52362 3.77216C8.48406 3.65319 8.48298 3.52478 8.52053 3.40516C8.55809 3.28554 8.63236 3.18079 8.73283 3.10579C8.84233 3.00664 8.9744 2.93575 9.11755 2.89929C9.2607 2.86283 9.41059 2.8619 9.55418 2.89658C9.56402 3.04366 9.53815 3.19092 9.47879 3.32584C9.41942 3.46076 9.32832 3.57933 9.21324 3.67144C9.12218 3.75638 9.00739 3.81153 8.88417 3.82953C8.76095 3.84752 8.63517 3.82751 8.52362 3.77216V3.77216ZM7.87275 3.39249C8.01051 3.38204 8.14151 3.32853 8.24719 3.23953C8.35287 3.15053 8.42789 3.03057 8.46163 2.89658C8.51576 2.74065 8.53135 2.57392 8.50706 2.41066C8.48278 2.24739 8.41933 2.09243 8.32216 1.95901C8.16606 2.01287 8.02532 2.10374 7.91197 2.22384C7.79863 2.34393 7.71604 2.48967 7.67128 2.64862C7.61638 2.78217 7.60634 2.92993 7.64267 3.06968C7.67901 3.20942 7.75975 3.33359 7.87275 3.42348V3.39249ZM9.36047 5.01193C9.41081 4.9301 9.48645 4.86691 9.57595 4.83196C9.66544 4.797 9.76389 4.79217 9.85637 4.81822C9.97045 4.83693 10.0784 4.88252 10.1714 4.95124C10.2644 5.01996 10.3397 5.10982 10.391 5.21339C10.3058 5.29178 10.2023 5.34772 10.09 5.37612C9.97776 5.40453 9.86017 5.40453 9.74789 5.37611C9.65297 5.36452 9.56422 5.32296 9.49454 5.25747C9.42487 5.19197 9.3779 5.10595 9.36047 5.01193ZM9.85637 4.39205C9.88544 4.28722 9.94671 4.19417 10.0315 4.12604C10.1163 4.05792 10.2204 4.01816 10.329 4.01237C10.4574 3.99318 10.5885 4.00654 10.7104 4.05121C10.8322 4.09589 10.9409 4.17045 11.0264 4.26807C10.9589 4.37853 10.8661 4.47131 10.7556 4.53869C10.6451 4.60607 10.5201 4.64611 10.391 4.65549C10.2855 4.67298 10.1772 4.65697 10.0813 4.60971C9.98544 4.56246 9.90677 4.48633 9.85637 4.39205ZM9.80988 2.67963C9.90818 2.73054 10.0199 2.74968 10.1295 2.73442C10.2392 2.71915 10.3414 2.67022 10.422 2.59439C10.5269 2.51461 10.6096 2.40941 10.6625 2.28875C10.7154 2.16808 10.7366 2.03593 10.7242 1.90477C10.597 1.87141 10.4634 1.87097 10.336 1.90351C10.2085 1.93604 10.0915 2.00047 9.99584 2.09073C9.90683 2.15684 9.84093 2.24934 9.80754 2.35508C9.77415 2.46081 9.77497 2.57438 9.80988 2.67963ZM8.40739 1.54059C8.52134 1.53135 8.62958 1.48683 8.71707 1.41323C8.80455 1.33963 8.86694 1.24061 8.89555 1.12992C8.9383 1.0007 8.95005 0.863227 8.92986 0.728624C8.90967 0.594021 8.8581 0.466059 8.77933 0.355066C8.64916 0.401716 8.53202 0.478788 8.43767 0.579874C8.34333 0.680961 8.2745 0.803134 8.23692 0.936206C8.19736 1.0432 8.19253 1.15995 8.22314 1.26985C8.25374 1.37975 8.31822 1.47719 8.40739 1.54833V1.54059ZM12.4986 8.45228C11.2865 7.74139 9.92565 7.32225 8.52362 7.22801C8.52362 7.22801 8.52362 7.39073 8.52362 7.52246C8.51722 7.57392 8.51722 7.62597 8.52362 7.67743C9.8762 7.74535 11.2121 8.00628 12.4909 8.45228V8.45228C12.4909 8.45228 12.4909 8.45228 12.4444 8.45228H12.4986ZM7.44657 1.84278C7.29632 1.77973 7.16977 1.67091 7.08492 1.53181C7.00006 1.3927 6.96122 1.23038 6.97392 1.06793C6.96873 0.878128 7.0089 0.68983 7.09111 0.518677C7.17332 0.347524 7.29518 0.198454 7.44657 0.0838623C7.60035 0.196725 7.72442 0.345252 7.8081 0.516667C7.89179 0.688082 7.93258 0.87726 7.92698 1.06793C7.93851 1.2322 7.8974 1.39586 7.80963 1.53519C7.72185 1.67451 7.59197 1.78226 7.43883 1.84278H7.44657Z" fill="#38A851"/>
<path fill-rule="evenodd" clip-rule="evenodd" d="M4.20777 10.7149C4.20623 10.7918 4.22763 10.8675 4.26926 10.9322C4.31088 10.9969 4.37084 11.0478 4.44148 11.0783C4.51213 11.1088 4.59026 11.1176 4.66592 11.1035C4.74157 11.0895 4.81133 11.0532 4.86629 10.9993C4.92125 10.9455 4.95892 10.8765 4.97451 10.8011C4.9901 10.7258 4.98289 10.6475 4.95381 10.5762C4.92473 10.505 4.87509 10.444 4.81122 10.4011C4.74735 10.3582 4.67215 10.3352 4.59519 10.3352C4.49377 10.3352 4.39638 10.3749 4.32394 10.4459C4.25151 10.5169 4.2098 10.6135 4.20777 10.7149ZM7.23745 12.7295C7.23745 13.3339 7.00499 13.5818 6.66405 13.5818C6.32312 13.5818 6.1294 13.2874 6.1294 12.807C6.11637 12.6871 6.12868 12.5659 6.16553 12.4511C6.20239 12.3363 6.26297 12.2305 6.34334 12.1406C6.42371 12.0508 6.52208 11.9788 6.63206 11.9294C6.74204 11.88 6.86118 11.8543 6.98174 11.8539C7.06665 11.8434 7.15254 11.8434 7.23745 11.8539V12.7295ZM7.23745 13.7136V13.915C7.25488 14.0207 7.24688 14.129 7.2141 14.231C7.18133 14.333 7.12473 14.4257 7.04899 14.5014C6.97325 14.5772 6.88055 14.6338 6.77857 14.6665C6.67659 14.6993 6.56828 14.7073 6.46259 14.6899C6.21328 14.6887 5.96634 14.6414 5.73423 14.5504V15.0773C5.98525 15.1546 6.24644 15.1938 6.50908 15.1935C7.28393 15.1935 7.77984 14.8759 7.77984 13.8066V11.482C7.49756 11.4013 7.20558 11.3596 6.91201 11.358C6.70873 11.3374 6.50342 11.3613 6.31027 11.4279C6.11712 11.4945 5.94074 11.6023 5.79336 11.7438C5.64597 11.8852 5.53109 12.0571 5.45666 12.2473C5.38223 12.4376 5.35003 12.6418 5.3623 12.8457C5.3623 13.5586 5.72648 14.1165 6.40835 14.1165C6.5595 14.1271 6.71077 14.0975 6.84684 14.0309C6.9829 13.9642 7.09894 13.8627 7.1832 13.7368L7.23745 13.7136ZM3.61113 13.3881C3.38698 13.4778 3.14741 13.5225 2.90601 13.5199C2.56077 13.5199 2.22966 13.3827 1.98553 13.1386C1.74141 12.8945 1.60426 12.5634 1.60426 12.2181C1.60426 11.8729 1.74141 11.5417 1.98553 11.2976C2.22966 11.0535 2.56077 10.9163 2.90601 10.9163C3.1477 10.9102 3.38796 10.9551 3.61113 11.0481V10.5212C3.36128 10.4389 3.09928 10.3996 2.83628 10.405C2.34512 10.405 1.87408 10.6001 1.52678 10.9474C1.17949 11.2947 0.984375 11.7657 0.984375 12.2568C0.984375 12.748 1.17949 13.219 1.52678 13.5663C1.87408 13.9136 2.34512 14.1087 2.83628 14.1087C3.09937 14.1155 3.36161 14.0762 3.61113 13.9925V13.4269V13.3881ZM13.1263 12.7295C13.1263 13.3339 12.8861 13.5818 12.5452 13.5818C12.2043 13.5818 12.0105 13.2874 12.0105 12.807C11.9975 12.6871 12.0098 12.5659 12.0467 12.4511C12.0835 12.3363 12.1441 12.2305 12.2245 12.1406C12.3049 12.0508 12.4032 11.9788 12.5132 11.9294C12.6232 11.88 12.7423 11.8543 12.8629 11.8539C12.9504 11.844 13.0388 11.844 13.1263 11.8539V12.7295ZM13.8314 14.0313C13.7853 13.7442 13.7594 13.4542 13.754 13.1634V11.4588C13.4717 11.3781 13.1797 11.3364 12.8861 11.3348C12.6826 11.3128 12.4767 11.3357 12.2829 11.4018C12.0892 11.4679 11.9122 11.5757 11.7645 11.7174C11.6168 11.8592 11.502 12.0316 11.428 12.2225C11.3541 12.4134 11.3228 12.6182 11.3364 12.8225C11.3364 13.5354 11.6929 14.0932 12.3747 14.0932C12.5374 14.0915 12.6963 14.0441 12.8333 13.9564C12.9703 13.8687 13.0799 13.7443 13.1496 13.5973V13.5973C13.1496 13.6748 13.1496 13.9538 13.1496 14.0313H13.8314ZM4.87414 11.4045H4.23876V14.0313H4.87414V11.4045ZM8.5392 14.0313V12.2103C8.5392 11.9701 8.5392 11.5052 8.5392 11.3968H9.10484V11.7687C9.18295 11.6333 9.29617 11.5215 9.43256 11.4451C9.56895 11.3687 9.72343 11.3306 9.8797 11.3348C10.0069 11.3321 10.1331 11.3563 10.2504 11.4056C10.3676 11.455 10.4731 11.5285 10.5601 11.6213C10.647 11.7141 10.7135 11.8242 10.7551 11.9443C10.7968 12.0645 10.8127 12.1921 10.8018 12.3188V14.0313H10.1741V12.4428C10.183 12.3709 10.1766 12.2979 10.1551 12.2287C10.1337 12.1595 10.0978 12.0956 10.0498 12.0413C10.0018 11.987 9.94283 11.9435 9.87677 11.9137C9.81071 11.884 9.73907 11.8686 9.66661 11.8686C9.59415 11.8686 9.52251 11.884 9.45645 11.9137C9.39039 11.9435 9.33141 11.987 9.28342 12.0413C9.23543 12.0956 9.19953 12.1595 9.17809 12.2287C9.15666 12.2979 9.15018 12.3709 9.15908 12.4428V14.0313H8.5392Z" fill="#0071B5"/>
<path fill-rule="evenodd" clip-rule="evenodd" d="M14.7924 13.6206C14.7673 13.6118 14.74 13.6118 14.7149 13.6206H14.6607V13.7524H14.7769C14.781 13.7439 14.7832 13.7346 14.7832 13.7253C14.7832 13.7159 14.781 13.7066 14.7769 13.6981C14.7769 13.6981 14.7769 13.6516 14.7769 13.6439L14.7924 13.6206ZM14.7227 13.5587H14.8234C14.8418 13.5656 14.8572 13.5786 14.8671 13.5955C14.8769 13.6124 14.8807 13.6323 14.8776 13.6516C14.8826 13.6626 14.8851 13.6745 14.8851 13.6865C14.8851 13.6985 14.8826 13.7104 14.8776 13.7214H14.8312H14.8931C14.8957 13.7394 14.8957 13.7576 14.8931 13.7756V13.8531H14.8312C14.8312 13.8144 14.8312 13.7834 14.8312 13.7679H14.7149V13.9073H14.6064V13.5432L14.7227 13.5587ZM14.529 13.5587C14.5622 13.525 14.6033 13.5001 14.6485 13.4861C14.6938 13.4722 14.7417 13.4697 14.7882 13.4788C14.8346 13.4879 14.8781 13.5084 14.9147 13.5384C14.9513 13.5684 14.9799 13.607 14.9979 13.6508C15.016 13.6945 15.0229 13.742 15.0182 13.7891C15.0134 13.8362 14.997 13.8814 14.9705 13.9206C14.944 13.9598 14.9082 13.9919 14.8663 14.0139C14.8244 14.0359 14.7778 14.0472 14.7304 14.0468C14.6928 14.0474 14.6554 14.0401 14.6207 14.0254C14.586 14.0107 14.5548 13.989 14.529 13.9616C14.5018 13.9355 14.4801 13.9043 14.4654 13.8696C14.4506 13.835 14.443 13.7978 14.443 13.7601C14.443 13.7225 14.4506 13.6852 14.4654 13.6506C14.4801 13.616 14.5018 13.5847 14.529 13.5587V13.5587ZM14.9629 13.9926C14.9341 14.0256 14.8983 14.0518 14.858 14.0692C14.8178 14.0867 14.7742 14.0949 14.7304 14.0933C14.6856 14.094 14.6411 14.0854 14.5998 14.068C14.5585 14.0507 14.5212 14.025 14.4902 13.9926C14.4598 13.9621 14.4358 13.9259 14.4199 13.8859C14.4039 13.8459 14.3962 13.8031 14.3972 13.7601C14.3945 13.6934 14.4124 13.6275 14.4485 13.5713C14.4845 13.5151 14.5369 13.4713 14.5987 13.4459C14.6605 13.4206 14.7285 13.4148 14.7937 13.4294C14.8588 13.444 14.9179 13.4783 14.9629 13.5277C14.9948 13.5574 15.0202 13.5934 15.0376 13.6334C15.055 13.6734 15.064 13.7165 15.064 13.7601C15.064 13.8037 15.055 13.8469 15.0376 13.8869C15.0202 13.9269 14.9948 13.9628 14.9629 13.9926V13.9926Z" fill="#0071B5"/>
<path fill-rule="evenodd" clip-rule="evenodd" d="M34.0399 14.0312V5.62408C34.0399 5.37612 33.9392 5.3064 33.6835 5.3064H32.8389V14.0312H34.0399Z" fill="#0071B5"/>
<path fill-rule="evenodd" clip-rule="evenodd" d="M42.1913 14.0312V8.60727H43.5009V7.6542H42.1913V5.62408C42.1913 5.37612 42.0829 5.3064 41.8349 5.3064H40.9903V9.78505C40.4533 9.88057 39.9086 9.92724 39.3631 9.92452H37.1238C37.0985 9.92676 37.0729 9.92355 37.0489 9.91511C37.0249 9.90666 37.003 9.89317 36.9847 9.87556C36.9663 9.85794 36.952 9.83661 36.9426 9.81298C36.9331 9.78934 36.9289 9.76397 36.9301 9.73856V5.5466H35.7368V10.0717C35.7388 10.1837 35.7632 10.2941 35.8085 10.3964C35.8539 10.4987 35.9194 10.5909 36.001 10.6675C36.0826 10.7441 36.1788 10.8035 36.2838 10.8422C36.3889 10.881 36.5006 10.8983 36.6124 10.8931H39.4019C39.9509 10.8913 40.4975 10.821 41.0291 10.6839V14.0312H42.1913Z" fill="#0071B5"/>
<path fill-rule="evenodd" clip-rule="evenodd" d="M30.5608 8.4911C30.5817 8.69082 30.5603 8.89269 30.4982 9.08363C30.436 9.27457 30.3345 9.45033 30.2 9.59951C30.0656 9.74868 29.9014 9.86795 29.7179 9.94959C29.5345 10.0312 29.3359 10.0734 29.1351 10.0734C28.9343 10.0734 28.7357 10.0312 28.5523 9.94959C28.3688 9.86795 28.2046 9.74868 28.0701 9.59951C27.9357 9.45033 27.8342 9.27457 27.772 9.08363C27.7099 8.89269 27.6885 8.69082 27.7094 8.4911C27.6955 8.03837 27.8262 7.59299 28.0825 7.21958C28.3389 6.84617 28.7076 6.56416 29.1351 6.41449C29.5626 6.56416 29.9313 6.84617 30.1877 7.21958C30.444 7.59299 30.5747 8.03837 30.5608 8.4911V8.4911ZM29.1351 5.46143C28.4045 5.5734 27.7363 5.93779 27.2465 6.49127C26.7568 7.04476 26.4764 7.75236 26.4541 8.4911C26.5055 9.16694 26.8103 9.79842 27.3074 10.2592C27.8045 10.7199 28.4573 10.9759 29.1351 10.9759C29.8129 10.9759 30.4657 10.7199 30.9628 10.2592C31.4599 9.79842 31.7647 9.16694 31.8161 8.4911C31.7938 7.75236 31.5134 7.04476 31.0236 6.49127C30.5339 5.93779 29.8656 5.5734 29.1351 5.46143V5.46143Z" fill="#0071B5"/>
<path fill-rule="evenodd" clip-rule="evenodd" d="M57.9982 11.1023C58.4786 11.1023 59.4394 11.5362 59.4394 12.3731C59.4394 12.9929 58.8583 13.4036 57.9982 13.4036C57.1381 13.4036 56.5492 12.9929 56.5492 12.3731C56.5492 11.5362 57.5178 11.1023 57.9982 11.1023ZM57.9982 10.1725C57.1381 10.1725 55.2939 10.9473 55.2939 12.4118C55.2939 13.5663 56.3787 14.3334 57.9982 14.3334C59.6176 14.3334 60.6947 13.5586 60.6947 12.4118C60.7024 10.9318 58.8583 10.1725 57.9982 10.1725Z" fill="#0071B5"/>
<path fill-rule="evenodd" clip-rule="evenodd" d="M24.2533 14.0312V8.60727H25.5628V7.6542H24.2533V5.62408C24.2533 5.37612 24.1449 5.3064 23.8969 5.3064H23.0523V10.2655C22.565 10.3388 22.0729 10.3751 21.5801 10.3739H18.8294C18.8043 10.3763 18.7791 10.3732 18.7555 10.3647C18.7318 10.3562 18.7103 10.3426 18.6926 10.3248C18.6748 10.307 18.6612 10.2855 18.6527 10.2619C18.6442 10.2382 18.641 10.213 18.6434 10.188V8.97145H21.6576V5.58534H17.4424V6.54616H20.4566V8.00288H17.4424V10.5212C17.4454 10.6324 17.4705 10.742 17.5163 10.8434C17.5621 10.9448 17.6278 11.0361 17.7093 11.1119C17.7908 11.1876 17.8867 11.2464 17.9912 11.2846C18.0957 11.3229 18.2068 11.3399 18.318 11.3348H21.4639C21.9975 11.3341 22.5297 11.2795 23.0523 11.172V14.0235L24.2533 14.0312Z" fill="#0071B5"/>
<path fill-rule="evenodd" clip-rule="evenodd" d="M49.2887 11.1023C49.7691 11.1023 50.7299 11.5362 50.7299 12.3731C50.7299 12.9929 50.1488 13.4036 49.2887 13.4036C48.4286 13.4036 47.8397 12.9929 47.8397 12.3731C47.8397 11.5362 48.8083 11.1023 49.2887 11.1023ZM49.2887 10.1725C48.4286 10.1725 46.5845 10.9473 46.5845 12.4118C46.5845 13.5663 47.6693 14.3334 49.2887 14.3334C50.9082 14.3334 51.9852 13.5586 51.9852 12.4118C51.9852 10.9318 50.1411 10.1725 49.2887 10.1725Z" fill="#0071B5"/>
<path fill-rule="evenodd" clip-rule="evenodd" d="M58.0832 7.04982H59.6329V7.98738H58.0832V7.04982ZM56.8899 8.75449H55.0148C54.9894 8.7557 54.964 8.75145 54.9404 8.74203C54.9167 8.73261 54.8954 8.71824 54.8778 8.69989C54.8602 8.68154 54.8467 8.65964 54.8382 8.63564C54.8298 8.61165 54.8266 8.58612 54.8288 8.56078V6.42993H56.8899V8.75449ZM60.4465 5.3064H59.6097V6.08125H58.06V5.46136H53.6123V8.89396C53.6132 9.00552 53.6367 9.11576 53.6812 9.21805C53.7257 9.32034 53.7904 9.4126 53.8715 9.48929C53.9525 9.56598 54.0482 9.62552 54.1528 9.66436C54.2573 9.70319 54.3687 9.72053 54.4801 9.71531H58.06V8.94046H59.6097V9.84704H60.8029V5.60859C60.8029 5.37613 60.6945 5.3064 60.4465 5.3064Z" fill="#0071B5"/>
<path fill-rule="evenodd" clip-rule="evenodd" d="M51.8616 5.3064H51.0247V7.00333H50.1879V5.62408C50.1879 5.37612 50.0872 5.3064 49.8315 5.3064H48.9946V9.86253H50.1879V7.97189H51.0247V9.86253H52.2103V5.62408C52.218 5.37612 52.1173 5.3064 51.8616 5.3064Z" fill="#0071B5"/>
<path fill-rule="evenodd" clip-rule="evenodd" d="M46.6235 6.34478C46.732 6.34478 46.7708 6.42226 46.8018 6.56173L47.6541 9.8626H48.8861L47.9873 6.45325C47.9484 6.13144 47.7843 5.83792 47.5304 5.63631C47.2766 5.4347 46.9536 5.34125 46.6313 5.37621V5.37621C46.309 5.34125 45.986 5.4347 45.7322 5.63631C45.4783 5.83792 45.3142 6.13144 45.2753 6.45325L44.3765 9.8626H45.6007L46.4531 6.56173C46.4763 6.42226 46.5151 6.34478 46.6235 6.34478Z" fill="#0071B5"/>
</svg>
