<?xml version="1.0" encoding="UTF-8" standalone="no"?>
<svg
   xmlns:dc="http://purl.org/dc/elements/1.1/"
   xmlns:cc="http://creativecommons.org/ns#"
   xmlns:rdf="http://www.w3.org/1999/02/22-rdf-syntax-ns#"
   xmlns:svg="http://www.w3.org/2000/svg"
   xmlns="http://www.w3.org/2000/svg"
   xmlns:sodipodi="http://sodipodi.sourceforge.net/DTD/sodipodi-0.dtd"
   xmlns:inkscape="http://www.inkscape.org/namespaces/inkscape"
   version="1.1"
   id="svg2"
   xml:space="preserve"
   width="341.33334"
   height="170.66667"
   viewBox="0 0 341.33334 170.66667"
   sodipodi:docname="프루덴셜.ai"><metadata
     id="metadata8"><rdf:RDF><cc:Work
         rdf:about=""><dc:format>image/svg+xml</dc:format><dc:type
           rdf:resource="http://purl.org/dc/dcmitype/StillImage" /></cc:Work></rdf:RDF></metadata><defs
     id="defs6"><clipPath
       clipPathUnits="userSpaceOnUse"
       id="clipPath18"><path
         d="M 0,128 H 256 V 0 H 0 Z"
         id="path16" /></clipPath></defs><sodipodi:namedview
     pagecolor="#ffffff"
     bordercolor="#666666"
     borderopacity="1"
     objecttolerance="10"
     gridtolerance="10"
     guidetolerance="10"
     inkscape:pageopacity="0"
     inkscape:pageshadow="2"
     inkscape:window-width="640"
     inkscape:window-height="480"
     id="namedview4" /><g
     id="g10"
     inkscape:groupmode="layer"
     inkscape:label="프루덴셜"
     transform="matrix(1.3333333,0,0,-1.3333333,0,170.66667)"><g
       id="g12"><g
         id="g14"
         clip-path="url(#clipPath18)"><g
           id="g20"
           transform="translate(29.8325,91.9467)"><path
             d="m 0,0 c -16.802,0 -27.776,-14.02 -27.776,-27.076 0,-7.484 1.801,-11.23 3.772,-14.806 2.483,6.793 7.458,20.284 7.458,20.284 0,0 2.312,1.22 2.312,1.05 l 3.345,8.618 2.142,1.127 2.663,5.751 5.828,-0.955 11.827,-6.708 13.287,-3.746 C 21.436,-7.569 11.75,0 0,0 m -0.171,-57.813 c -7.287,0 -16.204,2.611 -22.63,10.624 H 22.383 C 17.152,-54.067 8.149,-57.813 -0.171,-57.813 m 8.918,12.015 H 4.634 l 7.628,9.659 0.777,-1.476 z m 4.027,30.737 -13.115,7.748 -4.805,0.87 v -3.575 l 3.687,-3.482 -5.146,0.435 c 0,0 0.171,-0.264 4.463,-4.881 l 19.55,-3.311 3.43,-2.261 -8.917,-0.435 -3.686,-13.67 -12.092,-8.175 h -7.885 l 2.663,5.316 -0.436,0.171 -7.116,-5.487 h -1.716 l 7.288,10.359 c 0.341,2.961 0.17,1.656 0.597,6.963 l -1.118,1.57 -2.918,-11.494 -6.084,-7.398 h -1.536 l 3.601,5.137 5.06,15.761 -1.289,-0.615 -2.227,-6.272 -1.544,-0.87 c 0,0 -3.601,-8.883 -5.487,-13.235 -2.739,4.01 -5.829,9.412 -5.829,18.816 0,14.105 11.913,28.996 29.833,28.996 17.237,0 26.411,-13.926 27.947,-21.163 z m 8.491,-20.378 -2.492,-2.176 -4.975,-8.183 h -3.259 l 3.259,5.836 2.577,2.185 3.687,10.539 3.942,-1.656 z m 2.313,-10.359 h -6.597 l 6.264,10.009 1.886,6.528 3.942,-1.391 c -0.35,-5.043 -1.98,-10.18 -5.495,-15.146 m -8.056,12.015 -1.971,-0.35 0.52,4.002 -0.52,0.785 0.52,4.531 5.061,-2.091 z"
             style="fill:#0e5ba0;fill-opacity:1;fill-rule:nonzero;stroke:none"
             id="path22" /></g><g
           id="g24"
           transform="translate(86.3061,73.2672)"><path
             d="m 0,0 h -2.057 v -14.148 h 2.066 c 4.753,0 5.614,3.439 5.614,6.971 C 5.615,-3.652 4.753,0 0,0 m 64.043,-16.017 c 0,2.526 -0.342,6.835 -3.559,6.835 -3.643,0 -3.686,-6.187 -3.686,-9.096 0,-2.526 0.171,-8.491 3.558,-8.491 1.28,0 2.355,0.828 2.867,2.048 0.342,0.87 0.82,2.176 0.82,4.488 z m 18.432,7.398 c -3.516,0 -3.559,-5.572 -3.644,-7.62 h 7.023 c 0.043,2.227 -0.128,7.62 -3.379,7.62 m 68.446,-8.789 c -3.815,-0.742 -5.914,-1.741 -5.914,-5.7 0,-2.304 1.16,-3.482 2.449,-3.482 1.801,0 2.441,1.084 2.825,1.869 0.426,0.785 0.648,2.483 0.648,4.053 v 3.26 z M 0,-15.582 h -2.057 v -8.883 c 0,-0.913 0.086,-1.656 0.512,-2.133 0.384,-0.393 1.076,-0.615 2.322,-0.615 h 1.066 v -1.305 h -13.585 v 1.305 h 1.203 c 1.024,0 1.886,0.179 2.313,0.529 0.427,0.393 0.64,1.05 0.64,2.219 v 21.47 c 0,1.391 -0.213,2.346 -0.905,2.696 -0.426,0.265 -1.237,0.308 -2.355,0.308 h -0.896 V 1.314 H 0.009 c 5.998,0 11.187,-2.176 11.187,-8.491 C 11.187,-13.184 6.084,-15.582 0,-15.582 m 24.986,2.961 c -1.502,0 -2.398,1.092 -2.398,1.963 0,0.307 0,0.648 0.213,1.135 h -0.043 c -2.056,-1.741 -2.525,-8.363 -2.525,-10.923 v -3.14 c 0,-1.348 0,-2.441 0.392,-3.004 0.384,-0.563 1.365,-0.614 1.929,-0.614 h 1.928 V -28.51 H 10.94 v 1.306 h 1.288 c 1.374,0 2.057,0.222 2.398,0.785 0.469,0.785 0.384,2.867 0.384,2.867 v 7.97 c 0,2.611 -0.085,4.565 -0.384,5.265 -0.341,0.743 -0.853,0.913 -2.014,0.913 h -0.469 v 1.306 h 7.287 l 0.214,-5.223 h 0.042 c 0.214,2.526 1.673,5.837 5.009,5.837 1.801,0 2.919,-0.87 2.919,-2.568 -0.009,-1.306 -0.956,-2.611 -2.628,-2.569 m 17.322,-15.889 -0.085,3.175 c 0,0 -0.043,-0.128 -0.043,0 -0.512,-1.656 -2.705,-3.789 -5.615,-3.789 -4.847,0 -5.913,2.867 -5.913,6.656 v 8.798 c 0,2.56 -0.086,3.524 -0.256,3.78 -0.128,0.213 -0.342,0.478 -1.459,0.478 h -0.299 v 1.305 h 7.287 V -23.04 c 0,-3.26 1.758,-3.354 2.612,-3.354 1.459,0 2.611,1.306 3.046,3.047 0.256,0.998 0.256,2.133 0.256,3.26 v 6.408 c 0,1.784 0.043,3.26 -0.341,3.695 -0.35,0.393 -0.811,0.563 -2.151,0.563 h -0.426 v 1.306 h 8.14 v -15.497 c 0,-1.348 0.086,-2.44 0.47,-3.003 0.384,-0.564 0.99,-0.615 1.587,-0.615 h 0.768 v -1.305 h -7.578 z m 22.289,0 -0.085,3.175 c -0.384,-1.349 -2.313,-3.789 -5.615,-3.789 -6.34,0 -8.013,5.879 -8.013,10.837 0,4.924 2.919,10.795 8.704,10.795 2.876,0 4.028,-1.178 4.463,-2.048 v 6.349 c 0,1.134 0,1.962 -0.648,2.611 -0.384,0.392 -0.982,0.571 -1.972,0.571 h -0.392 v 1.306 l 8.235,0.657 V -24.61 c 0,-1.434 0.213,-1.869 0.563,-2.176 0.384,-0.299 1.109,-0.435 1.886,-0.435 h 0.563 v -1.306 h -7.689 z m 14.183,10.88 c 0,0 -0.128,-2.133 0.298,-4.616 0.427,-2.484 1.46,-5.095 4.327,-5.095 3.985,0 5.871,3.576 5.871,5.794 h 1.672 c 0,-2.918 -2.79,-7.577 -8.277,-7.577 -6.426,0 -9.6,4.608 -9.6,10.837 0,6.443 4.156,10.795 9.429,10.795 6.255,0 8.704,-4.617 8.704,-10.146 H 78.78 Z m 27.648,-10.88 v 15.189 c 0,3.004 -1.417,3.226 -2.569,3.226 -0.81,0 -1.758,-0.478 -2.398,-1.527 -0.563,-0.956 -0.862,-2.697 -0.862,-4.395 v -7.535 c 0,-1.741 -0.085,-2.611 0.299,-3.046 0.341,-0.393 0.819,-0.615 1.929,-0.615 h 0.597 v -1.305 H 92.493 v 1.305 h 0.64 c 0.938,0 1.544,0.222 1.886,0.615 0.384,0.435 0.298,1.305 0.298,3.046 v 10.496 c 0,1.348 0.043,2.483 -0.341,3.046 -0.427,0.564 -1.075,0.606 -1.673,0.606 h -0.81 v 1.306 h 7.629 l 0.085,-3.183 h 0.043 c 0.734,1.92 2.577,3.789 5.657,3.789 4.634,0 5.743,-2.569 5.743,-6.835 v -9.276 c 0,-1.698 -0.043,-2.441 0.341,-3.004 0.393,-0.563 1.118,-0.614 1.673,-0.614 h 0.811 v -1.306 h -8.047 z m 20.531,1.954 c -0.853,-1.834 -2.483,-2.568 -4.932,-2.568 -4.327,0 -5.052,3.174 -5.052,5.7 v 13.978 h -3.601 v 1.348 h 0.341 c 4.676,0 7.16,6.315 7.16,9.404 h 1.331 v -9.404 h 4.028 V -9.446 H 122.3 v -14.627 c 0,-1.399 0.17,-2.739 1.672,-2.739 0.64,0 1.067,0.307 1.366,0.777 0.819,1.177 0.776,3.533 0.776,5.094 h 1.579 c -0.009,-2.389 -0.171,-4.394 -0.734,-5.615 m 1.118,-1.954 v 1.306 h 0.64 c 0.606,0 1.288,0.051 1.672,0.614 0.384,0.563 0.384,1.741 0.384,3.089 v 10.923 c 0,0.87 0.086,2.091 -0.648,2.696 -0.427,0.393 -1.238,0.436 -2.014,0.436 h -0.427 v 1.348 h 8.363 v -15.411 c 0,-1.349 -0.043,-2.526 0.384,-3.089 0.384,-0.564 1.024,-0.615 1.63,-0.615 h 0.81 v -1.305 h -10.794 z m 23.313,0 -0.085,3.311 c -0.342,-1.698 -2.91,-3.917 -5.786,-3.917 -4.497,0 -5.914,3.217 -5.914,5.265 0,4.83 4.762,6.443 11.316,7.749 v 3.439 c 0,2.346 -0.982,3.737 -4.028,3.737 -2.057,0 -3.815,-1.263 -4.071,-2.005 v -0.086 c 0.265,0.393 0.82,0.521 1.246,0.521 1.502,0 2.526,-0.87 2.526,-2.398 0,-1.177 -1.195,-2.483 -2.867,-2.483 -1.374,0 -3.004,0.913 -3.004,3.046 0,2.876 3.303,4.83 7.544,4.83 3.771,0 7.884,-1.084 7.884,-7.048 v -10.01 c 0,-1.485 0.214,-1.963 0.555,-2.227 0.384,-0.299 0.905,-0.435 1.459,-0.435 h 0.436 v -1.306 h -7.211 z m -18.125,23.595 c -1.8,0 -3.26,1.476 -3.26,3.311 0,1.834 1.46,3.268 3.26,3.268 1.801,0 3.26,-1.442 3.26,-3.268 0,-1.826 -1.459,-3.311 -3.26,-3.311 m 26.018,-23.595 v 1.306 h 0.256 c 0.555,0 1.161,0.136 1.536,0.435 0.341,0.307 0.563,0.614 0.563,2.176 v 21.419 c 0,0.614 0,1.962 -0.648,2.611 -0.384,0.392 -1.109,0.572 -1.579,0.572 h -0.768 v 1.305 l 8.226,0.657 v -26.564 c 0,-1.434 0.214,-1.869 0.555,-2.176 0.384,-0.299 1.118,-0.435 1.929,-0.435 h 0.341 v -1.306 z"
             style="fill:#0e5ba0;fill-opacity:1;fill-rule:nonzero;stroke:none"
             id="path26" /></g></g></g></g></svg>
