<?xml version="1.0" encoding="UTF-8" standalone="no"?>
<svg
   xmlns:dc="http://purl.org/dc/elements/1.1/"
   xmlns:cc="http://creativecommons.org/ns#"
   xmlns:rdf="http://www.w3.org/1999/02/22-rdf-syntax-ns#"
   xmlns:svg="http://www.w3.org/2000/svg"
   xmlns="http://www.w3.org/2000/svg"
   xmlns:sodipodi="http://sodipodi.sourceforge.net/DTD/sodipodi-0.dtd"
   xmlns:inkscape="http://www.inkscape.org/namespaces/inkscape"
   version="1.1"
   id="svg2"
   xml:space="preserve"
   width="256"
   height="128"
   viewBox="0 0 256 128"
   sodipodi:docname="신한라이프.ai"><metadata
     id="metadata8"><rdf:RDF><cc:Work
         rdf:about=""><dc:format>image/svg+xml</dc:format><dc:type
           rdf:resource="http://purl.org/dc/dcmitype/StillImage" /></cc:Work></rdf:RDF></metadata><defs
     id="defs6"><clipPath
       clipPathUnits="userSpaceOnUse"
       id="clipPath18"><path
         d="M 0,96 H 192 V 0 H 0 Z"
         id="path16" /></clipPath></defs><sodipodi:namedview
     pagecolor="#ffffff"
     bordercolor="#666666"
     borderopacity="1"
     objecttolerance="10"
     gridtolerance="10"
     guidetolerance="10"
     inkscape:pageopacity="0"
     inkscape:pageshadow="2"
     inkscape:window-width="640"
     inkscape:window-height="480"
     id="namedview4" /><g
     id="g10"
     inkscape:groupmode="layer"
     inkscape:label="신한라이프"
     transform="matrix(1.3333333,0,0,-1.3333333,0,128)"><g
       id="g12"><g
         id="g14"
         clip-path="url(#clipPath18)"><g
           id="g20"
           transform="translate(39.5841,52.7462)"><path
             d="M 0,0 C -0.532,0.55 -0.818,1.292 -0.792,2.057 -0.81,2.816 -0.525,3.551 0,4.1 0.546,4.642 1.292,4.935 2.061,4.911 2.835,4.938 3.586,4.644 4.136,4.1 4.663,3.552 4.95,2.817 4.934,2.057 4.958,1.292 4.67,0.549 4.136,0 3.586,-0.545 2.835,-0.838 2.061,-0.811 1.29,-0.836 0.542,-0.542 -0.005,0.002 Z m 104.426,0 c -0.538,0.546 -0.827,1.291 -0.798,2.057 -0.022,0.761 0.266,1.498 0.798,2.043 0.543,0.544 1.288,0.838 2.056,0.811 0.77,0.027 1.516,-0.267 2.061,-0.811 0.529,-0.547 0.819,-1.282 0.805,-2.043 0.021,-0.766 -0.269,-1.508 -0.805,-2.057 -0.545,-0.544 -1.291,-0.838 -2.061,-0.811 -0.77,-0.028 -1.517,0.267 -2.06,0.813 z m 43.217,-7.9 V 6.501 H 133.321 V 11.3 h 19.095 V -7.9 Z M 20.09,-20.242 v 11.361 c 0,0.958 -0.21,1.659 -0.65,2.094 -0.441,0.422 -1.131,0.639 -2.095,0.639 -0.644,0.004 -1.282,-0.129 -1.871,-0.39 -0.621,-0.28 -1.193,-0.66 -1.692,-1.123 v -12.58 h -4.72 v 13.876 c 0.009,0.424 -0.049,0.846 -0.171,1.252 -0.134,0.342 -0.334,0.654 -0.588,0.919 -0.198,0.224 -0.25,0.43 -0.153,0.601 0.073,0.184 0.256,0.3 0.454,0.288 h 5.037 v -1.674 c 0.624,0.613 1.326,1.142 2.089,1.571 0.848,0.459 1.801,0.688 2.765,0.664 0.844,0.007 1.685,-0.12 2.49,-0.377 0.736,-0.229 1.42,-0.602 2.011,-1.098 0.58,-0.488 1.041,-1.102 1.348,-1.795 0.325,-0.778 0.485,-1.615 0.472,-2.458 v -11.77 z m 57.875,0 v 11.361 c 0,0.958 -0.21,1.659 -0.638,2.094 -0.447,0.422 -1.137,0.639 -2.101,0.639 -0.644,0.005 -1.282,-0.128 -1.871,-0.39 -0.619,-0.281 -1.189,-0.66 -1.686,-1.123 v -12.58 h -4.726 v 13.876 c 0.014,0.424 -0.047,0.848 -0.179,1.252 -0.133,0.34 -0.33,0.652 -0.58,0.919 -0.199,0.224 -0.249,0.43 -0.167,0.601 0.082,0.183 0.267,0.297 0.466,0.288 h 5.039 v -1.674 c 0.624,0.615 1.328,1.143 2.094,1.571 0.843,0.459 1.792,0.688 2.752,0.664 0.848,0.007 1.691,-0.12 2.498,-0.377 0.737,-0.227 1.421,-0.601 2.011,-1.098 0.576,-0.489 1.033,-1.103 1.335,-1.795 0.335,-0.776 0.501,-1.614 0.485,-2.458 v -11.77 z m -86.843,0 v 11.475 c 0,1.667 -0.907,2.49 -2.74,2.49 -0.62,0.005 -1.235,-0.117 -1.807,-0.358 -0.626,-0.272 -1.22,-0.615 -1.769,-1.021 v -12.586 h -4.75 V 0.907 c 0.016,0.418 -0.032,0.835 -0.141,1.239 -0.136,0.348 -0.34,0.665 -0.601,0.932 -0.164,0.148 -0.219,0.382 -0.141,0.588 0.099,0.168 0.285,0.265 0.479,0.249 h 5.152 v -8.403 c 0.636,0.542 1.357,0.976 2.133,1.283 0.836,0.32 1.725,0.476 2.619,0.46 0.876,0.015 1.748,-0.117 2.58,-0.39 0.725,-0.236 1.398,-0.607 1.986,-1.092 0.554,-0.464 0.993,-1.05 1.284,-1.711 0.306,-0.691 0.458,-1.441 0.446,-2.197 v -12.107 z m 8.887,0 v 13.94 c 0.005,0.401 -0.046,0.801 -0.153,1.188 -0.139,0.342 -0.343,0.655 -0.601,0.92 -0.156,0.157 -0.215,0.388 -0.153,0.601 0.08,0.184 0.266,0.299 0.466,0.287 H 4.734 V -20.24 Z m 39.871,0 v 11.475 c 0,1.667 -0.914,2.49 -2.739,2.49 C 36.518,-6.27 35.9,-6.392 35.327,-6.635 34.699,-6.908 34.104,-7.251 33.552,-7.656 V -20.242 H 28.813 V 0.907 c 0.022,0.418 -0.028,0.837 -0.146,1.239 -0.139,0.346 -0.343,0.663 -0.602,0.932 -0.17,0.144 -0.225,0.384 -0.133,0.588 0.092,0.165 0.271,0.262 0.46,0.249 h 5.16 v -8.403 c 0.635,0.542 1.355,0.976 2.133,1.283 0.837,0.319 1.728,0.475 2.624,0.46 0.875,0.015 1.747,-0.117 2.58,-0.39 0.725,-0.23 1.397,-0.601 1.979,-1.092 0.555,-0.464 0.996,-1.049 1.288,-1.711 0.304,-0.692 0.456,-1.441 0.447,-2.197 v -12.107 z m 64.549,0 v 13.94 c 0.016,0.402 -0.038,0.804 -0.16,1.188 -0.137,0.341 -0.336,0.653 -0.587,0.92 -0.186,0.229 -0.237,0.429 -0.141,0.601 0.061,0.188 0.244,0.307 0.441,0.287 h 5.178 V -20.24 Z m 10.455,-0.002 v 13.621 h -2.982 v 3.32 h 2.982 v 4.089 c -0.011,0.625 0.122,1.243 0.389,1.808 0.237,0.543 0.601,1.023 1.06,1.398 0.488,0.403 1.043,0.717 1.641,0.926 0.683,0.23 1.4,0.342 2.12,0.332 0.598,0.005 1.195,-0.032 1.788,-0.109 0.644,-0.088 1.279,-0.236 1.896,-0.441 V 1.833 c 0,-0.3 -0.089,-0.46 -0.287,-0.485 -0.175,-0.041 -0.359,-0.003 -0.505,0.102 -0.273,0.161 -0.564,0.29 -0.868,0.384 -0.341,0.092 -0.693,0.136 -1.047,0.128 -0.393,0.017 -0.774,-0.14 -1.041,-0.429 -0.306,-0.354 -0.456,-0.817 -0.415,-1.284 v -3.55 h 3.864 v -3.32 h -3.864 v -13.621 z m -27.654,0 V 0.21 c 0.013,0.419 -0.045,0.838 -0.172,1.238 -0.136,0.345 -0.335,0.661 -0.587,0.932 -0.166,0.158 -0.223,0.398 -0.147,0.613 0.081,0.171 0.258,0.275 0.447,0.262 h 5.358 v -19.879 h 9.195 v -3.621 z m -121.912,-0.075 c -0.887,0.183 -1.759,0.437 -2.606,0.76 -0.654,0.256 -1.265,0.609 -1.813,1.047 -0.441,0.377 -0.581,0.767 -0.416,1.149 l 0.933,2.433 c 0.466,-0.383 0.976,-0.709 1.52,-0.971 0.566,-0.285 1.15,-0.532 1.749,-0.74 0.575,-0.194 1.162,-0.352 1.756,-0.472 0.539,-0.103 1.087,-0.157 1.635,-0.16 1.019,-0.06 2.029,0.211 2.881,0.773 0.704,0.545 1.091,1.404 1.034,2.292 0.024,0.709 -0.175,1.408 -0.568,1.999 -0.545,0.681 -1.249,1.216 -2.051,1.558 -0.587,0.313 -1.142,0.574 -1.66,0.824 -0.523,0.236 -1.022,0.485 -1.513,0.747 -0.478,0.262 -0.944,0.537 -1.392,0.837 -0.47,0.294 -0.919,0.618 -1.347,0.97 -0.764,0.68 -1.411,1.48 -1.916,2.37 -0.54,0.979 -0.803,2.087 -0.76,3.205 -0.009,0.827 0.17,1.646 0.524,2.394 0.352,0.742 0.878,1.388 1.532,1.884 0.723,0.552 1.541,0.968 2.414,1.226 1.054,0.302 2.147,0.448 3.243,0.434 2.387,0.039 4.756,-0.41 6.961,-1.321 v -3.717 c 0.03,-0.224 -0.096,-0.44 -0.306,-0.524 -0.224,-0.068 -0.468,-10e-4 -0.626,0.172 -1.501,1.32 -3.428,2.055 -5.428,2.069 -0.884,0.065 -1.762,-0.181 -2.484,-0.696 -0.576,-0.467 -0.894,-1.181 -0.855,-1.922 -0.016,-0.519 0.087,-1.034 0.3,-1.507 0.211,-0.436 0.522,-0.817 0.907,-1.111 0.757,-0.624 1.574,-1.171 2.439,-1.635 0.882,-0.459 1.737,-0.881 2.586,-1.297 0.73,-0.327 1.429,-0.718 2.089,-1.168 0.596,-0.402 1.127,-0.89 1.578,-1.45 0.428,-0.554 0.757,-1.178 0.97,-1.846 0.238,-0.788 0.352,-1.609 0.339,-2.433 0.035,-1.02 -0.201,-2.031 -0.684,-2.931 -0.449,-0.821 -1.099,-1.515 -1.889,-2.018 -0.853,-0.564 -1.807,-0.958 -2.81,-1.162 -1.129,-0.256 -2.284,-0.382 -3.442,-0.376 -0.949,0.01 -1.896,0.115 -2.824,0.314 z M 132.607,-6.31 c -0.435,-0.198 -0.82,-0.493 -1.124,-0.862 -0.299,-0.37 -0.536,-0.786 -0.702,-1.232 -0.17,-0.452 -0.265,-0.929 -0.281,-1.412 h 6.833 c -0.041,0.494 -0.124,0.983 -0.249,1.463 -0.125,0.434 -0.319,0.846 -0.575,1.219 -0.257,0.345 -0.589,0.626 -0.97,0.824 -0.441,0.221 -0.931,0.328 -1.424,0.313 -0.52,0.012 -1.036,-0.095 -1.508,-0.313 z M 131.1,-20.282 c -1.027,0.335 -1.972,0.883 -2.771,1.609 -0.826,0.773 -1.469,1.72 -1.884,2.772 -0.503,1.296 -0.744,2.678 -0.709,4.068 -0.006,1.123 0.162,2.241 0.498,3.314 0.317,1.063 0.838,2.054 1.533,2.919 0.713,0.874 1.606,1.584 2.619,2.082 1.168,0.537 2.443,0.802 3.729,0.773 1.171,0.025 2.333,-0.209 3.404,-0.684 0.964,-0.442 1.817,-1.094 2.496,-1.909 0.704,-0.837 1.229,-1.808 1.546,-2.854 0.366,-1.137 0.547,-2.326 0.536,-3.52 v -1.271 h -11.596 c 0.095,-1.571 0.536,-2.733 1.322,-3.467 0.785,-0.748 1.896,-1.112 3.339,-1.112 0.83,-10e-4 1.658,0.083 2.472,0.25 0.893,0.193 1.747,0.534 2.528,1.008 l 0.73,-2.043 c 0.065,-0.332 -0.073,-0.67 -0.351,-0.862 -0.398,-0.346 -0.858,-0.612 -1.355,-0.785 -0.702,-0.244 -1.421,-0.436 -2.151,-0.575 -0.856,-0.151 -1.724,-0.225 -2.593,-0.223 -1.133,-10e-4 -2.26,0.171 -3.342,0.51 z m -78.406,6.851 c -0.497,-0.507 -0.762,-1.199 -0.73,-1.909 -0.027,-0.588 0.172,-1.163 0.556,-1.609 0.418,-0.435 1.008,-0.659 1.609,-0.613 0.792,-0.005 1.575,0.174 2.286,0.523 0.704,0.346 1.33,0.83 1.841,1.424 v 2.906 h -3.078 c -1.162,0 -1.992,-0.236 -2.484,-0.722 z m -1.903,-6.973 c -0.669,0.245 -1.282,0.623 -1.801,1.112 -0.491,0.48 -0.885,1.05 -1.162,1.679 -0.288,0.691 -0.432,1.435 -0.421,2.184 -0.066,1.656 0.644,3.248 1.922,4.304 1.271,1.047 3.233,1.571 5.887,1.57 h 3.04 v 1.271 c 0,0.862 -0.243,1.475 -0.76,1.833 -0.646,0.406 -1.403,0.598 -2.164,0.549 -0.942,0 -1.875,-0.182 -2.748,-0.536 -0.829,-0.311 -1.623,-0.707 -2.369,-1.181 -0.352,-0.224 -0.607,-0.288 -0.786,-0.172 -0.192,0.096 -0.274,0.307 -0.274,0.658 v 3.142 c 1.008,0.435 2.065,0.746 3.148,0.925 1.099,0.206 2.214,0.315 3.333,0.326 2.35,0 4.157,-0.453 5.447,-1.347 1.27,-0.913 1.904,-2.311 1.902,-4.195 v -11.961 h -4.636 v 1.833 c -0.625,-0.785 -1.432,-1.405 -2.351,-1.807 -0.917,-0.378 -1.9,-0.573 -2.893,-0.575 -0.788,-0.004 -1.57,0.127 -2.314,0.388"
             style="fill:#715deb;fill-opacity:1;fill-rule:nonzero;stroke:none"
             id="path22" /></g></g></g></g></svg>
