<?xml version="1.0" encoding="UTF-8" standalone="no"?>
<svg
   xmlns:dc="http://purl.org/dc/elements/1.1/"
   xmlns:cc="http://creativecommons.org/ns#"
   xmlns:rdf="http://www.w3.org/1999/02/22-rdf-syntax-ns#"
   xmlns:svg="http://www.w3.org/2000/svg"
   xmlns="http://www.w3.org/2000/svg"
   xmlns:sodipodi="http://sodipodi.sourceforge.net/DTD/sodipodi-0.dtd"
   xmlns:inkscape="http://www.inkscape.org/namespaces/inkscape"
   version="1.1"
   id="svg2"
   xml:space="preserve"
   width="256"
   height="128"
   viewBox="0 0 256 128"
   sodipodi:docname="삼성화재.ai"><metadata
     id="metadata8"><rdf:RDF><cc:Work
         rdf:about=""><dc:format>image/svg+xml</dc:format><dc:type
           rdf:resource="http://purl.org/dc/dcmitype/StillImage" /></cc:Work></rdf:RDF></metadata><defs
     id="defs6"><clipPath
       clipPathUnits="userSpaceOnUse"
       id="clipPath18"><path
         d="M 0,96 H 192 V 0 H 0 Z"
         id="path16" /></clipPath></defs><sodipodi:namedview
     pagecolor="#ffffff"
     bordercolor="#666666"
     borderopacity="1"
     objecttolerance="10"
     gridtolerance="10"
     guidetolerance="10"
     inkscape:pageopacity="0"
     inkscape:pageshadow="2"
     inkscape:window-width="640"
     inkscape:window-height="480"
     id="namedview4" /><g
     id="g10"
     inkscape:groupmode="layer"
     inkscape:label="삼성화재"
     transform="matrix(1.3333333,0,0,-1.3333333,0,128)"><g
       id="g12"><g
         id="g14"
         clip-path="url(#clipPath18)"><g
           id="g20"
           transform="translate(77.1727,42.951)"><path
             d="M 0,0 H -3.825 L -6.391,8.431 H -6.435 L -6.296,0 h -2.663 v 10.539 h 3.991 l 2.367,-8.102 h 0.056 l -0.139,8.102 h 2.685 z m -11.84,2.925 c 0.002,-0.201 -0.018,-0.599 -0.029,-0.705 -0.164,-1.751 -1.418,-2.641 -3.717,-2.641 -2.315,0 -3.567,0.89 -3.729,2.641 -0.011,0.106 -0.037,0.504 -0.029,0.703 v 7.618 h 2.748 V 2.683 c 0,-0.177 0.008,-0.306 0.028,-0.394 0.03,-0.18 0.206,-0.752 0.982,-0.752 0.769,0 0.943,0.572 0.983,0.747 0.013,0.093 0.026,0.229 0.026,0.399 v 7.858 h 2.737 z m -9.954,-0.97 c -0.288,-2.061 -2.312,-2.42 -3.741,-2.42 -2.366,0 -3.834,1.015 -3.834,3.075 v 0.843 h 2.875 V 2.402 c 0,-0.573 0.399,-0.919 1.021,-0.919 0.556,0 0.877,0.229 0.99,0.681 0.048,0.213 0.073,0.522 -0.018,0.757 -0.529,1.324 -4.263,1.969 -4.717,4.12 -0.104,0.486 -0.113,0.902 -0.023,1.422 0.313,1.949 2.178,2.355 3.685,2.355 1.347,0 2.328,-0.295 2.913,-0.887 0.442,-0.434 0.659,-1.038 0.659,-1.785 v -0.77 h -2.686 v 0.676 c 0,0.582 -0.357,0.917 -0.94,0.917 -0.507,0 -0.817,-0.229 -0.916,-0.677 -0.028,-0.095 -0.047,-0.318 0.009,-0.534 0.284,-1.181 4.276,-1.903 4.714,-4.076 0.057,-0.276 0.135,-0.868 0.009,-1.727 m -12.805,-2.061 -0.07,9.247 h -0.039 l -1.723,-9.247 h -2.744 l -1.717,9.247 h -0.049 l -0.061,-9.247 h -2.716 l 0.233,10.645 h 4.378 l 1.273,-7.907 h 0.062 l 1.274,7.907 h 4.376 l 0.233,-10.645 z m -14.069,0 -1.386,9.427 h -0.051 l -1.423,-9.427 h -2.928 l 1.968,10.645 h 4.776 l 1.947,-10.645 z M 23.06,13.77 c -1.356,7.833 -24.89,10.276 -52.559,5.46 -11.613,-2.023 -22.107,-5.007 -30.272,-8.361 1.256,-0.038 2.185,-0.323 2.748,-0.885 0.441,-0.441 0.672,-1.051 0.672,-1.807 V 7.402 h -2.717 v 0.684 c 0,0.566 -0.344,0.927 -0.95,0.927 -0.509,0 -0.826,-0.233 -0.927,-0.679 -0.024,-0.13 -0.035,-0.35 0.016,-0.551 0.288,-1.186 4.314,-1.919 4.751,-4.108 0.063,-0.281 0.137,-0.885 0.012,-1.746 -0.25,-1.767 -1.8,-2.454 -3.775,-2.454 -2.76,0 -3.877,1.311 -3.877,3.108 l 0.006,0.856 h 2.899 l 0.011,-1.062 c 0,-0.599 0.428,-0.929 1.019,-0.929 0.559,0 0.884,0.229 1,0.686 0.051,0.215 0.081,0.523 -0.02,0.765 -0.54,1.351 -4.297,1.978 -4.763,4.16 -0.106,0.495 -0.113,0.912 -0.027,1.439 0.049,0.284 0.138,0.531 0.24,0.754 -9.059,-4.238 -14.36,-8.899 -13.658,-12.929 1.361,-7.83 24.893,-10.271 52.552,-5.454 12.158,2.116 23.093,5.29 31.417,8.838 C 6.737,-0.301 6.616,-0.315 6.491,-0.315 4.6,-0.315 2.912,0.393 2.734,2.329 2.709,2.686 2.697,2.832 2.697,3.034 v 4.449 c 0,0.189 0.025,0.525 0.046,0.7 0.223,1.868 1.704,2.64 3.758,2.64 1.582,0 3.525,-0.453 3.734,-2.642 0.031,-0.273 0.031,-0.567 0.031,-0.666 V 7.094 H 7.527 V 7.72 7.726 c 0,0.011 -0.009,0.245 -0.034,0.393 -0.049,0.222 -0.241,0.74 -1.02,0.74 -0.772,0 -0.969,-0.518 -1.02,-0.74 C 5.425,7.996 5.407,7.818 5.407,7.627 V 2.791 c 0,-0.169 0.01,-0.298 0.03,-0.398 0.009,-0.076 0.147,-0.74 1.045,-0.74 0.894,0 1.029,0.664 1.045,0.74 0.02,0.134 0.025,0.29 0.02,0.398 V 4.287 H 6.469 v 1.612 h 3.812 V 3.034 c 0,-0.199 -0.002,-0.34 -0.04,-0.705 -0.04,-0.508 -0.2,-0.934 -0.457,-1.3 8.831,4.19 13.969,8.778 13.275,12.741"
             style="fill:#004098;fill-opacity:1;fill-rule:nonzero;stroke:none"
             id="path22" /></g><g
           id="g24"
           transform="translate(159.0356,49.2985)"><path
             d="M 0,0 C 0,1.39 1.324,2.518 2.955,2.518 4.591,2.518 5.907,1.39 5.907,0 5.907,-1.399 4.591,-2.523 2.955,-2.523 1.324,-2.523 0,-1.399 0,0 m 4.265,-4.551 c 2.432,0.497 4.241,2.345 4.241,4.551 0,2.582 -2.483,4.681 -5.551,4.681 -3.066,0 -5.547,-2.099 -5.547,-4.681 0,-2.167 1.738,-3.979 4.1,-4.519 v -1.785 h -4.42 v -2.31 H 8.79 v 2.205 H 4.265 Z M 30.203,9.705 V 1.94 h -1.326 v 7.765 h -2.648 v -21.741 h 2.648 v 11.77 h 1.326 v -11.77 h 2.761 V 9.705 Z M 21.592,6.258 h 3.311 V 8.71 H 16.075 V 6.258 h 3.091 c 0,0 0.659,-10.132 -4.411,-13.554 l 1.762,-1.874 c 0,0 2.757,1.764 3.753,5.191 0,0 1.988,-4.091 3.642,-5.191 l 1.873,1.874 c 0,0 -4.494,2.776 -4.193,13.554 M 15.189,1.39 H 12.544 V 9.705 H 9.896 v -21.741 h 2.648 v 11.22 h 2.645 z M 8.345,7.94 H 4.374 V 9.871 H 1.508 V 8.048 H -2.798 V 5.73 H 8.345 Z m -20.524,-18.216 c -2.5,0 -4.528,1.383 -4.528,3.093 0,1.707 2.028,3.092 4.528,3.092 2.496,0 4.521,-1.385 4.521,-3.092 0,-1.71 -2.025,-3.093 -4.521,-3.093 m 0,8.611 c -4.025,0 -7.288,-2.473 -7.288,-5.518 0,-3.049 3.263,-5.517 7.288,-5.517 4.023,0 7.282,2.468 7.282,5.517 0,3.045 -3.259,5.518 -7.282,5.518 m 4.083,0 h 2.978 v 11.37 h -2.978 v -3.64 h -3.425 V 3.522 h 3.425 z m -26.496,-3.311 h 7.621 V -9.5 h -7.621 z m -2.754,-7.06 h 13.245 v 9.49 h -13.245 z m 13.133,15.558 h 2.316 v 2.543 h -2.316 V 9.76 h -2.761 V -1.441 h 2.761 z m 7.838,0 c 0,0 2.1,-3.968 4.196,-4.637 l 1.541,1.55 c 0,0 -4.522,2.815 -4.299,8.886 h -2.876 c 0,0 0.664,-5.906 -4.409,-8.773 l 1.539,-1.772 c 0,0 2.982,1.659 4.308,4.746 m -18.54,0 c 0,0 2.096,-3.968 4.187,-4.637 l 1.548,1.55 c 0,0 -4.527,2.815 -4.305,8.886 h -2.866 c 0,0 0.657,-5.906 -4.416,-8.773 l 1.541,-1.772 c 0,0 2.979,1.659 4.311,4.746"
             style="fill:#004098;fill-opacity:1;fill-rule:nonzero;stroke:none"
             id="path26" /></g></g></g></g></svg>
