<?xml version="1.0" encoding="UTF-8" standalone="no"?>
<svg
   xmlns:dc="http://purl.org/dc/elements/1.1/"
   xmlns:cc="http://creativecommons.org/ns#"
   xmlns:rdf="http://www.w3.org/1999/02/22-rdf-syntax-ns#"
   xmlns:svg="http://www.w3.org/2000/svg"
   xmlns="http://www.w3.org/2000/svg"
   xmlns:sodipodi="http://sodipodi.sourceforge.net/DTD/sodipodi-0.dtd"
   xmlns:inkscape="http://www.inkscape.org/namespaces/inkscape"
   version="1.1"
   id="svg2"
   xml:space="preserve"
   width="256"
   height="128"
   viewBox="0 0 256 128"
   sodipodi:docname="삼성생명.ai"><metadata
     id="metadata8"><rdf:RDF><cc:Work
         rdf:about=""><dc:format>image/svg+xml</dc:format><dc:type
           rdf:resource="http://purl.org/dc/dcmitype/StillImage" /></cc:Work></rdf:RDF></metadata><defs
     id="defs6"><clipPath
       clipPathUnits="userSpaceOnUse"
       id="clipPath24"><path
         d="M 0,96 H 192 V 0 H 0 Z"
         id="path22" /></clipPath></defs><sodipodi:namedview
     pagecolor="#ffffff"
     bordercolor="#666666"
     borderopacity="1"
     objecttolerance="10"
     gridtolerance="10"
     guidetolerance="10"
     inkscape:pageopacity="0"
     inkscape:pageshadow="2"
     inkscape:window-width="640"
     inkscape:window-height="480"
     id="namedview4" /><g
     id="g10"
     inkscape:groupmode="layer"
     inkscape:label="삼성생명"
     transform="matrix(1.3333333,0,0,-1.3333333,0,128)"><g
       id="g12"
       transform="translate(18.3578,54.1396)"><path
         d="M 0,0 H -2.291 V 4.337 H -4.997 V -6.669 h 2.706 v 4.413 H 0 Z"
         style="fill:#2347a3;fill-opacity:1;fill-rule:nonzero;stroke:none"
         id="path14" /></g><path
       d="m 5.944,44.368 h 7.522 V 39.745 H 5.944 Z M 3.355,37.559 h 12.712 v 9.006 H 3.355 Z"
       style="fill:#2347a3;fill-opacity:1;fill-rule:nonzero;stroke:none"
       id="path16" /><g
       id="g18"><g
         id="g20"
         clip-path="url(#clipPath24)"><g
           id="g26"
           transform="translate(5.7277,52.62)"><path
             d="m 0,0 c 0.795,-2.548 4.325,-4.874 4.325,-4.874 l 1.397,1.905 C 0.894,-0.497 1.257,5.459 1.257,5.459 h -2.514 c 0,0 0.357,-5.956 -4.471,-8.428 l 1.397,-1.905 c 0,0 3.524,2.326 4.331,4.874"
             style="fill:#2347a3;fill-opacity:1;fill-rule:nonzero;stroke:none"
             id="path28" /></g><g
           id="g30"
           transform="translate(31.6716,47.471)"><path
             d="M 0,0 H 2.659 V 11.005 H -0.047 V 6.657 H -3.442 V 4.413 H 0 Z"
             style="fill:#2347a3;fill-opacity:1;fill-rule:nonzero;stroke:none"
             id="path32" /></g><g
           id="g34"
           transform="translate(27.6798,39.236)"><path
             d="m 0,0 c -2.431,0 -4.378,1.274 -4.378,2.852 0,1.566 1.947,2.846 4.378,2.846 2.414,0 4.372,-1.28 4.372,-2.846 C 4.372,1.274 2.414,0 0,0 m 0,7.943 c -3.904,0 -7.054,-2.28 -7.054,-5.091 0,-2.823 3.15,-5.102 7.054,-5.102 3.887,0 7.037,2.279 7.037,5.102 0,2.811 -3.15,5.091 -7.037,5.091"
             style="fill:#2347a3;fill-opacity:1;fill-rule:nonzero;stroke:none"
             id="path36" /></g><g
           id="g38"
           transform="translate(23.6588,52.62)"><path
             d="m 0,0 c 0.795,-2.548 4.027,-4.687 4.027,-4.687 l 1.397,1.923 C 0.894,-0.497 1.239,5.459 1.239,5.459 h -2.501 c 0,0 0.362,-5.956 -4.168,-8.223 l 1.391,-1.923 c 0,0 3.238,2.139 4.039,4.687"
             style="fill:#2347a3;fill-opacity:1;fill-rule:nonzero;stroke:none"
             id="path40" /></g><g
           id="g42"
           transform="translate(45.4765,39.236)"><path
             d="m 0,0 c -2.414,0 -4.378,1.274 -4.378,2.852 0,1.566 1.964,2.846 4.378,2.846 2.431,0 4.378,-1.28 4.378,-2.846 C 4.378,1.274 2.431,0 0,0 m 0,7.943 c -3.887,0 -7.049,-2.28 -7.049,-5.091 0,-2.823 3.162,-5.102 7.049,-5.102 3.904,0 7.049,2.279 7.049,5.102 0,2.811 -3.145,5.091 -7.049,5.091"
             style="fill:#2347a3;fill-opacity:1;fill-rule:nonzero;stroke:none"
             id="path44" /></g><g
           id="g46"
           transform="translate(49.0592,51.8836)"><path
             d="M 0,0 H 0.655 V -4.413 H 3.127 V 6.593 H 0.602 V 2.244 H 0.053 V 6.593 H -2.373 V -4.413 H 0 Z"
             style="fill:#2347a3;fill-opacity:1;fill-rule:nonzero;stroke:none"
             id="path48" /></g><g
           id="g50"
           transform="translate(40.8125,52.62)"><path
             d="m 0,0 c 0.76,-2.548 3.869,-4.687 3.869,-4.687 l 1.315,1.923 C 0.847,-0.497 1.186,5.459 1.186,5.459 h -2.39 c 0,0 0.339,-5.956 -3.998,-8.223 l 1.327,-1.923 c 0,0 3.104,2.139 3.875,4.687"
             style="fill:#2347a3;fill-opacity:1;fill-rule:nonzero;stroke:none"
             id="path52" /></g><path
           d="m 57.733,55.846 h 4.36 v -5.015 h -4.36 z m -2.508,-7.288 h 9.369 v 9.31 h -9.369 z"
           style="fill:#2347a3;fill-opacity:1;fill-rule:nonzero;stroke:none"
           id="path54" /><g
           id="g56"
           transform="translate(67.3293,47.471)"><path
             d="M 0,0 H 2.572 V 11.005 H -0.047 V 8.919 H -2.133 V 6.791 H 0 V 5.073 H -2.133 V 2.94 L 0,2.94 Z"
             style="fill:#2347a3;fill-opacity:1;fill-rule:nonzero;stroke:none"
             id="path58" /></g><g
           id="g60"
           transform="translate(63.2147,39.236)"><path
             d="m 0,0 c -2.425,0 -4.383,1.274 -4.383,2.852 0,1.566 1.958,2.846 4.383,2.846 2.42,0 4.383,-1.28 4.383,-2.846 C 4.383,1.274 2.42,0 0,0 m 0,7.943 c -3.898,0 -7.043,-2.28 -7.043,-5.091 0,-2.823 3.145,-5.102 7.043,-5.102 3.892,0 7.049,2.279 7.049,5.102 0,2.811 -3.157,5.091 -7.049,5.091"
             style="fill:#2347a3;fill-opacity:1;fill-rule:nonzero;stroke:none"
             id="path62" /></g><g
           id="g64"
           transform="translate(168.0777,42.9298)"><path
             d="M 0,0 H -3.746 L -6.382,8.697 -6.236,0 h -2.572 v 10.357 h 3.905 L -2.46,1.929 -2.606,10.357 H 0 L 0,0 m -11.707,2.852 c 0,-0.199 -0.012,-0.59 -0.023,-0.695 -0.187,-1.947 -1.718,-2.578 -3.647,-2.578 -1.929,0 -3.478,0.631 -3.653,2.578 -0.012,0.105 -0.029,0.496 -0.029,0.695 v 7.505 h 2.648 V 2.613 c 0,-0.129 0,-0.287 0.023,-0.398 0.053,-0.263 0.275,-0.76 1.011,-0.76 0.719,0 0.947,0.497 0.999,0.76 0.024,0.111 0.024,0.269 0.024,0.398 v 7.744 h 2.647 z m -9.842,-0.953 c -0.24,-1.724 -1.794,-2.367 -3.664,-2.367 -1.947,0 -3.764,0.696 -3.764,3.016 v 0.795 h 2.782 V 2.338 c 0,-0.573 0.397,-0.947 1.046,-0.947 0.684,0 0.917,0.368 1.005,0.701 0.07,0.199 0.082,0.521 -0.023,0.772 -0.532,1.338 -4.22,1.946 -4.664,4.068 -0.105,0.514 -0.094,0.935 -0.024,1.402 0.269,1.684 1.783,2.291 3.618,2.291 1.473,0 3.495,-0.356 3.495,-2.606 V 7.282 h -2.577 v 0.655 c 0,0.561 -0.357,0.929 -0.97,0.929 -0.649,0 -0.871,-0.356 -0.947,-0.689 -0.029,-0.117 -0.029,-0.345 0.017,-0.544 0.281,-1.216 4.226,-1.859 4.653,-4.033 0.052,-0.216 0.146,-0.8 0.017,-1.701 m -12.601,-2.004 -0.07,9.69 -1.8,-9.69 h -2.648 l -1.811,9.69 -0.065,-9.69 h -2.606 l 0.21,10.462 h 4.272 l 1.315,-8.177 1.327,8.177 h 4.261 l 0.234,-10.462 z m -13.898,0 -1.444,9.69 -1.455,-9.69 h -2.835 l 1.952,10.462 h 4.647 l 1.934,-10.462 z m 71.911,13.974 c -1.402,7.908 -25.149,10.368 -53.051,5.512 -12.191,-2.128 -23.191,-5.301 -31.578,-8.867 0.462,0.111 0.97,0.17 1.508,0.17 1.485,0 3.524,-0.351 3.524,-2.642 v -0.73 h -2.601 V 7.96 c 0,0.573 -0.344,0.947 -0.97,0.947 -0.66,0 -0.894,-0.374 -0.97,-0.701 -0.017,-0.117 -0.029,-0.339 0.018,-0.55 0.298,-1.227 4.289,-1.882 4.71,-4.067 0.041,-0.223 0.135,-0.819 0.012,-1.719 -0.251,-1.741 -1.817,-2.396 -3.694,-2.396 -1.952,0 -3.81,0.707 -3.81,3.045 v 0.807 h 2.805 V 2.309 c 0,-0.567 0.409,-0.941 1.058,-0.941 0.707,0 0.929,0.35 1.023,0.689 0.047,0.205 0.076,0.538 -0.029,0.783 -0.538,1.362 -4.249,1.97 -4.711,4.115 -0.111,0.532 -0.094,0.935 -0.023,1.403 0.122,0.76 0.502,1.286 1.034,1.66 -10.105,-4.46 -16.09,-9.463 -15.342,-13.753 1.374,-7.896 25.108,-10.368 53.01,-5.499 12.478,2.168 23.647,5.423 32.099,9.082 C 7.423,-0.257 6.95,-0.316 6.459,-0.316 4.6,-0.316 2.946,0.362 2.765,2.279 2.741,2.618 2.736,2.764 2.736,2.963 v 4.401 c 0,0.187 0.023,0.52 0.041,0.678 0.239,1.958 1.823,2.589 3.682,2.589 1.846,0 3.471,-0.613 3.67,-2.589 0.029,-0.327 0.023,-0.678 0.023,-0.678 L 10.158,7.008 H 7.505 v 0.596 c 0,0 0,0.245 -0.029,0.386 C 7.423,8.229 7.236,8.749 6.43,8.749 5.676,8.749 5.448,8.258 5.389,7.99 5.36,7.855 5.348,7.68 5.348,7.499 V 2.724 c 0,-0.129 0,-0.281 0.024,-0.398 0.046,-0.28 0.315,-0.765 1.087,-0.765 0.742,0 1.005,0.485 1.046,0.765 C 7.534,2.443 7.54,2.595 7.54,2.724 V 4.243 H 6.465 v 1.52 h 3.699 v -2.8 c 0,-0.199 0,-0.345 -0.035,-0.684 C 10.047,1.391 9.638,0.771 9.065,0.362 18.808,4.763 24.571,9.661 23.864,13.869 Z"
             style="fill:#2347a3;fill-opacity:1;fill-rule:nonzero;stroke:none"
             id="path66" /></g></g></g></g></svg>
